<svg width="248" height="136" viewBox="0 0 248 136" fill="none" xmlns="http://www.w3.org/2000/svg">
<g id="cars">
<g id="Floor">
<path id="Vector" d="M0 135.45C81.1865 135.21 172.26 135.21 253.454 135.45C172.268 135.685 81.1942 135.685 0 135.45Z" fill="#263238"/>
</g>
<g id="traffic-light">
<path id="Vector_2" d="M70.3181 124.195H67.2118L68.0038 57.9414L68.0695 52.4242H69.4566L69.5222 57.9414L70.3181 124.195Z" fill="#FFC727"/>
<path id="Vector_3" opacity="0.1" d="M69.5222 57.9414H68.0038L68.0695 52.4242H69.4565L69.5222 57.9414Z" fill="black"/>
<path id="Vector_4" d="M63.1974 38.6736L64.0706 54.2208L65.0983 54.387L66.0294 54.5338V37.7463L64.0474 38.3954L63.1974 38.6736Z" fill="#FFC727"/>
<path id="Vector_5" d="M64.1634 40.4894C64.1634 40.4894 60.3771 40.528 60.4544 40.7405C60.5316 40.953 62.0578 41.3742 62.193 41.4708C62.3282 41.5674 63.7771 44.3299 64.1634 44.3299C64.5498 44.3299 64.1634 40.4894 64.1634 40.4894Z" fill="#FFC727"/>
<path id="Vector_6" d="M64.4415 44.8901C64.4415 44.8901 60.6552 44.9287 60.7324 45.1412C60.8097 45.3537 62.3358 45.7787 62.4711 45.8753C62.6063 45.9719 64.0551 48.7344 64.4415 48.7344C64.8279 48.7344 64.4415 44.8901 64.4415 44.8901Z" fill="#FFC727"/>
<path id="Vector_7" d="M64.7197 49.2908C64.7197 49.2908 60.9372 49.3294 61.0145 49.5419C61.0917 49.7544 62.614 50.1794 62.7492 50.276C62.8845 50.3726 64.3333 53.1351 64.7197 53.1351C65.1061 53.1351 64.7197 49.2908 64.7197 49.2908Z" fill="#FFC727"/>
<path id="Vector_8" opacity="0.1" d="M64.0474 38.3954L65.0983 54.387L66.0294 54.5338V37.7463L64.0474 38.3954Z" fill="black"/>
<path id="Vector_9" d="M74.3285 38.6736L73.4515 54.2208L72.4276 54.387L71.4926 54.5338V37.7463L73.4785 38.3954L74.3285 38.6736Z" fill="#FFC727"/>
<path id="Vector_10" d="M73.3626 40.4894C73.3626 40.4894 77.1451 40.528 77.0678 40.7405C76.9905 40.953 75.4644 41.3742 75.3292 41.4708C75.1939 41.5674 73.7489 44.3299 73.3626 44.3299C72.9762 44.3299 73.3626 40.4894 73.3626 40.4894Z" fill="#FFC727"/>
<path id="Vector_11" d="M73.0805 44.8901C73.0805 44.8901 76.8669 44.9287 76.7896 45.1412C76.7123 45.3537 75.1862 45.7787 75.051 45.8753C74.9158 45.9719 73.4669 48.7344 73.0805 48.7344C72.6942 48.7344 73.0805 44.8901 73.0805 44.8901Z" fill="#FFC727"/>
<path id="Vector_12" d="M72.8025 49.2908C72.8025 49.2908 76.5888 49.3294 76.5115 49.5419C76.4343 49.7544 74.9081 50.1794 74.7729 50.276C74.6377 50.3726 73.1888 53.1351 72.8025 53.1351C72.4161 53.1351 72.8025 49.2908 72.8025 49.2908Z" fill="#FFC727"/>
<path id="Vector_13" opacity="0.1" d="M73.4785 38.3954L72.4276 54.387L71.4926 54.5338V37.7463L73.4785 38.3954Z" fill="black"/>
<path id="Vector_14" d="M72.3157 36.4791L72.0066 54.9125H65.5195L65.2104 36.4791H72.3157Z" fill="#FFC727"/>
<path id="Vector_15" d="M71.0908 39.7515C71.0908 40.21 70.9548 40.6582 70.7001 41.0394C70.4454 41.4206 70.0833 41.7177 69.6597 41.8932C69.2361 42.0686 68.77 42.1145 68.3203 42.0251C67.8706 41.9357 67.4576 41.7149 67.1334 41.3907C66.8092 41.0665 66.5884 40.6534 66.499 40.2037C66.4095 39.754 66.4554 39.2879 66.6309 38.8643C66.8063 38.4407 67.1035 38.0787 67.4847 37.824C67.8659 37.5692 68.3141 37.4333 68.7726 37.4333C69.3874 37.4333 69.977 37.6775 70.4118 38.1123C70.8465 38.547 71.0908 39.1366 71.0908 39.7515Z" fill="#DB6A57"/>
<path id="Vector_16" d="M71.0908 51.4389C71.0908 51.8974 70.9548 52.3456 70.7001 52.7268C70.4454 53.108 70.0833 53.4052 69.6597 53.5806C69.2361 53.7561 68.77 53.802 68.3203 53.7125C67.8706 53.6231 67.4576 53.4023 67.1334 53.0781C66.8092 52.7539 66.5884 52.3408 66.499 51.8912C66.4095 51.4415 66.4554 50.9754 66.6309 50.5518C66.8063 50.1282 67.1035 49.7661 67.4847 49.5114C67.8659 49.2567 68.3141 49.1207 68.7726 49.1207C69.3874 49.1207 69.977 49.365 70.4118 49.7997C70.8465 50.2344 71.0908 50.8241 71.0908 51.4389Z" fill="white"/>
<path id="Vector_17" d="M71.0908 45.6435C71.0908 46.102 70.9548 46.5502 70.7001 46.9314C70.4454 47.3126 70.0833 47.6098 69.6597 47.7852C69.2361 47.9607 68.77 48.0066 68.3203 47.9171C67.8706 47.8277 67.4576 47.6069 67.1334 47.2827C66.8092 46.9585 66.5884 46.5454 66.499 46.0958C66.4095 45.6461 66.4554 45.18 66.6309 44.7564C66.8063 44.3328 67.1035 43.9707 67.4847 43.716C67.8659 43.4613 68.3141 43.3253 68.7726 43.3253C69.3874 43.3253 69.977 43.5696 70.4118 44.0043C70.8465 44.439 71.0908 45.0287 71.0908 45.6435Z" fill="white"/>
<path id="Vector_18" d="M71.2492 135.45H66.2729L66.6979 122.425L66.8293 118.384H70.5886L70.7431 122.425L71.2492 135.45Z" fill="#FFC727"/>
<path id="Vector_19" opacity="0.1" d="M70.7431 122.425H66.6979L66.8292 118.384H70.5885L70.7431 122.425Z" fill="black"/>
</g>
<g id="Crash">
<g id="Group" opacity="0.5">
<path id="Vector_20" d="M95.8375 115.908C98.3527 117.693 112.582 107.176 115.252 105.151C117.922 103.127 116.025 95.7201 112.837 94.3099C109.65 92.8997 106.949 91.3001 106.308 87.3554C105.667 83.4106 106.721 81.3435 109.669 80.3622C112.617 79.3808 118.455 77.6576 117.145 71.414C115.836 65.1704 109.032 66.5961 105.338 65.3867C101.645 64.1774 97.5413 62.3654 97.8272 58.1386C98.1131 53.9118 102.077 54.5106 108.352 54.3097C114.626 54.1088 119.17 43.5379 119.661 40.4006C120.151 37.2634 119.409 30.4827 115.936 30.2316C112.463 29.9804 110.098 34.9104 107.981 33.0481C105.864 31.1859 111.844 29.3738 111.759 27.0595C111.674 24.7452 109.592 22.6936 107.177 24.3936C104.762 26.0936 100.381 28.0679 98.4145 24.8457C96.4479 21.6234 98.4647 18.3509 101.084 17.3966C103.704 16.4423 107.328 15.9361 107.981 12.8143C108.634 9.69249 104.156 5.76704 106.018 2.3825C107.88 -1.00204 110.701 0.620688 110.701 0.620688C110.701 0.620688 107.378 -1.04067 105.315 1.07273C103.252 3.18614 107.077 9.57272 104.708 11.3925C102.34 13.2123 94.0872 12.7525 91.4677 15.5729C88.8481 18.3934 85.4791 22.8713 87.7432 26.5959C90.0072 30.3204 96.1002 30.7763 98.515 30.7763C100.93 30.7763 103.097 29.6675 103.955 30.1234C104.813 30.5793 103.603 31.9354 101.486 32.7893C99.3688 33.6431 94.7402 37.4256 98.0088 40.5436C101.277 43.6615 106.466 39.7361 108.533 38.7316C110.6 37.727 108.533 49.7545 102.993 50.6624C97.4525 51.5704 94.7363 47.5406 91.2629 48.1974C87.7895 48.8543 83.1493 54.6381 85.7688 61.4883C88.3884 68.3386 101.482 70.3747 102.641 72.3258C103.8 74.277 103.414 76.3556 101.617 77.3485C99.8209 78.3415 90.5095 79.2804 88.0947 86.4667C85.68 93.6531 85.3863 108.493 95.8375 115.908Z" fill="#DBDBDB"/>
<path id="Vector_21" d="M113.769 104.498C116.276 103.165 117.184 99.4756 116.531 96.8212C116.403 96.1828 116.099 95.5927 115.654 95.1174C113.541 93.3092 109.905 93.1547 108.414 90.3613C107.547 88.7759 107.273 86.9337 107.641 85.1647C108.116 83.0667 110.148 81.6874 112.092 81.2431C113.695 80.9495 115.279 80.4974 116.512 79.3847C119.023 77.2674 119.796 73.6433 119.127 70.4983C118.997 69.7106 118.694 68.9615 118.239 68.3049C117.785 67.6482 117.191 67.1003 116.5 66.7004C115.098 65.8581 113.39 65.4679 111.705 64.9965C110.021 64.5252 108 64.0654 106.969 62.4079C105.867 60.6963 106.845 58.4477 108.421 57.4547C109.177 56.9475 110.027 56.5979 110.921 56.427C111.79 56.2608 112.636 56.2608 113.44 55.8861C116.62 54.4102 118.223 50.8093 119.209 47.6102C118.304 50.9097 116.825 54.5647 113.583 56.2067C112.81 56.6163 111.852 56.6704 111.014 56.852C110.191 57.0398 109.415 57.3906 108.73 57.8836C106.412 59.5565 106.675 62.489 109.464 63.4163C111.949 64.3667 114.584 64.4517 117.033 65.777C117.873 66.2359 118.603 66.871 119.174 67.6386C119.744 68.4062 120.143 69.2881 120.341 70.224C121.735 75.6717 118.969 81.699 113.139 82.8233C110.531 83.3333 108.858 85.0294 109.634 87.7726C109.767 88.3114 109.968 88.8309 110.233 89.3181C110.689 90.0676 111.392 90.4772 112.273 90.906C114.364 91.814 117.157 92.3935 118.343 94.7117C119.103 96.3239 119.426 98.1072 119.281 99.8834C119.136 101.66 118.527 103.367 117.516 104.834C116.893 105.71 116.093 106.444 115.167 106.99L113.769 104.506V104.498Z" fill="#DBDBDB"/>
<path id="Vector_22" d="M93.1947 117.507C86.4025 110.908 80.9161 101.601 82.1679 91.8178C82.7707 87.8112 84.3277 83.8664 87.0516 80.876C89.3466 78.5849 92.3834 77.306 95.37 76.2589C96.0724 76.0336 96.7613 75.7679 97.4331 75.463C98.2909 75.0342 98.4725 73.5042 97.6147 72.998C92.5572 70.1312 84.2929 67.9753 83.6013 61.1483C84.6561 67.8826 92.9552 69.4821 98.1286 72.0824C99.7513 72.9555 99.5465 75.5596 98.0165 76.4212C97.2949 76.7868 96.5517 77.1081 95.7911 77.3833C93.697 78.2062 91.5797 79.1567 89.7986 80.4973C88.6244 81.3453 87.6422 82.4314 86.9163 83.6848C85.3847 86.2262 84.4305 89.0733 84.1214 92.0244C83.8123 94.9755 84.1557 97.9585 85.1275 100.762C87.0168 106.368 90.6988 111.403 95.0686 115.359L93.1947 117.507Z" fill="#DBDBDB"/>
</g>
<path id="Vector_23" d="M105.021 94.4489L116.118 102.787L102.243 100.353L101.946 111.325L97.9161 101.28L90.8224 111.02L93.7511 100.507L80.4795 102.798L92.3602 96.4889L84.3972 94.8353L93.0363 93.4521L84.1499 83.113L96.2045 88.8042L97.8967 74.5087L101.057 88.0508C101.057 88.0508 111.018 79.8792 110.716 80.1071C110.415 80.3351 103.87 90.5969 103.87 90.5969L114.688 87.4867L105.021 94.4489Z" fill="#FFC727"/>
<path id="Vector_24" opacity="0.4" d="M105.021 94.4489L116.118 102.787L102.243 100.353L101.946 111.325L97.9161 101.28L90.8224 111.02L93.7511 100.507L80.4795 102.798L92.3602 96.4889L84.3972 94.8353L93.0363 93.4521L84.1499 83.113L96.2045 88.8042L97.8967 74.5087L101.057 88.0508C101.057 88.0508 111.018 79.8792 110.716 80.1071C110.415 80.3351 103.87 90.5969 103.87 90.5969L114.688 87.4867L105.021 94.4489Z" fill="white"/>
<path id="Vector_25" opacity="0.4" d="M103.159 94.4297L110.937 100.275L101.227 98.5753L101.019 106.276L98.1943 99.2167L93.218 106.048L95.2734 98.6874L86.0471 100.932L94.2959 95.8708L88.713 94.7117L94.7673 93.7419L88.5352 86.4938L97.0005 90.4617L98.1866 80.4395L100.4 89.9324C100.4 89.9324 107.382 84.2026 107.162 84.3649C106.942 84.5272 102.363 91.7058 102.363 91.7058L109.936 89.5267L103.159 94.4297Z" fill="white"/>
</g>
<g id="car-1">
<path id="Vector_26" d="M14.5814 107.481H9.80593C7.40538 107.481 5.45935 109.427 5.45935 111.828V131.223C5.45935 133.624 7.40538 135.57 9.80593 135.57H14.5814C16.9819 135.57 18.928 133.624 18.928 131.223V111.828C18.928 109.427 16.9819 107.481 14.5814 107.481Z" fill="#263238"/>
<path id="Vector_27" d="M86.4962 134.881L91.2458 135.377C93.6333 135.627 95.7712 133.894 96.0209 131.507L98.0381 112.216C98.2878 109.829 96.5547 107.691 94.1672 107.441L89.4177 106.944C87.0301 106.695 84.8922 108.428 84.6426 110.815L82.6253 130.106C82.3756 132.493 84.1087 134.631 86.4962 134.881Z" fill="#263238"/>
<path id="Vector_28" d="M18.0509 86.9265C18.0509 86.9265 16.2118 86.0726 15.9491 85.6206C15.6864 85.1685 14.5427 83.2753 14.1177 83.1865C12.5259 82.8542 8.1407 82.8465 6.63774 83.5728C5.81865 83.9592 6.54115 87.2085 7.2482 87.989C7.95524 88.7694 13.2291 89.1287 14.0907 88.9935C14.6921 88.8359 15.2263 88.4875 15.613 88.0006L17.6916 88.669L18.0509 86.9265Z" fill="#455A64"/>
<path id="Vector_29" d="M18.6614 84.5928C18.6614 84.5928 17.2319 84.7435 16.8764 85.0255C16.521 85.3076 15.331 87.6567 15.3851 88.4835C15.4392 89.3103 16.2621 90.1951 16.2621 90.1951L18.6614 84.5928Z" fill="#455A64"/>
<path id="Vector_30" opacity="0.1" d="M18.6614 84.5928C18.6614 84.5928 17.2319 84.7435 16.8764 85.0255C16.521 85.3076 15.331 87.6567 15.3851 88.4835C15.4392 89.3103 16.2621 90.1951 16.2621 90.1951L18.6614 84.5928Z" fill="black"/>
<path id="Vector_31" d="M90.0498 89.9671C90.0498 89.9671 92.0782 89.9671 92.507 89.685C92.9359 89.403 94.7827 88.1589 95.2116 88.2632C96.7918 88.6496 100.764 90.5041 101.807 91.8062C102.379 92.5209 100.346 95.1366 99.3727 95.5384C98.3991 95.9403 93.4729 94.02 92.7582 93.5293C92.2806 93.1309 91.9445 92.5888 91.8 91.9839L89.6364 91.698L90.0498 89.9671Z" fill="#455A64"/>
<path id="Vector_32" d="M88.2532 88.4487C88.2532 88.4487 89.6557 88.7732 89.9725 89.0978C90.2893 89.4223 91.1702 91.8951 91.035 92.7103C90.8998 93.5255 89.957 94.3021 89.957 94.3021L88.2532 88.4487Z" fill="#455A64"/>
<path id="Vector_33" opacity="0.1" d="M88.2532 88.4487C88.2532 88.4487 89.6557 88.7732 89.9725 89.0978C90.2893 89.4223 91.1702 91.8951 91.035 92.7103C90.8998 93.5255 89.957 94.3021 89.957 94.3021L88.2532 88.4487Z" fill="black"/>
<path id="Vector_34" d="M11.2664 97.7253C11.2664 97.7253 8.08278 99.1935 7.2946 100.635C6.50642 102.076 6.63778 117.271 6.59528 118.434C6.55278 119.597 8.5271 127.271 8.91346 128.093C9.29982 128.916 15.2073 130.056 15.2073 130.056L11.2664 97.7253Z" fill="#455A64"/>
<path id="Vector_35" opacity="0.1" d="M11.2664 97.7253C11.2664 97.7253 8.08278 99.1935 7.2946 100.635C6.50642 102.076 6.63778 117.271 6.59528 118.434C6.55278 119.597 8.5271 127.271 8.91346 128.093C9.29982 128.916 15.2073 130.056 15.2073 130.056L11.2664 97.7253Z" fill="black"/>
<path id="Vector_36" d="M93.9055 100.971C93.9055 100.971 95.8181 102.957 96.131 103.756C96.2083 103.946 96.3165 105.398 96.3821 105.766C96.3821 105.766 97.1124 107.697 97.1549 108.377C97.178 108.922 95.6751 118.883 95.7485 119.918C95.8219 120.953 96.3628 121.556 96.3435 121.997C96.1938 122.442 96.0184 122.878 95.8181 123.303C95.8181 123.403 96.0383 124.303 95.9533 124.589C95.1806 127.243 94.2069 130.856 93.8746 131.412C93.4149 132.185 87.4456 132.877 87.4456 132.877L93.9055 100.971Z" fill="#455A64"/>
<g id="Group_2" opacity="0.1">
<path id="Vector_37" d="M93.9055 100.971C93.9055 100.971 95.8181 102.957 96.131 103.756C96.2083 103.946 96.3165 105.398 96.3821 105.766C96.3821 105.766 97.1124 107.697 97.1549 108.377C97.178 108.922 95.6751 118.883 95.7485 119.918C95.8219 120.953 96.3628 121.556 96.3435 121.997C96.1938 122.442 96.0184 122.878 95.8181 123.303C95.8181 123.403 96.0383 124.303 95.9533 124.589C95.1806 127.243 94.2069 130.856 93.8746 131.412C93.4149 132.185 87.4456 132.877 87.4456 132.877L93.9055 100.971Z" fill="black"/>
</g>
<path id="Vector_38" d="M94.1258 126.251C94.0833 126.637 92.5108 132.282 91.939 132.842C91.3672 133.402 80.3481 133.425 79.6604 133.402C78.9726 133.379 76.9288 132.1 76.5347 131.992C76.1406 131.884 54.0445 131.08 51.3438 130.972C48.6431 130.864 26.5547 129.936 26.1529 130.014C25.7511 130.091 23.5952 131.2 22.9191 131.173C22.2429 131.146 11.2548 130.257 10.7293 129.651C10.2039 129.044 9.07954 123.303 9.06408 122.916C9.04863 122.53 9.53158 121.127 9.54317 120.818C9.55476 120.509 10.0648 99.1819 10.1729 98.7956C10.2811 98.4092 11.2625 95.5308 11.6798 94.9319C12.097 94.3331 15.752 90.0367 15.8409 89.7663C18.2363 83.4144 24.6036 74.2383 25.5541 73.4463C26.4372 72.7186 27.5093 72.2576 28.645 72.1172C29.5645 72.0399 41.9938 72.0708 53.604 72.5267C65.2142 72.9826 77.6088 73.9292 78.5206 74.0722C79.6462 74.3011 80.6843 74.8435 81.5149 75.637C82.3958 76.5024 88.0251 86.1538 89.9183 92.6717C89.9994 92.9499 93.3144 97.4897 93.6815 98.1271C94.0485 98.7647 94.8019 101.686 94.8792 102.099C94.914 102.296 94.4349 106.936 94.1722 111.99C94.1413 112.616 94.2997 113.381 94.3151 114.011C94.3151 114.296 92.6228 117.074 92.6383 117.237C92.7078 117.928 93.7974 123.99 93.7781 124.122C93.8013 124.431 94.1722 125.853 94.1258 126.251Z" fill="#455A64"/>
<path id="Vector_39" opacity="0.1" d="M91.6067 122.352C91.6067 122.719 90.9808 125.555 90.6563 125.621C81.712 127.479 60.3577 128.495 51.4597 128.001C42.5502 127.796 21.3466 125.111 12.5723 122.557C12.2516 122.464 11.8691 119.59 11.8845 119.223C11.9 118.856 12.4255 114.803 12.8814 114.698C13.3373 114.594 22.6448 116.63 30.4841 118.002C37.5269 119.175 44.6376 119.897 51.7727 120.161C58.9054 120.458 66.0499 120.296 73.1617 119.675C81.0783 118.941 90.5172 117.623 90.9692 117.766C91.4213 117.909 91.6183 121.985 91.6067 122.352Z" fill="black"/>
<path id="Vector_40" opacity="0.5" d="M83.0681 118.601L79.7145 127.066C69.8429 127.958 57.6338 128.345 51.4443 128.001C45.2625 127.858 33.1114 126.517 23.3364 124.852L20.6589 116.151C23.6841 116.75 27.2039 117.438 30.4686 118.002C37.5165 119.176 44.6325 119.898 51.7727 120.161C58.9054 120.458 66.0499 120.296 73.1618 119.675C76.4536 119.369 80.0197 118.964 83.0681 118.601Z" fill="white"/>
<path id="Vector_41" d="M73.1579 119.675C73.1926 119.883 71.369 123.183 70.009 125.134C69.6226 125.717 67.7217 127.019 67.3045 127.097C66.8872 127.174 61.5361 128.395 51.4636 128.001C41.3911 127.607 36.179 125.965 35.7541 125.856C35.3291 125.748 33.5556 124.311 33.1963 123.689C31.9986 121.637 30.4377 118.203 30.4918 118.002C30.5459 117.801 36.7934 119.57 51.7765 120.161C66.7597 120.753 73.127 119.47 73.1579 119.675Z" fill="#263238"/>
<path id="Vector_42" d="M18.4334 119.439C18.4187 119.806 18.2954 120.16 18.0792 120.458C17.863 120.755 17.5635 120.981 17.2187 121.108C16.8739 121.235 16.4992 121.257 16.142 121.171C15.7847 121.085 15.461 120.895 15.2116 120.625C14.9623 120.355 14.7985 120.018 14.741 119.655C14.6835 119.292 14.7349 118.92 14.8887 118.586C15.0425 118.253 15.2917 117.972 15.6049 117.78C15.9182 117.588 16.2813 117.493 16.6484 117.507C16.8926 117.516 17.1324 117.574 17.3543 117.676C17.5762 117.778 17.7757 117.923 17.9415 118.103C18.1073 118.282 18.2361 118.493 18.3205 118.722C18.4049 118.951 18.4433 119.195 18.4334 119.439Z" fill="white"/>
<path id="Vector_43" d="M15.3155 117.994C15.601 117.735 15.9548 117.564 16.3347 117.501C16.7147 117.438 17.1048 117.485 17.4586 117.637C17.8125 117.79 18.115 118.04 18.3303 118.36C18.5456 118.679 18.6646 119.054 18.673 119.439C18.6717 119.717 18.6131 119.992 18.5009 120.247C18.3887 120.501 18.2254 120.73 18.021 120.919C17.8166 121.108 17.5756 121.252 17.3129 121.344C17.0502 121.436 16.7714 121.472 16.4939 121.452C16.1086 121.413 15.7427 121.264 15.4403 121.022C15.1379 120.78 14.9118 120.456 14.7894 120.088C14.6669 119.721 14.6532 119.326 14.75 118.951C14.8468 118.576 15.0499 118.237 15.3348 117.975L15.3155 117.994ZM15.3155 117.994C15.0688 118.222 14.894 118.517 14.8124 118.843C14.7308 119.169 14.746 119.511 14.8562 119.829C14.9663 120.146 15.1666 120.424 15.4326 120.629C15.6985 120.835 16.0185 120.958 16.3534 120.984C16.6883 121.01 17.0236 120.938 17.3181 120.776C17.6127 120.615 17.8537 120.371 18.0117 120.075C18.1698 119.778 18.2379 119.442 18.2078 119.107C18.1777 118.773 18.0507 118.454 17.8423 118.191C17.694 118.005 17.5092 117.852 17.2992 117.741C17.0892 117.629 16.8586 117.562 16.6217 117.544C16.3848 117.525 16.1466 117.556 15.9219 117.633C15.6972 117.711 15.4908 117.833 15.3155 117.994Z" fill="#DBDBDB"/>
<path id="Vector_44" d="M84.8531 122.043C84.8389 122.41 84.9339 122.773 85.126 123.087C85.3181 123.4 85.5987 123.649 85.9324 123.803C86.2661 123.957 86.6379 124.008 87.0008 123.95C87.3638 123.893 87.7015 123.729 87.9714 123.48C88.2412 123.231 88.4311 122.907 88.517 122.55C88.603 122.192 88.581 121.818 88.4541 121.473C88.3271 121.128 88.1008 120.829 87.8037 120.612C87.5066 120.396 87.1521 120.273 86.785 120.258C86.5409 120.248 86.2972 120.287 86.068 120.371C85.8387 120.455 85.6284 120.584 85.449 120.75C85.2695 120.916 85.1245 121.115 85.0223 121.337C84.9201 121.559 84.8626 121.799 84.8531 122.043Z" fill="white"/>
<path id="Vector_45" d="M88.091 120.853C87.863 120.606 87.568 120.431 87.2421 120.35C86.9162 120.268 86.5737 120.283 86.2563 120.394C85.939 120.504 85.6606 120.704 85.4554 120.97C85.2502 121.236 85.1269 121.556 85.1008 121.891C85.0747 122.226 85.1468 122.561 85.3083 122.856C85.4699 123.15 85.7138 123.391 86.0102 123.549C86.3067 123.707 86.6428 123.775 86.9773 123.745C87.3119 123.715 87.6304 123.588 87.8939 123.38C88.0791 123.231 88.2319 123.046 88.3429 122.836C88.4538 122.626 88.5206 122.396 88.5391 122.159C88.5575 121.922 88.5273 121.684 88.4502 121.46C88.3732 121.235 88.2509 121.029 88.091 120.853ZM88.091 120.853C88.3515 121.138 88.5241 121.492 88.5881 121.873C88.6521 122.254 88.6047 122.645 88.4517 123C88.2986 123.355 88.0465 123.657 87.7255 123.872C87.4045 124.087 87.0283 124.204 86.6421 124.21C86.364 124.209 86.0893 124.15 85.8349 124.037C85.5806 123.925 85.352 123.762 85.1633 123.557C84.9746 123.353 84.8298 123.112 84.738 122.85C84.6461 122.587 84.6091 122.309 84.6292 122.031C84.668 121.646 84.8174 121.28 85.0593 120.978C85.3012 120.675 85.6254 120.449 85.9928 120.327C86.3602 120.204 86.7551 120.191 87.1301 120.287C87.5051 120.384 87.8442 120.587 88.1064 120.872L88.091 120.853Z" fill="#DBDBDB"/>
<path id="Vector_46" d="M88.2918 92.2969C88.2918 92.2969 71.6782 92.3703 52.8893 91.6323C34.1005 90.8944 17.541 89.5189 17.541 89.5189C21.2694 81.1503 25.9637 74.7483 26.4659 74.4005C27.3453 73.9534 28.2737 73.6098 29.2323 73.3767C31.338 72.9362 46.2323 73.4308 53.5925 73.7205C60.9527 74.0103 75.8393 74.6826 77.9025 75.2853C78.8395 75.5949 79.7379 76.011 80.58 76.5255C81.0552 76.9119 85.2318 83.6617 88.2918 92.2969Z" fill="#37474F"/>
<path id="Vector_47" d="M88.2918 92.2969C88.2918 92.2969 71.6782 92.3703 52.8893 91.6324C34.1005 90.8944 17.541 89.519 17.541 89.519C17.8913 88.7308 18.2493 87.958 18.615 87.2008C22.4246 87.5021 36.8784 88.6033 52.982 89.2369C69.0857 89.8705 83.582 89.9053 87.4031 89.9014C87.7045 90.6845 88.0007 91.483 88.2918 92.2969Z" fill="#263238"/>
<g id="Group_3" opacity="0.3">
<path id="Vector_48" d="M88.2919 92.297C86.7117 91.1379 84.6794 89.8126 83.2151 88.6381L83.2383 86.2311L83.2885 86.3122L79.6914 84.5813H79.6683V84.562L76.9869 80.5322C75.2096 79.8947 72.9571 78.9867 71.0292 78.214C73.0576 78.952 75.1169 79.6552 77.1183 80.4356L79.8228 84.4499L79.788 84.4152L83.3735 86.1615L83.4237 86.1847V86.2388L83.3812 88.642C84.8069 89.5808 86.7271 91.1417 88.3035 92.3008L88.2919 92.297Z" fill="white"/>
<path id="Vector_49" d="M85.2395 90.0754C83.582 90.1836 81.9245 90.3072 80.267 90.3922L76.5502 89.2718C74.9082 89.1481 73.0498 89.0013 71.3382 88.8545C69.6266 88.7077 67.8339 88.5609 66.0798 88.3986C65.0945 87.1313 64.1209 85.8486 63.1473 84.5697C64.0861 85.7636 65.338 87.197 66.1184 88.275C67.8648 88.3986 69.6098 88.5274 71.3536 88.6613C73.0974 88.7953 74.8464 88.9395 76.6004 89.094L80.3057 90.2531C81.8511 90.172 83.6245 90.1218 85.2395 90.06V90.0754Z" fill="white"/>
<path id="Vector_50" d="M75.4452 89.0862C74.263 88.4101 73.0614 87.6373 71.9332 86.8723C71.2764 86.768 70.2525 86.513 69.4836 86.316C70.3298 86.428 71.1759 86.5594 72.0143 86.7023C73.1734 87.4403 74.3557 88.2478 75.4452 89.0708V89.0862Z" fill="white"/>
<path id="Vector_51" d="M82.8672 86.0108C82.4808 85.3888 82.1563 84.7551 81.824 84.1138C81.9631 83.4067 82.1872 82.4022 82.3572 81.6913V81.7492C82.0674 81.2199 81.7777 80.6945 81.5072 80.1536C81.8588 80.6558 82.1833 81.1736 82.5117 81.699C82.3688 82.4215 82.1563 83.4222 81.9863 84.1292C82.3097 84.7435 82.6012 85.3742 82.8595 86.0186L82.8672 86.0108Z" fill="white"/>
<path id="Vector_52" d="M82.8093 90.1874C82.1177 89.7238 81.3141 89.1519 80.6998 88.7076L79.1543 88.0508L77.6088 87.3708H77.5702C77.462 86.8917 77.3693 86.4049 77.2688 85.9219C77.1684 85.439 77.0873 84.9792 77.0023 84.5078C77.1336 84.9676 77.2611 85.4312 77.3886 85.8949C77.5161 86.3585 77.632 86.826 77.7363 87.2935L77.69 87.2317L79.2354 87.8924L80.7809 88.5685C81.4712 89.1017 82.1525 89.6465 82.8247 90.2028L82.8093 90.1874Z" fill="white"/>
<path id="Vector_53" d="M77.7866 89.5499C77.1027 89.9363 76.4111 90.3227 75.7079 90.709C74.5952 90.709 73.4799 90.6845 72.362 90.6356C71.995 90.6356 71.6241 90.5931 71.257 90.5661C71.6241 90.5467 71.995 90.5313 72.3659 90.5236C73.4052 90.5236 74.7613 90.4888 75.65 90.5467C76.3532 90.2042 77.0653 89.877 77.7866 89.5654V89.5499Z" fill="white"/>
</g>
<path id="Vector_54" d="M23.3635 88.3445L29.1898 88.5724C29.0711 88.0726 28.9095 87.584 28.7069 87.112C28.5485 86.9227 27.0571 86.602 26.3501 86.5749C25.643 86.5479 24.1323 86.7527 23.9623 86.9265C23.7223 87.3811 23.5219 87.8555 23.3635 88.3445Z" fill="#263238"/>
<path id="Vector_55" d="M26.1723 86.7178C26.1723 86.7178 29.6148 85.5934 29.9393 85.5587C30.2639 85.5239 44.0068 85.0062 44.0068 85.0062L44.03 85.3075C44.03 85.3075 30.7507 86.2734 30.5343 86.2966C30.318 86.3198 26.2418 87.7571 26.2418 87.7571L26.1723 86.7178Z" fill="#263238"/>
<path id="Vector_56" d="M61.8878 89.855L67.718 90.0869C67.5995 89.5865 67.4365 89.0978 67.2312 88.6264C67.0766 88.4371 65.5814 88.1164 64.8782 88.0855C64.175 88.0546 62.6566 88.2632 62.4866 88.4409C62.246 88.8939 62.0456 89.3671 61.8878 89.855Z" fill="#263238"/>
<path id="Vector_57" d="M64.6966 88.2285C64.6966 88.2285 68.1391 87.1081 68.4636 87.0694C68.7882 87.0308 82.535 86.5169 82.535 86.5169L82.5543 86.8183L69.0625 87.8035C68.8461 87.8228 64.7661 89.2485 64.7661 89.2485L64.6966 88.2285Z" fill="#263238"/>
<g id="Group_4" opacity="0.1">
<path id="Vector_58" d="M47.7044 73.5042L29.4487 90.3806C27.9033 90.284 26.5008 90.1874 25.1987 90.0985L43.2921 73.369L47.7044 73.5042Z" fill="white"/>
<path id="Vector_59" d="M81.1364 77.2597L65.1564 92.0071L60.7403 91.8874L78.486 75.4824C79.2194 75.7474 79.9217 76.0921 80.58 76.5101C80.788 76.7424 80.9743 76.9933 81.1364 77.2597Z" fill="white"/>
<path id="Vector_60" d="M87.1482 89.2718L83.8834 92.2931C82.6084 92.2931 81.0939 92.2931 79.3746 92.2583L85.8693 86.2581C86.2982 87.2163 86.7271 88.2247 87.1482 89.2718Z" fill="white"/>
<path id="Vector_61" d="M41.9166 73.3304L23.8851 90.0019L23.236 89.9556L41.2366 73.3149L41.9166 73.3304Z" fill="white"/>
<path id="Vector_62" d="M62.9194 74.1301L44.3933 91.2537L43.7326 91.2189L62.2549 74.0992L62.9194 74.1301Z" fill="white"/>
<path id="Vector_63" d="M85.1005 84.5928L76.8362 92.2312H76.1484L84.888 84.1524C84.9575 84.2799 85.0309 84.4383 85.1005 84.5928Z" fill="white"/>
<path id="Vector_64" d="M32.4237 73.2067L19.7897 84.8864C20.3344 83.8471 20.8792 82.8657 21.4047 81.9462L30.8242 73.2414C31.2956 73.226 31.821 73.2105 32.4237 73.2067Z" fill="white"/>
<path id="Vector_65" d="M68.7727 74.4431L50.2968 91.528L48.8055 91.4624L67.3045 74.3581L68.7727 74.4431Z" fill="white"/>
</g>
<path id="Vector_66" opacity="0.1" d="M17.541 89.5189C16.66 91.2806 15.6257 92.9613 14.4501 94.5416C14.4192 94.5841 14.3573 94.6691 14.3303 94.7116C14.2646 94.8971 14.4655 95.2989 14.5737 95.5037C14.7244 95.8012 14.906 96.0909 15.0837 96.3884C14.6355 96.0021 13.5924 95.0555 13.9942 94.4102C14.9992 92.6602 16.1924 91.0252 17.5526 89.5343L17.541 89.5189Z" fill="black"/>
<path id="Vector_67" opacity="0.1" d="M88.2917 92.2969C89.5344 93.8889 90.5969 95.6136 91.4599 97.4394C91.8076 98.1156 90.6872 98.9849 90.2158 99.3249C90.4167 99.0428 90.6215 98.7685 90.7953 98.4826C90.919 98.2856 91.1508 97.9031 91.1006 97.7099C91.0774 97.6674 91.0233 97.5785 90.9924 97.5322C89.9412 95.8685 89.0363 94.1169 88.2878 92.2969H88.2917Z" fill="black"/>
<path id="Vector_68" d="M60.9749 116.267L42.8877 115.557L42.6978 120.39L60.7849 121.101L60.9749 116.267Z" fill="white"/>
<path id="Vector_69" opacity="0.1" d="M62.5137 103.745L60.6205 100.631L49.6478 105.004L60.9141 104.514L62.5137 103.745Z" fill="black"/>
<path id="Vector_70" opacity="0.1" d="M81.4532 100.801L70.1057 92.1423L68.7612 97.3041L81.4532 100.801Z" fill="black"/>
<path id="Vector_71" d="M91.1006 97.7099C90.9654 99.3365 87.3645 101.732 87.3645 101.732C87.3645 101.732 83.8872 102.868 79.4286 104.05C78.4318 104.236 77.377 104.409 76.272 104.564C70.2525 105.406 53.21 105.155 48.1486 105.101C50.1538 105.004 61.7679 104.008 62.5291 103.741C63.2902 103.474 68 97.7369 68.7727 97.3042C69.1397 97.0956 80.3636 100.318 81.4647 100.801C81.5729 100.847 86.812 96.9372 86.9433 96.6706C87.0747 96.404 88.3033 92.2969 88.3033 92.2969C88.3033 92.2969 91.1818 96.8869 91.1006 97.7099Z" fill="#263238"/>
<path id="Vector_72" opacity="0.1" d="M86.9318 96.6706L82.0636 92.3047L88.2918 92.2969L86.9318 96.6706Z" fill="black"/>
<path id="Vector_73" opacity="0.1" d="M94.1915 106.418C94.1915 106.805 94.0718 109.038 93.7588 109.208C92.8933 109.683 89.1224 110.719 86.7618 111.059C75.7659 112.643 59.8516 113.157 52.0625 112.72C44.2579 112.542 28.4364 110.788 17.5989 108.343C15.2807 107.821 11.5909 106.492 10.7641 105.951C10.4705 105.754 10.54 103.525 10.5555 103.138C10.5709 102.752 13.3721 97.6635 13.8589 97.5514C14.3457 97.4394 19.6157 100.716 28.5832 102.698C37.7748 104.726 52.3523 105.344 52.3523 105.344C52.3523 105.344 66.9297 105.874 76.2527 104.572C85.3477 103.3 90.8456 100.708 91.3208 100.874C91.7961 101.04 94.207 106.032 94.1915 106.418Z" fill="black"/>
<path id="Vector_74" opacity="0.5" d="M93.7588 109.208C90.5791 110.753 87.0825 111.48 83.5975 111.94C80.1125 112.399 76.6198 112.828 73.1155 113.141C66.103 113.74 59.0596 114.173 52.0162 113.883C40.5875 113.338 29.2439 111.464 18.1167 108.86C15.5481 108.231 13.0781 107.252 10.7758 105.951C13.1405 107.097 15.6408 107.938 18.2171 108.455C29.3985 110.522 40.7035 112.276 52.0703 112.782C59.0596 113.095 66.0759 112.701 73.0614 112.287C76.558 112.048 80.0545 111.77 83.5434 111.406C85.2878 111.273 87.0229 111.038 88.74 110.703C90.4518 110.341 92.1315 109.841 93.7627 109.208H93.7588Z" fill="white"/>
<path id="Vector_75" d="M15.8834 96.5971C17.7573 96.8444 26.4775 102.744 26.8368 103.216C27.1961 103.687 27.9186 108.312 27.3391 108.741C26.7596 109.169 19.9982 108.671 17.993 108.265C15.9877 107.86 11.8112 106.554 10.8916 105.789C9.97207 105.024 10.8916 99.9237 11.873 98.9308C13.1364 97.6558 14.6818 96.4387 15.8834 96.5971Z" fill="white"/>
<path id="Vector_76" d="M15.8834 96.5972C16.3638 96.713 16.8283 96.8868 17.2666 97.1149C18.5996 97.7601 19.8746 98.5251 21.1302 99.2863C23.0273 100.445 24.9282 101.604 26.7286 102.93C26.9517 103.101 27.1032 103.349 27.1536 103.625C27.2905 104.107 27.4014 104.596 27.4859 105.089C27.683 106.076 27.7763 107.081 27.7641 108.088C27.7255 108.659 27.6134 109.038 26.9914 109.092C25.3706 109.199 23.7438 109.175 22.1271 109.019C20.6357 108.928 19.1516 108.742 17.6839 108.462C15.497 107.962 13.372 107.223 11.3475 106.256C11.107 106.14 10.8876 105.985 10.6984 105.796C10.1846 104.892 10.428 103.768 10.5284 102.794C10.7757 101.473 11.0114 100.047 11.8189 98.9308C12.9007 97.9108 14.28 96.5006 15.8757 96.5856L15.8834 96.5972ZM15.8834 96.5972C14.365 96.5354 13.1557 97.7563 12.1202 98.7106C11.7618 99.0488 11.4958 99.4731 11.3475 99.9431C11.0242 100.876 10.809 101.843 10.7062 102.825C10.6096 103.55 10.6096 104.284 10.7062 105.008C10.7121 105.175 10.7598 105.337 10.8449 105.48C10.93 105.623 11.0497 105.743 11.193 105.827C12.8157 106.685 14.62 107.141 16.3818 107.632C18.2806 108.106 20.2221 108.39 22.1773 108.478C23.1586 108.555 24.1439 108.613 25.1214 108.64C25.8128 108.69 26.5077 108.661 27.1923 108.551C27.1923 108.578 27.2425 108.486 27.258 108.385C27.3669 107.309 27.3253 106.223 27.1343 105.159C27.061 104.56 26.9317 103.968 26.748 103.393C26.7248 103.304 26.632 103.25 26.5548 103.173C24.8123 101.805 22.9616 100.569 21.1032 99.3597C19.8644 98.5475 18.5824 97.8033 17.2627 97.1304C16.826 96.8998 16.3628 96.7234 15.8834 96.6049V96.5972Z" fill="#DBDBDB"/>
<path id="Vector_77" d="M20.2532 103.625C20.2359 104.056 20.1117 104.475 19.8918 104.846C19.6719 105.216 19.3632 105.526 18.9935 105.748C18.6238 105.969 18.2048 106.095 17.7743 106.115C17.3438 106.134 16.9153 106.045 16.5274 105.858C16.1395 105.67 15.8045 105.388 15.5525 105.039C15.3006 104.689 15.1396 104.282 15.0841 103.855C15.0287 103.428 15.0805 102.993 15.2349 102.591C15.3892 102.188 15.6413 101.831 15.9684 101.55C16.3532 101.225 16.8241 101.018 17.3242 100.955C17.8242 100.891 18.3318 100.975 18.7855 101.194C19.2391 101.414 19.6192 101.761 19.8798 102.192C20.1403 102.624 20.27 103.121 20.2532 103.625ZM20.2532 103.625C20.2678 103.248 20.1903 102.874 20.0274 102.534C19.8645 102.194 19.6212 101.898 19.3184 101.674C19.0157 101.449 18.6627 101.302 18.2901 101.244C17.9175 101.187 17.5365 101.221 17.1801 101.344C16.8237 101.467 16.5027 101.675 16.245 101.95C15.9872 102.225 15.8005 102.559 15.7009 102.923C15.6013 103.287 15.5919 103.669 15.6736 104.037C15.7552 104.405 15.9254 104.748 16.1693 105.035C16.4715 105.391 16.8741 105.648 17.3245 105.771C17.7749 105.894 18.252 105.879 18.6934 105.726C19.1348 105.574 19.5199 105.292 19.7982 104.917C20.0765 104.542 20.2351 104.092 20.2532 103.625Z" fill="#DBDBDB"/>
<path id="Vector_78" d="M25.1872 105.449C25.1666 105.878 25.0226 106.292 24.7724 106.642C24.5222 106.991 24.1765 107.261 23.7768 107.419C23.377 107.577 22.9402 107.616 22.5188 107.532C22.0973 107.447 21.7091 107.243 21.4008 106.944C21.1854 106.724 21.0172 106.463 20.9065 106.176C20.7957 105.889 20.7448 105.582 20.7567 105.274C20.7686 104.967 20.8432 104.665 20.9759 104.388C21.1086 104.11 21.2966 103.862 21.5283 103.66C21.8592 103.385 22.2625 103.212 22.6896 103.16C23.1167 103.109 23.5495 103.183 23.936 103.372C24.3224 103.56 24.6461 103.857 24.868 104.226C25.09 104.594 25.2008 105.019 25.1872 105.449ZM25.1872 105.449C25.1981 105.074 25.0998 104.704 24.9042 104.384C24.7086 104.065 24.4242 103.809 24.0856 103.648C23.747 103.487 23.3689 103.428 22.9974 103.478C22.6259 103.528 22.2771 103.685 21.9934 103.93C21.7097 104.175 21.5034 104.498 21.3997 104.858C21.296 105.218 21.2994 105.601 21.4094 105.959C21.5194 106.318 21.7314 106.636 22.0193 106.876C22.3073 107.116 22.6589 107.267 23.0312 107.311C23.2973 107.342 23.567 107.318 23.8231 107.239C24.0793 107.16 24.3162 107.029 24.519 106.854C24.7217 106.679 24.8858 106.464 25.0009 106.222C25.1159 105.98 25.1793 105.717 25.1872 105.449Z" fill="#DBDBDB"/>
<path id="Vector_79" d="M14.8827 101.11C14.5621 101.937 14.11 105.99 14.2298 106.519C14.3462 106.83 14.5148 107.119 14.7282 107.373C13.0591 106.847 11.4248 106.214 10.8916 105.773C9.97207 105.001 10.8916 99.9083 11.873 98.9153C13.1171 97.6403 14.6818 96.4194 15.8834 96.5971C16.639 96.798 17.3623 97.105 18.0316 97.5089C18.0316 97.5089 15.2034 100.287 14.8827 101.11Z" fill="#FFC727"/>
<path id="Vector_80" d="M89.3929 99.4833C87.5036 99.5837 78.3467 104.78 77.9527 105.225C77.5586 105.669 76.4729 110.22 77.0177 110.692C77.5624 111.163 84.3276 111.198 86.3754 110.951C88.4231 110.703 92.6731 109.73 93.6467 109.038C94.6204 108.346 94.0988 103.188 93.2101 102.126C92.0665 100.758 90.606 99.4176 89.3929 99.4833Z" fill="white"/>
<path id="Vector_81" d="M89.3929 99.4832C88.9049 99.5637 88.4287 99.7038 87.9749 99.9005C86.6056 100.469 85.2692 101.114 83.9722 101.832C82.0404 102.895 80.0815 103.977 78.2386 105.205C78.1536 105.279 78.0608 105.325 78.0261 105.41C77.7996 105.969 77.6263 106.549 77.5083 107.141C77.2336 108.187 77.1036 109.266 77.122 110.348C77.122 110.448 77.1799 110.549 77.1761 110.518C77.2575 110.554 77.3432 110.58 77.4311 110.595C79.0063 110.786 80.5929 110.868 82.1795 110.838C84.1399 110.905 86.1021 110.776 88.0367 110.452C89.8256 110.1 91.6647 109.784 93.3492 109.057C93.498 108.985 93.6263 108.876 93.7221 108.741C93.818 108.606 93.8784 108.449 93.8979 108.285C94.0491 107.57 94.1024 106.838 94.0563 106.109C94.028 105.126 93.888 104.148 93.639 103.196C93.5298 102.715 93.2982 102.271 92.9667 101.906C92.0163 100.859 90.8997 99.5605 89.3851 99.5025L89.3929 99.4832ZM89.3929 99.4832C90.9885 99.5257 92.252 101.029 93.2565 102.137C93.9751 103.297 94.0988 104.745 94.2417 106.078C94.2649 107.067 94.4156 108.192 93.8322 109.061C93.6293 109.233 93.3996 109.37 93.1522 109.467C91.0593 110.272 88.8837 110.842 86.6651 111.167C84.1897 111.413 81.6981 111.453 79.2161 111.287C78.5843 111.259 77.9554 111.186 77.3345 111.066C77.1796 111.039 77.0314 110.983 76.8979 110.9C76.8274 110.839 76.7698 110.765 76.7287 110.681C76.6875 110.597 76.6636 110.506 76.6583 110.413C76.5695 109.254 76.8863 108.145 77.149 107.037C77.2718 106.551 77.4201 106.073 77.5933 105.603C77.6655 105.332 77.8364 105.098 78.0724 104.946C79.9695 103.787 81.9554 102.76 83.9374 101.751C85.2665 101.09 86.5956 100.43 87.9749 99.8889C88.4315 99.7031 88.9089 99.5733 89.3967 99.5025L89.3929 99.4832Z" fill="#DBDBDB"/>
<path id="Vector_82" d="M84.486 106.144C84.4678 106.522 84.5421 106.898 84.7025 107.24C84.8629 107.582 85.1045 107.88 85.4063 108.107C85.7081 108.335 86.0609 108.485 86.434 108.545C86.8071 108.605 87.1892 108.573 87.547 108.451C87.9048 108.33 88.2275 108.122 88.487 107.848C88.7464 107.573 88.9348 107.239 89.0356 106.875C89.1365 106.511 89.1468 106.127 89.0656 105.758C88.9844 105.389 88.8142 105.045 88.5699 104.757C88.268 104.401 87.8657 104.145 87.4156 104.021C86.9656 103.898 86.4888 103.913 86.0475 104.065C85.6063 104.217 85.2212 104.499 84.9426 104.873C84.664 105.247 84.5049 105.697 84.486 106.164V106.144ZM84.486 106.144C84.5054 105.714 84.6315 105.295 84.8528 104.926C85.0742 104.557 85.384 104.248 85.7543 104.028C86.1245 103.809 86.5436 103.684 86.9739 103.667C87.4041 103.649 87.832 103.739 88.2189 103.928C88.6059 104.117 88.9398 104.399 89.1905 104.749C89.4413 105.099 89.601 105.506 89.6554 105.933C89.7097 106.36 89.657 106.794 89.5019 107.196C89.3468 107.598 89.0942 107.955 88.7669 108.234C88.3821 108.559 87.9115 108.765 87.4121 108.827C86.9127 108.89 86.4059 108.806 85.953 108.587C85.5002 108.367 85.1206 108.021 84.8602 107.59C84.5999 107.16 84.4699 106.663 84.486 106.16V106.144Z" fill="#DBDBDB"/>
<path id="Vector_83" d="M79.4209 107.578C79.4058 107.957 79.502 108.334 79.6978 108.66C79.8935 108.986 80.1803 109.247 80.5227 109.412C80.8652 109.578 81.2485 109.639 81.6255 109.589C82.0024 109.54 82.3567 109.381 82.6446 109.133C82.9326 108.884 83.1417 108.557 83.2464 108.192C83.351 107.826 83.3465 107.438 83.2334 107.075C83.1204 106.712 82.9038 106.39 82.6102 106.148C82.3165 105.907 81.9587 105.756 81.5807 105.715C81.3151 105.688 81.0468 105.716 80.7922 105.796C80.5376 105.876 80.302 106.007 80.0999 106.181C79.8977 106.356 79.7332 106.569 79.6165 106.81C79.4997 107.05 79.4332 107.311 79.4209 107.578ZM79.4209 107.578C79.4349 107.207 79.541 106.847 79.7297 106.528C79.9184 106.209 80.1836 105.943 80.5014 105.752C80.8192 105.562 81.1794 105.454 81.5495 105.438C81.9195 105.422 82.2877 105.499 82.6206 105.661C82.9534 105.824 83.2405 106.067 83.4558 106.368C83.6711 106.67 83.8077 107.02 83.8533 107.388C83.8989 107.755 83.852 108.128 83.717 108.473C83.5819 108.818 83.3629 109.124 83.0798 109.363C82.7486 109.635 82.3459 109.807 81.9198 109.858C81.4936 109.908 81.062 109.835 80.6763 109.647C80.2907 109.459 79.9673 109.163 79.7447 108.797C79.5221 108.43 79.4097 108.007 79.4209 107.578Z" fill="#DBDBDB"/>
<path id="Vector_84" d="M90.0226 104.062C90.2776 104.908 90.409 108.988 90.2506 109.521C90.1086 109.821 89.918 110.095 89.6865 110.332C91.3904 109.946 93.0672 109.444 93.6351 109.038C94.6126 108.346 94.0872 103.188 93.1947 102.126C92.0549 100.754 90.5906 99.4214 89.3813 99.4832C88.6121 99.623 87.8667 99.8715 87.1674 100.221C87.1674 100.221 89.7831 103.212 90.0226 104.062Z" fill="#FFC727"/>
<path id="Vector_85" d="M94.1722 106.616L92.8818 107.639L92.109 109.135L91.1586 108.196L90.3511 108.513L89.219 108.961L88.0986 108.663L87.3259 108.899L86.5918 107.222H85.3129L85.1622 106.218L85.8461 104.95L87.7354 103.586L87.0013 103.254L87.1945 101.998L88.1643 101.373L89.2384 100.677L90.5172 99.9392L91.7845 101.295L92.8818 101.732C93.0054 101.867 93.1213 102.002 93.2372 102.141C93.5849 102.555 93.8786 103.598 94.0486 104.753L93.7511 105.661L94.1915 106.202C94.1645 106.33 94.1722 106.473 94.1722 106.616Z" fill="#263238"/>
<path id="Vector_86" d="M87.1635 101.983C86.7501 102.006 86.3328 102.022 85.9194 102.029C85.4867 102.342 84.7063 102.775 84.1538 103.123C83.0913 103.544 82.0288 103.957 80.9392 104.309C81.9438 103.826 83.0758 103.355 84.0572 102.957C84.6715 102.605 85.2819 102.242 85.904 101.906C86.3251 101.925 86.7463 101.952 87.1635 101.983Z" fill="#DBDBDB"/>
<path id="Vector_87" d="M85.282 107.207C84.6717 107.143 84.0654 107.045 83.4661 106.913C82.7146 107.001 81.9586 107.045 81.202 107.044C81.9488 106.895 82.7034 106.788 83.4622 106.724C84.0727 106.859 84.6832 107.01 85.282 107.207Z" fill="#DBDBDB"/>
<path id="Vector_88" d="M76.2527 104.568C76.2913 104.776 73.8302 109.571 73.3936 110.151C72.957 110.73 70.9441 111.696 70.4804 111.758C70.0168 111.82 62.9 112.987 52.0664 112.562C41.2327 112.137 34.228 110.429 33.7721 110.317C33.3162 110.205 31.3843 109.1 30.998 108.489C30.6116 107.879 28.5253 102.899 28.5832 102.694C28.6412 102.489 35.3716 104.081 39.4709 104.402C41.4877 104.564 47.8048 105.174 52.3523 105.34C56.8998 105.507 63.24 105.418 65.2645 105.418C69.3754 105.422 76.2179 104.371 76.2527 104.568Z" fill="#263238"/>
<path id="Vector_89" d="M33.0264 103.451C33.9459 103.621 34.9311 103.799 35.9086 103.954L28.9116 103.679C28.8536 103.536 28.8073 103.401 28.7648 103.293L33.0264 103.451ZM71.7631 104.974C70.8359 105.07 69.8313 105.167 68.8538 105.244L75.847 105.522C75.9165 105.383 75.9745 105.256 76.0286 105.136L71.7631 104.974ZM56.5713 105.437C55.1147 105.437 53.6582 105.395 52.3522 105.344C51.0463 105.294 49.5897 105.205 48.1332 105.105L29.182 104.371L29.3405 104.757L75.3409 106.558L75.5302 106.171L56.5713 105.437ZM29.6225 105.437C29.6766 105.569 29.7307 105.7 29.7886 105.824L74.8077 107.593C74.8734 107.469 74.939 107.342 75.0009 107.207L29.6225 105.437ZM30.0784 106.515L30.2523 106.901L74.259 108.621L74.4638 108.234L30.0784 106.515ZM30.5536 107.593C30.6193 107.736 30.685 107.867 30.7352 107.979L73.6911 109.664L73.9036 109.278L30.5536 107.593ZM31.1448 108.675C31.288 108.815 31.4417 108.944 31.6045 109.061L72.7406 110.676C72.913 110.566 73.077 110.443 73.2313 110.309L31.1448 108.675ZM32.6902 109.795C32.9401 109.947 33.1981 110.085 33.4629 110.209L70.747 111.673C71.0276 111.571 71.3023 111.454 71.57 111.321L32.6902 109.795ZM37.2995 111.036C38.2191 111.198 39.3048 111.372 40.5411 111.546L63.6186 112.454C64.8704 112.376 65.9638 112.287 66.895 112.195L37.2995 111.036Z" fill="#455A64"/>
<path id="Vector_90" d="M92.6732 117.241L91.3479 115.185L87.577 115.077L84.4823 114.694L78.9689 116.363L76.6391 116.34L78.9689 116.661L84.4823 115.463L87.6195 116.108H90.127L92.9398 118.883L92.6732 117.241Z" fill="#37474F"/>
</g>
<g id="car-2">
<path id="Vector_91" d="M122.91 93.6338C117.744 89.4804 110.001 83.2832 108.873 82.4602C108.236 82.5607 105.945 83.4222 104.932 83.797C103.483 84.3418 103.483 84.3418 103.255 84.2684C102.915 84.1563 100.053 80.9418 99.415 80.2193C98.9475 80.1188 97.29 79.8948 95.818 79.7209L95.9532 78.5618C99.9521 79.037 100.025 79.1298 100.203 79.3345C100.338 79.4968 102.823 82.2361 103.588 83.032L104.527 82.6882C108.661 81.1427 109.001 81.1427 109.368 81.3668C110.071 81.7995 122.249 91.59 123.636 92.7027L122.91 93.6338Z" fill="#FFC727"/>
<path id="Vector_92" d="M241.125 119.304L205.008 119.478C205.008 119.478 208.872 102.586 222.986 102.516C237.1 102.447 240.484 115.537 241.125 119.304Z" fill="#FFC727"/>
<path id="Vector_93" opacity="0.2" d="M241.125 119.304L205.008 119.478C205.008 119.478 208.872 102.586 222.986 102.516C237.1 102.447 240.484 115.537 241.125 119.304Z" fill="black"/>
<path id="Vector_94" d="M136.317 121.626L100.203 121.8C100.203 121.8 104.067 104.908 118.181 104.842C132.295 104.776 135.679 117.863 136.317 121.626Z" fill="#FFC727"/>
<path id="Vector_95" opacity="0.2" d="M136.317 121.626L100.203 121.8C100.203 121.8 104.067 104.908 118.181 104.842C132.295 104.776 135.679 117.863 136.317 121.626Z" fill="black"/>
<path id="Vector_96" d="M249.235 88.4874C250.008 89.7122 251.441 103.258 251.522 103.729C251.604 104.201 252.739 106.276 252.759 106.67C252.778 107.064 253.087 113.168 252.933 113.562C252.57 114.285 252.157 114.981 251.696 115.645C251.499 115.884 246.403 120.312 245.831 120.374C245.259 120.436 239.962 120.501 239.866 120.405C239.769 120.308 239.074 104.008 223.009 104.085C206.944 104.162 207.207 121.471 206.913 121.529C206.619 121.587 134.721 123.577 134.721 123.577C134.721 120.93 134.427 105.163 118.668 105.236C108.402 105.286 103.642 113.779 103.495 120.018C103.433 122.619 103.881 125.47 103.739 125.47C103.263 125.47 101.644 125.601 101.37 125.47C101.096 125.339 101.586 123.218 101.308 123.152C101.03 123.086 99.0944 123.044 98.6037 122.928C98.1131 122.812 94.7208 119.153 94.659 119.053C94.5971 118.952 96.5522 110.781 96.5483 110.406C96.5483 110.259 96.3397 105.456 96.4015 104.946C96.4749 104.324 97.7885 103.888 98.0126 103.266C99.2142 99.9624 100.196 96.0601 101.073 95.8399C101.374 95.7665 103.862 97.3853 104.21 97.1922C104.728 96.8869 105.292 95.809 106.2 94.9976C106.25 94.9551 107.695 94.9976 107.745 94.9358C107.795 94.874 108.68 92.5481 108.873 92.5635C109.468 92.606 111.211 93.8347 111.578 93.8037C111.945 93.7728 112.926 91.8178 112.957 91.8101C113.544 91.6672 114.197 91.6556 114.843 91.501C116.388 91.134 121.438 92.606 122.207 92.5442C123.536 92.4399 128.106 89.2408 128.327 89.0669C128.918 88.6497 156.663 72.5576 161.496 71.3638C165.406 70.394 210.699 71.4835 213.072 71.5879C215.444 71.6922 222.008 72.8513 222.638 72.8474C223.268 72.8435 230.543 72.7701 230.979 72.9672C231.416 73.1642 230.979 74.899 230.435 75.2197C229.89 75.5404 247.883 86.3585 249.235 88.4874Z" fill="#FFC727"/>
<path id="Vector_97" opacity="0.2" d="M130.788 111.677C130.788 111.677 202.45 109.699 202.86 110.309C203.27 110.92 131.669 114.613 131.669 114.613L130.788 111.677Z" fill="white"/>
<path id="Vector_98" opacity="0.2" d="M249.235 88.4874C249.235 88.4874 217.105 92.042 215.668 92.0188C214.231 91.9956 137.847 94.8547 136.463 94.7774C135.08 94.7002 122.214 92.5288 122.214 92.5288C123.543 92.4283 128.114 89.2254 128.334 89.0515C128.929 88.6304 156.67 72.5383 161.504 71.3445C165.414 70.3747 210.707 71.4604 213.079 71.5724C215.452 71.6845 222.016 72.832 222.646 72.8281C223.275 72.8243 230.551 72.7509 230.987 72.9479C231.424 73.1449 230.987 74.8797 230.442 75.2004C229.898 75.5211 247.879 86.3586 249.235 88.4874Z" fill="white"/>
<path id="Vector_99" opacity="0.1" d="M115.666 95.2488C115.666 95.3917 114.186 95.2256 114.058 95.2256C113.931 95.2256 111.582 93.7883 111.582 93.7883C111.895 93.7574 112.93 91.7985 112.961 91.7947C112.992 91.7908 115.666 95.0981 115.666 95.2488Z" fill="black"/>
<path id="Vector_100" opacity="0.1" d="M107.733 97.7407C107.668 97.9339 106.273 97.8026 106.211 97.818C106.149 97.8335 104.21 97.1767 104.21 97.1767C104.728 96.8753 105.292 95.7973 106.2 94.9821C106.2 94.9821 107.795 97.5476 107.733 97.7407Z" fill="black"/>
<path id="Vector_101" opacity="0.1" d="M108.877 92.548L108.757 95.1174L107.749 94.9164C107.795 94.8817 108.68 92.5442 108.877 92.548Z" fill="black"/>
<path id="Vector_102" d="M248.192 87.4636C248.022 87.622 245.19 87.707 244.892 87.5911C244.595 87.4752 226.702 75.6911 226.691 75.3473C226.691 75.1734 230.033 75.2043 230.439 75.2197C230.844 75.2352 248.516 87.1661 248.192 87.4636Z" fill="#455A64"/>
<path id="Vector_103" d="M228.341 87.3708C227.568 89.6581 137.294 93.4985 136.773 92.3935C136.386 91.5744 141.366 85.6863 145.273 83.4724C149.179 81.2585 160.341 74.8642 165.858 74.1997C171.375 73.5351 182.549 73.5235 192.293 73.6588C201.952 73.7901 213.338 73.9717 217.376 75.6717C220.903 77.1515 228.932 85.5549 228.341 87.3708Z" fill="#263238"/>
<path id="Vector_104" d="M225.709 86.0533C225.478 86.9111 204.8 89.237 180.563 90.4772C156.326 91.7174 144.349 91.957 144.052 91.8372C143.754 91.7174 144.851 85.269 145.265 84.7204C145.678 84.1717 163.003 75.2081 165.742 74.9608C168.481 74.7136 183.198 74.6092 190.639 74.6904C198.081 74.7715 213.582 75.5906 216.224 76.6454C218.535 77.5688 225.941 85.1917 225.709 86.0533Z" fill="#37474F"/>
<g id="Group_5" opacity="0.1">
<path id="Vector_105" d="M193.568 74.7522L207.516 88.5686C209.992 88.3406 212.279 88.1127 214.339 87.8924L201.399 75.0768C198.656 74.9261 195.921 74.814 193.568 74.7522Z" fill="white"/>
<path id="Vector_106" d="M144.113 90.4618L145.52 91.8527C146.93 91.8527 149.383 91.7909 152.861 91.6789L145.605 84.4925C145.493 84.5527 145.389 84.6267 145.296 84.7127C144.971 85.1029 144.326 88.53 144.113 90.4618Z" fill="white"/>
<path id="Vector_107" d="M183.202 74.6672L198.038 89.349C199.224 89.2601 200.383 89.1713 201.515 89.0747L186.953 74.6517L183.202 74.6672Z" fill="white"/>
<path id="Vector_108" d="M151.536 81.2895L161.705 91.3582L165.302 91.2036L154.024 80.03C153.17 80.4589 152.331 80.88 151.536 81.2895Z" fill="white"/>
<path id="Vector_109" d="M203.888 75.2198L216.437 87.653L217.387 87.5409L205.024 75.2894L203.888 75.2198Z" fill="white"/>
<path id="Vector_110" d="M149.387 82.4022L158.552 91.4818L159.58 91.4431L150.087 82.0391L149.387 82.4022Z" fill="white"/>
<path id="Vector_111" d="M162.462 76.0736L177.178 90.6472L178.198 90.6009L163.219 75.78L162.462 76.0736Z" fill="white"/>
<path id="Vector_112" d="M213.806 76.1239L224.307 86.5248C224.66 86.4501 224.946 86.3805 225.165 86.3162L215.092 76.3441C214.721 76.2668 214.289 76.1934 213.806 76.1239Z" fill="white"/>
</g>
<path id="Vector_113" d="M212.681 75.9692C212.585 75.9692 212.542 76.0967 212.627 76.3246C213.122 77.6692 216.947 85.2651 217.905 87.0385C217.963 87.1365 218.04 87.2215 218.133 87.288C218.225 87.3545 218.331 87.4011 218.442 87.4249L211.766 88.1435C211.882 88.0958 211.978 88.0094 212.038 87.8988C212.098 87.7882 212.118 87.6604 212.094 87.5369C212.025 87.1158 209.502 78.1753 208.713 75.9808C208.622 75.7766 208.462 75.6111 208.261 75.5133C208.13 75.5133 209.42 75.5133 210.61 75.6485C211.673 75.7799 212.681 75.9692 212.681 75.9692Z" fill="#263238"/>
<path id="Vector_114" d="M203.872 75.2158C203.872 75.2158 203.749 75.2853 203.745 75.5287C203.714 77.6344 203.528 88.1821 203.745 88.7617C203.772 88.8351 203.803 88.8814 203.845 88.8969L202.582 89.0051C202.648 88.9117 202.686 88.8021 202.694 88.6883C202.829 86.9033 202.91 77.2365 202.879 75.4476C202.867 75.3395 202.825 75.2368 202.76 75.1501L203.872 75.2158Z" fill="#263238"/>
<path id="Vector_115" d="M183.105 75.1038C182.958 75.5713 182.781 89.3412 182.781 89.7856C182.781 90.2299 183.287 90.3342 183.287 90.3342L175.463 90.7206C175.463 90.7206 175.969 90.5776 176.058 90.3342C176.147 90.0908 178.531 75.239 178.515 75.0458C178.5 74.8526 178.129 74.6594 178.129 74.6594L183.584 74.6363C183.476 74.6765 183.378 74.7389 183.295 74.8194C183.213 74.8999 183.148 74.9967 183.105 75.1038Z" fill="#263238"/>
<path id="Vector_116" d="M247.86 90.4308C248.822 90.5506 250.993 92.7876 251.155 93.259C251.318 93.7304 251.928 96.9333 251.607 97.4086C251.287 97.8838 250.155 99.0738 249.166 99.1201C248.177 99.1665 243.347 96.8947 242.91 96.5006C242.474 96.1065 242.138 93.7033 242.655 92.9267C243.173 92.1502 246.635 90.2802 247.86 90.4308Z" fill="white"/>
<path id="Vector_117" d="M242.91 96.5006C243.347 96.887 248.18 99.1627 249.166 99.1202C249.938 99.0854 250.765 98.3822 251.26 97.8413C250.7 98.251 250.022 98.4679 249.328 98.4595C248.795 98.4131 244.27 96.4929 243.687 95.9636C243.104 95.4343 243.073 93.4368 243.146 93.0736C243.219 92.7104 246.129 90.8211 246.129 90.8211C244.688 91.3813 242.995 92.4052 242.651 92.9268C242.149 93.7034 242.474 96.1066 242.91 96.5006Z" fill="#EBEBEB"/>
<path id="Vector_118" d="M106.478 100.646C106.149 101.612 101.401 103.1 99.1021 103.08C98.3525 103.08 98.0048 102.377 97.715 102.014L98.0434 101.21H98.2559L98.48 100.673L98.7041 100.72L98.9398 99.8039L99.2489 99.2939L98.8625 98.8651C98.9968 98.6466 99.1621 98.4488 99.3532 98.2778C99.8052 97.9108 101.745 97.2462 103.483 97.2539C104.075 97.2578 106.988 99.1355 106.478 100.646Z" fill="#263238"/>
<path id="Vector_119" d="M106.478 100.646C106.149 101.612 101.401 103.1 99.1021 103.08C98.8624 103.06 98.6314 102.981 98.4293 102.85C98.2272 102.719 98.0603 102.541 97.9431 102.331L98.1826 102.203L99.0442 102.122L101.2 102.057L101.899 100.442L102.228 100.897L102.811 100.094L102.212 99.5104L102.827 99.0158L101.787 98.3049L100.242 98.2083L99.7937 98.5561L99.5812 98.2508L98.936 98.7724C99.0562 98.5914 99.199 98.4265 99.361 98.2817C99.8131 97.9147 101.753 97.2502 103.491 97.2579C104.075 97.2579 106.988 99.1356 106.478 100.646Z" fill="white"/>
<path id="Vector_120" d="M100.466 104.467L101.486 103.675L101.668 104.239L102.069 104.309L101.463 105.232L100.887 104.622L100.466 104.467Z" fill="white"/>
<path id="Vector_121" d="M102.815 103.718L103.333 103.467L103.584 104.042L102.815 103.718Z" fill="white"/>
<path id="Vector_122" d="M98.2097 103.386L98.0899 103.575L98.3488 103.482L98.2097 103.386Z" fill="white"/>
<path id="Vector_123" d="M98.3719 103.687L98.4647 104.63L98.7892 104.286L98.9438 104.255L98.8395 103.868L98.3719 103.687Z" fill="white"/>
<path id="Vector_124" d="M101.857 106.044L102.131 106.295L102.313 106.113L102.649 106.055L102.151 105.619L101.857 106.044Z" fill="white"/>
<path id="Vector_125" d="M105.091 100.944C104.503 101.106 103.793 101.28 103.259 101.388C102.873 101.631 102.487 101.871 102.12 102.107C101.811 102.107 101.505 102.076 101.2 102.056C101.474 102.056 101.892 102.025 102.093 102.056C102.46 101.809 102.834 101.566 103.209 101.326C103.831 101.183 104.461 101.063 105.091 100.959V100.944Z" fill="#DBDBDB"/>
<path id="Vector_126" d="M104.376 100.217C104.223 100.588 104.011 100.933 103.75 101.237C103.901 100.865 104.113 100.521 104.376 100.217Z" fill="#DBDBDB"/>
<path id="Vector_127" d="M102.831 99.0158C103.016 99.1046 103.194 99.2012 103.371 99.3017H103.344C103.812 99.2004 104.286 99.1282 104.762 99.0853C104.295 99.2164 103.82 99.3171 103.341 99.3867C103.167 99.2708 102.997 99.151 102.831 99.0235V99.0158Z" fill="#DBDBDB"/>
<g id="Group_6" opacity="0.1">
<path id="Vector_128" d="M228.793 94.7118C229.388 94.0932 230.204 93.736 231.063 93.7186C231.921 93.7012 232.751 94.0251 233.371 94.619C233.679 94.9167 233.926 95.2726 234.096 95.6662C234.265 96.0598 234.355 96.4832 234.36 96.9118C234.365 97.3404 234.285 97.7657 234.124 98.1631C233.963 98.5605 233.725 98.9219 233.424 99.2266C233.122 99.5312 232.763 99.7729 232.367 99.9377C231.972 100.102 231.547 100.187 231.118 100.187C230.69 100.186 230.266 100.1 229.87 99.9345C229.475 99.7687 229.117 99.526 228.816 99.2206C228.226 98.62 227.893 97.8129 227.889 96.9709C227.885 96.1289 228.209 95.3184 228.793 94.7118ZM228.843 99.1936C229.136 99.4778 229.482 99.7012 229.862 99.8508C230.241 100.001 230.647 100.074 231.055 100.066C231.463 100.058 231.866 99.9691 232.239 99.8048C232.613 99.6405 232.95 99.4039 233.232 99.1086C233.797 98.531 234.114 97.755 234.114 96.9469C234.114 96.1388 233.797 95.3628 233.232 94.7852C232.948 94.4918 232.608 94.2578 232.233 94.0965C231.857 93.9352 231.454 93.85 231.045 93.8457C230.637 93.8414 230.231 93.9181 229.853 94.0714C229.474 94.2247 229.129 94.4515 228.839 94.7388C228.541 95.0287 228.304 95.3759 228.143 95.7595C227.982 96.1431 227.901 96.5552 227.903 96.9711C227.905 97.3871 227.991 97.7983 228.156 98.1802C228.321 98.5621 228.561 98.9067 228.862 99.1936H228.843Z" fill="black"/>
<path id="Vector_129" d="M241.063 106.546C241.38 105.831 241.67 105.105 241.96 104.379C242.25 103.652 242.508 102.914 242.787 102.184C243.065 101.454 243.312 100.712 243.559 99.9702C243.807 99.2283 244.046 98.4865 244.259 97.7331C243.942 98.4479 243.652 99.1743 243.362 99.9006C243.073 100.627 242.814 101.365 242.536 102.095C242.257 102.825 242.01 103.567 241.763 104.309C241.516 105.051 241.276 105.793 241.063 106.546Z" fill="black"/>
<path id="Vector_130" d="M252.179 106.496C250.634 106.473 249.065 106.496 247.512 106.496L242.845 106.565L238.181 106.701C236.636 106.759 235.071 106.817 233.518 106.909C235.063 106.929 236.628 106.909 238.185 106.909L242.852 106.84L247.516 106.704C249.069 106.643 250.622 106.585 252.179 106.496Z" fill="black"/>
<path id="Vector_131" d="M178.658 91.7098L178.14 95.5039L177.92 97.4164C177.885 97.7332 177.855 98.0539 177.831 98.3745C177.808 98.6952 177.831 99.012 177.831 99.3327L177.94 106.99L178.017 110.815L178.059 112.747L178.079 113.702L178.156 114.656L178.469 118.473L178.813 122.287L178.6 118.465L178.361 114.648L178.303 113.694V112.736L178.272 110.823L178.218 107.002L178.048 99.352C178.048 99.0352 178.017 98.7145 178.048 98.3977C178.079 98.0809 178.09 97.7641 178.117 97.4473L178.303 95.5464L178.658 91.7098Z" fill="black"/>
<path id="Vector_132" d="M136.633 93.6531L136 97.4665L135.687 99.3751L135.61 99.8503C135.577 100.008 135.557 100.168 135.552 100.329C135.552 100.654 135.552 100.975 135.552 101.299C135.586 103.876 135.66 106.449 135.752 109.026C135.776 109.672 135.807 110.313 135.841 110.958C135.884 111.606 136.014 112.246 136.228 112.859C136.587 114.099 137 115.324 137.445 116.533C137.875 117.75 138.392 118.934 138.99 120.076L139.23 120.501C139.315 120.641 139.407 120.772 139.496 120.911C139.585 121.047 139.685 121.176 139.794 121.297L139.952 121.487C140.039 121.536 140.135 121.565 140.234 121.572C140.883 121.633 141.525 121.641 142.166 121.661C147.32 121.742 152.47 121.661 157.621 121.61C162.771 121.56 167.925 121.448 173.075 121.328C178.225 121.208 183.376 121.042 188.53 120.826C191.103 120.71 193.676 120.613 196.257 120.37C196.586 120.342 196.913 120.29 197.234 120.212C197.416 120.138 197.52 120.053 197.675 119.988C197.829 119.922 197.961 119.845 198.104 119.779C198.687 119.512 199.29 119.277 199.869 118.983C200.459 118.7 201.004 118.333 201.488 117.893C201.907 117.397 202.295 116.874 202.647 116.329C204.089 114.188 205.464 112.009 206.843 109.834C208.223 107.659 209.575 105.464 210.927 103.266C212.279 101.067 213.632 98.869 214.93 96.6551L215.421 95.8205L215.536 95.6042L215.594 95.4921C215.598 95.4523 215.598 95.4122 215.594 95.3724L215.641 94.8894C215.691 94.248 215.737 93.6067 215.757 92.9576C215.757 92.7953 215.757 92.6331 215.757 92.4708C215.736 92.3109 215.701 92.1532 215.652 91.9994C215.56 91.6903 215.455 91.3851 215.347 91.0837C215.126 90.4759 214.894 89.8744 214.652 89.2794C214.887 89.8783 215.119 90.481 215.332 91.0876C215.436 91.3928 215.54 91.6981 215.629 92.0071C215.676 92.1598 215.71 92.3162 215.73 92.4746C215.73 92.633 215.73 92.7953 215.73 92.9576C215.703 93.599 215.652 94.2403 215.594 94.8894L215.548 95.3685C215.55 95.4084 215.55 95.4484 215.548 95.4883L215.49 95.5887C215.451 95.6583 215.421 95.7278 215.378 95.7974L214.903 96.6435C213.566 98.8458 212.198 101.036 210.842 103.212C208.114 107.581 205.398 111.963 202.528 116.24C202.173 116.778 201.786 117.294 201.369 117.785C200.894 118.21 200.362 118.565 199.788 118.84C199.216 119.126 198.629 119.362 198.026 119.613C197.88 119.682 197.733 119.748 197.59 119.821C197.447 119.895 197.289 119.995 197.169 120.038C196.864 120.11 196.554 120.158 196.241 120.181C193.68 120.416 191.103 120.505 188.514 120.617C183.368 120.818 178.218 120.953 173.06 121.073C167.902 121.193 162.759 121.317 157.605 121.398C152.451 121.479 147.301 121.56 142.151 121.494C141.505 121.494 140.86 121.471 140.219 121.409C140.159 121.402 140.1 121.392 140.041 121.378L139.887 121.197C139.782 121.075 139.687 120.946 139.601 120.811C139.512 120.675 139.419 120.548 139.338 120.424L139.098 120.011C138.503 118.875 137.986 117.699 137.553 116.491C137.101 115.286 136.687 114.065 136.328 112.832C136.114 112.23 135.984 111.6 135.942 110.962L135.845 109.03C135.729 106.461 135.633 103.884 135.579 101.303C135.579 100.978 135.579 100.658 135.579 100.337C135.584 100.176 135.601 100.016 135.629 99.858L135.702 99.3828L136 97.4742L136.633 93.6531Z" fill="black"/>
<path id="Vector_133" d="M105.091 101.767C105.652 102.184 106.242 102.561 106.856 102.895C107.467 103.243 108.089 103.575 108.707 103.911C109.325 104.247 109.959 104.56 110.593 104.869C111.226 105.178 111.864 105.491 112.524 105.777C111.922 105.418 111.307 105.078 110.689 104.738L108.831 103.737L106.957 102.764L106.018 102.277C105.7 102.124 105.39 101.954 105.091 101.767Z" fill="black"/>
<path id="Vector_134" d="M212.001 107.377L201.967 107.69L191.93 108.041L171.862 108.752L151.798 109.548L141.764 109.95L131.734 110.39L141.768 110.081L151.802 109.726L171.874 109.019L191.937 108.219L201.971 107.817L212.001 107.377Z" fill="black"/>
<path id="Vector_135" d="M212.523 92.9925H212.909H213.006C213.029 92.9925 213.033 92.9925 213.044 93.0427C213.062 93.1033 213.074 93.1654 213.079 93.2282C213.106 93.4848 213.114 93.7431 213.102 94.0009C213.102 94.1284 213.102 94.2597 213.068 94.3872C213.061 94.4443 213.047 94.5003 213.025 94.5534H212.994H212.921C212.666 94.5766 212.403 94.5843 212.148 94.5959C211.105 94.6345 210.058 94.6731 209.015 94.6963L207.446 94.7466L206.673 94.7659H206.353C206.322 94.7659 206.333 94.7659 206.353 94.7659C206.334 94.7358 206.32 94.7033 206.31 94.6693C206.294 94.611 206.282 94.5516 206.275 94.4916C206.239 94.2357 206.226 93.977 206.237 93.7188C206.239 93.5895 206.249 93.4605 206.268 93.3325C206.274 93.2816 206.288 93.232 206.31 93.1856C206.356 93.1626 206.406 93.1482 206.457 93.1432C206.963 93.0543 207.489 93.0195 208.002 92.9654C207.476 92.9552 206.95 92.972 206.426 93.0156C206.347 93.0158 206.27 93.0401 206.206 93.0852C206.157 93.1498 206.125 93.2255 206.113 93.3054C206.088 93.4331 206.07 93.5621 206.059 93.6918C206.034 93.9578 206.034 94.2256 206.059 94.4916C206.065 94.5619 206.077 94.6317 206.094 94.7002C206.1 94.7471 206.117 94.7921 206.141 94.8326C206.166 94.8731 206.198 94.9082 206.237 94.9359C206.259 94.9537 206.286 94.9633 206.314 94.9629H206.372H206.48H207.465L209.034 94.9359C210.081 94.8895 211.124 94.8547 212.171 94.7736C212.434 94.7504 212.693 94.7311 212.944 94.6925C212.983 94.6889 213.022 94.6811 213.06 94.6693C213.083 94.6636 213.105 94.6545 213.126 94.6422C213.147 94.623 213.164 94.5993 213.176 94.5727C213.201 94.5044 213.217 94.4329 213.222 94.3602C213.229 94.2315 213.229 94.1025 213.222 93.9738C213.215 93.7145 213.188 93.4562 213.141 93.2011C213.13 93.1349 213.112 93.0701 213.087 93.0079C213.083 92.9891 213.073 92.9717 213.06 92.9577C213.06 92.9577 213.01 92.9229 212.998 92.9307H212.901L212.523 92.9925Z" fill="black"/>
<path id="Vector_136" d="M174.115 94.1245H174.501H174.597C174.621 94.1245 174.625 94.1245 174.636 94.1747C174.654 94.2352 174.666 94.2973 174.671 94.3602C174.698 94.6168 174.706 94.8751 174.694 95.1329C174.694 95.2604 174.694 95.3879 174.659 95.5193C174.653 95.5765 174.639 95.6325 174.617 95.6854H174.586H174.512C174.257 95.7086 173.995 95.7163 173.74 95.7279C172.697 95.7627 171.65 95.8013 170.606 95.8245L169.038 95.8786H168.265H167.944C167.913 95.8786 167.925 95.8786 167.944 95.8786C167.926 95.8485 167.911 95.816 167.902 95.782C167.886 95.7236 167.875 95.6642 167.867 95.6043C167.83 95.3484 167.817 95.0898 167.828 94.8315C167.83 94.7022 167.841 94.5732 167.859 94.4452C167.867 94.3946 167.881 94.3452 167.902 94.2984C167.948 94.2754 167.997 94.261 168.049 94.2559C168.555 94.1631 169.08 94.1322 169.594 94.0781C169.068 94.0647 168.542 94.0802 168.018 94.1245C167.939 94.1275 167.863 94.1515 167.797 94.194C167.75 94.2591 167.718 94.3346 167.705 94.4143C167.68 94.542 167.662 94.671 167.651 94.8006C167.626 95.0679 167.626 95.337 167.651 95.6043C167.657 95.6733 167.669 95.7418 167.685 95.809C167.692 95.8565 167.708 95.9021 167.733 95.9433C167.757 95.9844 167.79 96.0202 167.828 96.0486C167.852 96.0628 167.878 96.072 167.906 96.0756H169.065L170.633 96.0447C171.68 96.0022 172.724 95.9675 173.771 95.8863C174.033 95.8631 174.292 95.8438 174.543 95.8052C174.583 95.8 174.622 95.791 174.659 95.7781C174.682 95.7739 174.704 95.7661 174.725 95.755C174.745 95.7343 174.762 95.7109 174.775 95.6854C174.801 95.6158 174.816 95.5429 174.822 95.469C174.829 95.3404 174.829 95.2114 174.822 95.0827C174.815 94.8234 174.788 94.565 174.74 94.31C174.729 94.243 174.712 94.1771 174.69 94.1129C174.683 94.0967 174.674 94.0811 174.663 94.0665C174.655 94.0566 174.645 94.0487 174.634 94.0433C174.623 94.038 174.61 94.0353 174.597 94.0356H174.501L174.115 94.1245Z" fill="black"/>
</g>
<path id="Vector_137" d="M234.24 131.362C240.073 125.529 240.073 116.071 234.24 110.238C228.406 104.405 218.949 104.405 213.116 110.238C207.282 116.071 207.283 125.529 213.116 131.362C218.949 137.195 228.406 137.195 234.24 131.362Z" fill="#263238"/>
<path id="Vector_138" d="M211.236 121.104C211.285 123.565 212.062 125.956 213.47 127.976C214.878 129.995 216.853 131.551 219.145 132.448C221.437 133.345 223.944 133.541 226.348 133.013C228.752 132.485 230.946 131.256 232.652 129.481C234.357 127.707 235.498 125.466 235.93 123.043C236.362 120.62 236.066 118.123 235.079 115.868C234.092 113.613 232.458 111.701 230.385 110.375C228.311 109.049 225.891 108.367 223.43 108.416C221.791 108.433 220.173 108.776 218.669 109.426C217.164 110.076 215.805 111.019 214.669 112.2C213.534 113.382 212.646 114.778 212.056 116.306C211.467 117.835 211.188 119.466 211.236 121.104Z" fill="#37474F"/>
<path id="Vector_139" d="M228.591 130.539C233.969 127.826 236.13 121.267 233.417 115.889C230.703 110.511 224.144 108.35 218.766 111.063C213.388 113.776 211.227 120.336 213.941 125.714C216.654 131.092 223.213 133.253 228.591 130.539Z" fill="#DBDBDB"/>
<path id="Vector_140" d="M230.789 127.911C234.717 123.984 234.717 117.616 230.789 113.688C226.862 109.761 220.494 109.761 216.566 113.688C212.639 117.616 212.639 123.984 216.566 127.911C220.494 131.839 226.861 131.839 230.789 127.911Z" fill="#A6A6A6"/>
<path id="Vector_141" d="M222.051 118.307L225.207 118.245C224.11 116.727 227.719 111.291 227.719 111.291L226.046 110.765C224.979 112.697 224.438 113.253 223.53 113.269C222.622 113.284 222.054 112.743 220.911 110.869L219.265 111.457C219.265 111.457 223.086 116.734 222.051 118.307Z" fill="#DBDBDB"/>
<path id="Vector_142" d="M225.474 118.431L226.513 121.417C227.618 119.903 233.912 121.653 233.912 121.653V119.899C231.756 119.478 231.049 119.126 230.751 118.28C230.454 117.434 230.798 116.715 232.227 115.046L231.157 113.663C231.157 113.663 227.282 118.933 225.474 118.431Z" fill="#DBDBDB"/>
<path id="Vector_143" d="M226.409 121.73L223.89 123.635C225.671 124.222 225.953 130.748 225.953 130.748L227.614 130.188C227.348 128.009 227.452 127.232 228.178 126.679C228.905 126.127 229.681 126.243 231.71 127.085L232.695 125.64C232.695 125.64 226.498 123.6 226.409 121.73Z" fill="#DBDBDB"/>
<path id="Vector_144" d="M223.573 123.643L221 121.838C221 123.712 214.876 125.995 214.876 125.995L215.919 127.402C217.913 126.478 218.682 126.335 219.427 126.857C220.173 127.379 220.308 128.148 220.134 130.334L221.815 130.825C221.815 130.825 221.819 124.295 223.573 123.643Z" fill="#DBDBDB"/>
<path id="Vector_145" d="M220.872 121.529L221.788 118.504C220.007 119.08 215.942 113.964 215.942 113.964L214.926 115.394C216.421 117.001 216.796 117.712 216.53 118.562C216.263 119.412 215.575 119.798 213.439 120.312L213.489 122.058C213.489 122.058 219.709 120.061 220.872 121.529Z" fill="#DBDBDB"/>
<path id="Vector_146" d="M220.756 120.787C220.768 121.365 220.95 121.926 221.281 122.4C221.611 122.874 222.075 123.239 222.613 123.449C223.151 123.66 223.739 123.706 224.303 123.582C224.868 123.458 225.382 123.169 225.783 122.753C226.183 122.336 226.451 121.811 226.552 121.242C226.654 120.673 226.584 120.087 226.353 119.558C226.121 119.029 225.738 118.58 225.251 118.269C224.765 117.957 224.197 117.797 223.619 117.808C222.845 117.825 222.109 118.147 221.572 118.706C221.035 119.264 220.742 120.013 220.756 120.787Z" fill="#DBDBDB"/>
<path id="Vector_147" d="M129.946 135.632H108.421C106.443 135.632 107.691 134.604 108.104 134.604C108.452 134.604 108.444 133.932 108.684 133.707L108.757 133.642L119.189 133.112L129.621 133.642L129.671 133.692C129.88 133.881 129.911 134.604 130.27 134.604C130.629 134.604 131.92 135.632 129.946 135.632Z" fill="#263238"/>
<path id="Vector_148" d="M134.118 122.835C134.168 125.385 133.556 127.905 132.341 130.148C131.126 132.391 129.35 134.28 127.187 135.631H111.126C110.247 135.074 109.428 134.427 108.684 133.7C105.906 130.994 104.312 127.299 104.248 123.422C104.17 119.461 105.667 115.631 108.412 112.775C111.157 109.918 114.925 108.269 118.886 108.19C122.847 108.111 126.677 109.609 129.533 112.354C132.39 115.099 134.039 118.866 134.118 122.827V122.835Z" fill="#263238"/>
<path id="Vector_149" d="M106.74 123.372C106.854 126.639 108.249 129.729 110.623 131.976C112.996 134.223 116.159 135.446 119.427 135.381C122.695 135.315 125.806 133.967 128.088 131.627C130.37 129.286 131.639 126.142 131.622 122.874C131.614 121.224 131.277 119.592 130.632 118.074C129.987 116.555 129.047 115.18 127.866 114.028C126.685 112.877 125.286 111.971 123.752 111.365C122.217 110.758 120.578 110.463 118.928 110.496C117.279 110.529 115.653 110.89 114.144 111.557C112.635 112.225 111.274 113.185 110.14 114.384C109.006 115.582 108.121 116.993 107.537 118.537C106.954 120.08 106.683 121.723 106.74 123.372Z" fill="#37474F"/>
<path id="Vector_150" d="M123.528 133.137C129.053 130.736 131.585 124.311 129.184 118.786C126.783 113.262 120.358 110.73 114.833 113.131C109.309 115.532 106.777 121.957 109.178 127.481C111.579 133.006 118.004 135.538 123.528 133.137Z" fill="#DBDBDB"/>
<path id="Vector_151" d="M126.292 130.243C130.219 126.315 130.219 119.948 126.292 116.02C122.364 112.093 115.997 112.093 112.069 116.02C108.142 119.948 108.142 126.315 112.069 130.243C115.997 134.17 122.364 134.17 126.292 130.243Z" fill="#A6A6A6"/>
<path id="Vector_152" d="M117.555 120.644L120.711 120.583C119.614 119.064 123.223 113.628 123.223 113.628L121.55 113.106C120.483 115.038 119.943 115.591 119.031 115.61C118.119 115.629 117.559 115.081 116.415 113.207L114.75 113.786C114.75 113.786 118.586 119.083 117.555 120.644Z" fill="#DBDBDB"/>
<path id="Vector_153" d="M120.978 120.768L122.013 123.751C123.118 122.24 129.412 123.986 129.412 123.986L129.393 122.236C127.241 121.815 126.534 121.463 126.236 120.613C125.939 119.763 126.283 119.068 127.708 117.383L126.642 116C126.642 116 122.782 121.27 120.978 120.768Z" fill="#DBDBDB"/>
<path id="Vector_154" d="M121.921 124.075L119.386 125.972C121.167 126.556 121.449 133.082 121.449 133.082L123.111 132.521C122.844 130.342 122.948 129.566 123.675 129.017C124.401 128.468 125.174 128.577 127.202 129.403L128.191 127.962C128.191 127.962 122.002 125.938 121.921 124.075Z" fill="#DBDBDB"/>
<path id="Vector_155" d="M119.077 125.98L116.485 124.172C116.485 126.046 110.361 128.333 110.361 128.333L111.404 129.736C113.394 128.812 114.166 128.673 114.912 129.191C115.658 129.709 115.793 130.485 115.619 132.668L117.3 133.163C117.3 133.163 117.319 126.633 119.077 125.98Z" fill="#DBDBDB"/>
<path id="Vector_156" d="M116.376 123.863L117.292 120.841C115.511 121.413 111.446 116.302 111.446 116.302L110.43 117.731C111.926 119.338 112.296 120.026 112.034 120.899C111.771 121.773 111.079 122.136 108.943 122.646L108.993 124.396C108.993 124.396 115.213 122.398 116.376 123.863Z" fill="#DBDBDB"/>
<path id="Vector_157" d="M116.261 123.121C116.271 123.699 116.453 124.26 116.783 124.735C117.113 125.209 117.577 125.575 118.114 125.786C118.652 125.997 119.241 126.043 119.805 125.92C120.37 125.796 120.885 125.508 121.286 125.092C121.686 124.675 121.954 124.15 122.056 123.581C122.158 123.012 122.089 122.426 121.857 121.896C121.626 121.367 121.243 120.918 120.756 120.606C120.269 120.295 119.701 120.135 119.123 120.146C118.35 120.162 117.614 120.484 117.077 121.042C116.541 121.6 116.247 122.347 116.261 123.121Z" fill="#DBDBDB"/>
<path id="Vector_158" d="M147.456 86.2504C148.004 86.7913 147.977 91.6594 147.583 92.0458C147.189 92.4322 141.788 92.8185 141.328 89.8049C140.868 86.7913 146.602 85.4042 147.456 86.2504Z" fill="#FFC727"/>
<path id="Vector_159" d="M159.236 74.0606C159.236 74.0606 143.542 81.6178 132.113 89.2292L128.072 89.2524C128.207 89.1597 128.292 89.094 128.323 89.0785L128.419 89.0167L128.504 88.9626L129.161 88.5762L129.424 88.4217L129.575 88.3367L129.876 88.159L130.061 88.0469L131.255 87.3553C131.445 87.2472 131.642 87.1351 131.846 87.0115L132.082 86.8763L132.565 86.5981C132.646 86.5517 132.731 86.5053 132.816 86.4513L133.562 86.0262L133.643 85.976C133.902 85.8331 134.161 85.6824 134.416 85.5279L134.497 85.4853L135.586 84.8594C135.884 84.6894 136.189 84.5117 136.506 84.3378L136.946 84.0867L137.464 83.7931L138.527 83.1903L139.114 82.8619L141.173 81.7028L141.869 81.3165L143.028 80.6751L144.025 80.1226L144.384 79.9217L145.103 79.5354L145.817 79.149C146.895 78.5579 147.969 77.9899 149.02 77.4065L149.72 77.0201L150.071 76.8308C150.218 76.7574 150.365 76.6801 150.508 76.599L150.755 76.4676L151.431 76.1083L151.767 75.9306L152.436 75.5829L152.76 75.409C153.089 75.2429 153.409 75.0729 153.722 74.9106L154.34 74.5899C154.472 74.5281 154.599 74.4624 154.727 74.3967L155.546 73.9833C155.909 73.7979 156.261 73.6279 156.605 73.4579L159.236 74.0606Z" fill="#37474F"/>
<g id="Group_7" opacity="0.5">
<path id="Vector_160" d="M241.091 110.34C240.162 108.826 239.028 107.448 237.721 106.245C233.774 102.541 228.532 100.534 223.121 100.654L221.784 100.724L221.119 100.758C220.895 100.785 220.675 100.82 220.455 100.851L219.133 101.048C218.697 101.141 218.264 101.257 217.831 101.361C216.098 101.8 214.447 102.518 212.944 103.486C211.451 104.463 210.118 105.666 208.995 107.052C207.903 108.452 206.97 109.97 206.214 111.577C207.027 110.007 208.005 108.528 209.131 107.164C210.265 105.818 211.601 104.655 213.091 103.718C216.074 101.836 219.624 101.06 223.136 101.013C224.886 100.98 226.634 101.159 228.341 101.547C231.788 102.349 234.978 104.009 237.613 106.372C238.942 107.536 240.111 108.87 241.091 110.34Z" fill="white"/>
<path id="Vector_161" d="M136.425 110.842C135.496 109.328 134.362 107.95 133.056 106.747C129.108 103.044 123.866 101.036 118.455 101.156L117.118 101.226L116.454 101.261C116.23 101.288 116.009 101.322 115.789 101.357L114.468 101.55C114.031 101.643 113.598 101.759 113.166 101.863C111.432 102.302 109.781 103.02 108.278 103.988C106.781 104.964 105.445 106.167 104.318 107.554C103.225 108.954 102.292 110.472 101.536 112.079C102.35 110.509 103.328 109.03 104.453 107.666C105.587 106.32 106.923 105.157 108.413 104.22C111.396 102.339 114.947 101.562 118.459 101.516C120.217 101.481 121.972 101.662 123.686 102.053C127.127 102.858 130.31 104.518 132.94 106.878C134.271 108.041 135.443 109.374 136.425 110.842Z" fill="white"/>
<path id="Vector_162" d="M238.8 85.5627C236.462 83.7468 234.094 81.9811 231.706 80.2347C229.318 78.4884 226.911 76.7768 224.431 75.1502C224.118 74.9532 223.801 74.7638 223.476 74.5707C223.318 74.4741 223.152 74.3852 222.978 74.3002C222.803 74.2163 222.621 74.149 222.433 74.0993C221.718 73.8907 221 73.7129 220.281 73.5391C218.84 73.1913 217.399 72.8591 215.946 72.5809C214.485 72.3099 213.004 72.1651 211.518 72.1482C210.039 72.125 208.559 72.1482 207.083 72.21C208.559 72.21 210.039 72.2409 211.511 72.322C212.984 72.3721 214.45 72.5492 215.892 72.8513C217.333 73.1682 218.77 73.4927 220.204 73.852C220.919 74.0336 221.633 74.2152 222.337 74.4238C222.506 74.4692 222.67 74.5313 222.827 74.6093C222.986 74.6904 223.144 74.7793 223.302 74.872C223.619 75.0536 223.928 75.2584 224.241 75.4516C226.722 77.0395 229.125 78.7666 231.547 80.4743L238.8 85.5627Z" fill="white"/>
</g>
<path id="Vector_163" opacity="0.1" d="M123.022 105.681C134.481 108.242 134.709 121.201 134.721 123.577C134.721 123.577 206.615 121.591 206.913 121.529C207.148 121.479 207.025 110.132 215.49 105.766C211.688 107.67 206.824 112.257 205.008 118.933C204.811 119.644 194.344 120.811 176.448 121.467C158.552 122.124 142.989 121.854 140.037 121.437C137.085 121.019 133.542 105.584 123.022 105.681Z" fill="black"/>
<path id="Vector_164" opacity="0.1" d="M103.109 120.015C103.047 122.611 103.495 125.466 103.356 125.462C103.051 125.462 102.282 125.52 101.691 125.524C101.586 125.526 101.482 125.512 101.382 125.482C101.103 125.366 101.594 123.229 101.32 123.164C101.045 123.098 99.1059 123.055 98.6346 122.939C98.1632 122.824 94.7168 119.153 94.6589 119.053C95.3659 119.23 99.1909 121.294 99.6468 120.791C100.103 120.289 99.5966 119.984 101.579 115.826C103.561 111.669 108.437 107.616 111.381 106.979C108.994 108.253 106.978 110.123 105.528 112.407C104.078 114.692 103.245 117.313 103.109 120.015Z" fill="black"/>
</g>
</g>
</svg>
