<svg width="80" height="84" viewBox="0 0 80 84" fill="none" xmlns="http://www.w3.org/2000/svg">
<g id="Frame" clip-path="url(#clip0_1_44)">
<g id="Group">
<g id="Group_2">
<path id="Vector" d="M29.8056 23.9035C30.154 23.724 33.9021 22.1508 34.4089 22.0664C34.4089 22.0664 36.0665 22.7738 36.1826 22.8582C36.2988 22.9427 36.2249 23.7029 35.8765 24.0724C35.5175 24.4419 35.528 24.5475 35.2641 24.4631C35.0001 24.3786 35.4013 23.8824 35.5069 23.7134C35.6019 23.5551 35.5069 23.1116 35.5069 23.1116C35.5069 23.1116 35.2535 24.1569 34.884 24.4631C34.6834 24.632 33.7437 24.8643 34.3455 24.3469C34.884 23.8929 35.0318 23.27 35.0318 23.27C35.0318 23.27 34.3667 24.3892 33.9232 24.6848C33.4903 24.9804 33.4692 24.8115 33.6593 24.3786C33.8388 23.9563 34.24 23.3017 34.24 23.3017C34.24 23.3017 34.1238 24.4842 32.5718 25.0754C32.2867 25.1916 29.436 25.4977 29.436 25.4977L29.8056 23.9035Z" fill="#DDAC9E"/>
<g id="Group_3">
<path id="Vector_2" d="M35.9081 22.0961L30.9581 25.3097L31.2456 25.7525L36.1955 22.5389L35.9081 22.0961Z" fill="#232121"/>
<g id="Group_4">
<path id="Vector_3" d="M38.1147 20.4404L38.6215 21.2112C38.7798 21.5174 38.3681 22.1086 37.6818 22.552C36.9955 22.9955 36.2881 23.1327 36.077 22.8688L35.5702 22.098L38.1147 20.4404Z" fill="black"/>
<g id="Group_5">
<path id="Vector_4" d="M38.3961 20.5337L38.1575 20.6897L38.2441 20.8222L38.4827 20.6662L38.3961 20.5337Z" fill="black"/>
<g id="Group_6">
<path id="Vector_5" d="M38.2941 20.5671L38.3996 20.5038C38.4313 20.4616 38.463 20.4299 38.5158 20.3982C38.558 20.3665 38.6108 20.3454 38.653 20.3349L38.7586 20.2715L38.8431 20.4088C38.8853 20.4721 38.822 20.5988 38.6953 20.6833C38.5686 20.7677 38.4313 20.7783 38.3891 20.715L38.368 20.6727L38.2941 20.5671Z" fill="black"/>
<path id="Vector_6" d="M38.3047 20.5882C38.3469 20.6516 38.4842 20.6305 38.6109 20.546C38.7376 20.4615 38.8115 20.3454 38.7692 20.2821C38.727 20.2187 38.5898 20.2398 38.4631 20.3137C38.3258 20.4088 38.2625 20.5249 38.3047 20.5882Z" fill="#232121"/>
</g>
</g>
<g id="Group_7">
<path id="Vector_7" d="M35.5702 22.098C35.7497 22.3831 36.4782 22.2459 37.1856 21.7813C37.893 21.3273 38.3153 20.7255 38.1253 20.4404C37.9352 20.1554 37.2173 20.2926 36.5099 20.7572C35.8025 21.2112 35.3802 21.813 35.5702 22.098Z" fill="#232121"/>
<path id="Vector_8" d="M36.0031 21.8658C36.1087 22.0241 36.5733 21.8974 37.0484 21.5807C37.5235 21.2745 37.8297 20.8944 37.7346 20.7361C37.6396 20.5777 37.1645 20.7044 36.6894 21.0211C36.2037 21.3379 35.8975 21.7074 36.0031 21.8658Z" fill="white"/>
</g>
</g>
</g>
<path id="Vector_9" d="M31.8222 23.6923C32.2973 23.8929 33.6698 24.1358 34.1344 23.8929C34.5989 23.6501 35.1902 23.5973 35.3697 23.6606C35.5491 23.7134 35.9609 23.3122 35.3591 23.2172C34.7573 23.1222 33.4375 22.8477 32.6246 22.8266C31.8116 22.816 31.8222 23.6923 31.8222 23.6923Z" fill="#DDAC9E"/>
</g>
<path id="Vector_10" d="M17.2097 18.9729C19.976 19.2157 23.8402 24.1358 24.157 24.2097C25.0649 24.4314 27.5461 23.8085 30.3123 23.3861C31.1886 23.2489 30.7346 27.7888 30.7346 27.7888C30.7346 27.7888 25.7196 29.4676 22.2354 28.8341C20.62 28.5385 17.3364 26.089 16.5868 24.991C14.7497 22.2986 13.3349 18.6244 17.2097 18.9729Z" fill="#34469C"/>
<g id="Group_8">
<g id="Group_9">
<path id="Vector_11" d="M19.1736 12.2474C18.6879 13.1342 18.2867 14.3273 16.9775 15.1297C15.6683 15.9321 15.6683 15.9321 15.6683 15.9321L19.3003 19.6063C19.3003 19.6063 20.3561 17.5792 21.4436 17.178C22.5205 16.7768 19.1736 12.2474 19.1736 12.2474Z" fill="#DDAC9E"/>
<path id="Vector_12" d="M28.3802 9.8718C28.2113 7.04223 22.5944 3.47361 20.43 7.20061C16.4707 14 20.5884 16.7662 20.5884 16.7662C22.1193 17.3364 22.436 17.6637 23.7135 17.6637C24.3365 17.6742 24.9911 17.0407 25.7301 16.1433C26.2475 16.2278 26.7965 16.4389 26.881 16.0694C26.8176 15.5098 27.071 14.6124 27.0921 14.2323C27.9579 12.7119 28.4647 11.2127 28.3802 9.8718Z" fill="#DDAC9E"/>
<g id="Group_10">
<path id="Vector_13" d="M21.8658 17.3258C22.7738 17.7587 22.9744 17.8326 23.6818 17.727C24.2942 17.632 24.9488 17.1041 25.6984 16.2066C26.2158 16.2911 26.7753 16.5023 26.8493 16.1327C26.7859 15.5731 27.0393 14.6757 27.0604 14.2956C27.9262 12.7647 28.8975 11.6983 28.8025 10.368C28.7919 10.2308 28.3168 9.63951 28.2746 9.4917L25.7301 9.02715C22.795 12.3001 21.074 14.9925 21.4541 16.7345L18.0649 18.54L19.2369 20.4615C19.2369 20.4615 21.074 18.1176 21.8658 17.3258Z" fill="#E8C8BA"/>
</g>
<path id="Vector_14" d="M21.7709 5.33182C22.5839 4.85671 23.6186 4.40271 25.4451 5.35294C27.2189 6.27149 28.2641 7.11613 28.8026 8.92156C29.0877 9.84011 28.338 10.3891 28.338 10.3891C28.338 10.3891 27.5251 9.22775 27.0394 9.13272C26.5537 9.0377 26.9338 10.0407 25.9625 10.5475C25.1495 10.9698 24.0409 11.5716 24.0409 11.5716C24.0409 11.5716 21.8871 11.3182 21.5492 11.8884C21.2113 12.4691 18.7196 12.9547 18.7196 12.9547C18.7196 12.9547 18.0862 11.3605 18.7091 8.99547C19.6276 5.49019 21.5703 5.44796 21.7709 5.33182Z" fill="#300901"/>
<path id="Vector_15" d="M23.1223 11.7089C22.9112 11.3183 22.6367 10.3364 22.1193 10.5686C21.6125 10.822 21.0107 12.2474 21.5809 13.0603C22.1404 13.8733 23.1223 11.7089 23.1223 11.7089Z" fill="#DDAC9E"/>
</g>
<g id="Group_11">
<path id="Vector_16" d="M31.4843 11.1493C32.5084 11.635 32.3501 12.4374 31.3787 12.8703C30.4074 13.2926 30.1223 12.8492 29.3938 12.3635C28.2535 11.6033 27.3983 10.7692 27.3983 10.7692L31.4843 11.1493Z" fill="#A39D9D"/>
<path id="Vector_17" d="M18.2339 10.2624C18.9941 10.2519 23.6502 9.30166 23.6502 9.30166C23.6502 9.30166 25.9624 11.5611 27.1871 11.6983C28.4119 11.8356 30.5129 10.4419 31.9911 11.5189C30.2806 9.97737 29.3621 9.55505 29.3621 9.55505C29.3621 9.55505 29.436 7.44344 27.3244 5.5641C26.4058 4.76169 24.5582 4.11764 23.7135 4.24434C22.8583 4.3816 20.7889 4.37104 19.6487 6.18703C18.5084 8.01357 18.2339 10.2624 18.2339 10.2624Z" fill="#BFB8B8"/>
</g>
<g id="Group_12">
<path id="Vector_18" d="M19.6382 6.2187C18.5085 8.03469 18.2234 10.2836 18.2234 10.2836C18.8674 10.273 22.246 9.60784 23.3124 9.39668C22.9745 7.73906 23.0695 5.42684 23.9247 4.26546C23.8508 4.26546 23.7664 4.26546 23.703 4.27602C22.8478 4.41327 20.7679 4.41327 19.6382 6.2187Z" fill="#A39D9D"/>
</g>
</g>
<path id="Vector_19" d="M5.2158 73.2519C5.59589 74.3182 5.32138 75.4585 5.17357 76.8944C5.02576 78.3303 4.6879 79.4072 6.13436 79.7451C7.57025 80.0724 12.9338 80.1041 12.9338 80.1041C12.9338 80.1041 15.8055 79.46 12.8071 78.1614C10.4843 77.1584 8.76331 75.902 8.96392 73.178C9.01671 72.6395 5.2158 73.2519 5.2158 73.2519Z" fill="black"/>
<path id="Vector_20" d="M12.4058 38.8431C12.2791 44.1433 11.8252 58.9035 11.7301 59.6531C10.8749 66.7587 10.0303 76.546 10.0303 76.546L5.65924 76.4404C5.65924 76.4404 3.94883 64.1931 5.52198 59.1146C5.9971 57.5732 3.71655 42.4223 3.71655 42.4223L12.4058 38.8431Z" fill="#34469C"/>
<path id="Vector_21" d="M0.981958 76.0181C0.844703 77.2112 0.200661 78.816 0.580751 80.4631C0.718006 81.0332 1.7527 81.276 2.59734 81.4766C2.94576 81.5611 4.17049 82.3846 4.79342 82.6169C7.06341 83.4615 8.16144 82.8386 8.58377 82.5852C9.01665 82.3318 9.14334 81.6984 8.12977 80.7376C7.26401 79.914 6.01816 79.46 5.6803 78.6893C5.33188 77.9186 5.50081 75.4902 5.50081 75.4902L0.981958 76.0181Z" fill="black"/>
<g id="Group_13">
<path id="Vector_22" d="M11.9624 37.9246C11.8357 43.2247 10.8327 49.2323 8.73162 60.0543C8.03479 63.6441 5.98652 79.1222 5.98652 79.1222L0.337955 79.2911C0.337955 79.2911 -0.369435 66.3997 0.337955 60.0649C0.454094 59.0619 1.45711 50.4254 0.791952 43.6154C0.327397 38.8326 2.8191 34.2082 2.8191 34.2082L11.9624 37.9246Z" fill="#506CB3"/>
</g>
<path id="Vector_23" d="M13.0393 41.092L1.01368 56.3379C1.01368 56.3379 0.791965 45.2836 0.728616 42.8447C0.665268 40.4057 1.5627 36.2459 2.8719 34.3771C4.19166 32.5083 13.0393 41.092 13.0393 41.092Z" fill="url(#paint0_linear_1_44)"/>
<path id="Vector_24" d="M20.7678 18.6244L21.3063 19.4691L20.4511 21.4962L19.4164 19.5852L20.7678 18.6244Z" fill="#506CB3"/>
<path id="Vector_25" d="M17.1043 14.9397C14.5176 15.6682 11.1706 17.6003 8.45722 22.457C6.31393 26.2896 2.00624 33.3741 2.52358 35.6546C2.872 37.1961 9.96702 41.5671 11.424 41.8522C12.8705 42.1373 15.8795 37.3333 16.6397 35.2956C17.3999 33.2474 20.24 22.6154 19.691 20.5988C19.1525 18.5928 17.1043 14.9397 17.1043 14.9397Z" fill="#506CB3"/>
<path id="Vector_26" d="M17.4421 14.2006C17.8222 15.0347 20.5145 19.5852 20.5145 19.5852L19.0363 22.267L15.5205 15.2142L17.4421 14.2006Z" fill="#34469C"/>
<path id="Vector_27" d="M15.2988 35.7285L5.58534 44.3122L1.93225 36.5204C1.93225 36.5204 3.19922 31.5792 6.42999 26.0679C7.32743 24.537 12.8071 18.2232 12.8071 18.2232L15.2988 35.7285Z" fill="url(#paint1_linear_1_44)"/>
<path id="Vector_28" d="M49.8764 24.0935C48.62 24.3363 48.0076 24.2308 47.2474 24.1885C47.0363 24.178 46.8885 23.9246 45.8854 23.46C45.6532 23.3439 43.9533 22.1192 43.9639 22.4359C43.9744 22.7632 43.5204 23.8612 43.7633 23.8401C44.0061 23.819 43.9428 24.7798 44.2489 24.822C44.4918 24.8537 42.1479 25.1071 44.0061 27.1448C44.1645 27.3137 45.0619 27.1765 45.1464 27.1976C45.5265 27.282 49.9925 26.638 49.9925 26.638L49.8764 24.0935Z" fill="#DDAC9E"/>
<path id="Vector_29" d="M58.3757 14.0422C57.6367 15.3409 54.3109 21.8341 54.3109 21.8341L47.427 24.0935C47.427 24.0935 47.9866 27.9789 48.525 28.2112C49.1163 28.4646 56.2324 26.4585 56.2324 26.4585L63.2324 18.3288L58.3757 14.0422Z" fill="#BFB8B8"/>
<path id="Vector_30" d="M61.5115 11.2127C61.7438 10.7904 67.8252 9.58674 68.7649 10.3891C69.7046 11.1916 69.4723 12.6275 69.1872 13.1026C68.9022 13.5777 61.2264 13.7572 61.2264 13.7572L61.5115 11.2127Z" fill="#BFB8B8"/>
<g id="Group_14">
<path id="Vector_31" d="M62.9262 7.92911L62.5039 14.6652C62.5039 14.6652 65.5869 19.0784 67.2445 19.3424C68.9021 19.6169 69.24 15.2247 68.5114 14.4118C66.3259 11.9623 66.9066 7.29562 66.9066 7.29562L62.9262 7.92911Z" fill="#DDAC9E"/>
<g id="Group_15">
<path id="Vector_32" d="M69.6202 13.1448C66.9912 11.3605 67.3291 7.38008 67.3291 7.38008L65.038 8.0558L65.4181 19.9125C67.0651 20.1342 70.507 13.7466 69.6202 13.1448Z" fill="#E8C8BA"/>
</g>
</g>
<g id="Group_16">
<path id="Vector_33" d="M62.1133 7.70738C61.596 6.85218 66.062 7.41176 67.4135 8.0558L64.8162 18.4449C64.0138 18.3182 60.7302 16.914 60.4135 16.6395C60.6985 15.9638 63.0213 9.21719 62.1133 7.70738Z" fill="url(#paint2_linear_1_44)"/>
</g>
<path id="Vector_34" d="M63.8554 15.267C62.863 13.9155 63.0847 11.9728 63.0847 11.9728C63.0847 11.9728 61.1948 11.181 58.5447 13.8311C57.9218 14.454 58.7876 17.7059 58.6609 18.9095C58.5236 20.1131 59.7167 20.5988 59.9806 21.9397C60.2446 23.2805 60.2235 32.3394 61.4271 33.9231C62.24 34.9894 62.0394 33.5535 66.6005 33.6169C66.6005 28.6546 66.1993 19.7225 65.9354 17.0407C65.9143 16.8401 64.9112 16.7029 63.8554 15.267Z" fill="#BFB8B8"/>
<path id="Vector_35" d="M59.7377 47.7119L54.2053 45.8431H16.9353L23.8192 47.7119H59.7377Z" fill="#414E5B"/>
<path id="Vector_36" d="M31.3364 45.8959C31.2836 46.6561 31.3681 47.1312 30.6079 47.0256L26.4375 46.6139C25.6773 46.5083 25.0544 45.7903 25.0544 45.0302L25.0227 39.0648C25.0227 38.2941 25.6351 37.724 26.4058 37.7873L30.4601 38.1252C31.2203 38.1885 31.8115 38.8642 31.7588 39.6244L31.3364 45.8959Z" fill="#232121"/>
<path id="Vector_37" d="M56.0634 39.2338H30.8613V47.0256H56.0634V39.2338Z" fill="black"/>
<path id="Vector_38" d="M30.8826 37.1433L55.3878 37.365C55.3878 37.365 56.9716 39.2338 56.7393 40.2474C56.507 41.2926 56.4014 41.2609 56.4014 41.2609H30.8826V37.1433Z" fill="#232121"/>
<g id="Group_17">
<path id="Vector_39" d="M67.1812 5.04675C66.7272 2.73453 65.9036 0.865756 62.599 1.48868C58.4602 2.25942 59.2837 4.73001 59.7483 7.55957C60.2128 10.3891 62.5039 13.1342 64.6156 12.7858C66.2309 12.5219 67.2656 10.5369 67.4662 8.36198C67.8569 8.0558 68.0892 7.4012 68.0047 6.68325C67.8886 5.7647 67.7935 5.00452 67.1812 5.04675Z" fill="#E8C8BA"/>
<g id="Group_18">
<path id="Vector_40" d="M60.2446 9.43892C61.1948 11.3499 63.0319 13.0181 64.5945 12.7647C64.6684 12.7542 64.3516 12.7436 64.3516 12.7436C59.7694 6.82051 61.7649 1.72097 61.4799 1.80543C59.2415 2.55506 58.7559 4.10709 59.1043 6.16592C59.0409 6.17647 59.6428 8.04525 60.2446 9.43892Z" fill="#DDAC9E"/>
</g>
<path id="Vector_41" d="M62.2083 0.453995C60.8569 0.0633461 59.0092 1.00301 58.6186 2.4917C58.3968 3.31523 58.2279 4.09653 58.3968 5.32126C58.5658 6.55656 59.1676 7.42232 59.1676 7.42232L59.5899 7.77074C59.5899 7.77074 58.6819 6.03921 59.875 4.96229C60.878 4.0543 62.884 3.93816 62.884 3.93816L62.2083 0.453995Z" fill="#300901"/>
<path id="Vector_42" d="M60.2233 4.67723C60.6985 5.06787 61.9549 5.18401 63.0318 4.92006C64.1193 4.65611 65.154 4.76169 65.5129 5.18401C65.8719 5.60634 66.1464 6.30317 66.1464 6.30317L67.1917 5.43741H67.9307C67.9307 5.43741 67.8674 3.33635 67.0544 1.94269C66.5793 1.14027 65.6502 0.39065 64.436 0.147814C63.8131 0.0211173 61.2686 -0.337857 60.16 0.897437C59.8116 1.26697 60.2233 4.67723 60.2233 4.67723Z" fill="#662619"/>
</g>
<path id="Vector_43" d="M76.2822 83.9894L78.3938 83.9366C78.3938 83.9366 80.8538 83.3454 79.2279 81.0754C78.0137 79.3861 78.2037 78.7526 77.5597 77.4329C77.169 76.641 74.2233 77.1267 74.2233 77.1267C74.2233 77.1267 74.6034 79.6817 74.3606 80.5369C73.2942 84.2745 76.2822 83.9894 76.2822 83.9894Z" fill="black"/>
<path id="Vector_44" d="M73.1781 31.8959C74.2128 33.9653 75.0997 36.6365 75.8916 43.1297C76.24 46.0015 76.6623 51.8824 77.2958 54.1735C79.8086 63.2534 79.0168 79.0905 79.0168 79.0905L74.1917 79.3122C69.6729 56.4646 69.4723 56.2428 69.8523 57.7421C69.4934 56.2956 66.9594 45.991 66.9594 45.991L64.7106 32.9623L73.1781 31.8959Z" fill="#506CB3"/>
<path id="Vector_45" d="M66.2732 77.0739C65.9142 78.4993 64.4467 79.7029 63.3803 80.0619C62.3139 80.4208 60.9942 81.1177 61.3532 82.543C61.7121 83.9683 64.4995 83.3349 64.4995 83.3349C64.4995 83.3349 67.9942 82.2051 69.0605 82.2051C70.1269 82.2051 70.1269 79.2489 69.7679 77.8235C69.4195 76.3771 66.2732 77.0739 66.2732 77.0739Z" fill="black"/>
<g id="Group_19">
<path id="Vector_46" d="M61.5431 55.4932C62.1238 64.5415 64.7949 79.2278 64.7949 79.2278L70.2957 79.0377C70.2957 79.0377 70.1162 63.4012 69.4511 59.8959C68.8281 56.6124 67.2972 49.7919 67.2972 49.7919C67.2972 49.7919 68.9232 58.0166 69.2927 59.4631C69.6517 60.9095 73.801 79.3967 73.801 79.3967L77.4118 79.0483C77.1373 76.3032 74.5717 61.2896 73.3048 55.6621C72.5657 52.3786 70.3485 38.9593 70.1268 33.543L59.9594 30.7451C59.9594 30.7557 61.3108 51.8718 61.5431 55.4932Z" fill="#34469C"/>
</g>
<path id="Vector_47" d="M68.9338 10.8115C68.9338 10.8115 69.8418 10.7692 72.8297 12.0151C74.519 12.7225 75.4059 14.3062 75.5431 15.5204C75.6804 16.724 74.0544 23.0905 73.7905 24.4314C73.5265 25.7722 71.3727 30.1327 71.5522 32.5294C71.6472 33.8703 65.7558 33.4585 63.2324 33.4796C63.2324 28.5173 64.3621 16.6501 64.7528 16.5973C68.3003 16.0799 68.9338 10.8115 68.9338 10.8115Z" fill="#D8D8D8"/>
<path id="Vector_48" d="M61.3742 12.0679C61.0785 13.3982 60.1072 19.1946 60.5506 19.4902C61.6592 20.2293 69.1132 19.0784 69.1132 19.0784L70.1796 34.4299C70.1796 34.4299 60.4662 34.9366 60.4662 35.6652C60.4662 36.7632 59.5054 30.914 59.5054 29.7315C59.5054 28.549 58.4285 21.4329 58.4285 21.4329C58.4285 21.4329 59.6849 15.3303 60.2339 12.6274C60.9202 12.3001 61.3742 12.0679 61.3742 12.0679Z" fill="#34469C"/>
<path id="Vector_49" d="M70.7182 11.0226C70.7182 11.0226 68.8178 15.1508 67.8359 18.73C67.6986 19.2474 67.6353 20.8205 67.6353 20.8205C67.6353 20.8205 68.0892 29.267 70.2325 33.9231C70.6443 34.8205 73.1677 33.5852 73.1677 33.5852C73.1677 33.5852 74.9837 31.1674 74.688 21.2745C74.6669 20.6833 69.3245 19.2051 69.3245 18.6244C69.3245 18.0332 71.7212 11.371 71.7212 11.371L70.7182 11.0226Z" fill="#506CB3"/>
<g id="Group_20">
<path id="Vector_50" d="M30.8191 82.8281H23.798L17.0514 79.2066V45.6953L23.798 47.7119H30.8191V82.8281Z" fill="#414E5B"/>
<path id="Vector_51" d="M59.7271 47.7119H23.8191V82.8281H59.7271V47.7119Z" fill="#758B9B"/>
</g>
<g id="Group_21">
<path id="Vector_52" d="M51.9458 37.5339C51.9458 37.9035 51.6396 38.2097 51.2701 38.2097H30.9458C30.5763 38.2097 28.0001 36.7632 28.0001 36.3831V29.8477C28.0001 29.4781 28.3063 29.172 28.6758 29.172H51.2595C51.6396 29.172 51.9353 29.4781 51.9353 29.8477V37.5339H51.9458Z" fill="black"/>
<path id="Vector_53" d="M30.8825 38.1674C30.8825 34.0498 30.2596 29.1192 28.4541 29.2142C26.8599 29.2987 26.3848 33.7119 26.3848 37.8296L30.8825 38.1674Z" fill="#232121"/>
</g>
<g id="Group_22">
<path id="Vector_54" d="M29.9112 42.5279C29.9112 43.6893 29.2883 44.6606 28.4331 44.9246C28.2852 44.9668 27.6306 45.0513 27.4617 45.0513C26.3848 45.0513 26.0153 43.8899 26.0153 42.5279C26.0153 41.4721 26.2475 40.5113 26.976 40.1629C27.1872 40.0573 27.7151 40.0573 27.9579 40.0573C29.0454 40.0573 29.9112 41.1659 29.9112 42.5279Z" fill="#34469C"/>
<path id="Vector_55" d="M29.3199 42.5913C29.3199 43.9532 28.4542 45.0618 27.3773 45.0618C26.3003 45.0618 25.4346 43.9532 25.4346 42.5913C25.4346 41.2293 26.3109 40.1207 27.3773 40.1207C28.4542 40.1207 29.3199 41.2293 29.3199 42.5913Z" fill="#506CB3"/>
<path id="Vector_56" d="M28.2008 42.5174C28.1902 43.1825 27.7679 43.721 27.2505 43.7104C26.7332 43.6999 26.3214 43.1614 26.332 42.4857C26.3425 41.8205 26.7649 41.2821 27.2822 41.2926C27.7996 41.3032 28.2113 41.8522 28.2008 42.5174Z" fill="#34469C"/>
</g>
<g id="Group_23">
<g id="Group_24">
<path id="Vector_57" d="M35.4648 27.4827H34.3351V30.0588H35.4648V27.4827Z" fill="#758B9B"/>
<path id="Vector_58" d="M37.8825 27.4827H36.7528V30.0588H37.8825V27.4827Z" fill="#758B9B"/>
<path id="Vector_59" d="M40.3004 27.4827H39.1707V30.0588H40.3004V27.4827Z" fill="#758B9B"/>
</g>
<g id="Group_25">
<g id="Group_26">
<g id="Group_27">
<path id="Vector_60" d="M41.8207 27.5777C41.8207 27.9155 41.5462 28.19 41.2083 28.19H33.0258C32.688 28.19 32.4135 27.9155 32.4135 27.5777V26.0362C32.4135 25.6983 32.688 25.4133 33.0258 25.4133H41.2083C41.5462 25.4133 41.8207 25.6878 41.8207 26.0362V27.5777Z" fill="#758B9B"/>
</g>
<g id="Group_28">
<path id="Vector_61" d="M34.409 26.0995H29.4678V27.4932H34.409V26.0995Z" fill="#758B9B"/>
</g>
</g>
</g>
</g>
<path id="Vector_62" d="M25.519 45.8854C25.4979 45.8854 23.9353 45.7692 22.2671 45.3997C20.6201 44.9668 18.7618 44.5445 18.1917 42.9608C18.1284 42.7391 18.0967 42.4962 18.0967 42.2745C18.1072 40.9759 19.1419 40.0362 20.6728 39.4661C22.2354 38.8748 24.4843 38.5053 27.5145 38.3786C27.884 38.368 28.2008 38.6531 28.2219 39.0226C28.2324 39.3922 27.9474 39.7089 27.5778 39.73C24.6216 39.8567 22.4783 40.2262 21.1585 40.733C19.8071 41.2609 19.4481 41.81 19.4587 42.2745C19.4587 42.3695 19.4692 42.4751 19.5115 42.6018C19.4903 43.003 21.0001 43.7843 22.5733 44.0799C24.1253 44.4284 25.6246 44.5339 25.6246 44.5339C25.9941 44.5656 26.2792 44.8824 26.2475 45.2624C26.2158 45.6214 25.9202 45.8854 25.5718 45.8854C25.5612 45.8959 25.5401 45.8959 25.519 45.8854Z" fill="#232121"/>
<g id="Group_29">
<path id="Vector_63" d="M43.6049 20.282C43.6049 20.282 43.531 20.0708 43.3304 20.0075C43.2987 19.9969 43.2776 19.9863 43.2671 19.9863C43.1087 19.9441 42.8553 19.8913 42.5069 20.018C42.1479 20.1341 41.9684 20.2925 41.8734 20.4192C41.8523 20.4403 41.8312 20.4614 41.8101 20.4931C41.6834 20.6621 41.7573 20.8732 41.7573 20.8732C41.7573 20.8732 42.5491 23.3227 42.792 24.1357C42.8131 24.199 42.8342 24.199 42.8342 24.199C43.3727 24.5369 43.3093 24.7375 43.3304 24.9381C43.341 24.9909 43.2143 25.0542 43.1932 25.1387C43.1826 25.1492 43.246 25.3604 43.2882 25.4237C43.2882 25.4449 43.4571 25.4132 43.7 25.3498C43.7316 25.371 43.7633 25.4026 43.7633 25.4026C43.7844 25.4237 43.8267 25.4237 43.9006 25.4449C43.9639 25.466 44.0378 25.5716 44.0378 25.5716L45.6004 30.4705L45.611 30.9034L45.9171 31.4207L46.2972 31.3046L46.2444 30.7133H46.2339L46.0122 30.3544L44.4601 25.4554C44.4707 25.4554 44.4601 25.3287 44.5024 25.2759C44.5446 25.2126 44.5763 25.1915 44.5868 25.1598C44.5868 25.1598 44.5974 25.1176 44.6079 25.0859C44.8613 25.0014 45.0197 24.9275 45.0092 24.9064C44.9986 24.8219 44.9141 24.6213 44.9036 24.6108C44.8402 24.558 44.7346 24.6213 44.6819 24.5263C44.5763 24.3574 44.4073 24.2307 44.6713 23.65C44.6713 23.65 44.6819 23.6183 44.6713 23.555C44.3651 22.7314 43.6049 20.282 43.6049 20.282Z" fill="#506CB3"/>
<g id="Group_30">
<path id="Vector_64" d="M46.2338 30.6923L46.0015 30.3333L44.4495 25.4344C44.4601 25.4344 44.4495 25.3077 44.4917 25.2549C44.534 25.1916 44.5657 25.1704 44.5762 25.1388C44.5762 25.1388 44.5868 25.0965 44.5973 25.0649C44.8507 24.9804 45.0091 24.9065 44.9985 24.8854C44.988 24.8009 44.9035 24.6003 44.893 24.5897C44.8296 24.537 44.724 24.6003 44.6712 24.5053C44.5657 24.3364 44.3967 24.2097 44.6607 23.629C44.6607 23.629 44.6712 23.5973 44.6607 23.5339C44.3862 22.721 43.626 20.2715 43.626 20.2715C43.626 20.2715 43.5521 20.0603 43.3515 19.997C43.3198 19.9864 43.2987 19.9864 43.2881 19.9759C43.1298 19.9336 42.8764 19.8808 42.5279 20.0075C42.4963 20.0181 42.4752 20.0287 42.4435 20.0392L46.1494 31.3364L46.3077 31.2836L46.2338 30.6923Z" fill="#34469C"/>
</g>
</g>
<path id="Vector_65" d="M44.3335 27.4932L45.0409 27.4299C45.0409 27.4299 45.3577 27.4615 45.516 27.1342C45.5794 26.997 45.2838 26.8386 45.0832 26.8386C45.0198 26.8386 44.3969 26.8175 44.3969 26.8175C44.3969 26.8175 44.6186 26.8175 44.8086 26.7436C45.1887 26.6063 45.516 26.448 45.3999 26.1418C45.2732 25.8356 44.5975 26.1523 44.323 26.089C44.5552 26.0256 45.231 25.73 45.1254 25.4977C45.0198 25.2655 44.1963 25.3077 44.1224 25.3077C44.059 25.3077 43.7423 25.1493 43.7423 25.1493C43.7423 25.1493 44.323 25.086 44.4074 25.0226C44.5025 24.9593 44.5552 24.8009 44.4497 24.6214C44.3441 24.4314 43.7106 24.3786 43.5733 24.368C43.4361 24.368 42.9715 24.0618 42.7815 24.0618C42.602 24.0513 42.5281 24.6003 42.4964 24.7376C42.4647 24.8748 42.792 24.9698 42.7815 25.1071C42.7815 25.2443 42.6865 25.6139 42.8132 25.7828C42.9504 25.9517 43.1721 26.1735 43.1721 26.1735C43.1721 26.1735 43.1721 26.4585 43.2672 26.7647C43.3727 27.0709 43.5945 27.0287 43.5945 27.2187C43.605 27.3876 44.3335 27.4932 44.3335 27.4932Z" fill="#E8C8BA"/>
<g id="Group_31">
<path id="Vector_66" d="M26.6382 41.641C26.5854 41.3771 24.7377 39.994 24.6427 39.8989C24.5688 39.825 23.9564 39.1704 23.5024 38.632C24.1993 38.7164 25.2551 38.7587 25.0228 38.4842C24.2626 38.0724 22.7317 37.7979 22.2882 37.724L18.9625 36.5309C19.691 38.6531 18.2023 37.6923 19.0258 38.8643C19.1947 39.0965 22.3199 41.2398 22.6155 41.3982C22.9112 41.5566 24.6849 42.6863 24.9806 42.4646C25.0967 42.3801 24.1042 41.8205 23.703 41.5988C24.2204 41.8733 25.7513 42.6863 25.7724 42.4434C25.7935 42.19 23.9987 41.0181 23.9987 41.0181C23.9987 41.0181 25.2762 41.8416 25.783 42.0422C26.3953 42.2956 26.4798 42.095 26.0997 41.8522C25.7935 41.6516 24.3576 40.5641 24.3576 40.5641C24.3576 40.5641 25.0228 41.0075 25.6879 41.4193C26.4059 41.8627 26.691 41.905 26.6382 41.641Z" fill="#DDAC9E"/>
<path id="Vector_67" d="M13.1977 17.6848C13.1977 17.6848 11.7724 18.994 11.6034 20.4193C11.3712 22.3831 10.4104 30.4178 11.6034 32.5189C14.1479 37.006 15.3832 38.1357 19.2792 39.6878C20.62 40.2157 21.8659 37.1011 21.8659 37.1011C21.8659 37.1011 17.6321 30.6501 17.5265 29.7421C17.4209 28.8235 17.4526 20.6621 17.1464 19.4268C16.7875 17.9698 15.1298 16.7662 13.1977 17.6848Z" fill="#34469C"/>
</g>
<path id="Vector_68" d="M74.5296 18.9834L61.2053 46.2232C61.2053 46.2232 60.2973 32.6139 59.9595 30.9246C59.6216 29.2353 71.7 14.1584 71.7 14.1584L74.5296 18.9834Z" fill="url(#paint3_linear_1_44)"/>
<g id="Group_32">
<g id="Group_33">
<path id="Vector_69" d="M48.8312 40.0679C48.8312 40.4691 48.525 40.7964 48.1555 40.7964H44.2596C43.89 40.7964 43.5839 40.4691 43.5839 40.0679V35.6757C43.5839 35.2745 43.89 34.9472 44.2596 34.9472H48.1555C48.525 34.9472 48.8312 35.2745 48.8312 35.6757V40.0679Z" fill="#414E5B"/>
<path id="Vector_70" d="M49.7709 35.3062C49.7709 35.7074 49.4013 36.0347 48.9368 36.0347H43.4994C43.0348 36.0347 42.6653 35.7074 42.6653 35.3062V34.2082C42.6653 33.8069 43.0454 33.4796 43.4994 33.4796H48.9368C49.4013 33.4796 49.7709 33.8069 49.7709 34.2082V35.3062Z" fill="#758B9B"/>
<path id="Vector_71" d="M52.4737 46.2866C52.4737 46.6878 52.1675 47.0151 51.798 47.0151H40.617C40.2369 47.0151 39.9413 46.6878 39.9413 46.2866V40.6063C39.9413 40.2051 40.2475 39.8778 40.617 39.8778H51.798C52.1675 39.8778 52.4737 40.2051 52.4737 40.6063V46.2866Z" fill="#BFB8B8"/>
</g>
<path id="Vector_72" d="M48.8945 34.1448C48.8945 34.4615 48.6411 34.7149 48.3349 34.7149C48.0182 34.7149 47.7648 34.4615 47.7648 34.1448V31.4314C47.7648 31.1146 48.0182 30.8612 48.3349 30.8612C48.6411 30.8612 48.8945 31.1146 48.8945 31.4314V34.1448Z" fill="#758B9B"/>
<path id="Vector_73" d="M46.973 34.1448C46.973 34.4615 46.7196 34.7149 46.4134 34.7149C46.0967 34.7149 45.8433 34.4615 45.8433 34.1448V31.4314C45.8433 31.1146 46.0967 30.8612 46.4134 30.8612C46.7301 30.8612 46.973 31.1146 46.973 31.4314V34.1448Z" fill="#758B9B"/>
<path id="Vector_74" d="M45.0513 34.1448C45.0513 34.4615 44.7979 34.7149 44.4918 34.7149C44.175 34.7149 43.9216 34.4615 43.9216 34.1448V31.4314C43.9216 31.1146 44.175 30.8612 44.4918 30.8612C44.7979 30.8612 45.0513 31.1146 45.0513 31.4314V34.1448Z" fill="#758B9B"/>
<path id="Vector_75" d="M54.0786 39.7511C53.973 39.5928 54.0258 39.3816 54.1841 39.2866C55.0499 38.7587 55.5461 37.2594 55.5356 35.4646C55.5356 33.7119 55.0816 31.7059 54.2897 30.1855C53.4873 28.6546 52.3787 27.641 51.0906 27.6516C50.9111 27.6516 50.7317 27.6727 50.5416 27.7149C48.5145 28.1372 48.9685 29.9427 48.6517 30.9985C48.5884 31.178 48.3983 31.2624 48.2188 31.2096C48.0394 31.1463 47.9443 30.9563 48.0077 30.7768C48.24 30.2489 47.786 27.5988 50.4044 27.0603C50.6366 27.0075 50.8689 26.9864 51.0906 26.9864C54.4375 27.0814 56.1902 31.7798 56.2113 35.4751C56.2007 37.365 55.7573 39.086 54.5431 39.8778C54.4903 39.9095 54.427 39.9306 54.3636 39.9306C54.2581 39.9095 54.1419 39.8567 54.0786 39.7511Z" fill="#59CAF4"/>
<path id="Vector_76" d="M51.893 39.9412C51.7769 39.7934 51.8085 39.5822 51.9563 39.4661C52.537 39.086 53.6245 36.4042 53.5928 33.807C53.5928 31.7587 52.991 29.7632 51.3017 28.6757C50.3621 28.0739 49.6019 27.8416 49.0106 27.8416C47.4903 27.8416 46.7512 29.3937 46.7407 30.8718C46.7407 31.0619 46.5928 31.2097 46.4028 31.2097C46.2128 31.2097 46.0649 31.0513 46.0649 30.8718C46.0649 29.2353 46.9201 27.187 49.0106 27.1659C49.7708 27.1659 50.6577 27.451 51.6713 28.1056C53.6351 29.3726 54.2791 31.6425 54.2686 33.807C54.2369 36.6048 53.2972 39.2444 52.3681 40.0151C52.3048 40.0573 52.2309 40.0784 52.1675 40.0784C52.0619 40.0784 51.9669 40.0362 51.893 39.9412Z" fill="#63B5E5"/>
<path id="Vector_77" d="M53.5612 40.0784C53.3712 40.0468 53.2445 39.8778 53.2762 39.6983C53.2973 39.5505 53.3078 39.3922 53.3078 39.2127C53.3184 37.4917 52.1992 34.7044 50.7105 32.4238C49.243 30.1116 47.3214 28.3273 46.0967 28.3695C46.0228 28.3695 45.9489 28.3801 45.8749 28.3906C44.9986 28.4329 44.9458 30.1116 44.8297 30.9457C44.7875 31.1252 44.6185 31.2519 44.4285 31.2097C44.2384 31.1674 44.1223 30.9985 44.1645 30.8084C44.3335 30.2278 44.1118 28.0845 45.7694 27.7149C45.8749 27.6938 45.9805 27.6833 46.0967 27.6833C47.8704 27.7255 49.7286 29.6893 51.2807 32.0437C52.8222 34.4193 53.9835 37.2278 53.9835 39.2127C53.9835 39.4133 53.973 39.6033 53.9413 39.7828C53.9202 39.9517 53.7724 40.0784 53.6035 40.0784C53.5929 40.0784 53.5823 40.0784 53.5612 40.0784Z" fill="#59CAF4"/>
<path id="Vector_78" d="M59.3787 29.003C58.3968 29.3514 54.807 29.4359 54.3741 29.8054C53.9413 30.175 52.7799 30.7768 52.7799 30.7768L52.5054 32.5505C52.5054 32.5505 52.7693 32.7828 53.0122 32.3288C53.2444 31.8748 53.5823 31.4631 53.5823 31.4631C53.5823 31.4631 52.9488 32.5189 52.8749 32.825C52.6743 33.5958 52.9488 33.7542 52.9488 33.7542C52.9488 33.7542 53.1072 33.8597 53.6562 32.6244C53.804 32.2971 53.9624 32.1282 54.1208 32.0437C53.9941 32.1916 53.8779 32.3394 53.8357 32.445C53.7301 32.6878 53.1811 33.8914 53.35 34.1237C53.5084 34.356 53.8146 33.9759 54.0785 33.4691C54.1735 33.2896 54.4481 32.9306 54.7015 32.6139L54.0257 33.9864C54.0257 33.9864 53.7196 34.5038 54.3214 34.3243C54.9232 34.1448 55.2082 33.1629 55.6094 32.8989C56.0107 32.635 58.1011 32.3605 59.4631 31.3469C60.5612 30.5128 59.3787 29.003 59.3787 29.003Z" fill="#DDAC9E"/>
<path id="Vector_79" d="M71.8161 13.2609C70.9081 15.0664 67.7512 21.1056 65.5446 23.0588C63.7181 24.6742 57.1615 29.0769 57.1615 29.0769L59.157 33.5219C59.157 33.5219 67.9941 28.4434 69.1027 27.1237C70.9609 24.9171 75.5431 20.0392 75.3108 15.7421C75.2052 13.4721 71.8161 13.2609 71.8161 13.2609Z" fill="#D8D8D8"/>
</g>
</g>
</g>
<defs>
<linearGradient id="paint0_linear_1_44" x1="5.28822" y1="50.0394" x2="10.0375" y2="23.6549" gradientUnits="userSpaceOnUse">
<stop stop-color="white"/>
<stop offset="0.0882" stop-color="#FAFAFA"/>
<stop offset="0.1988" stop-color="#EAEAEA"/>
<stop offset="0.3212" stop-color="#D1D1D1"/>
<stop offset="0.4522" stop-color="#ADADAD"/>
<stop offset="0.5886" stop-color="#808080"/>
<stop offset="0.6648" stop-color="#636363"/>
</linearGradient>
<linearGradient id="paint1_linear_1_44" x1="6.67747" y1="32.2633" x2="27.9852" y2="23.8594" gradientUnits="userSpaceOnUse">
<stop stop-color="white"/>
<stop offset="0.0675" stop-color="#F3F3F3"/>
<stop offset="0.1888" stop-color="#D4D4D4"/>
<stop offset="0.3498" stop-color="#A1A1A1"/>
<stop offset="0.522" stop-color="#646464"/>
</linearGradient>
<linearGradient id="paint2_linear_1_44" x1="59.8138" y1="13.6572" x2="68.1982" y2="11.9751" gradientUnits="userSpaceOnUse">
<stop stop-color="white"/>
<stop offset="0.6429" stop-color="#C6C0B9"/>
</linearGradient>
<linearGradient id="paint3_linear_1_44" x1="59.9536" y1="30.1964" x2="74.5283" y2="30.1964" gradientUnits="userSpaceOnUse">
<stop stop-color="white"/>
<stop offset="0.1116" stop-color="#F3F3F3"/>
<stop offset="0.312" stop-color="#D4D4D4"/>
<stop offset="0.5781" stop-color="#A1A1A1"/>
<stop offset="0.8626" stop-color="#646464"/>
</linearGradient>
<clipPath id="clip0_1_44">
<rect width="79.7662" height="84" fill="white" transform="translate(0.0212402)"/>
</clipPath>
</defs>
</svg>
