<svg width="81" height="75" viewBox="0 0 81 75" fill="none" xmlns="http://www.w3.org/2000/svg">
<g id="Frame" clip-path="url(#clip0_1_159)">
<g id="Group">
<g id="Group_2">
<path id="Vector" d="M26.3796 16.1461L23.5256 12.951C22.218 11.4842 22.434 9.21008 24.0031 8.02755L27.6189 5.27589C28.9493 4.26392 30.8254 4.37762 32.0193 5.54878L35.8171 9.26693L26.3796 16.1461Z" fill="#506CB3"/>
<path id="Vector_2" d="M72.6575 16.1461L66.688 9.64216L71.6683 5.07123C72.8394 4.0024 74.6473 4.082 75.7162 5.24179L77.8083 7.52725C78.8772 8.69841 78.7976 10.5063 77.6378 11.5751L72.6575 16.1461Z" fill="#59CAF4"/>
<path id="Vector_3" d="M17.6584 61.0595V24.0486C17.6584 20.717 19.3413 17.6129 22.1157 15.7936L39.6603 3.12688C41.0589 2.1149 42.7304 1.58049 44.4587 1.58049H61.8214C64.0159 1.58049 66.1195 2.46739 67.6659 4.02515L78.411 14.9636C79.8778 16.7374 80.6851 18.966 80.6851 21.2628V61.0595C80.6851 65.494 77.092 69.0871 72.6575 69.0871H25.686C21.2515 69.0871 17.6584 65.494 17.6584 61.0595Z" fill="#34469C"/>
<path id="Vector_4" d="M60.1954 13.4058H46.4826C44.4473 13.4058 42.9464 11.5183 43.3899 9.53983C43.7196 8.08441 45.0045 7.06107 46.4826 7.06107H60.1954C61.7191 7.06107 63.0267 8.14126 63.3109 9.64217C63.6862 11.5865 62.1853 13.4058 60.1954 13.4058Z" fill="white"/>
<path id="Vector_5" d="M67.9387 59.0583H30.3934C27.8009 59.0583 25.7087 56.9548 25.7087 54.3737V27.1982C25.7087 24.6057 27.8123 22.5136 30.3934 22.5136H67.9274C70.5198 22.5136 72.612 24.6171 72.612 27.1982V54.3623C72.6234 56.9548 70.5198 59.0583 67.9387 59.0583Z" fill="#506CB3"/>
<path id="Vector_6" d="M65.4486 54.0098C65.1643 54.0098 64.8801 53.9302 64.6299 53.7483L32.9745 31.3143C32.3377 30.8595 32.1785 29.9726 32.6334 29.3359C33.0882 28.6991 33.9751 28.5399 34.6118 28.9947L66.2673 51.4287C66.904 51.8835 67.0632 52.7704 66.6084 53.4072C66.3355 53.8052 65.892 54.0098 65.4486 54.0098Z" fill="#34469C"/>
<path id="Vector_7" d="M33.7931 54.0098C33.3497 54.0098 32.9062 53.8051 32.6333 53.4072C32.1785 52.7704 32.3263 51.8835 32.9745 51.4287L64.6299 28.9947C65.2666 28.5399 66.1535 28.6877 66.6084 29.3358C67.0632 29.9726 66.9154 30.8595 66.2673 31.3143L34.6118 53.7483C34.3617 53.9302 34.0774 54.0098 33.7931 54.0098Z" fill="#34469C"/>
<path id="Vector_8" d="M24.6967 10.3585L23.1958 8.67567C22.5022 7.90248 22.6273 6.70858 23.446 6.0832L25.3449 4.63915C26.0498 4.10473 27.0277 4.16159 27.6644 4.78696L29.6657 6.74269L24.6967 10.3585Z" fill="#506CB3"/>
<path id="Vector_9" d="M57.6598 41.3772C57.6598 45.8117 54.0553 49.4161 49.6208 49.4161C45.1864 49.4161 41.5819 45.8117 41.5819 41.3772C41.5819 36.9427 45.1864 33.3383 49.6208 33.3383C54.0553 33.3383 57.6598 36.9313 57.6598 41.3772Z" fill="#34469C"/>
<path id="Vector_10" d="M49.7233 36.9655C49.7233 36.9655 43.2649 45.789 49.5868 45.789C55.9088 45.789 49.7233 36.9655 49.7233 36.9655Z" fill="#59CAF4"/>
</g>
<g id="Group_3">
<path id="Vector_11" d="M15.2365 1.1143H11.0521V17.4537H15.2365V1.1143Z" fill="#34469C"/>
<path id="Vector_12" d="M19.0797 74.67H7.42493C3.33155 74.67 0 71.3498 0 67.2451V14.8612C0 10.7678 3.32018 7.43629 7.42493 7.43629H19.0911C23.1844 7.43629 26.516 10.7565 26.516 14.8612V67.2451C26.5046 71.3498 23.1844 74.67 19.0797 74.67Z" fill="#59CAF4"/>
<path id="Vector_13" d="M26.5046 25.9247H0V52.327H26.5046V25.9247Z" fill="#E6E7E8"/>
<path id="Vector_14" d="M13.1442 48.4496C18.168 48.4496 22.2406 44.3771 22.2406 39.3533C22.2406 34.3295 18.168 30.2569 13.1442 30.2569C8.12044 30.2569 4.04785 34.3295 4.04785 39.3533C4.04785 44.3771 8.12044 48.4496 13.1442 48.4496Z" fill="#72CDE0"/>
<g id="Group_4">
<path id="Vector_15" d="M6.51538 37.7841C6.72005 37.4089 7.01568 37.1246 7.40228 36.9313C7.78887 36.738 8.26643 36.6471 8.82359 36.6471C9.13059 36.6471 9.44896 36.6698 9.77871 36.7153C10.1085 36.7608 10.37 36.8063 10.5633 36.8517L10.4723 38.1366H9.52856L9.32389 37.2838C9.30115 37.2497 9.24429 37.2156 9.15333 37.1929C9.07374 37.1701 8.96003 37.1474 8.81222 37.1474C8.4711 37.1474 8.20958 37.3066 8.03902 37.6363C7.86847 37.9661 7.7775 38.4436 7.7775 39.0917C7.7775 39.7399 7.84572 40.2402 7.99354 40.5813C8.14136 40.9224 8.38014 41.0929 8.70988 41.0929C8.83496 41.0929 8.96003 41.0702 9.06237 41.0361C9.1647 41.002 9.24429 40.9565 9.28978 40.8996V39.5579L8.7781 39.4897V38.9553H10.9158V39.4897L10.6088 39.5466V41.2749C10.5519 41.2749 10.4837 41.2862 10.4041 41.2976C10.3245 41.309 10.2108 41.3431 10.0743 41.3772C9.79008 41.4454 9.53993 41.5023 9.31252 41.5478C9.08511 41.5932 8.84633 41.616 8.58481 41.616C8.0845 41.616 7.65243 41.5136 7.28857 41.2976C6.93609 41.0816 6.66319 40.7973 6.48127 40.4221C6.29934 40.0469 6.20837 39.6375 6.20837 39.1713C6.20837 38.6142 6.31071 38.1594 6.51538 37.7841Z" fill="#34469C"/>
<path id="Vector_16" d="M11.2796 41.0247L12.701 36.6471H14.1336L15.5549 41.0247L15.9074 41.1043V41.5932H13.6447V41.1043L14.0768 41.0247L13.8835 40.3197H12.4622L12.2802 41.0475L12.7692 41.1043V41.5932H10.9158L10.9044 41.1043L11.2796 41.0247ZM13.7357 39.7626L13.2354 37.8865L13.1671 37.4885L13.0876 37.8865L12.61 39.7626H13.7357Z" fill="#34469C"/>
<path id="Vector_17" d="M16.1917 40.0469H16.908L17.0899 40.8769C17.124 40.9338 17.2036 40.9792 17.3173 41.0133C17.431 41.0475 17.5789 41.0702 17.7494 41.0702C17.9882 41.0702 18.1587 41.0247 18.2838 40.9224C18.3975 40.8201 18.4544 40.6836 18.4544 40.5017C18.4544 40.3766 18.4089 40.2629 18.3293 40.1606C18.2497 40.0582 18.136 39.9673 17.9768 39.8877C17.829 39.7967 17.6243 39.6944 17.3514 39.5807C16.5441 39.2054 16.1348 38.6824 16.1348 38.0002C16.1348 37.7614 16.203 37.534 16.3281 37.3293C16.4532 37.1246 16.6578 36.9541 16.9307 36.829C17.2036 36.7039 17.5447 36.6357 17.9655 36.6357C18.2156 36.6357 18.4316 36.6471 18.6136 36.6585C18.7955 36.6698 18.9888 36.6926 19.1935 36.7153C19.3185 36.7267 19.3981 36.738 19.4436 36.738L19.3981 37.9547H18.6932L18.534 37.2497C18.5112 37.2156 18.4544 37.1929 18.3634 37.1701C18.2725 37.1474 18.1587 37.136 18.0337 37.136C17.8176 37.136 17.6584 37.1929 17.5561 37.2952C17.4538 37.3975 17.4083 37.5226 17.4083 37.6704C17.4083 37.8069 17.4538 37.9319 17.5561 38.0456C17.6471 38.1594 17.7722 38.2503 17.92 38.3299C18.0678 38.4095 18.2611 38.5118 18.5112 38.6369C18.5226 38.6369 18.5567 38.6597 18.6022 38.6824C18.8069 38.7847 19.0002 38.8871 19.1707 39.0121C19.3413 39.1372 19.4891 39.2737 19.6028 39.467C19.7279 39.6489 19.7847 39.8649 19.7847 40.1037C19.7847 40.3425 19.7279 40.5813 19.6142 40.8087C19.5005 41.0361 19.3072 41.218 19.0115 41.3658C18.7159 41.5137 18.3293 41.5932 17.8176 41.5932C17.5675 41.5932 17.3287 41.5705 17.1127 41.5364C16.8966 41.4909 16.6692 41.4454 16.4304 41.3772C16.2826 41.3317 16.1803 41.309 16.1121 41.309L16.1917 40.0469Z" fill="#34469C"/>
</g>
<path id="Vector_18" d="M16.9761 2.55836H9.31243C8.60746 2.55836 8.03894 1.98984 8.03894 1.28487C8.03894 0.568524 8.60746 0 9.31243 0H16.9761C17.6811 0 18.2496 0.568524 18.2496 1.27349C18.2496 1.97847 17.6811 2.55836 16.9761 2.55836Z" fill="#72CDE0"/>
<path id="Vector_19" d="M13.2125 3.87733H8.03894V6.07184H13.2125V3.87733Z" fill="#34469C"/>
<path id="Vector_20" d="M8.55058 3.38841H7.51587V6.58352H8.55058V3.38841Z" fill="#34469C"/>
</g>
</g>
<path id="Vector_21" d="M19.2957 7.43628H13.4171C17.5105 7.43628 20.842 10.7565 20.842 14.8612V67.2451C20.842 71.3384 17.5219 74.67 13.4171 74.67H19.2957C23.389 74.67 26.7206 71.3498 26.7206 67.2451V14.8498C26.7206 10.7565 23.4004 7.43628 19.2957 7.43628Z" fill="black" fill-opacity="0.29"/>
</g>
<defs>
<clipPath id="clip0_1_159">
<rect width="80.6736" height="74.67" fill="white"/>
</clipPath>
</defs>
</svg>
