<svg width="100" height="97" viewBox="0 0 100 97" fill="none" xmlns="http://www.w3.org/2000/svg">
<g id="Frame" clip-path="url(#clip0_1_651)">
<g id="Group">
<g id="Group_2">
<path id="Vector" d="M61.5037 0.945007H54.9659V87.3095H61.5037V0.945007Z" fill="#758B9B"/>
<path id="Vector_2" d="M61.5037 81.5374H54.9659V1.01892H56.6083V42.5905L61.5037 50.0736L56.6083 68.6519V79.5042L61.5037 81.5374Z" fill="#414E5B"/>
<path id="Vector_3" d="M69.2826 50.0736H45.7982V47.7975H71.5586C71.5534 49.0596 70.5394 50.0736 69.2826 50.0736Z" fill="#191919"/>
<path id="Vector_4" d="M69.3564 81.5057H47.1184V87.8323H69.3564V81.5057Z" fill="#3D3D3D"/>
</g>
<g id="Group_3">
<path id="Vector_5" d="M92.9412 51.1667C92.9412 52.7035 92.0962 53.9128 90.776 53.9128C89.4558 53.9128 88.5316 52.6665 88.5316 51.1351C88.5316 49.5983 89.0544 48.3573 90.776 48.3573C92.524 48.352 92.9412 49.63 92.9412 51.1667Z" fill="#34469C"/>
<path id="Vector_6" d="M94.2772 63.6298C94.9057 61.7128 96.5216 58.428 95.5764 57.8577C94.3459 57.1078 90.8024 56.6484 90.8024 56.6484V56.7117C90.8024 56.7117 87.2272 57.0075 85.9914 57.7468C85.0462 58.3172 86.6832 61.7656 87.3064 63.6826C87.4543 64.142 87.4384 66.2069 87.375 68.0341C87.3592 68.483 86.9895 70.5584 87.0529 71.4139C87.0688 71.6674 89.9627 73.2569 90.776 73.2992V73.2358C91.5892 73.1988 94.4832 71.6146 94.5043 71.3611C94.5677 70.5056 94.2033 68.4301 94.1927 67.976C94.1399 66.1541 94.1294 64.0892 94.2772 63.6298Z" fill="#FFBD95"/>
<path id="Vector_7" d="M94.4728 60.7569C93.7916 60.5087 93.5222 59.0459 94.1454 57.8471C94.7686 56.6483 95.1752 56.3579 95.3442 56.0463C95.5184 55.7295 96.506 53.559 96.8228 53.089C97.1397 52.619 98.0639 52.2176 98.5761 52.4817C99.0039 52.7035 99.4792 52.8936 99.1993 53.8336C98.9247 54.7789 95.7402 61.2216 94.4728 60.7569Z" fill="#FFBD95"/>
<path id="Vector_8" d="M92.2864 56.0833C92.2072 55.7189 92.0065 53.9128 92.0065 53.9128H90.8078V53.9762H89.609C89.609 53.9762 89.403 55.7823 89.3238 56.1467C89.2446 56.5111 88.2571 57.0603 88.2571 57.0603L90.8025 57.0656V57.0022L93.3479 57.0075C93.3532 57.0022 92.3656 56.4477 92.2864 56.0833Z" fill="#FFBD95"/>
<path id="Vector_9" d="M92.2072 55.5711C92.1333 55.0166 92.0435 54.2297 92.0171 53.9868L91.9379 53.9128H90.8078V53.9762H89.609C89.609 53.9762 89.403 55.7823 89.3238 56.1467C89.2446 56.5111 88.2571 57.0603 88.2571 57.0603H88.3785C89.5139 56.7593 90.6441 56.4583 90.7972 56.416C91.1193 56.3157 92.2072 55.5711 92.2072 55.5711Z" fill="#FFA47C"/>
<path id="Vector_10" d="M88.8803 69.4018C87.4174 69.3965 86.8524 70.4105 86.8841 73.5368C86.921 76.6631 87.3805 80.0482 87.5812 80.534C87.7818 81.0199 89.852 81.0357 90.0579 80.7505C90.2639 80.4654 90.7761 73.9857 90.7814 72.9717C90.7814 71.9631 90.4698 69.4124 88.8803 69.4018Z" fill="#FFBD95"/>
<path id="Vector_11" d="M88.97 83.0372L88.5845 83.0267C88.0036 83.0108 87.5442 82.525 87.5547 81.9441L87.5864 80.645C87.6023 80.064 88.0881 79.6046 88.669 79.6152L89.0545 79.6257C89.6354 79.6416 90.0949 80.1274 90.0843 80.7083L90.0526 82.0074C90.0368 82.5936 89.5509 83.0531 88.97 83.0372Z" fill="#FFBD95"/>
<path id="Vector_12" d="M88.7588 81.1255C88.3099 81.1255 87.2167 81.2734 87.2748 84.1832C87.3329 87.093 88.5634 91.0854 88.5634 91.0854H89.6195C89.6195 91.0854 90.1424 85.6935 90.1476 84.6585C90.1529 82.3085 90.1688 81.1308 88.7588 81.1255Z" fill="#FFBD95"/>
<path id="Vector_13" d="M92.7353 69.4282C94.1875 69.2698 94.8582 70.2256 95.1434 73.3361C95.4285 76.4466 95.3176 79.8634 95.1698 80.3703C95.0166 80.8773 92.9623 81.1044 92.73 80.8403C92.4976 80.5816 91.32 74.1863 91.2091 73.1777C91.1034 72.169 91.151 69.6025 92.7353 69.4282Z" fill="#FFBD95"/>
<path id="Vector_14" d="M94.045 83.0002L94.4305 82.9527C95.0061 82.8788 95.4127 82.3454 95.3388 81.7698L95.1751 80.4865C95.1012 79.9109 94.5731 79.499 93.9975 79.5729L93.6119 79.6204C93.0363 79.6944 92.6297 80.2278 92.7036 80.8034L92.8673 82.0866C92.9413 82.6675 93.4694 83.0742 94.045 83.0002Z" fill="#FFBD95"/>
<path id="Vector_15" d="M94.0556 81.078C94.4992 81.0305 95.6029 81.0622 95.8459 83.9667C96.0888 86.8712 95.2755 90.9639 95.2755 90.9639L94.2246 91.0748C94.2246 91.0748 93.1473 85.7675 93.0417 84.7377C92.7935 82.3982 92.6562 81.2259 94.0556 81.078Z" fill="#FFBD95"/>
<path id="Vector_16" d="M87.0952 60.4454C87.6603 59.9965 87.6656 58.8664 86.8893 57.7626C86.113 56.6589 85.4634 55.9882 85.2575 55.7084C85.041 55.4179 83.9214 53.6382 83.5412 53.2105C83.1662 52.7827 82.4163 52.4553 81.9463 52.7827C81.5503 53.0573 81.1067 53.3055 81.5027 54.2033C81.8988 55.101 85.7116 61.5491 87.0952 60.4454Z" fill="#FFBD95"/>
<path id="Vector_17" d="M87.296 68.7734C87.296 68.7734 86.768 71.3452 86.6835 72.7447C86.599 74.1441 87.2749 80.2647 87.2749 80.9354C87.2749 81.6114 87.2274 83.6762 87.2696 85.7041C87.3119 87.732 87.8294 91.7244 87.8294 91.7244L90.4276 91.6663C90.4276 91.6663 90.4435 83.09 90.4488 81.7434C90.4488 80.3968 90.7867 73.2992 90.7867 73.2992L90.792 68.8896L87.296 68.7734Z" fill="#506CB3"/>
<path id="Vector_18" d="M96.2206 56.7962C96.0622 56.5269 95.0694 56.3315 94.2297 56.8438C93.6066 57.224 92.8092 56.6484 92.8092 56.6484L92.3656 56.8807C91.3939 57.4352 90.2004 57.4352 89.234 56.8755L88.8537 56.6589C88.8537 56.6589 88.125 56.9388 87.449 56.6484C86.6199 56.2945 85.363 56.3421 85.2257 56.622C85.0884 56.9071 86.9843 63.6245 87.1427 64.0892C87.3011 64.5539 86.8892 67.8017 87.2906 68.7734L90.776 68.8896H90.7813L94.2667 68.784C94.5888 67.6697 94.2667 64.5011 94.4251 64.0364C94.5888 63.577 96.49 57.2398 96.2206 56.7962Z" fill="#B8B3B3"/>
<path id="Vector_19" d="M94.2404 68.7047C94.2404 68.7047 95.0326 71.2079 95.2597 72.5915C95.4868 73.9751 95.4445 80.1327 95.5132 80.7981C95.5818 81.4688 95.8406 83.5231 96.0096 85.5404C96.1786 87.5577 96.0677 91.5871 96.0677 91.5871L93.48 91.793C93.48 91.793 92.5875 83.2643 92.4449 81.9229C92.3023 80.5816 90.7709 73.5157 90.7709 73.5157L90.7867 68.8843L94.2404 68.7047Z" fill="#506CB3"/>
<path id="Vector_20" d="M88.0986 91.7243C88.0986 91.7243 87.2114 92.7594 87.2589 93.034C87.2853 93.1872 87.6603 93.7522 88.3415 93.7945C88.859 93.8262 89.704 93.3562 89.8307 93.3403C90.137 93.3086 90.1317 91.6715 90.1317 91.6715L88.0986 91.7243Z" fill="#191919"/>
<path id="Vector_21" d="M95.7032 91.624C95.7032 91.624 96.6907 92.564 96.6749 92.8386C96.6643 92.9971 96.3528 93.5938 95.6768 93.71C95.1645 93.7945 94.2773 93.4143 94.1453 93.4143C93.839 93.4143 93.67 91.7877 93.67 91.7877L95.7032 91.624Z" fill="#191919"/>
<path id="Vector_22" d="M93.9393 73.9487C94.0872 74.8676 94.2509 81.0252 94.2773 81.379C94.3037 81.7223 95.1804 91.2227 95.2173 91.6663L96.0676 91.5976C96.0676 91.5976 96.1785 87.5735 96.0095 85.5509C95.8405 83.5283 95.5817 81.474 95.5131 80.8086C95.4444 80.138 95.4867 73.9804 95.2596 72.6021C95.0325 71.2185 94.2403 68.7153 94.2403 68.7153L92.1808 68.8579C92.1861 68.8473 93.7915 73.0298 93.9393 73.9487Z" fill="#34469C"/>
<path id="Vector_23" d="M90.3748 71.5934C89.8942 70.7432 88.6057 71.0283 88.5212 72.0053C88.4367 73.0034 88.4156 73.6952 88.5001 74.1547C88.7219 75.3112 89.0335 80.9776 88.9912 81.1255C88.949 81.2734 88.9806 91.6768 88.9806 91.6768L89.0282 91.7032L90.4276 91.6715C90.4276 91.6715 90.4435 83.0953 90.4487 81.7486C90.4487 80.402 90.7867 73.3044 90.7867 73.3044V72.9189L90.8131 72.3644L90.3748 71.5934Z" fill="#34469C"/>
<path id="Vector_24" d="M98.7504 54.1452C99.2574 53.8389 99.5109 53.3266 98.7346 51.8691C97.9583 50.4116 95.7244 47.2641 95.7244 47.2641L94.9059 47.7553C94.9059 47.7553 95.7667 51.0083 96.1522 51.8163C96.543 52.6243 97.4302 54.9373 98.7504 54.1452Z" fill="#FFBD95"/>
<path id="Vector_25" d="M92.9466 52.6929C92.9466 53.9181 91.8059 54.9584 90.8395 54.9584C89.9154 54.9584 88.7272 53.9128 88.7324 52.6876C88.7324 51.4625 89.1549 50.4063 90.8078 50.4063C92.6192 50.4063 92.9519 51.4677 92.9466 52.6929Z" fill="#FFBD95"/>
<path id="Vector_26" d="M88.7377 52.8039C88.6426 52.7035 88.1884 51.7001 88.2624 51.5153C88.331 51.3305 88.7112 50.9238 88.838 50.8024C88.9647 50.6809 90.0896 50.3588 90.2586 50.3482C90.4276 50.3429 90.8764 50.3165 91.2303 50.3482C91.5841 50.3799 92.202 50.5225 92.3393 50.6809C92.4818 50.8446 92.8304 51.0295 92.9413 51.1615C93.0575 51.2935 93.2529 51.6262 93.2212 51.6737C93.1948 51.7213 93.0363 52.1279 93.0258 52.1596C93.0099 52.1913 92.9413 52.6877 92.9413 52.6877C92.9413 52.6877 92.7195 51.4942 92.6984 51.4097C92.4502 50.3905 90.1635 49.836 89.0598 51.2249C88.9383 51.3833 88.7377 52.8039 88.7377 52.8039Z" fill="#8D3B26"/>
<g id="Group_4">
<path id="Vector_27" d="M89.4929 75.4272H86.6781L86.5989 75.2952L86.3929 75.2001L86.6728 71.176L89.2816 71.1127L89.4929 75.4272Z" fill="#526FB5"/>
<path id="Vector_28" d="M89.2077 75.2003H86.3929L86.5461 71.1076H89.2077V75.2003Z" fill="#34469C"/>
<path id="Vector_29" d="M86.678 75.4274L86.5988 75.2954H89.3026L89.2815 71.1129L89.4927 75.4274H86.678Z" fill="#34469C"/>
</g>
<g id="Group_5">
<path id="Vector_30" d="M92.7195 75.4485L95.5184 75.1739L95.5818 75.0313L95.7772 74.9204L95.1118 70.9439L92.5083 71.134L92.7195 75.4485Z" fill="#526FB5"/>
<path id="Vector_31" d="M92.9783 75.195L95.7772 74.9204L95.2279 70.8594L92.5769 71.1181L92.9783 75.195Z" fill="#34469C"/>
<path id="Vector_32" d="M95.5184 75.1739L95.5818 75.0313L92.8938 75.2953L92.5083 71.134L92.7195 75.4485L95.5184 75.1739Z" fill="#34469C"/>
</g>
<path id="Vector_33" d="M81.5186 54.1716C81.1859 53.6857 81.1648 53.1101 82.4745 52.1067C83.7842 51.1034 87.127 49.1653 87.127 49.1653L87.6657 49.9521C87.6657 49.9521 85.5322 52.5503 84.8456 53.1312C84.1591 53.7069 82.3953 55.4443 81.5186 54.1716Z" fill="#FFBD95"/>
<path id="Vector_34" d="M90.7866 68.8896L94.2562 68.7734L94.1717 68.0341L93.5538 60.4665H88.0247L87.3804 68.0341L87.2959 68.7734L90.7655 68.8896H90.776H90.7866Z" fill="#34469C"/>
<path id="Vector_35" d="M89.007 60.4665C89.007 60.4665 89.5193 66.4181 90.1424 67.5535C90.7656 68.6889 94.2246 68.4988 94.2246 68.4988L94.2563 68.8896C94.2563 68.8896 92.5664 69.2909 90.9768 69.2909C89.3925 69.2909 87.2802 68.8896 87.2802 68.8896L88.0248 60.4612H89.007V60.4665Z" fill="#506CB3"/>
<path id="Vector_36" d="M93.3796 60.8995L94.0555 56.923L93.1155 56.7962L92.524 60.8995L92.9043 61.5332L93.3796 60.8995Z" fill="#34469C"/>
<path id="Vector_37" d="M88.2148 60.8995L87.692 56.7276H88.6637L89.0703 60.8995L88.6901 61.5332L88.2148 60.8995Z" fill="#34469C"/>
<path id="Vector_38" d="M87.2273 69.1378L87.2114 68.4777C87.2114 68.4777 89.0756 68.7734 90.7919 68.7734C92.5082 68.7734 94.3407 68.4777 94.3407 68.4777L94.3777 69.1378C94.3777 69.1378 92.1649 69.5339 90.7708 69.5339C89.3766 69.5339 87.2273 69.1378 87.2273 69.1378Z" fill="#34469C"/>
<path id="Vector_39" d="M88.8063 60.8256C88.8063 60.9418 88.7112 61.0368 88.595 61.0368C88.4789 61.0368 88.3838 60.9418 88.3838 60.8256C88.3838 60.7094 88.4789 60.6143 88.595 60.6143C88.7112 60.6091 88.8063 60.7041 88.8063 60.8256Z" fill="#303030"/>
<path id="Vector_40" d="M93.2159 60.8256C93.2159 60.9418 93.1209 61.0368 93.0047 61.0368C92.8885 61.0368 92.7935 60.9418 92.7935 60.8256C92.7935 60.7094 92.8885 60.6143 93.0047 60.6143C93.1209 60.6091 93.2159 60.7041 93.2159 60.8256Z" fill="#303030"/>
<path id="Vector_41" d="M86.2292 60.852C86.2292 60.852 85.5902 60.4506 84.4284 59.0723C83.2666 57.694 81.677 54.8317 81.677 54.8317C81.677 54.8317 82.0308 54.3195 82.8388 53.8284C83.6468 53.3372 84.0376 53.3108 84.0376 53.3108L86.0391 56.3632C86.0443 56.3685 87.2854 60.4612 86.2292 60.852Z" fill="#B8B3B3"/>
<path id="Vector_42" d="M95.0854 60.889C95.0854 60.889 95.6716 60.5087 96.5958 58.9614C97.5199 57.4141 99.1412 54.4198 99.1412 54.4198C99.1412 54.4198 98.7134 53.9709 97.8421 53.6171C96.9707 53.2633 96.5482 53.2791 96.5482 53.2791L94.7897 56.5956C94.795 56.6008 93.9817 60.6724 95.0854 60.889Z" fill="#B8B3B3"/>
<g id="Group_6">
<path id="Vector_43" d="M95.0696 48.1038C95.0696 48.1038 94.626 48.0087 94.5626 47.9771C94.4992 47.9454 93.9975 47.6074 93.8074 47.5863C93.6173 47.5651 93.5011 47.6127 93.4642 47.5916C93.4272 47.5704 93.2952 47.2272 93.6226 47.1955C93.95 47.1585 94.2827 47.2853 94.3672 47.2324C94.4517 47.1744 94.2035 46.5248 94.0979 46.4139C93.9923 46.3083 93.2001 45.6904 93.1632 45.6587C93.1262 45.627 93.047 45.5109 93.0681 45.4633C93.0892 45.4158 93.3374 45.3524 93.4008 45.3683C93.4589 45.3841 93.443 45.2521 93.5011 45.2363C93.5592 45.2204 93.7599 45.1887 93.7599 45.1887C93.7599 45.1887 93.9817 45.0937 94.0768 45.1095C94.1718 45.1254 94.5996 45.231 94.6418 45.2627C94.6841 45.2943 95.4181 45.8172 95.5237 45.9967C95.6294 46.1815 95.9568 47.544 95.9568 47.544L95.0696 48.1038Z" fill="#FFBD95"/>
</g>
<g id="Group_7">
<path id="Vector_44" d="M87.4491 50.1634C87.4491 50.1634 87.8927 50.0683 87.9561 50.0366C88.0194 50.0049 88.5211 49.667 88.7112 49.6458C88.9013 49.6247 89.0175 49.6722 89.0545 49.6511C89.0915 49.63 89.2235 49.2867 88.8961 49.2551C88.5686 49.2181 88.2359 49.3448 88.1514 49.292C88.067 49.2339 88.3152 48.5844 88.4208 48.4735C88.5264 48.3679 89.3185 47.75 89.3555 47.7183C89.3925 47.6866 89.4717 47.5704 89.4506 47.5229C89.4294 47.4754 89.1812 47.412 89.1179 47.4278C89.0598 47.4437 89.0756 47.3117 89.0175 47.2958C88.9594 47.28 88.7588 47.2483 88.7588 47.2483C88.7588 47.2483 88.537 47.1532 88.4419 47.1691C88.3468 47.1849 87.9191 47.2905 87.8768 47.3222C87.8346 47.3539 87.1005 47.8767 86.9949 48.0563C86.8893 48.2411 86.5619 49.6036 86.5619 49.6036L87.4491 50.1634Z" fill="#FFBD95"/>
</g>
</g>
<g id="Group_8">
<g id="Group_9">
<path id="Vector_45" d="M15.6019 18.8949C15.6019 18.8949 9.04829 18.8474 9.17503 19.1748C9.30706 19.5022 11.2557 21.0073 12.0162 21.1393C12.7766 21.2713 13.5529 21.1393 13.5529 21.1393L15.6019 18.8949Z" fill="#BFD2E1"/>
<path id="Vector_46" d="M15.6019 18.8949C15.6019 18.8949 9.04829 18.8474 9.17503 19.1748C9.30706 19.5022 11.2557 21.0073 12.0162 21.1393C12.7766 21.2713 13.5529 21.1393 13.5529 21.1393L15.6019 18.8949Z" fill="url(#paint0_linear_1_651)"/>
</g>
<path id="Vector_47" d="M93.5961 32.826C92.7722 32.5409 83.3088 30.175 82.6276 30.0219C80.23 29.499 79.0735 27.7088 79.0735 27.7088C79.0735 27.7088 76.639 27.1279 76.1056 26.8797C71.5217 24.7779 60.9599 18.3985 53.9996 16.6241C44.7579 14.2688 13.7535 18.8368 13.7535 18.8368L6.57675 26.6949L1.62323 36.8237L0.345241 39.2635C0.345241 39.2635 -0.309595 42.6644 2.39425 45.3683C3.05964 46.0337 4.76539 46.5248 6.94641 46.8892C8.41452 46.8892 22.4988 47.8978 24.3946 47.8978C24.6059 47.8978 24.7273 47.8978 24.7273 47.8978H71.0306C71.0306 47.8978 71.2788 47.9031 71.7224 47.9084C73.2222 47.9084 88.3257 47.8186 89.6565 47.8186C94.7156 47.6655 98.9456 47.3592 99.3734 46.7624C99.3734 46.7624 99.3734 40.3091 99.3734 39.5223C99.3734 38.746 96.1098 33.7027 93.5961 32.826Z" fill="#46676C"/>
<path id="Vector_48" d="M93.5961 32.826C92.7722 32.5409 83.3088 30.175 82.6276 30.0219C80.23 29.499 79.0735 27.7088 79.0735 27.7088C79.0735 27.7088 76.639 27.1279 76.1056 26.8797C71.5217 24.7779 60.9599 18.3985 53.9996 16.6241C44.7579 14.2688 13.7535 18.8368 13.7535 18.8368L6.57675 26.6949L1.62323 36.8237L0.345241 39.2635C0.345241 39.2635 -0.309595 42.6644 2.39425 45.3683C3.05964 46.0337 4.76539 46.5248 6.94641 46.8892C6.82495 46.3083 6.7563 45.701 6.7563 45.0831C6.7563 40.2405 10.68 36.3167 15.5227 36.3167C20.3653 36.3167 24.289 40.2405 24.289 45.0831C24.289 45.6429 24.3841 46.8681 24.3946 47.8978C24.6059 47.8978 24.7273 47.8978 24.7273 47.8978H71.0306C71.0306 47.8978 71.2788 47.9031 71.7224 47.9084C71.6854 46.7307 71.6854 45.5742 71.6854 45.0831C71.6854 40.2405 75.9419 36.0052 80.7845 36.0052C85.6271 36.0052 89.5509 39.9289 89.5509 44.7715C89.5509 45.3735 89.6618 46.7519 89.6565 47.8239C94.7156 47.6708 98.9456 47.3645 99.3734 46.7677C99.3734 46.7677 99.3734 40.3144 99.3734 39.5275C99.3734 38.746 96.1098 33.7027 93.5961 32.826Z" fill="#BFD2E1"/>
<path id="Vector_49" d="M93.5961 32.826C92.7722 32.5409 83.3088 30.175 82.6276 30.0219C80.23 29.499 79.0735 27.7088 79.0735 27.7088C79.0735 27.7088 76.639 27.1279 76.1056 26.8797C71.5217 24.7779 60.9599 18.3985 53.9996 16.6241C44.7579 14.2688 13.7535 18.8368 13.7535 18.8368L6.57675 26.6949L1.62323 36.8237L0.345241 39.2635C0.345241 39.2635 -0.309595 42.6644 2.39425 45.3683C3.05964 46.0337 4.76539 46.5248 6.94641 46.8892C6.82495 46.3083 6.7563 45.701 6.7563 45.0831C6.7563 40.2405 10.68 36.3167 15.5227 36.3167C20.3653 36.3167 24.289 40.2405 24.289 45.0831C24.289 45.6429 24.3841 46.8681 24.3946 47.8978C24.6059 47.8978 24.7273 47.8978 24.7273 47.8978H71.0306C71.0306 47.8978 71.2788 47.9031 71.7224 47.9084C71.6854 46.7307 71.6854 45.5742 71.6854 45.0831C71.6854 40.2405 75.9419 36.0052 80.7845 36.0052C85.6271 36.0052 89.5509 39.9289 89.5509 44.7715C89.5509 45.3735 89.6618 46.7519 89.6565 47.8239C94.7156 47.6708 98.9456 47.3645 99.3734 46.7677C99.3734 46.7677 99.3734 40.3144 99.3734 39.5275C99.3734 38.746 96.1098 33.7027 93.5961 32.826Z" fill="url(#paint1_linear_1_651)"/>
<path id="Vector_50" d="M99.3734 42.638H96.7013C96.7013 42.638 94.9005 44.7979 94.9375 45.157C94.9691 45.5161 99.3734 45.2574 99.3734 45.2574V42.638Z" fill="url(#paint2_linear_1_651)"/>
<path id="Vector_51" d="M78.9519 27.7088C78.9519 27.7088 94.9426 32.0075 96.2206 32.9528C97.4933 33.8981 97.8049 35.0704 97.6676 35.0704C97.5302 35.0704 82.7753 30.8351 81.1752 29.9743C79.2107 28.9129 78.9519 27.7088 78.9519 27.7088Z" fill="#BFD2E1"/>
<g id="Group_10">
<path id="Vector_52" d="M75.6621 29.2403C75.6621 29.2403 64.8256 21.8311 56.7616 18.652C51.9348 16.7509 43.8761 17.0149 43.8761 17.0149L45.1171 28.1155L75.6621 29.2403Z" fill="#375B60"/>
<path id="Vector_53" d="M43.8707 17.0149L25.5617 18.314L21.2261 26.4625L45.117 28.1155L43.8707 17.0149Z" fill="#375B60"/>
<path id="Vector_54" d="M25.5617 18.314C25.5617 18.314 18.1737 19.2118 17.7776 19.893C17.0911 21.0812 19.7949 26.4889 21.3792 26.4889L25.5617 18.314Z" fill="#375B60"/>
<path id="Vector_55" d="M24.6322 19.122C24.6322 19.122 18.839 20.062 18.6172 20.5584C18.3902 21.0548 20.5817 25.269 21.4056 25.269L24.6322 19.122Z" fill="#46676C"/>
<g id="Group_11">
<path id="Vector_56" d="M71.865 28.0679C71.865 28.0679 62.7713 21.8523 56.0064 19.1854C51.9559 17.5906 45.1963 17.8124 45.1963 17.8124L46.2366 27.355L71.865 28.0679Z" fill="#46676C"/>
<path id="Vector_57" d="M71.865 28.0679C71.865 28.0679 62.7713 21.8523 56.0064 19.1854C51.9559 17.5906 45.1963 17.8124 45.1963 17.8124L59.7717 27.73L71.865 28.0679Z" fill="url(#paint3_linear_1_651)"/>
</g>
<g id="Group_12">
<path id="Vector_58" d="M42.9994 17.9602L26.2429 19.0058L22.8262 25.6915L43.8707 27.0593L42.9994 17.9602Z" fill="#46676C"/>
<path id="Vector_59" d="M42.9993 17.9602L26.2429 19.0058L40.7708 26.8586L43.8707 27.0593L42.9993 17.9602Z" fill="url(#paint4_linear_1_651)"/>
</g>
</g>
<path id="Vector_60" d="M91.8375 47.7447C91.8375 47.7341 93.1683 34.1621 80.8373 34.1621C68.443 34.1621 69.6365 47.6919 69.6576 47.8978H70.9409L71.7224 47.8926C71.6855 46.7202 71.6855 45.5689 71.6855 45.0831C71.6855 40.2405 75.9419 36.0052 80.7845 36.0052C85.6272 36.0052 89.5509 39.9289 89.5509 44.7715C89.5509 45.363 89.6565 46.6991 89.6565 47.7605L91.827 47.7447C91.827 47.7447 91.8323 47.7447 91.8375 47.7447Z" fill="url(#paint5_linear_1_651)"/>
<path id="Vector_61" d="M25.8892 47.9031C25.8892 47.8926 27.9012 33.5126 15.5702 33.5126C4.33239 33.5126 4.34823 46.1235 4.36936 46.3294L6.94117 46.8945C6.93061 46.6568 6.76162 45.9333 6.76162 45.4475C6.76162 40.6049 10.1573 36.359 15.5121 36.359C20.3548 36.359 24.2785 40.2827 24.2785 45.1254C24.2785 45.7168 24.3894 46.8417 24.3894 47.9031C24.3947 47.9031 25.8892 47.9031 25.8892 47.9031Z" fill="url(#paint6_linear_1_651)"/>
<path id="Vector_62" d="M99.3734 39.5275C99.3734 39.1684 98.8559 38.3288 98.8559 38.3288L91.4309 36.8448L93.4007 38.8357C93.3954 38.841 99.3734 39.8708 99.3734 39.5275Z" fill="url(#paint7_linear_1_651)"/>
<path id="Vector_63" d="M71.358 32.6412L12.8241 27.3655L21.2261 26.4678L45.1118 28.1207L75.6567 29.2403L86.0496 31.2048C86.0496 31.2048 80.7475 30.9407 76.1742 31.5533C74.9491 31.7117 71.358 32.6412 71.358 32.6412Z" fill="url(#paint8_linear_1_651)"/>
<g id="Group_13">
<path id="Vector_64" d="M45.1171 28.1154L45.191 46.5037H69.0239L71.3581 32.6412V29.0819L45.1171 28.1154Z" fill="url(#paint9_linear_1_651)"/>
<path id="Vector_65" d="M45.1171 28.1154L45.191 46.5037H69.0239L71.3581 32.6412V29.0819L45.1171 28.1154Z" fill="url(#paint10_linear_1_651)"/>
<path id="Vector_66" d="M69.0239 46.5035H45.191L45.1171 28.1206L45.5079 28.1311L45.5818 46.1127H68.6912L71.1574 32.6411L70.5078 29.0923L70.8933 29.0183L71.5534 32.6358L71.5482 32.6727L69.0239 46.5035Z" fill="#BFD2E1"/>
</g>
<g id="Group_14">
<path id="Vector_67" d="M21.226 26.4625L17.8779 33.6974C17.8779 33.6974 22.5568 34.0459 24.7801 39.1051C26.3538 42.6908 26.0106 46.5037 26.0106 46.5037H45.1909L45.1117 28.1154L21.226 26.4625Z" fill="url(#paint11_linear_1_651)"/>
<path id="Vector_68" d="M21.226 26.4625L17.8779 33.6974C17.8779 33.6974 22.5568 34.0459 24.7801 39.1051C26.3538 42.6908 26.0106 46.5037 26.0106 46.5037H45.1909L45.1117 28.1154L21.226 26.4625Z" fill="url(#paint12_linear_1_651)"/>
<path id="Vector_69" d="M45.1908 46.5037H26.0157C26.0157 46.5037 26.5174 43.2612 24.6902 38.9361C22.6623 34.1304 17.8831 33.6815 17.8831 33.6815L21.3949 26.4625L21.8226 26.5047L18.4376 33.4228C19.499 33.597 23.2432 34.5318 24.9542 38.6087C26.6336 42.6063 26.491 45.2045 26.4804 46.1129H45.1961V46.5037H45.1908Z" fill="#BFD2E1"/>
</g>
<path id="Vector_70" d="M69.0239 46.5037H26.0159C26.0159 46.5037 26.074 45.062 25.8998 43.2823C25.7044 41.2597 25.1552 40.0609 25.1552 40.0609L69.4517 43.9899L69.0239 46.5037Z" fill="url(#paint13_linear_1_651)"/>
<path id="Vector_71" d="M10.1626 27.619C10.7277 28.6277 10.1415 32.0709 6.62437 34.5582C3.7357 36.6019 0.345337 39.2688 0.345337 39.2688L1.62332 36.829L10.1626 27.619Z" fill="#BFD2E1"/>
<g id="Group_15">
<path id="Vector_72" d="M87.0214 31.5481C87.053 32.2663 90.5543 36.7815 91.6316 36.9135C92.7089 37.0455 98.8559 38.3288 98.8559 38.3288C98.8559 38.3288 98.8295 34.1938 95.1699 33.4386C91.5154 32.6835 87.0214 31.5481 87.0214 31.5481Z" fill="#46676C"/>
<path id="Vector_73" d="M95.1644 37.3465L91.8797 36.2587L90.2162 34.1674H95.1644V37.3465Z" fill="#668186"/>
<path id="Vector_74" d="M95.1645 37.3465C95.4737 37.3465 95.7243 36.6349 95.7243 35.757C95.7243 34.8791 95.4737 34.1674 95.1645 34.1674C94.8554 34.1674 94.6047 34.8791 94.6047 35.757C94.6047 36.6349 94.8554 37.3465 95.1645 37.3465Z" fill="#D1C6C6"/>
<path id="Vector_75" d="M95.1699 33.4386C91.5154 32.6835 87.0214 31.5481 87.0214 31.5481C87.0425 31.9758 88.273 33.7238 89.5034 35.1127C91.8112 35.3187 95.2015 35.7147 96.2366 36.3009C97.8526 37.2145 98.8612 38.3288 98.8612 38.3288C98.8612 38.3288 98.8295 34.1938 95.1699 33.4386Z" fill="url(#paint14_linear_1_651)"/>
<path id="Vector_76" d="M96.1309 35.9312C96.1309 36.8079 96.3791 37.5208 96.6906 37.5208C97.0022 37.5208 97.2504 36.8079 97.2504 35.9312C97.2504 35.0546 96.9969 34.3417 96.6906 34.3417C96.3844 34.3417 96.1309 35.0546 96.1309 35.9312Z" fill="url(#paint15_linear_1_651)"/>
<path id="Vector_77" d="M95.1699 33.4386C91.5154 32.6835 87.0214 31.5481 87.0214 31.5481C87.0425 31.9758 88.273 33.7238 89.5034 35.1127C89.7358 33.465 95.3283 34.3522 96.3633 34.9384C97.9793 35.852 98.8559 38.3288 98.8559 38.3288C98.8559 38.3288 98.8295 34.1938 95.1699 33.4386Z" fill="url(#paint16_linear_1_651)"/>
<path id="Vector_78" d="M88.8221 32.6412C88.9013 33.0162 93.9604 33.6288 95.4021 34.1674C96.8438 34.7061 97.6043 35.7253 97.6835 35.5405C97.768 35.3556 96.8386 34.1357 95.4021 33.7397C93.9657 33.3436 88.7534 32.3244 88.8221 32.6412Z" fill="url(#paint17_linear_1_651)"/>
</g>
<g id="Group_16">
<path id="Vector_79" d="M1.37495 30.2595C1.13731 32.6148 1.25877 36.7973 1.71821 36.9135C2.17765 37.0297 10.1571 29.5307 10.1571 27.619C10.1571 27.2652 7.19982 26.8427 4.03126 26.8427C2.45226 26.8427 1.57034 28.3161 1.37495 30.2595Z" fill="#BD0000"/>
<path id="Vector_80" d="M7.66987 30.5975H2.56848L3.35534 27.9306H9.89842L7.66987 30.5975Z" fill="url(#paint18_linear_1_651)"/>
<path id="Vector_81" d="M4.66501 33.7555H2.56848V31.0886H7.32133L4.66501 33.7555Z" fill="url(#paint19_linear_1_651)"/>
<path id="Vector_82" d="M9.35974 27.2811C8.86333 29.235 3.14407 34.78 1.42249 36.058C1.49642 36.5544 1.59676 36.8818 1.71822 36.9135C2.17766 37.0297 10.1572 29.5307 10.1572 27.619C10.1624 27.5081 9.86671 27.3867 9.35974 27.2811Z" fill="#BD0000"/>
<path id="Vector_83" d="M2.35195 29.2614C2.1724 29.9743 2.37307 30.5922 2.72162 30.5922C3.07016 30.5922 3.20746 29.9796 3.35533 29.2614C3.50848 28.4957 3.70387 27.9306 3.35533 27.9306C3.00679 27.9306 2.56847 28.39 2.35195 29.2614Z" fill="#E50000"/>
<path id="Vector_84" d="M1.99817 32.4194C1.99817 33.1535 2.25694 33.7502 2.56851 33.7502C2.88009 33.7502 3.14413 33.1587 3.14413 32.4194C3.14413 31.6854 2.88537 31.0886 2.57379 31.0886C2.26222 31.0886 1.99817 31.6854 1.99817 32.4194Z" fill="#E50000"/>
<path id="Vector_85" d="M4.49604 29.5519C5.71809 29.5519 6.70875 29.0152 6.70875 28.3531C6.70875 27.691 5.71809 27.1543 4.49604 27.1543C3.27399 27.1543 2.28333 27.691 2.28333 28.3531C2.28333 29.0152 3.27399 29.5519 4.49604 29.5519Z" fill="white"/>
</g>
<path id="Vector_86" d="M14.889 31.0886C14.889 32.129 14.044 32.9739 13.0037 32.9739C11.9634 32.9739 11.1184 32.129 11.1184 31.0886C11.1184 30.0483 11.9634 29.2033 13.0037 29.2033C14.044 29.2033 14.889 30.0483 14.889 31.0886Z" fill="white"/>
<g id="Group_17">
<path id="Vector_87" d="M27.2781 31.7065H23.8454C23.2329 31.7065 22.7365 31.2048 22.7365 30.5975C22.7365 29.9849 23.2381 29.4885 23.8454 29.4885H27.2781C27.8906 29.4885 28.3871 29.9902 28.3871 30.5975C28.3871 31.2048 27.8854 31.7065 27.2781 31.7065Z" fill="url(#paint20_linear_1_651)"/>
<path id="Vector_88" d="M27.8008 31.1784H24.1992C23.8771 31.1784 23.613 30.9143 23.613 30.5922C23.613 30.2701 23.8771 30.006 24.1992 30.006H27.8061C28.1282 30.006 28.3923 30.2701 28.3923 30.5922C28.387 30.9196 28.123 31.1784 27.8008 31.1784Z" fill="url(#paint21_linear_1_651)"/>
</g>
<g id="Group_18">
<path id="Vector_89" d="M51.1532 32.9898H47.7206C47.108 32.9898 46.6116 32.4881 46.6116 31.8808C46.6116 31.2682 47.1133 30.7718 47.7206 30.7718H51.1532C51.7658 30.7718 52.2622 31.2734 52.2622 31.8808C52.2675 32.4881 51.7658 32.9898 51.1532 32.9898Z" fill="url(#paint22_linear_1_651)"/>
<path id="Vector_90" d="M51.6285 32.4616H48.0216C47.6995 32.4616 47.4354 32.1976 47.4354 31.8755C47.4354 31.5533 47.6995 31.2893 48.0216 31.2893H51.6285C51.9506 31.2893 52.2147 31.5533 52.2147 31.8755C52.2094 32.2029 51.9506 32.4616 51.6285 32.4616Z" fill="url(#paint23_linear_1_651)"/>
</g>
<g id="Group_19">
<path id="Vector_91" d="M76.3273 33.1323C76.3273 33.502 75.6884 33.803 74.9068 33.803C74.1199 33.803 73.4862 33.502 73.4862 33.1323C73.4862 32.7627 74.1252 32.4616 74.9068 32.4616C75.6884 32.4616 76.3273 32.7627 76.3273 33.1323Z" fill="#DD5600"/>
<path id="Vector_92" d="M76.3273 33.1323C76.3273 33.502 75.6884 33.803 74.9068 33.803C74.1199 33.803 73.4862 33.502 73.4862 33.1323C73.4862 32.7627 74.1252 32.4616 74.9068 32.4616C75.6884 32.4616 76.3273 32.7627 76.3273 33.1323Z" fill="url(#paint24_linear_1_651)"/>
</g>
<g id="Group_20">
<path id="Vector_93" d="M72.5884 28.1154C72.5884 28.1154 68.0046 26.811 67.6507 26.3886C67.3022 25.9661 65.9556 23.6953 65.4063 23.5474C64.8571 23.3996 63.3626 22.9982 62.9613 23.5474C62.5599 24.0966 62.1163 26.9483 63.2095 27.3391C64.3026 27.7299 65.9292 27.2916 66.4256 27.5398C66.5998 27.6243 66.9801 27.8884 67.5504 27.9517L72.5884 28.1154Z" fill="#D1DFEA"/>
<path id="Vector_94" d="M67.5557 27.0751C66.9853 27.0117 66.6051 26.7477 66.4308 26.6632C65.9344 26.415 64.3026 26.8586 63.2147 26.4625C62.7975 26.3093 62.6021 25.7971 62.5493 25.1951C62.4754 26.1245 62.6021 27.1173 63.2147 27.3391C64.3079 27.7299 65.9344 27.2916 66.4308 27.5398C66.6051 27.6243 66.9853 27.8883 67.5557 27.9517L72.5884 28.1207C72.5884 28.1207 70.8404 27.6243 69.4198 27.1437L67.5557 27.0751Z" fill="url(#paint25_linear_1_651)"/>
</g>
<g id="Group_21">
<path id="Vector_95" d="M80.8373 52.8302C84.973 52.8302 88.3256 49.4776 88.3256 45.3419C88.3256 41.2061 84.973 37.8535 80.8373 37.8535C76.7015 37.8535 73.3489 41.2061 73.3489 45.3419C73.3489 49.4776 76.7015 52.8302 80.8373 52.8302Z" fill="#191919"/>
<path id="Vector_96" d="M86.4144 46.1602C86.9164 43.0772 84.824 40.171 81.741 39.669C78.6579 39.167 75.7517 41.2594 75.2497 44.3424C74.7477 47.4255 76.8401 50.3317 79.9232 50.8337C83.0062 51.3357 85.9125 49.2433 86.4144 46.1602Z" fill="black"/>
<path id="Vector_97" d="M84.5257 49.0352C86.5632 46.9977 86.5632 43.6941 84.5257 41.6565C82.4881 39.619 79.1846 39.619 77.147 41.6565C75.1094 43.6941 75.1094 46.9977 77.147 49.0352C79.1846 51.0728 82.4881 51.0728 84.5257 49.0352Z" fill="#46676C"/>
<g id="Group_22">
<path id="Vector_98" d="M80.8372 40.029C77.901 40.029 75.5193 42.4107 75.5193 45.3469C75.5193 48.2831 77.901 50.6648 80.8372 50.6648C83.7734 50.6648 86.1551 48.2831 86.1551 45.3469C86.1551 42.4107 83.7734 40.029 80.8372 40.029ZM80.8372 49.3023C78.6139 49.3023 76.8131 47.5015 76.8131 45.2782C76.8131 43.055 78.6139 41.2542 80.8372 41.2542C83.0605 41.2542 84.8613 43.055 84.8613 45.2782C84.856 47.5015 83.0552 49.3023 80.8372 49.3023Z" fill="url(#paint26_linear_1_651)"/>
<path id="Vector_99" d="M80.8373 40.0187C81.9832 40.0292 81.5238 44.5444 81.5238 44.5444C81.5238 44.5444 85.5109 42.6222 85.87 43.6731C86.2344 44.7293 81.8618 45.664 81.8618 45.664C81.8618 45.664 84.8349 48.917 83.9477 49.5877C83.0553 50.2584 80.7264 46.4825 80.7264 46.4825C80.7264 46.4825 78.6087 50.2109 77.7268 49.5877C76.8501 48.9646 79.6649 45.7432 79.6649 45.7432C79.6649 45.7432 75.4454 44.7081 75.8045 43.6731C76.1583 42.6486 80.0662 44.4282 80.0662 44.4282C80.0662 44.4282 79.7177 40.0081 80.8373 40.0187Z" fill="url(#paint27_linear_1_651)"/>
<path id="Vector_100" d="M82.6539 45.3471C82.6539 46.3505 81.8406 47.1691 80.8319 47.1691C79.8233 47.1691 79.01 46.3558 79.01 45.3471C79.01 44.3438 79.8233 43.5252 80.8319 43.5252C81.8406 43.5252 82.6539 44.3385 82.6539 45.3471Z" fill="url(#paint28_linear_1_651)"/>
<g id="Group_23">
<g id="Group_24">
<path id="Vector_101" d="M80.3778 44.3173C80.3778 44.4863 80.2405 44.6236 80.0716 44.6236C79.9026 44.6236 79.7653 44.4863 79.7653 44.3173C79.7653 44.1483 79.9026 44.011 80.0716 44.011C80.2405 44.011 80.3778 44.1483 80.3778 44.3173Z" fill="#46676C"/>
<path id="Vector_102" d="M81.9462 44.3173C81.9462 44.4863 81.8089 44.6236 81.6399 44.6236C81.4709 44.6236 81.3336 44.4863 81.3336 44.3173C81.3336 44.1483 81.4709 44.011 81.6399 44.011C81.8089 44.011 81.9462 44.1483 81.9462 44.3173Z" fill="#46676C"/>
<path id="Vector_103" d="M82.3792 45.6798C82.3792 45.8488 82.2419 45.9861 82.0729 45.9861C81.9039 45.9861 81.7666 45.8488 81.7666 45.6798C81.7666 45.5108 81.9039 45.3735 82.0729 45.3735C82.2472 45.3788 82.3792 45.5108 82.3792 45.6798Z" fill="#46676C"/>
<path id="Vector_104" d="M79.8973 45.6798C79.8973 45.8488 79.76 45.9861 79.591 45.9861C79.422 45.9861 79.2847 45.8488 79.2847 45.6798C79.2847 45.5108 79.422 45.3735 79.591 45.3735C79.76 45.3788 79.8973 45.5108 79.8973 45.6798Z" fill="#46676C"/>
<path id="Vector_105" d="M81.0907 46.604C81.0907 46.773 80.9534 46.9103 80.7844 46.9103C80.6155 46.9103 80.4781 46.773 80.4781 46.604C80.4781 46.435 80.6155 46.2977 80.7844 46.2977C80.9587 46.303 81.0907 46.4403 81.0907 46.604Z" fill="#46676C"/>
</g>
</g>
<path id="Vector_106" d="M81.698 45.3471C81.698 45.8224 81.3125 46.2079 80.8372 46.2079C80.362 46.2079 79.9764 45.8224 79.9764 45.3471C79.9764 44.8718 80.362 44.4863 80.8372 44.4863C81.3125 44.4863 81.698 44.8718 81.698 45.3471Z" fill="url(#paint29_linear_1_651)"/>
</g>
</g>
</g>
<g id="Group_25">
<path id="Vector_107" d="M57.5484 50.9344H28.6247C27.1143 50.9344 25.8892 49.7092 25.8892 48.1988V47.8978H60.2839V48.1988C60.2839 49.7145 59.0587 50.9344 57.5484 50.9344Z" fill="#686868"/>
<path id="Vector_108" d="M53.6934 53.2105H32.4798C31.223 53.2105 30.2037 52.1913 30.2037 50.9344H55.9642C55.9694 52.1913 54.9502 53.2105 53.6934 53.2105Z" fill="#3D3D3D"/>
<g id="Group_26">
<path id="Vector_109" d="M47.4301 50.3323H35.923C35.4477 50.3323 35.0569 49.9415 35.0569 49.4662C35.0569 48.9909 35.4477 48.6002 35.923 48.6002H47.4301C47.9054 48.6002 48.2962 48.9909 48.2962 49.4662C48.2909 49.9415 47.9054 50.3323 47.4301 50.3323Z" fill="#7F7F7F"/>
<path id="Vector_110" d="M44.177 49.9098C44.4074 49.9098 44.5942 49.723 44.5942 49.4926C44.5942 49.2622 44.4074 49.0754 44.177 49.0754C43.9466 49.0754 43.7598 49.2622 43.7598 49.4926C43.7598 49.723 43.9466 49.9098 44.177 49.9098Z" fill="#3D3D3D"/>
<path id="Vector_111" d="M47.7152 49.4662C47.7152 49.6986 47.5304 49.8834 47.2981 49.8834C47.0657 49.8834 46.8809 49.6986 46.8809 49.4662C46.8809 49.2339 47.0657 49.049 47.2981 49.049C47.5304 49.049 47.7152 49.2392 47.7152 49.4662Z" fill="#3D3D3D"/>
<path id="Vector_112" d="M36.3719 49.4926C36.3719 49.725 36.187 49.9098 35.9547 49.9098C35.7223 49.9098 35.5375 49.725 35.5375 49.4926C35.5375 49.2603 35.7223 49.0754 35.9547 49.0754C36.1818 49.0754 36.3719 49.2603 36.3719 49.4926Z" fill="#3D3D3D"/>
</g>
<path id="Vector_113" d="M36.8049 47.9137L25.8892 47.9031L32.1576 48.4418V50.9344L35.2787 51.6684V53.2105H44.0186V51.3991L44.7368 50.9344V48.3467L60.2839 47.9137H36.8049Z" fill="#B4B4B4"/>
<path id="Vector_114" d="M43.3426 9.54236H36.8048V96.4772H43.3426V9.54236Z" fill="#758B9B"/>
<path id="Vector_115" d="M51.1269 90.6734H28.8889V97H51.1269V90.6734Z" fill="#7F7F7F"/>
<path id="Vector_116" d="M43.3426 90.552H36.8048V9.54236H38.4419V88.503L43.3426 90.552Z" fill="#414E5B"/>
</g>
<g id="Group_27">
<path id="Vector_117" d="M77.0666 82.8154H73.7819C73.2274 82.8154 72.7732 83.3435 72.7732 83.993V85.7833C72.7732 86.2533 73.0161 86.6599 73.3647 86.85C73.3594 86.8131 73.3541 86.7761 73.3541 86.7391V84.2888C73.3541 83.8557 73.6604 83.4966 74.0301 83.4966H76.8184C77.1933 83.4966 77.4944 83.8505 77.4944 84.2888V86.7391C77.4944 86.7761 77.4891 86.8131 77.4838 86.85C77.8323 86.6652 78.0753 86.2533 78.0753 85.7833V83.993C78.0753 83.3435 77.6211 82.8154 77.0666 82.8154Z" fill="#191919"/>
<path id="Vector_118" d="M67.4606 93.4776H83.0182C83.3457 93.4776 83.615 93.2136 83.615 92.8809V85.646C83.615 85.3027 83.3351 85.0228 82.9918 85.0228H67.4923C67.149 85.0228 66.8691 85.3027 66.8691 85.646V92.8809C66.8691 93.2083 67.1332 93.4776 67.4606 93.4776Z" fill="#BD0000"/>
<path id="Vector_119" d="M66.8691 88.1755H83.615V85.5087C83.615 85.2393 83.3985 85.0228 83.1292 85.0228H67.355C67.0857 85.0228 66.8691 85.2393 66.8691 85.5087V88.1755Z" fill="#D60000"/>
<path id="Vector_120" d="M81.9145 90.552H68.5696V92.6696H81.9145V90.552Z" fill="#B8B3B3"/>
<path id="Vector_121" d="M83.615 88.1755H66.8691V88.5663H83.615V88.1755Z" fill="#191919"/>
<path id="Vector_122" d="M69.6575 89.3902C69.367 89.3902 69.1346 89.1578 69.1346 88.8674V87.3623H70.1803V88.8674C70.1803 89.1525 69.9479 89.3902 69.6575 89.3902Z" fill="#B8B3B3"/>
<path id="Vector_123" d="M80.9535 89.3902C80.663 89.3902 80.4307 89.1578 80.4307 88.8674V87.3623H81.4763V88.8674C81.4763 89.1525 81.2439 89.3902 80.9535 89.3902Z" fill="#B8B3B3"/>
</g>
<g id="Group_28">
<g id="Group_29">
<path id="Vector_124" d="M10.6008 59.2519C9.58156 59.7271 8.77886 57.5408 8.44088 56.453C8.1029 55.3651 7.4375 52.0962 7.4375 52.0962L8.59403 51.6579C8.59403 51.6579 10.2681 54.2033 11.356 57.15C11.4669 57.4563 11.6358 58.766 10.6008 59.2519Z" fill="#FFA47C"/>
<path id="Vector_125" d="M8.82638 51.8321L9.63964 53.4375L7.8494 54.029L7.47974 52.3813L8.82638 51.8321Z" fill="#9A9393"/>
<path id="Vector_126" d="M9.01117 52.6401C9.01117 52.6401 8.82106 51.1087 8.69959 50.834C8.57813 50.5594 7.79127 49.6828 7.79127 49.6828C7.79127 49.6828 7.63813 50.1898 7.38992 50.2954C7.14172 50.401 6.47632 50.6122 6.47632 50.6122C6.47632 50.6122 6.76149 51.5945 7.03082 51.9853C7.30014 52.3761 7.65925 52.7035 7.65925 52.7035L9.01117 52.6401Z" fill="#9A9393"/>
<path id="Vector_127" d="M21.152 94.2381C21.152 94.2381 20.4497 95.5372 20.5606 95.8171C20.624 95.9755 21.1468 96.4878 21.8755 96.3769C22.43 96.2924 23.2169 95.6006 23.3489 95.5583C23.6658 95.458 23.2908 93.7258 23.2908 93.7258L21.152 94.2381Z" fill="#191919"/>
<g id="Group_30">
<path id="Vector_128" d="M12.8927 75.8604L15.38 75.8393L15.4487 75.6914L15.6282 75.5911L15.3483 71.2396L13.0406 71.1868L12.8927 75.8604Z" fill="#526FB5"/>
<path id="Vector_129" d="M13.1408 75.6122L15.6282 75.5911L15.4592 71.1604L13.1039 71.1815L13.1408 75.6122Z" fill="#34469C"/>
<path id="Vector_130" d="M15.38 75.8393L15.4487 75.6914L13.0564 75.7125L13.0406 71.1868L12.8927 75.8604L15.38 75.8393Z" fill="#34469C"/>
</g>
<path id="Vector_131" d="M17.9307 60.213C17.8515 61.2428 16.9748 61.4857 15.9715 61.3431C14.9628 61.2005 9.96703 59.405 9.79804 59.1251C9.62905 58.8452 9.93534 57.3824 10.3948 57.2715C10.8542 57.1553 15.3325 58.032 16.1404 58.296C16.9431 58.5495 18.0205 59.0036 17.9307 60.213Z" fill="#FFA47C"/>
<path id="Vector_132" d="M17.4554 59.4631C17.26 59.1198 16.019 58.0425 15.2744 57.9369C14.2235 57.789 12.2431 57.3507 12.2431 57.3507C12.2431 57.3507 11.7414 57.9791 11.5988 58.9033C11.4298 59.9806 11.752 60.6777 11.752 60.6777C11.752 60.6777 15.8975 61.5438 16.7266 61.2903C16.9695 61.2164 17.9888 60.4137 17.4554 59.4631Z" fill="#9A9393"/>
<path id="Vector_133" d="M19.779 53.9287C19.779 53.9287 19.6206 56.9071 19.779 57.0656C20.2701 57.562 22.1818 58.127 22.4723 58.9403C22.8208 59.9278 19.9955 63.9255 19.5413 65.2933C19.0925 66.661 19.5361 68.8949 19.6153 70.2837C19.6945 71.6779 15.2163 72.9189 15.0578 72.9031C14.8994 72.8872 13.6373 71.4561 13.4155 70.9808C13.1937 70.5055 13.7957 67.0148 13.8802 66.1171C13.9647 65.2193 14.0597 62.056 14.0386 61.8448C13.9013 60.4454 14.3607 59.3945 14.44 59.1093C14.5192 58.8241 14.5509 58.3383 14.7146 58.164C15.042 57.8207 16.7002 57.488 16.7477 57.3085C16.79 57.1236 17.26 54.573 17.26 54.573L19.779 53.9287Z" fill="#FFBD95"/>
<path id="Vector_134" d="M19.779 57.0656L17.0277 58.3699L16.753 57.319C16.753 57.319 14.9787 57.826 14.7199 58.1746C14.4611 58.5231 14.2816 59.3152 14.176 59.6057C14.0756 59.8961 13.9013 61.2639 13.9013 62.468C13.9013 63.1703 13.7957 64.0892 13.7852 65.288C13.7799 66.3125 13.4208 68.8315 13.4208 68.8315C13.4208 68.8315 14.3872 68.9635 15.8975 69.0374C17.6455 69.1219 19.4305 69.0216 19.515 68.9688C19.8794 68.7259 19.6734 65.9851 19.7632 65.6946C19.853 65.4042 22.4881 60.4454 22.5885 59.7694C22.6888 59.0987 22.3825 58.6181 21.8967 58.3119C21.4108 58.0003 19.779 57.0656 19.779 57.0656Z" fill="#B8B3B3"/>
<path id="Vector_135" d="M21.659 58.1587C21.659 58.1587 23.2644 59.2624 21.4583 60.3978C20.6767 60.8889 17.1227 61.4223 16.4467 61.5596C14.0439 62.0455 17.1438 67.5746 17.3814 67.9918C17.6191 68.409 17.5663 68.9424 17.5663 68.9424L19.3565 68.9952C20.043 69.2011 19.7843 65.6629 20.1222 64.9658C20.4549 64.2687 22.5515 60.308 22.599 59.7641C22.7099 58.5548 21.659 58.1587 21.659 58.1587Z" fill="#A39D9D"/>
<path id="Vector_136" d="M17.0594 55.6872L19.7844 54.9954L19.6946 56.5586L18.8338 56.9758L17.0594 55.6872Z" fill="#FFA47C"/>
<path id="Vector_137" d="M19.1876 50.3957C20.0748 50.2267 22.034 50.776 22.1713 52.3761C22.3139 53.9762 21.2894 54.837 20.4339 55.2331C19.7685 55.5446 19.2562 55.6239 18.406 55.513C18.2317 55.4918 16.8798 54.9479 16.6844 54.7103C16.5524 54.5518 17.1756 53.2527 17.1227 53.2263C17.0699 53.1999 16.9802 53.0468 17.033 52.9411C17.1122 52.788 17.8093 52.0117 17.8304 51.8955C17.8568 51.7846 18.1737 50.5911 19.1876 50.3957Z" fill="#FFBD95"/>
<path id="Vector_138" d="M18.5117 50.7284C18.5117 50.7284 19.7686 50.776 20.2808 52.5556C20.3917 52.9359 19.3197 53.6171 19.3303 53.7386C19.3408 53.8706 20.6875 53.596 20.5871 53.6858C19.5573 54.5994 19.5468 55.4443 19.6418 55.513C19.9376 55.7242 21.8704 54.7314 22.1873 53.1577C22.5041 51.5839 21.2103 50.6122 20.8406 50.4749C20.4709 50.3482 19.4359 49.8095 18.5117 50.7284Z" fill="#8D3B26"/>
<path id="Vector_139" d="M19.8847 53.6013C19.5573 53.8917 19.2088 54.3406 19.3672 54.5201C19.5256 54.6944 19.9217 54.6046 20.2491 54.3142C20.5765 54.0237 20.7191 53.6488 20.5607 53.4692C20.4023 53.2897 20.2174 53.3108 19.8847 53.6013Z" fill="#FFBD95"/>
<g id="Group_31">
<path id="Vector_140" d="M15.5038 94.6424H17.1937V94.3255H15.5038V94.6424Z" fill="#191919"/>
<path id="Vector_141" d="M17.1281 92.1046C17.3499 92.4162 17.4977 93.0129 17.5188 93.2928C17.5453 93.6255 17.3446 94.3279 17.1281 94.3279C16.4891 94.3279 15.7233 94.3543 15.0632 94.444C14.4031 94.5338 14.1549 94.914 12.4703 94.9088C11.9791 94.9088 11.1078 94.8771 11.1078 94.6764C11.1078 93.805 12.7238 94.1113 13.2413 93.6413C14.5404 92.4426 15.4065 92.1574 15.4065 92.1574C15.4065 92.1574 17.0858 92.0412 17.1281 92.1046Z" fill="#191919"/>
</g>
<path id="Vector_142" d="M16.357 69.2434C16.357 69.2434 18.5803 71.3188 18.6806 72.301C18.781 73.2833 17.8357 76.4255 17.4977 78.8969C17.1597 81.3684 16.9538 81.8648 17.0383 82.451C17.1228 83.0319 17.7829 85.3978 17.7618 86.9715C17.7353 88.804 17.8304 92.5693 17.8304 92.5693C17.8304 92.5693 17.3393 92.9548 16.0771 92.9495C15.2639 92.9442 14.5615 92.3686 14.5615 92.3686C14.5615 92.3686 14.0545 83.1428 13.9489 82.1711C13.8803 81.5427 13.368 77.2176 13.2149 73.6846C13.1621 72.5492 13.2941 69.9246 13.2941 69.4546L16.357 69.2434Z" fill="#506CB3"/>
<path id="Vector_143" d="M18.5168 68.7681L20.212 64.7651C20.212 64.7651 20.513 68.3615 19.9902 68.6836C19.4674 69.0057 18.5168 68.7681 18.5168 68.7681Z" fill="#34469C"/>
<path id="Vector_144" d="M17.202 57.7626L17.0277 58.3647L18.4747 57.6887L17.202 57.7626Z" fill="#A39D9D"/>
<path id="Vector_145" d="M20.1223 57.2609L19.6945 56.5586L17.2019 57.7626L17.4924 58.6393L20.1223 57.2609Z" fill="#D7D4D4"/>
<path id="Vector_146" d="M17.0278 58.3646L16.8852 57.5831L16.5314 57.8049L17.0278 58.3646Z" fill="#A39D9D"/>
<path id="Vector_147" d="M16.8851 57.5831L16.262 58.1693L16.2408 57.4722L16.7531 57.0708L16.8851 57.5831Z" fill="#CFCCCC"/>
<path id="Vector_148" d="M13.1779 68.8156C12.4227 67.8703 14.0123 60.5721 14.0123 60.5721L17.5716 61.19L17.4554 68.8103C17.4554 68.8156 13.9436 69.7715 13.1779 68.8156Z" fill="#506CB3"/>
<path id="Vector_149" d="M17.5769 61.1952C17.73 60.5245 19.0608 57.7468 21.0201 57.9791C21.2207 58.0055 21.659 58.1587 21.659 58.1587L20.5817 57.5303C20.5817 57.5303 20.154 57.3137 19.2087 57.8841C18.2581 58.4544 17.0541 59.8803 16.8059 61.0685C16.5577 62.2461 17.392 61.9979 17.5769 61.1952Z" fill="#34469C"/>
<path id="Vector_150" d="M14.0123 60.5774C14.0123 60.5774 14.4242 58.1164 15.3167 57.8207C15.6969 57.694 15.8712 57.6042 15.8712 57.6042C15.8712 57.6042 15.1213 58.7343 14.8836 59.7113C14.646 60.6883 14.5351 61.3906 14.213 61.3484C13.8855 61.3061 14.0123 60.5774 14.0123 60.5774Z" fill="#34469C"/>
<path id="Vector_151" d="M22.2663 60.0282C21.9759 61.021 21.094 61.0896 20.1592 60.7569C19.2298 60.4242 14.1178 57.3666 14.0122 57.0603C13.9119 56.754 14.5034 55.3862 14.9681 55.3598C15.4275 55.3334 20.2385 57.3983 20.9567 57.8049C21.6749 58.2168 22.6043 58.8664 22.2663 60.0282Z" fill="#FFBD95"/>
<path id="Vector_152" d="M22.3403 59.1409C22.2188 58.766 21.8069 57.9369 21.0993 57.6834C20.1012 57.3243 17.5452 56.1995 17.5452 56.1995C17.5452 56.1995 16.9273 56.7117 16.5946 57.5936C16.2091 58.6129 16.3834 59.3627 16.3834 59.3627C16.3834 59.3627 20.2649 60.9682 21.131 60.9734C21.8228 60.9787 22.6677 60.1813 22.3403 59.1409Z" fill="#CFCCCC"/>
<g id="Group_32">
<g id="Group_33">
<path id="Vector_153" d="M6.38625 52.3391C6.46019 52.2124 6.83513 51.9642 6.83513 51.9642L14.0542 46.9209C14.0542 46.9209 14.3446 46.7096 14.4555 46.6885C14.746 46.6357 15.1737 46.8628 15.5962 46.4931C15.9131 46.2238 16.0609 45.3788 15.9553 45.3366C15.9025 45.3155 15.4536 45.833 15.348 45.9069C15.2424 45.9809 15.0153 45.965 14.8674 45.8383C14.7565 45.7485 14.5083 45.5425 14.5664 45.3471C14.6192 45.1517 15.1843 44.7346 15.1315 44.6606C15.0787 44.5867 14.3288 44.8296 14.144 45.0408C13.8746 45.3577 13.9327 45.5953 13.8324 45.7802C13.7743 45.8858 13.468 46.097 13.468 46.097L6.25951 51.135C6.25951 51.135 5.88985 51.4097 5.74198 51.4361C5.47793 51.4836 5.11355 51.3093 4.72804 51.642C4.43759 51.8902 4.30557 52.6612 4.40062 52.6982C4.45343 52.7193 4.86006 52.244 4.9604 52.1754C5.05546 52.1067 5.2667 52.1226 5.404 52.2335C5.50962 52.318 5.73142 52.5081 5.68389 52.6824C5.63108 52.8619 5.11883 53.2421 5.16636 53.3108C5.21389 53.3794 5.90569 53.1576 6.0694 52.9623C6.31232 52.6824 6.2912 52.4975 6.38625 52.3391Z" fill="#596273"/>
<path id="Vector_154" d="M6.56091 51.8691C6.42889 51.9642 6.24406 51.9325 6.15428 51.8004C6.06451 51.6684 6.09619 51.4889 6.22822 51.3938L13.6004 46.2396C13.7324 46.1446 13.9173 46.1762 14.007 46.3083C14.0968 46.4403 14.0651 46.6198 13.9331 46.7149L6.56091 51.8691Z" fill="#7E908D"/>
<path id="Vector_155" d="M14.2605 46.2713C14.2605 46.2713 14.3239 46.4244 14.2869 46.5248C14.2553 46.6146 14.1338 46.7413 14.1338 46.7413C14.1338 46.7413 14.2922 46.6198 14.382 46.5829C14.4718 46.5512 14.7358 46.5723 14.7358 46.5723C14.7358 46.5723 14.5404 46.5353 14.4348 46.435C14.3609 46.3716 14.2605 46.2713 14.2605 46.2713Z" fill="#7E908D"/>
<path id="Vector_156" d="M14.1548 46.1129C14.1548 46.1129 14.0334 46.002 13.9225 46.002C13.8274 46.002 13.6637 46.0706 13.6637 46.0706C13.6637 46.0706 13.8327 45.9597 13.8961 45.8911C13.9594 45.8171 13.9964 45.5689 13.9964 45.5689C13.9964 45.5689 13.9964 45.7643 14.0545 45.8964C14.0915 45.9861 14.1548 46.1129 14.1548 46.1129Z" fill="#7E908D"/>
<path id="Vector_157" d="M6.04858 52.0275C6.04858 52.0275 6.17533 52.1437 6.28623 52.1384C6.38128 52.1384 6.55027 52.0645 6.55027 52.0645C6.55027 52.0645 6.376 52.1754 6.31263 52.2493C6.24926 52.3233 6.18061 52.5873 6.18061 52.5873C6.18061 52.5873 6.21229 52.3813 6.1542 52.2493C6.11196 52.1595 6.04858 52.0275 6.04858 52.0275Z" fill="#7E908D"/>
<path id="Vector_158" d="M5.93781 51.8691C5.93781 51.8691 5.87444 51.7107 5.9114 51.6051C5.94837 51.5153 6.06983 51.3833 6.06983 51.3833C6.06983 51.3833 5.90612 51.51 5.81107 51.547C5.72129 51.5839 5.46252 51.5311 5.46252 51.5311C5.46252 51.5311 5.65264 51.5998 5.75826 51.7001C5.83219 51.7635 5.93781 51.8691 5.93781 51.8691Z" fill="#7E908D"/>
<path id="Vector_159" d="M6.47099 51.8321C6.39705 51.8849 6.28615 51.848 6.2175 51.7529C6.15413 51.6579 6.15941 51.5417 6.22806 51.4889L13.6319 46.3135C13.7059 46.2607 13.8168 46.2977 13.8854 46.3928C13.9488 46.4878 13.9435 46.604 13.8749 46.6568L6.47099 51.8321Z" fill="#596273"/>
</g>
<g id="Group_34">
<g id="Clip path group">
<mask id="mask0_1_651" style="mask-type:luminance" maskUnits="userSpaceOnUse" x="4" y="44" width="12" height="9">
<g id="SVGID_32_">
<path id="Vector_160" d="M5.39903 52.2439C5.41487 52.2545 5.43599 52.2703 5.45184 52.2914L14.7727 45.7695C14.6565 45.6638 14.5139 45.5054 14.5562 45.3523C14.609 45.1569 15.174 44.7397 15.1212 44.6657C15.0684 44.5918 14.3185 44.8347 14.1337 45.046C13.8644 45.3628 13.9225 45.6005 13.8221 45.7853C13.764 45.8909 13.4577 46.1022 13.4577 46.1022L6.24926 51.1402C6.24926 51.1402 5.87959 51.4148 5.73173 51.4412C5.46768 51.4887 5.10329 51.3144 4.71779 51.6471C4.42733 51.8953 4.29531 52.6664 4.39037 52.7033C4.44318 52.7245 4.84981 52.2492 4.95015 52.1805C5.05577 52.1171 5.26172 52.133 5.39903 52.2439Z" fill="white"/>
</g>
</mask>
<g mask="url(#mask0_1_651)">
<path id="Vector_161" opacity="0.3" d="M3.70386 52.2071L4.32173 53.089L15.9187 44.9669L15.3008 44.085L3.70386 52.2071Z" fill="black"/>
</g>
</g>
</g>
</g>
<path id="Vector_162" d="M14.7728 57.1448C13.8328 57.7574 12.729 55.7031 12.2432 54.6733C11.7573 53.6435 10.6431 50.5013 10.6431 50.5013L11.7257 49.9099C11.7257 49.9099 13.7377 52.1965 15.2269 54.9637C15.3801 55.2436 15.7286 56.5216 14.7728 57.1448Z" fill="#FFBD95"/>
<g id="Group_35">
<path id="Vector_163" d="M9.39136 48.7006C9.48642 48.6266 9.62373 48.6372 9.69766 48.7322L10.2838 49.4557C10.3578 49.5508 10.3472 49.6881 10.2522 49.762C10.1571 49.836 10.0198 49.8201 9.94586 49.7303L9.35968 49.0069C9.28047 48.9171 9.29631 48.7745 9.39136 48.7006Z" fill="#B8B3B3"/>
<path id="Vector_164" d="M9.68189 48.4154C9.77695 48.3414 9.91425 48.352 9.98818 48.4471L10.5744 49.1705C10.6483 49.2656 10.6377 49.4029 10.5427 49.4768C10.4476 49.5508 10.3103 49.5349 10.2364 49.4452L9.6502 48.7217C9.57627 48.6266 9.58683 48.4893 9.68189 48.4154Z" fill="#B8B3B3"/>
<path id="Vector_165" d="M9.98291 48.1513C10.078 48.0774 10.2153 48.088 10.2892 48.183L10.8754 48.9065C10.9493 49.0016 10.9388 49.1389 10.8437 49.2128C10.7487 49.2867 10.6113 49.2709 10.5374 49.1811L9.95123 48.4576C9.8773 48.3679 9.88786 48.2253 9.98291 48.1513Z" fill="#B8B3B3"/>
<path id="Vector_166" d="M10.2997 47.9243C10.3947 47.8503 10.5321 47.8609 10.606 47.9559L11.1922 48.6794C11.2661 48.7745 11.2555 48.9118 11.1605 48.9857C11.0654 49.0597 10.9281 49.0438 10.8542 48.954L10.268 48.2305C10.1888 48.1408 10.2046 48.0035 10.2997 47.9243Z" fill="#B8B3B3"/>
<path id="Vector_167" d="M12.1534 50.6598C12.1534 50.6598 11.752 49.1706 11.5883 48.9118C11.4299 48.6583 10.5269 47.8979 10.5269 47.8979C10.5269 47.8979 10.4476 48.4207 10.2153 48.5633C9.98292 48.7006 9.35449 49.0069 9.35449 49.0069C9.35449 49.0069 9.77169 49.9416 10.0938 50.2901C10.416 50.6387 10.812 50.9133 10.812 50.9133L12.1534 50.6598Z" fill="#B8B3B3"/>
</g>
<path id="Vector_168" d="M11.979 50.0472L13.0088 51.5206L11.3189 52.3602L10.7222 50.7812L11.979 50.0472Z" fill="#B8B3B3"/>
<path id="Vector_169" d="M20.0324 69.2804C20.0324 69.2804 20.7401 71.1129 21.0939 72.5862C21.453 74.0596 21.8755 81.6959 22.0075 82.4141C22.1342 83.1323 22.5831 85.3291 22.9317 87.4943C23.2802 89.6648 23.4862 94.0216 23.4862 94.0216L20.7084 94.4546C20.7084 94.4546 19.0502 85.3186 18.7914 83.8822C18.5326 82.4458 16.2988 74.9415 16.2988 74.9415L15.9397 69.9352L20.0324 69.2804Z" fill="#506CB3"/>
<path id="Vector_170" d="M19.7473 75.1475C19.9797 76.1245 20.6609 82.7679 20.7137 83.1428C20.7665 83.5072 22.4881 93.6994 22.5673 94.1694L23.4809 94.0268C23.4809 94.0268 23.275 89.6701 22.9264 87.4996C22.5779 85.3291 22.129 83.1375 22.0023 82.4193C21.8755 81.7011 21.4478 74.0649 21.0887 72.5915C20.7296 71.1181 20.0272 69.2856 20.0272 69.2856L17.6085 69.7662C17.6085 69.7609 19.5149 74.1705 19.7473 75.1475Z" fill="#34469C"/>
<path id="Vector_171" d="M13.1779 68.8156L13.2888 69.7609C13.2888 69.7609 15.512 69.9194 17.6086 69.7609C20.1012 69.5761 20.1064 69.4388 20.0906 69.4441L19.9955 68.6836C19.9955 68.6836 18.9288 68.7576 17.4607 68.8156C16.0296 68.8737 13.1779 68.8156 13.1779 68.8156Z" fill="#34469C"/>
<path id="Vector_172" d="M17.4554 68.8156L17.9624 71.9367L18.5169 68.7681L17.4554 68.8156Z" fill="#506CB3"/>
<g id="Group_36">
<path id="Vector_173" d="M18.4112 75.8446L20.8774 75.5224L20.925 75.3693L21.094 75.2478L20.2807 70.9597L17.9888 71.192L18.4112 75.8446Z" fill="#506CB3"/>
<path id="Vector_174" d="M18.6278 75.5699L21.094 75.2478L20.381 70.8646L18.0469 71.1709L18.6278 75.5699Z" fill="#0C406F"/>
<path id="Vector_175" d="M20.8774 75.5224L20.925 75.3693L18.5538 75.6808L17.9888 71.192L18.4112 75.8446L20.8774 75.5224Z" fill="#34469C"/>
</g>
<path id="Vector_176" d="M18.5117 50.6756C18.5117 50.6756 19.8161 49.0755 21.6063 50.232C23.3966 51.3885 22.4143 53.3636 22.4143 53.3636C22.4143 53.3636 21.3265 52.9411 19.9957 52.0803C18.6649 51.2196 18.5117 50.6756 18.5117 50.6756Z" fill="#34469C"/>
<path id="Vector_177" d="M19.4253 51.679C19.4253 51.679 22.3668 54.2085 22.4143 54.2561C22.578 54.4092 23.4124 54.668 23.4811 54.6205C23.555 54.5729 22.4882 53.1893 22.4882 53.1893C22.4882 53.1893 21.6538 52.8883 21.2472 52.7352C20.8406 52.582 19.5045 51.5628 19.4253 51.679Z" fill="#34469C"/>
<g id="Group_37">
<path id="Vector_178" d="M6.5503 50.3165C6.65591 50.2531 6.78794 50.2901 6.85131 50.3904L7.33187 51.1879C7.39525 51.2935 7.35828 51.4255 7.25794 51.4889C7.1576 51.5523 7.0203 51.5153 6.95693 51.415L6.47636 50.6175C6.41299 50.5172 6.44468 50.3799 6.5503 50.3165Z" fill="#9A9393"/>
<path id="Vector_179" d="M6.87757 50.0736C6.98319 50.0102 7.11521 50.0472 7.17858 50.1475L7.65915 50.9449C7.72252 51.0505 7.68555 51.1826 7.58522 51.2459C7.48488 51.3093 7.34757 51.2723 7.2842 51.172L6.80364 50.3746C6.74026 50.269 6.77723 50.1369 6.87757 50.0736Z" fill="#9A9393"/>
<path id="Vector_180" d="M7.2157 49.8571C7.32132 49.7937 7.45334 49.8307 7.51671 49.931L7.99728 50.7284C8.06065 50.834 8.02368 50.9661 7.92335 51.0294C7.82301 51.0928 7.6857 51.0558 7.62233 50.9555L7.14177 50.1581C7.0784 50.0525 7.11008 49.9204 7.2157 49.8571Z" fill="#9A9393"/>
<path id="Vector_181" d="M7.55896 49.6775C7.66458 49.6141 7.7966 49.6511 7.85998 49.7514L8.34054 50.5489C8.40391 50.6545 8.36695 50.7865 8.26661 50.8499C8.16627 50.9132 8.02897 50.8763 7.9656 50.7759L7.48503 49.9785C7.42166 49.8729 7.45334 49.7409 7.55896 49.6775Z" fill="#9A9393"/>
</g>
<path id="Vector_182" d="M8.65212 51.1034C8.65212 51.1034 8.21908 50.4644 8.0765 50.4908C7.93391 50.5119 7.11537 50.4961 7.02031 50.4961C6.93053 50.4908 6.80379 50.4855 7.00447 50.7126C7.19986 50.9397 7.58009 50.9133 7.61706 51.0136C7.64874 51.1139 7.61178 51.5787 7.89695 51.8586C8.17684 52.1384 8.48313 52.0751 8.59931 52.0223C8.71549 51.9747 8.92673 51.2565 8.65212 51.1034Z" fill="#A39D9D"/>
</g>
<g id="Group_38">
<path id="Vector_183" d="M19.2615 45.3788C19.2615 47.375 17.6402 48.9963 15.6441 48.9963C13.6479 48.9963 12.0266 47.375 12.0266 45.3788C12.0266 43.3826 13.6479 41.7614 15.6441 41.7614C17.6402 41.7614 19.2615 43.3773 19.2615 45.3788Z" fill="#191919"/>
<g id="Group_39">
<path id="Vector_184" d="M18.5223 45.4052C18.5223 46.9948 17.2338 48.2834 15.6442 48.2834C14.0547 48.2834 12.7661 46.9948 12.7661 45.4052C12.7661 43.8157 14.0547 42.5271 15.6442 42.5271C17.2338 42.5271 18.5223 43.8157 18.5223 45.4052Z" fill="url(#paint30_linear_1_651)"/>
<g id="Group_40">
<g id="Group_41">
<path id="Vector_185" d="M14.9154 43.7734C14.9154 44.0375 14.6988 44.254 14.4348 44.254C14.1707 44.254 13.9542 44.0375 13.9542 43.7734C13.9542 43.5094 14.1707 43.2929 14.4348 43.2929C14.6988 43.2929 14.9154 43.5094 14.9154 43.7734Z" fill="#3D3D3D"/>
<path id="Vector_186" d="M17.3974 43.7734C17.3974 44.0375 17.1809 44.254 16.9168 44.254C16.6528 44.254 16.4363 44.0375 16.4363 43.7734C16.4363 43.5094 16.6528 43.2929 16.9168 43.2929C17.1809 43.2929 17.3974 43.5094 17.3974 43.7734Z" fill="#3D3D3D"/>
<path id="Vector_187" d="M17.6034 46.4139C17.8688 46.4139 18.0839 46.1988 18.0839 45.9334C18.0839 45.6679 17.8688 45.4528 17.6034 45.4528C17.338 45.4528 17.1228 45.6679 17.1228 45.9334C17.1228 46.1988 17.338 46.4139 17.6034 46.4139Z" fill="#3D3D3D"/>
<path id="Vector_188" d="M13.6797 46.4139C13.9451 46.4139 14.1602 46.1988 14.1602 45.9334C14.1602 45.6679 13.9451 45.4528 13.6797 45.4528C13.4143 45.4528 13.1991 45.6679 13.1991 45.9334C13.1991 46.1988 13.4143 46.4139 13.6797 46.4139Z" fill="#3D3D3D"/>
<path id="Vector_189" d="M15.5649 47.8767C15.8303 47.8767 16.0455 47.6616 16.0455 47.3962C16.0455 47.1307 15.8303 46.9156 15.5649 46.9156C15.2995 46.9156 15.0844 47.1307 15.0844 47.3962C15.0844 47.6616 15.2995 47.8767 15.5649 47.8767Z" fill="#3D3D3D"/>
</g>
</g>
<path id="Vector_190" d="M15.6388 46.7677C16.3913 46.7677 17.0013 46.1577 17.0013 45.4052C17.0013 44.6528 16.3913 44.0428 15.6388 44.0428C14.8864 44.0428 14.2764 44.6528 14.2764 45.4052C14.2764 46.1577 14.8864 46.7677 15.6388 46.7677Z" fill="#3D3D3D"/>
</g>
</g>
</g>
</g>
</g>
<defs>
<linearGradient id="paint0_linear_1_651" x1="12.3865" y1="21.1928" x2="12.3865" y2="18.8915" gradientUnits="userSpaceOnUse">
<stop stop-color="#EAEFF4"/>
<stop offset="0.5057" stop-color="#F7F9FB"/>
<stop offset="1" stop-color="white"/>
</linearGradient>
<linearGradient id="paint1_linear_1_651" x1="49.8242" y1="47.5003" x2="49.8242" y2="16.4774" gradientUnits="userSpaceOnUse">
<stop stop-color="#B5BFBF"/>
<stop offset="0.1315" stop-color="#CBD2D2"/>
<stop offset="0.3102" stop-color="#E2E6E6"/>
<stop offset="0.503" stop-color="#F2F4F4"/>
<stop offset="0.7179" stop-color="#FCFCFC"/>
<stop offset="1" stop-color="white"/>
</linearGradient>
<linearGradient id="paint2_linear_1_651" x1="94.9347" y1="43.9896" x2="99.3719" y2="43.9896" gradientUnits="userSpaceOnUse">
<stop stop-color="#B2B2B2"/>
<stop offset="0.3086" stop-color="#B5B5B5"/>
<stop offset="0.5136" stop-color="#BEBEBE"/>
<stop offset="0.6884" stop-color="#CDCDCD"/>
<stop offset="0.8454" stop-color="#E2E2E2"/>
<stop offset="0.9907" stop-color="#FDFDFD"/>
<stop offset="1" stop-color="white"/>
</linearGradient>
<linearGradient id="paint3_linear_1_651" x1="58.529" y1="18.7498" x2="58.529" y2="27.6719" gradientUnits="userSpaceOnUse">
<stop stop-color="#B5BFBF"/>
<stop offset="1" stop-color="white"/>
</linearGradient>
<linearGradient id="paint4_linear_1_651" x1="35.0565" y1="18.5853" x2="35.0565" y2="27.1511" gradientUnits="userSpaceOnUse">
<stop stop-color="#B5BFBF"/>
<stop offset="1" stop-color="white"/>
</linearGradient>
<linearGradient id="paint5_linear_1_651" x1="70.9658" y1="41.0341" x2="91.0025" y2="41.0341" gradientUnits="userSpaceOnUse">
<stop stop-color="#706F6F"/>
<stop offset="0.2465" stop-color="#888888"/>
<stop offset="0.7474" stop-color="#B5B5B5"/>
<stop offset="1" stop-color="#C6C6C6"/>
</linearGradient>
<linearGradient id="paint6_linear_1_651" x1="5.68336" y1="40.7068" x2="25.1625" y2="40.7068" gradientUnits="userSpaceOnUse">
<stop stop-color="#706F6F"/>
<stop offset="0.2465" stop-color="#888888"/>
<stop offset="0.7474" stop-color="#B5B5B5"/>
<stop offset="1" stop-color="#C6C6C6"/>
</linearGradient>
<linearGradient id="paint7_linear_1_651" x1="95.4002" y1="39.5547" x2="95.4002" y2="37.036" gradientUnits="userSpaceOnUse">
<stop stop-color="#E8EAFF"/>
<stop offset="0.0962" stop-color="#D9E8E6"/>
<stop offset="1" stop-color="white"/>
</linearGradient>
<linearGradient id="paint8_linear_1_651" x1="49.4374" y1="32.5405" x2="49.4374" y2="26.8851" gradientUnits="userSpaceOnUse">
<stop stop-color="#E8EAFF"/>
<stop offset="0.0962" stop-color="#D9E8E6"/>
<stop offset="1" stop-color="white"/>
</linearGradient>
<linearGradient id="paint9_linear_1_651" x1="58.2356" y1="46.2953" x2="58.2356" y2="29.5862" gradientUnits="userSpaceOnUse">
<stop stop-color="#E8EAFF"/>
<stop offset="0.0962" stop-color="#D9E8E6"/>
<stop offset="1" stop-color="white"/>
</linearGradient>
<linearGradient id="paint10_linear_1_651" x1="43.3213" y1="46.8038" x2="64.3998" y2="32.2498" gradientUnits="userSpaceOnUse">
<stop stop-color="#EAEFF4"/>
<stop offset="0.5057" stop-color="#F7F9FB"/>
<stop offset="1" stop-color="white"/>
</linearGradient>
<linearGradient id="paint11_linear_1_651" x1="31.5363" y1="46.1852" x2="31.5363" y2="27.8286" gradientUnits="userSpaceOnUse">
<stop stop-color="#E8EAFF"/>
<stop offset="0.0962" stop-color="#D9E8E6"/>
<stop offset="1" stop-color="white"/>
</linearGradient>
<linearGradient id="paint12_linear_1_651" x1="28.7196" y1="45.0904" x2="37.212" y2="28.8164" gradientUnits="userSpaceOnUse">
<stop stop-color="#EAEFF4"/>
<stop offset="0.5057" stop-color="#F7F9FB"/>
<stop offset="1" stop-color="white"/>
</linearGradient>
<linearGradient id="paint13_linear_1_651" x1="47.299" y1="46.5605" x2="47.299" y2="40.4416" gradientUnits="userSpaceOnUse">
<stop stop-color="white"/>
<stop offset="0.1671" stop-color="#E1E1E1"/>
<stop offset="0.4177" stop-color="#BABABA"/>
<stop offset="0.6485" stop-color="#9E9E9E"/>
<stop offset="0.85" stop-color="#8D8D8D"/>
<stop offset="1" stop-color="#878787"/>
</linearGradient>
<linearGradient id="paint14_linear_1_651" x1="91.944" y1="36.6181" x2="94.0994" y2="32.9799" gradientUnits="userSpaceOnUse">
<stop stop-color="#B5BFBF"/>
<stop offset="1" stop-color="white"/>
</linearGradient>
<linearGradient id="paint15_linear_1_651" x1="95.9646" y1="37.1605" x2="97.2798" y2="34.9403" gradientUnits="userSpaceOnUse">
<stop stop-color="#B5BFBF"/>
<stop offset="1" stop-color="white"/>
</linearGradient>
<linearGradient id="paint16_linear_1_651" x1="87.021" y1="34.9397" x2="98.8556" y2="34.9397" gradientUnits="userSpaceOnUse">
<stop stop-color="#1D1D1B"/>
<stop offset="1" stop-color="white"/>
</linearGradient>
<linearGradient id="paint17_linear_1_651" x1="88.819" y1="34.0703" x2="97.6872" y2="34.0703" gradientUnits="userSpaceOnUse">
<stop stop-color="#878787"/>
<stop offset="1" stop-color="white"/>
</linearGradient>
<linearGradient id="paint18_linear_1_651" x1="2.56996" y1="29.2631" x2="9.89663" y2="29.2631" gradientUnits="userSpaceOnUse">
<stop stop-color="white"/>
<stop offset="1" stop-color="#878787"/>
</linearGradient>
<linearGradient id="paint19_linear_1_651" x1="2.56996" y1="32.4212" x2="7.32339" y2="32.4212" gradientUnits="userSpaceOnUse">
<stop stop-color="white"/>
<stop offset="1" stop-color="#878787"/>
</linearGradient>
<linearGradient id="paint20_linear_1_651" x1="25.5598" y1="29.6153" x2="25.5598" y2="35.2703" gradientUnits="userSpaceOnUse">
<stop stop-color="#B5BFBF"/>
<stop offset="0.1315" stop-color="#CBD2D2"/>
<stop offset="0.3102" stop-color="#E2E6E6"/>
<stop offset="0.503" stop-color="#F2F4F4"/>
<stop offset="0.7179" stop-color="#FCFCFC"/>
<stop offset="1" stop-color="white"/>
</linearGradient>
<linearGradient id="paint21_linear_1_651" x1="25.9999" y1="30.0799" x2="25.9999" y2="31.2217" gradientUnits="userSpaceOnUse">
<stop stop-color="white"/>
<stop offset="0.2821" stop-color="#FCFCFC"/>
<stop offset="0.497" stop-color="#F2F4F4"/>
<stop offset="0.6898" stop-color="#E2E6E6"/>
<stop offset="0.8685" stop-color="#CBD2D2"/>
<stop offset="1" stop-color="#B5BFBF"/>
</linearGradient>
<linearGradient id="paint22_linear_1_651" x1="49.4374" y1="30.8982" x2="49.4374" y2="36.553" gradientUnits="userSpaceOnUse">
<stop stop-color="#B5BFBF"/>
<stop offset="0.1315" stop-color="#CBD2D2"/>
<stop offset="0.3102" stop-color="#E2E6E6"/>
<stop offset="0.503" stop-color="#F2F4F4"/>
<stop offset="0.7179" stop-color="#FCFCFC"/>
<stop offset="1" stop-color="white"/>
</linearGradient>
<linearGradient id="paint23_linear_1_651" x1="49.8243" y1="31.3627" x2="49.8243" y2="32.5046" gradientUnits="userSpaceOnUse">
<stop stop-color="white"/>
<stop offset="0.2821" stop-color="#FCFCFC"/>
<stop offset="0.497" stop-color="#F2F4F4"/>
<stop offset="0.6898" stop-color="#E2E6E6"/>
<stop offset="0.8685" stop-color="#CBD2D2"/>
<stop offset="1" stop-color="#B5BFBF"/>
</linearGradient>
<linearGradient id="paint24_linear_1_651" x1="74.9043" y1="33.8759" x2="74.9043" y2="31.0308" gradientUnits="userSpaceOnUse">
<stop stop-color="#B5BFBF"/>
<stop offset="1" stop-color="white"/>
</linearGradient>
<linearGradient id="paint25_linear_1_651" x1="67.5551" y1="27.9211" x2="67.5551" y2="25.9001" gradientUnits="userSpaceOnUse">
<stop stop-color="#9FB2B2"/>
<stop offset="0.2154" stop-color="#A3B5B5"/>
<stop offset="0.4165" stop-color="#AEBEBE"/>
<stop offset="0.6119" stop-color="#C1CDCD"/>
<stop offset="0.8037" stop-color="#DBE2E2"/>
<stop offset="0.9914" stop-color="#FDFEFE"/>
<stop offset="1" stop-color="white"/>
</linearGradient>
<linearGradient id="paint26_linear_1_651" x1="80.8354" y1="49.9516" x2="80.8354" y2="42.5911" gradientUnits="userSpaceOnUse">
<stop stop-color="#9FB2B2"/>
<stop offset="0.3294" stop-color="#A3B4B4"/>
<stop offset="0.6368" stop-color="#AEBABA"/>
<stop offset="0.9345" stop-color="#C1C3C3"/>
<stop offset="1" stop-color="#C6C6C6"/>
</linearGradient>
<linearGradient id="paint27_linear_1_651" x1="80.8355" y1="49.0232" x2="80.8355" y2="42.3472" gradientUnits="userSpaceOnUse">
<stop stop-color="#9FB2B2"/>
<stop offset="0.3294" stop-color="#A3B4B4"/>
<stop offset="0.6368" stop-color="#AEBABA"/>
<stop offset="0.9345" stop-color="#C1C3C3"/>
<stop offset="1" stop-color="#C6C6C6"/>
</linearGradient>
<linearGradient id="paint28_linear_1_651" x1="80.8354" y1="46.9225" x2="80.8354" y2="44.4036" gradientUnits="userSpaceOnUse">
<stop stop-color="#9FB2B2"/>
<stop offset="0.3294" stop-color="#A3B4B4"/>
<stop offset="0.6368" stop-color="#AEBABA"/>
<stop offset="0.9345" stop-color="#C1C3C3"/>
<stop offset="1" stop-color="#C6C6C6"/>
</linearGradient>
<linearGradient id="paint29_linear_1_651" x1="80.8354" y1="46.0935" x2="80.8354" y2="44.8996" gradientUnits="userSpaceOnUse">
<stop stop-color="#9FB2B2"/>
<stop offset="0.3294" stop-color="#A3B4B4"/>
<stop offset="0.6368" stop-color="#AEBABA"/>
<stop offset="0.9345" stop-color="#C1C3C3"/>
<stop offset="1" stop-color="#C6C6C6"/>
</linearGradient>
<linearGradient id="paint30_linear_1_651" x1="15.6412" y1="47.8976" x2="15.6412" y2="43.9133" gradientUnits="userSpaceOnUse">
<stop stop-color="#9FB2B2"/>
<stop offset="0.3294" stop-color="#A3B4B4"/>
<stop offset="0.6368" stop-color="#AEBABA"/>
<stop offset="0.9345" stop-color="#C1C3C3"/>
<stop offset="1" stop-color="#C6C6C6"/>
</linearGradient>
<clipPath id="clip0_1_651">
<rect width="99.0968" height="96.055" fill="white" transform="translate(0.276611 0.945007)"/>
</clipPath>
</defs>
</svg>
