<svg width="108" height="103" viewBox="0 0 108 103" fill="none" xmlns="http://www.w3.org/2000/svg">
<g id="Frame" clip-path="url(#clip0_1_194)">
<g id="Group">
<g id="Group_2">
<path id="Vector" d="M48.0762 45.2462C48.4609 45.7805 49.5722 52.4481 49.5722 52.4481C49.5722 52.4481 47.7877 52.8542 47.3175 53.1C46.8581 53.3457 46.6123 46.443 46.6123 46.443L48.0762 45.2462Z" fill="#DDAC9E"/>
<path id="Vector_2" d="M48.6105 46.1758C48.6319 45.8766 48.3968 44.1456 48.3968 43.7289C48.3968 43.3015 48.4716 42.8847 48.4075 42.468C48.354 42.0513 47.7343 40.6942 47.4672 40.5233C47.1573 40.3416 47.0077 40.6835 47.2214 41.2819C47.3924 41.7628 47.3817 42.0406 47.3817 42.0406C47.3817 42.0406 45.5224 42.5428 45.3194 42.8634C45.1271 43.1946 44.1333 43.0557 44.7744 43.7502C45.4156 44.4448 46.1849 45.2569 46.3345 45.9621C46.4948 46.6674 45.9498 46.9452 46.2597 47.02C46.5803 47.1161 48.6105 46.1758 48.6105 46.1758Z" fill="#DC5900"/>
<path id="Vector_3" d="M54.6049 50.5034C53.8463 50.5462 49.8392 51.5399 49.8392 51.5399L49.3157 49.8944L46.281 50.4607C46.281 50.4607 46.9008 54.4036 47.4564 54.9272C48.012 55.4508 54.3378 56.1667 54.5088 55.6966C54.6797 55.2157 54.6049 50.5034 54.6049 50.5034Z" fill="#BFB8B8"/>
<g id="Group_3">
<path id="Vector_4" d="M57.2977 47.2871L56.4429 50.9201C56.4429 50.9201 56.5284 55.5042 57.5969 56.0705C58.6654 56.6368 60.1828 53.8693 60.2682 53.0893C60.3537 52.3093 60.717 48.003 60.717 48.003L57.2977 47.2871Z" fill="#DDAC9E"/>
<g id="Group_4">
<path id="Vector_5" d="M60.2362 53.4312C60.3217 52.6512 60.685 48.3449 60.685 48.3449L58.9006 47.6397L56.475 55.8354C57.5328 56.359 60.1508 54.2006 60.2362 53.4312Z" fill="#E8C8BA"/>
</g>
</g>
<g id="Group_5">
<path id="Vector_6" d="M57.0092 46.5819C56.8382 45.8873 59.8194 48.0137 60.6102 48.751L56.6245 52.6832C56.1009 52.4268 56.5818 50.7278 56.4215 50.4714C56.7634 50.076 57.3084 47.8107 57.0092 46.5819Z" fill="url(#paint0_linear_1_194)"/>
</g>
<g id="Group_6">
<g id="Group_7">
<path id="Vector_7" d="M62.4266 46.475C63.0464 44.9791 63.2922 43.6007 61.1658 42.6924C58.5051 41.5491 57.8426 43.045 57.1801 44.8295C56.4855 46.6781 56.6779 49.3174 58.0136 49.9264C59.0394 50.3859 60.3857 49.6486 61.326 48.4839C61.668 48.4518 62.0527 48.174 62.2664 47.7252C62.5549 47.1589 62.7899 46.6887 62.4266 46.475Z" fill="#E8C8BA"/>
<g id="Group_8">
<path id="Vector_8" d="M60.3537 42.5108C58.9325 42.1688 57.9602 42.7031 57.4152 44.1243C57.3725 44.1029 57.458 44.2845 57.4152 44.2739C56.9878 44.1243 56.8168 44.5944 56.6245 45.2783C56.4749 45.8232 56.4749 46.3148 56.7848 46.5498C56.5924 48.0031 56.9985 49.4563 57.9922 49.9051C58.035 49.9264 58.0884 49.9371 58.1311 49.9478C58.1418 49.9478 57.3938 49.125 60.3537 42.5108Z" fill="#DDAC9E"/>
</g>
<path id="Vector_9" d="M61.3261 41.9551C61.059 41.6132 59.3813 41.5384 58.7509 41.7628C58.206 41.9551 57.9709 42.3612 57.5969 43.1412C57.2229 43.9106 57.2656 44.2632 57.2656 44.2632L57.4046 44.3487L57.5648 43.8571C57.5648 43.8571 57.832 43.2053 58.7189 42.9168C59.6057 42.639 60.6743 43.5473 60.6743 43.5473L61.3261 41.9551Z" fill="#300901"/>
<path id="Vector_10" d="M60.3324 43.3121C60.4606 43.7182 60.2683 43.6327 60.9949 43.8998C61.7108 44.1563 62.1917 44.8829 62.2344 45.2569C62.2771 45.6309 62.01 46.3789 62.01 46.3789L62.4909 46.5178L62.6939 46.7742C62.6939 46.7742 63.5273 45.5988 63.4525 44.4982C63.3991 43.6648 63.2816 43.3121 62.5336 42.7138C62.1917 42.4466 61.6894 41.5811 61.1231 42.0192C60.856 42.2222 60.3324 43.3121 60.3324 43.3121Z" fill="#662619"/>
</g>
<g id="Group_9">
<path id="Vector_11" d="M63.0679 41.9978C62.3306 41.346 60.6102 40.3309 59.2318 40.972C57.8534 41.6132 57.3939 43.5686 57.3939 43.5686C58.7082 42.6817 62.2024 43.8998 62.961 46.3895C63.9227 44.5303 63.8052 42.639 63.0679 41.9978ZM59.5631 42.5001C59.5631 42.5001 59.9905 41.8803 60.9094 42.094C61.978 42.3505 61.807 43.4831 61.807 43.4831L59.5631 42.5001Z" fill="#34469C"/>
<g id="Group_10">
<path id="Vector_12" d="M63.2175 42.094C62.9289 41.8055 62.4695 41.4849 61.8284 41.1964C61.465 41.517 61.2513 41.688 60.9628 42.1261C61.839 42.4359 61.7536 43.4617 61.7536 43.4617L60.5034 42.9168C60.4286 43.0664 60.2255 43.4511 60.1935 43.622C61.5185 44.2311 62.5229 45.2569 62.9396 46.4109C63.9013 44.5623 63.9334 42.7993 63.2175 42.094Z" fill="#506CB3"/>
</g>
</g>
</g>
<path id="Vector_13" d="M65.098 102.21L66.626 102.178C66.626 102.178 68.3998 101.751 67.2244 100.126C66.3482 98.9083 66.4871 98.4489 66.017 97.5086C65.7284 96.9315 63.6127 97.2842 63.6127 97.2842C63.6127 97.2842 63.8906 99.122 63.7089 99.7418C62.9502 102.413 65.098 102.21 65.098 102.21Z" fill="#232121"/>
<path id="Vector_14" d="M59.5094 64.8219C60.61 66.3713 61.732 68.8503 62.9074 74.7593C63.3134 76.8002 64.0294 81.1492 64.4461 82.8054C65.9314 88.5755 66.7007 98.5343 66.7007 98.5343L63.5485 98.5878C63.5485 98.5878 59.5094 84.3548 59.253 83.3183C58.9965 82.2711 55.5665 74.8555 55.5665 74.8555C55.5665 74.8555 54.7117 83.6175 55.2353 84.6647C55.7695 85.7012 56.1542 97.7329 56.1542 97.7329L52.8311 97.7116C52.8311 97.7116 51.6877 85.6477 51.4206 83.0405C51.1641 80.4333 50.9718 65.634 50.9718 65.634L59.5094 64.8219Z" fill="#506CB3"/>
<path id="Vector_15" d="M53.5364 97.1666C53.2799 98.1924 52.2221 99.0579 51.4527 99.3144C50.6834 99.5708 49.743 100.073 49.9995 101.099C50.2559 102.125 52.2648 101.665 52.2648 101.665C52.2648 101.665 54.7866 100.853 55.5452 100.853C56.3146 100.853 56.3146 98.716 56.0581 97.7009C55.8017 96.6644 53.5364 97.1666 53.5364 97.1666Z" fill="black"/>
<g id="Group_11">
<path id="Vector_16" d="M50.1491 71.372C50.0743 76.127 50.3521 82.1643 50.4376 83.6389C51.1642 96.2904 52.564 98.2993 52.564 98.2993L56.6352 98.2351C56.6352 98.2351 56.8489 88.1588 56.368 85.637C55.9192 83.2756 56.368 79.0335 56.368 79.0335C56.368 79.0335 58.644 84.9318 58.9005 85.9683C59.2317 87.304 62.3519 98.4382 63.3029 98.8335L65.8994 98.6626C65.6964 96.6858 63.2922 87.1971 62.3839 83.1473C61.8496 80.7752 58.8684 69.8547 57.8212 66.1255L50.5979 64.918C50.6086 64.918 50.2132 67.7176 50.1491 71.372Z" fill="#34469C"/>
</g>
<path id="Vector_17" d="M57.5221 52.6085C56.6566 52.0849 56.3467 51.604 56.5177 50.2043C56.5177 50.2043 56.2505 50.2363 53.825 50.6317C53.0236 50.7599 51.6558 52.0421 51.4421 52.8863C51.2284 53.7304 52.9701 56.1026 53.0236 57.0857C53.077 58.0687 51.2818 64.5548 51.9764 65.8156C52.4465 66.6598 53.3121 65.5699 56.5497 66.0828C57.052 62.5459 57.8961 55.8675 57.9816 53.9228C57.9816 53.7732 57.9602 52.8756 57.5221 52.6085Z" fill="#BFB8B8"/>
<path id="Vector_18" d="M60.7917 50.7171C60.7917 50.7171 62.2235 51.2941 63.9012 52.3627C64.6919 52.8649 64.3606 54.799 63.431 56.4125C62.9929 57.1711 61.358 59.9493 61.0268 60.879C60.4711 62.4497 59.4453 62.8664 59.2957 64.9715C59.2316 65.9332 56.1222 65.6019 54.327 65.3561C54.8292 61.8193 56.5175 52.7153 57.3937 52.5764C59.9903 52.1383 60.7917 50.7171 60.7917 50.7171Z" fill="#D8D8D8"/>
<path id="Vector_19" d="M60.6529 49.9051L61.5611 50.824L59.2852 53.5381C59.2852 53.5381 58.1952 52.0635 58.2914 52.0101C59.9156 51.1018 60.6529 49.9051 60.6529 49.9051Z" fill="#BFB8B8"/>
<path id="Vector_20" d="M56.7099 49.7768L55.8123 50.3324L55.3422 52.3627C55.3422 52.3627 56.5176 51.3476 56.5176 51.2407C56.4641 50.1401 56.7099 49.7768 56.7099 49.7768Z" fill="#D8D8D8"/>
<path id="Vector_21" d="M55.1498 50.4286C54.8079 51.3476 54.0279 54.7669 54.3164 55.0234C55.0323 55.6645 59.8194 55.9744 59.8194 55.9744L57.7678 67.333C57.7678 67.333 50.8329 66.8414 50.6513 66.5743C50.2025 65.9225 50.4055 64.4158 50.5231 63.5717C50.6406 62.7275 52.019 55.8568 52.019 55.8568C52.019 55.8568 52.7777 53.5488 53.8035 50.621C54.7331 50.279 55.1498 50.4286 55.1498 50.4286Z" fill="#34469C"/>
<path id="Vector_22" d="M61.9672 51.2834C61.9672 51.2834 60.1934 53.0145 59.2317 55.3973C59.0928 55.75 58.3448 55.8675 58.3448 55.8675C58.3448 55.8675 55.9727 63.1549 57.7037 66.8948C58.0029 67.5466 59.2744 66.6384 59.2744 66.6384C59.2744 66.6384 60.5033 66.0186 61.2085 63.8495C61.497 62.9626 61.2406 60.8896 62.7793 57.6413C62.9609 57.2566 61.2192 56.1667 61.1764 55.7499C60.9734 53.6663 63.1746 51.7536 63.1746 51.7536L61.9672 51.2834Z" fill="#506CB3"/>
<g id="Group_12">
<path id="Vector_23" d="M43.7912 54.0617C43.9515 53.9869 44.1652 53.8373 44.4644 53.474C44.9025 52.9397 44.6247 52.5657 44.5285 52.2879C44.4217 52.0101 44.3469 51.8177 44.4003 51.6147C44.4537 51.4117 49.3156 40.6835 49.4118 40.4271C49.5079 40.1706 49.6789 39.989 50.4162 39.6257C51.1535 39.2517 51.0466 38.7388 51.0146 38.4076C50.9718 38.0549 50.8329 37.6916 50.6406 37.4566C50.5551 37.3604 50.4162 37.2642 50.4162 37.2642C50.4162 37.2642 50.4376 37.8412 50.3307 38.1511C50.1918 38.5678 49.8071 38.7174 49.2942 38.5037C48.7172 38.2473 48.6852 37.8733 48.8882 37.4672C49.0271 37.1787 49.4118 36.8261 49.4118 36.8261L49.2515 36.7727C49.0485 36.7086 48.589 36.8689 48.1295 37.2001C47.8624 37.3924 47.3922 37.7237 47.6701 38.5037C47.9372 39.2838 47.9265 39.5295 47.8196 39.786C47.7128 40.0424 43.3531 50.9522 43.2463 51.1339C43.1394 51.3155 42.915 51.4117 42.6586 51.5399C42.3915 51.6681 42.0175 51.7429 41.964 52.4375C41.9106 53.0573 42.0495 53.474 42.135 53.5701C42.1671 53.6129 42.1991 53.6449 42.2312 53.6663C42.3594 53.7197 42.135 53.0893 42.5411 52.6619C42.5945 52.6085 43.46 52.5444 43.866 53.2175C43.9088 53.2923 43.5455 54.1578 43.5989 54.1472C43.5989 54.1365 43.6844 54.1151 43.7912 54.0617Z" fill="#758B9B"/>
<g id="Group_13">
<g id="Group_14">
<g id="Group_15">
<path id="Vector_24" d="M48.8776 37.4566C49.0165 37.1681 49.4012 36.8154 49.4012 36.8154L49.2409 36.762C49.0379 36.6979 48.5784 36.8582 48.1189 37.1894C47.8518 37.3818 47.3816 37.713 47.6594 38.493C47.9266 39.2731 47.9159 39.5188 47.809 39.7753C47.7022 40.0317 43.3425 50.9415 43.2357 51.1232C43.1288 51.3049 42.9044 51.401 42.648 51.5292C42.3808 51.6575 42.0069 51.7323 41.9534 52.4268C41.9 53.0466 42.0389 53.4633 42.1244 53.5595C42.1564 53.6022 42.1885 53.6343 42.2206 53.6556C42.3488 53.7091 42.1244 53.0786 42.5304 52.6512C42.5625 52.6085 42.9579 52.5871 43.3318 52.7474L49.4118 38.5251C49.3691 38.5144 49.337 38.5037 49.2943 38.4824C48.7173 38.2366 48.6852 37.8626 48.8776 37.4566Z" fill="#414E5B"/>
</g>
</g>
</g>
</g>
<g id="Group_16">
<path id="Vector_25" d="M44.4431 43.5365C44.956 43.8678 45.8643 44.2631 46.0246 43.9853C46.1849 43.6968 45.2445 43.0984 45.0843 42.8633C44.924 42.6176 44.6782 42.3291 44.4111 42.7565C44.1333 43.1839 44.4431 43.5365 44.4431 43.5365Z" fill="#FC6600"/>
<path id="Vector_26" d="M44.7636 42.436C44.6461 42.2009 44.9132 41.72 45.2338 41.9231C45.5543 42.1261 46.6122 43.3656 46.5908 43.5152C46.5588 43.6648 46.142 43.6862 45.5436 43.3229C44.9025 42.9275 44.7636 42.436 44.7636 42.436Z" fill="#FC6600"/>
<path id="Vector_27" d="M45.1697 41.8589C45.191 41.6559 45.3406 41.1002 45.7894 41.4101C46.1634 41.6666 47.1999 43.0129 47.232 43.1091C47.264 43.2053 46.8687 43.3762 46.4519 43.045C46.0352 42.703 45.1697 41.8589 45.1697 41.8589Z" fill="#FC6600"/>
<path id="Vector_28" d="M45.7894 41.3033C45.7467 41.1003 46.1421 40.5767 46.5054 40.8759C46.687 41.0148 47.6914 42.5108 47.606 42.7458C47.5098 42.9809 47.3281 42.9275 47.061 42.7352C46.7939 42.5321 45.7894 41.3033 45.7894 41.3033Z" fill="#FC6600"/>
</g>
<path id="Vector_29" d="M63.5593 55.782L54.1989 69.3098H50.2133C50.2133 69.3098 50.6193 59.6608 52.2969 54.9806C57.1481 55.8461 63.5593 55.782 63.5593 55.782Z" fill="url(#paint1_linear_1_194)"/>
<g id="Group_17">
<path id="Vector_30" d="M52.799 52.9397C49.9032 50.5996 47.67 48.8792 47.67 48.8792C47.67 48.8792 47.4135 48.377 47.1892 47.6611C46.7724 46.3254 46.3877 46.4964 46.3877 46.4964L46.5373 47.5115L44.8811 45.9407C44.8811 45.9407 44.2507 45.5774 44.0583 45.5774C43.5027 45.5774 42.915 45.898 43.4493 47.1696C44.1652 48.8685 45.2444 49.125 46.2382 50.3324C47.3922 51.7322 49.4651 53.4419 50.0849 54.0616C50.7047 54.6707 52.799 52.9397 52.799 52.9397Z" fill="#E8C8BA"/>
<g id="Group_18">
<path id="Vector_31" d="M48.9523 49.531C48.9523 49.4562 47.5098 48.4732 47.5311 48.3343C47.7342 47.1268 47.2854 46.7315 47.4563 46.0155C47.5953 45.4492 47.2426 44.5303 46.7832 45.7484C46.5694 46.3254 46.3557 46.1331 46.3557 46.1331C46.3557 46.1331 46.1314 46.2399 45.2124 45.2355C44.7529 44.7333 43.834 44.4341 44.3362 45.2889C43.9088 44.7333 43.289 44.9577 43.7058 45.695C43.3211 45.3424 43.0219 45.6522 43.3638 46.272C43.1394 46.101 43.0326 46.3147 43.1822 46.7101C43.2783 46.9665 43.1929 47.4367 44.1652 48.4518C45.1376 49.4669 46.4092 51.9459 46.4092 51.9459L48.9523 49.531Z" fill="#FC6600"/>
<g id="Group_19">
<path id="Vector_32" d="M44.1332 48.5266C43.3318 47.6397 43.1181 46.9131 43.0113 46.6567C42.851 46.272 43.1395 46.101 43.3639 46.272C43.0967 45.7911 43.2463 45.3851 43.599 45.6095C44.1546 47.0948 46.5909 49.702 47.7556 50.6957L46.4306 51.9459C46.4092 51.9459 45.0735 49.5631 44.1332 48.5266Z" fill="#DC5900"/>
</g>
</g>
<path id="Vector_33" d="M63.1533 52.4909C61.9352 52.352 58.8578 53.7945 56.336 53.303C54.4767 52.9397 49.7217 50.3004 49.7217 50.3004L48.2151 53.6663C48.2151 53.6663 53.7074 57.0001 55.5239 57.0536C57.3404 57.107 62.2771 57.7481 63.4418 56.0705C65.5255 53.0679 63.1533 52.4909 63.1533 52.4909Z" fill="#D8D8D8"/>
</g>
</g>
<g id="Group_20">
<g id="Group_21">
<g id="Group_22">
<g id="Group_23">
<path id="Vector_34" d="M13.3165 1.36121H6.55261V99.8059H13.3165V1.36121Z" fill="#758B9B"/>
<path id="Vector_35" d="M7.41821 91.14L0.825317 100.5H13.3059V93.0527L7.41821 91.14Z" fill="#758B9B"/>
</g>
<path id="Vector_36" d="M15.1011 98.1603H0.0773926V100.5H15.1011V98.1603Z" fill="#758B9B"/>
</g>
<path id="Vector_37" d="M14.3958 98.1924L13.2311 98.8442V1.31845L14.3958 2.013V98.1924Z" fill="#414E5B"/>
</g>
<path id="Vector_38" d="M15.4323 3.61584C15.4323 4.00051 15.1224 4.31039 14.7377 4.31039H6.07187C5.6872 4.31039 5.37732 4.00051 5.37732 3.61584V1.19025C5.37732 0.805574 5.6872 0.495697 6.07187 0.495697H14.7377C15.1224 0.495697 15.4323 0.805574 15.4323 1.19025V3.61584Z" fill="#414E5B"/>
</g>
<g id="Group_24">
<g id="Group_25">
<g id="Group_26">
<g id="Group_27">
<path id="Vector_39" d="M101.535 1.36121H94.7715V99.8059H101.535V1.36121Z" fill="#758B9B"/>
<path id="Vector_40" d="M100.659 91.14L107.252 100.5H94.7715V93.0527L100.659 91.14Z" fill="#758B9B"/>
</g>
<path id="Vector_41" d="M108 98.1603H92.9763V100.5H108V98.1603Z" fill="#758B9B"/>
</g>
<path id="Vector_42" d="M93.6921 98.1924L94.8462 98.8442V1.31845L93.6921 2.013V98.1924Z" fill="#414E5B"/>
</g>
<path id="Vector_43" d="M102.615 3.61584C102.615 4.00051 102.305 4.31039 101.92 4.31039H93.2541C92.8694 4.31039 92.5596 4.00051 92.5596 3.61584V1.19025C92.5596 0.805574 92.8694 0.495697 93.2541 0.495697H101.92C102.305 0.495697 102.615 0.805574 102.615 1.19025V3.61584Z" fill="#414E5B"/>
</g>
<g id="Group_28">
<path id="Vector_44" d="M13.7013 23.7257L17.2809 33.5456H22.5915L25.1347 37.4137H13.5837L13.7013 23.7257Z" fill="#414E5B"/>
<path id="Vector_45" d="M94.173 23.7257L90.5934 33.5456H85.2827L82.7396 37.4137H94.2905L94.173 23.7257Z" fill="#414E5B"/>
<path id="Vector_46" d="M91.4697 35.1592H17.516V38.9739H91.4697V35.1592Z" fill="#758B9B"/>
</g>
<g id="Group_29">
<path id="Vector_47" d="M35.8521 43.996C35.8521 44.8936 35.1254 45.6202 34.2279 45.6202H25.8291C24.9316 45.6202 24.205 44.8936 24.205 43.996V29.3677C24.205 28.4701 24.9316 27.7435 25.8291 27.7435H34.2279C35.1254 27.7435 35.8521 28.4701 35.8521 29.3677V43.996Z" fill="black"/>
<path id="Vector_48" d="M84.0861 43.996C84.0861 44.8936 83.3595 45.6202 82.4619 45.6202H74.0631C73.1656 45.6202 72.439 44.8936 72.439 43.996V29.3677C72.439 28.4701 73.1656 27.7435 74.0631 27.7435H82.4619C83.3595 27.7435 84.0861 28.4701 84.0861 29.3677V43.996Z" fill="#232121"/>
<g id="Group_30">
<path id="Vector_49" d="M32.5076 16.7803L76.7772 17.4428L71.894 5.51785L54.2844 3.08157L36.3971 5.79567L32.5076 16.7803Z" fill="#D8D8D8"/>
<g id="Group_31">
<path id="Vector_50" d="M71.894 5.43237L54.2844 2.99609L54.1882 3.00678V17.0154L76.7772 17.3573L71.894 5.43237Z" fill="white"/>
</g>
</g>
<path id="Vector_51" d="M81.3613 16.994C81.0514 16.7589 79.9081 16.3208 78.1343 15.8293C76.7772 12.5275 73.9883 5.2614 72.0863 4.5348C67.9831 2.97473 57.661 2.11989 54.776 1.99167H53.6433C50.7583 2.11989 40.2545 2.97473 36.1513 4.5348C34.2493 5.2614 31.4604 12.5382 30.1034 15.8293C28.3296 16.3208 27.1863 16.7589 26.8764 16.994C25.701 17.9022 22.9441 19.879 23.6814 26.1193C24.1302 29.8913 25.8292 39.038 25.8292 39.038C25.8292 39.038 28.0625 39.038 28.5433 39.038H79.705C80.1859 39.038 80.453 39.038 80.453 39.038C80.453 39.038 83.68 30.3721 83.68 26.1193C83.68 19.6119 82.5367 17.8916 81.3613 16.994ZM54.1242 12.9763C45.8537 12.8053 38.2884 13.9166 33.2235 15.0492C34.5485 11.8009 36.5574 7.05655 37.9999 6.5116C41.6864 5.11181 51.1216 4.37452 53.7074 4.25698H54.7226C57.3084 4.37452 66.562 5.11181 70.2485 6.5116C71.691 7.05655 73.7105 11.8116 75.0248 15.0492C69.9599 13.9273 62.3947 12.8053 54.1242 12.9763Z" fill="#DC5900"/>
<path id="Vector_52" d="M83.5411 11.8757L80.7628 11.4269C79.3844 11.2025 78.1236 11.9291 78.0488 13.0724C77.9846 13.2755 77.8778 13.5426 77.5038 13.767L75.9758 14.0876C75.527 14.1837 75.2385 14.6218 75.3347 15.0813C75.4308 15.5301 76.1681 16.1605 76.6169 16.075L78.7967 15.6156C79.2989 16.1712 79.8546 16.1605 80.7522 16.1071L83.5304 15.9255C84.4707 15.8613 85.1652 15.1347 85.1652 14.3013V13.6708C85.1759 12.8267 84.4814 12.0253 83.5411 11.8757Z" fill="#FC6600"/>
<path id="Vector_53" d="M24.1622 11.8757L26.9404 11.4269C28.3188 11.2025 29.5797 11.9291 29.6545 13.0724C29.7186 13.2755 29.8255 13.5426 30.1995 13.767L31.7275 14.0876C32.1763 14.1837 32.4648 14.6218 32.3686 15.0813C32.2724 15.5301 31.7168 16.1819 31.2573 16.075L29.0775 15.6156C28.5753 16.1712 27.838 16.1498 26.9404 16.0964L24.1622 15.9148C23.2219 15.8507 22.5273 15.124 22.5273 14.2906V13.6601C22.5273 12.8267 23.2112 12.0253 24.1622 11.8757Z" fill="#DC5900"/>
<g id="Group_32">
<path id="Vector_54" d="M82.3763 39.0273C82.3763 39.0273 84.1394 30.5965 84.6309 26.1086C85.3148 19.7401 82.6113 17.8916 81.436 16.9833C81.1261 16.7482 79.9827 16.3101 78.209 15.8186C76.8519 12.5168 74.063 5.25072 72.161 4.52412C68.0578 2.96405 57.7357 2.10921 54.8507 1.98099H54.2202V4.25698H54.7972C57.3938 4.37452 66.6367 5.11181 70.3231 6.5116C71.7657 7.05656 73.7745 11.8116 75.0995 15.0492C70.0346 13.9273 62.48 12.816 54.2202 12.9763V39.0273H78.1448C78.6257 39.0273 82.3763 39.0273 82.3763 39.0273Z" fill="#FC6600"/>
</g>
<g id="Group_33" opacity="0.55">
<g id="Group_34">
<path id="Vector_55" d="M42.135 36.4094H66.0917C68.8165 36.4094 71.0498 34.2509 71.2421 31.5368H36.9954C37.1877 34.2616 39.4103 36.4094 42.135 36.4094Z" fill="#662619"/>
</g>
</g>
<g id="Group_35" opacity="0.55">
<g id="Group_36">
<path id="Vector_56" d="M41.8893 23.9715C40.949 22.3901 40.949 21.5139 42.445 21.5139H66.8291C68.5922 21.578 68.1541 22.6038 67.4916 23.9395L66.8398 25.2324C66.1773 26.5681 64.9485 27.658 63.4632 27.658H45.7681C44.2722 27.658 43.0861 26.5467 42.4664 25.2004L41.8893 23.9715Z" fill="#662619"/>
</g>
</g>
<g id="Group_37">
<path id="Vector_57" d="M30.9795 33.2251C30.9795 32.1779 31.8343 31.3338 32.8815 31.3338C33.9287 31.3338 34.7728 32.1779 34.7728 33.2251C34.7728 34.2723 33.918 35.1164 32.8815 35.1164C31.8236 35.1271 30.9795 34.2723 30.9795 33.2251Z" fill="#662619"/>
<path id="Vector_58" d="M31.7274 33.2251C31.7274 32.5947 32.2403 32.0711 32.8814 32.0711C33.5119 32.0711 34.0355 32.584 34.0355 33.2251C34.0355 33.8556 33.5226 34.3792 32.8814 34.3792C32.2403 34.3792 31.7274 33.8663 31.7274 33.2251Z" fill="#BFB8B8"/>
</g>
<g id="Group_38">
<path id="Vector_59" d="M72.845 33.2251C72.845 32.1779 73.6998 31.3338 74.747 31.3338C75.7941 31.3338 76.6383 32.1779 76.6383 33.2251C76.6383 34.2723 75.7941 35.1164 74.747 35.1164C73.6891 35.1271 72.845 34.2723 72.845 33.2251Z" fill="#662619"/>
<path id="Vector_60" d="M73.593 33.2251C73.593 32.5947 74.1059 32.0711 74.747 32.0711C75.3775 32.0711 75.9011 32.584 75.9011 33.2251C75.9011 33.8556 75.3882 34.3792 74.747 34.3792C74.1059 34.3792 73.593 33.8663 73.593 33.2251Z" fill="#D8D8D8"/>
</g>
<g id="Group_39">
<path id="Vector_61" d="M37.8396 24.0891C37.861 25.0401 35.8735 25.0721 34.7515 25.0721H27.9022C26.7802 25.0721 25.8719 24.1639 25.8719 23.0419V22.3687C25.8719 21.2468 26.5238 20.9476 27.8594 20.5095L33.6616 19.4943C36.1406 19.4623 37.8824 22.2939 37.8824 23.4159L37.8396 24.0891Z" fill="#662619"/>
<path id="Vector_62" d="M37.2092 23.9716C37.2092 24.9867 35.382 24.8691 34.3669 24.8691H28.1267C27.1115 24.8691 26.2781 24.0464 26.2781 23.0206V22.4008C26.2781 21.3857 26.8765 21.1079 28.0839 20.7125L33.3625 19.7829C35.6171 19.7508 37.1986 22.3367 37.1986 23.3518V23.9716H37.2092Z" fill="#BFB8B8"/>
</g>
<g id="Group_40">
<path id="Vector_63" opacity="0.54" d="M70.772 24.0891C70.7506 25.0401 72.7381 25.0721 73.8601 25.0721H80.7094C81.8314 25.0721 82.7396 24.1639 82.7396 23.0419V22.3687C82.7396 21.2468 82.0878 20.9476 80.7522 20.5095L74.95 19.4943C72.471 19.4623 70.7292 22.2939 70.7292 23.4159L70.772 24.0891Z" fill="#662619"/>
<path id="Vector_64" d="M71.4025 23.9716C71.4025 24.9867 73.2297 24.8691 74.2555 24.8691H80.4851C81.5002 24.8691 82.3336 24.0464 82.3336 23.0206V22.4008C82.3336 21.3857 81.7353 21.1079 80.5278 20.7125L75.2492 19.7829C72.9946 19.7508 71.4132 22.3367 71.4132 23.3518V23.9716H71.4025Z" fill="#D8D8D8"/>
</g>
</g>
</g>
</g>
<defs>
<linearGradient id="paint0_linear_1_194" x1="56.5274" y1="49.5294" x2="60.4775" y2="49.9645" gradientUnits="userSpaceOnUse">
<stop stop-color="white"/>
<stop offset="0.6429" stop-color="#C6C0B9"/>
</linearGradient>
<linearGradient id="paint1_linear_1_194" x1="51.4961" y1="71.5377" x2="60.2782" y2="49.4673" gradientUnits="userSpaceOnUse">
<stop offset="0.1209" stop-color="white"/>
<stop offset="0.2227" stop-color="#FBFBFB"/>
<stop offset="0.3291" stop-color="#EEEEEE"/>
<stop offset="0.4376" stop-color="#D9D9D9"/>
<stop offset="0.5477" stop-color="#BCBCBC"/>
<stop offset="0.6589" stop-color="#969696"/>
<stop offset="0.7695" stop-color="#696969"/>
<stop offset="0.7802" stop-color="#646464"/>
</linearGradient>
<clipPath id="clip0_1_194">
<rect width="107.923" height="101.714" fill="white" transform="translate(0.0773926 0.495697)"/>
</clipPath>
</defs>
</svg>
