<svg width="107" height="84" viewBox="0 0 107 84" fill="none" xmlns="http://www.w3.org/2000/svg">
<g id="Group 281">
<g id="safety-triangle">
<path id="Vector" d="M66.7953 20.5418L55.1472 0.448846C55.0683 0.312367 54.9549 0.199047 54.8184 0.120264C54.6818 0.0414801 54.527 0 54.3693 0C54.2117 0 54.0568 0.0414801 53.9202 0.120264C53.7837 0.199047 53.6703 0.312367 53.5914 0.448846L42.118 20.4669C42.0404 20.6031 41.9997 20.7572 42 20.914C42.0003 21.0707 42.0416 21.2246 42.1199 21.3605C42.1981 21.4963 42.3105 21.6093 42.4459 21.6883C42.5813 21.7673 42.735 21.8094 42.8918 21.8106L66.0049 21.8855C66.1631 21.8872 66.3189 21.8472 66.4566 21.7694C66.5943 21.6917 66.7091 21.5789 66.7893 21.4426C66.8695 21.3062 66.9123 21.1512 66.9133 20.993C66.9144 20.8348 66.8737 20.6792 66.7953 20.5418ZM59.9438 17.8336L49.007 17.8003C48.9313 17.8036 48.8561 17.7861 48.7896 17.7497C48.7231 17.7133 48.6678 17.6594 48.6297 17.5939C48.5916 17.5284 48.5721 17.4537 48.5734 17.3779C48.5746 17.3021 48.5965 17.2281 48.6368 17.1639L54.0698 7.69147C54.1054 7.62543 54.1583 7.57025 54.2227 7.5318C54.2872 7.49335 54.3608 7.47306 54.4359 7.47306C54.5109 7.47306 54.5846 7.49335 54.649 7.5318C54.7135 7.57025 54.7663 7.62543 54.802 7.69147L60.3098 17.2013C60.3483 17.2645 60.3693 17.3369 60.3705 17.411C60.3716 17.485 60.353 17.558 60.3166 17.6225C60.2801 17.6869 60.2271 17.7405 60.163 17.7776C60.099 17.8147 60.0261 17.8341 59.9521 17.8336H59.9438Z" fill="#FF725E"/>
<g id="Group" opacity="0.3">
<path id="Vector_2" d="M66.7953 20.5418L55.1472 0.448846C55.0683 0.312367 54.9549 0.199047 54.8184 0.120264C54.6818 0.0414801 54.527 0 54.3693 0C54.2117 0 54.0568 0.0414801 53.9202 0.120264C53.7837 0.199047 53.6703 0.312367 53.5914 0.448846L42.118 20.4669C42.0404 20.6031 41.9997 20.7572 42 20.914C42.0003 21.0707 42.0416 21.2246 42.1199 21.3605C42.1981 21.4963 42.3105 21.6093 42.4459 21.6883C42.5813 21.7673 42.735 21.8094 42.8918 21.8106L66.0049 21.8855C66.1631 21.8872 66.3189 21.8472 66.4566 21.7694C66.5943 21.6917 66.7091 21.5789 66.7893 21.4426C66.8695 21.3062 66.9123 21.1512 66.9133 20.993C66.9144 20.8348 66.8737 20.6792 66.7953 20.5418ZM59.9438 17.8336L49.007 17.8003C48.9313 17.8036 48.8561 17.7861 48.7896 17.7497C48.7231 17.7133 48.6678 17.6594 48.6297 17.5939C48.5916 17.5284 48.5721 17.4537 48.5734 17.3779C48.5746 17.3021 48.5965 17.2281 48.6368 17.1639L54.0698 7.69147C54.1054 7.62543 54.1583 7.57025 54.2227 7.5318C54.2872 7.49335 54.3608 7.47306 54.4359 7.47306C54.5109 7.47306 54.5846 7.49335 54.649 7.5318C54.7135 7.57025 54.7663 7.62543 54.802 7.69147L60.3098 17.2013C60.3483 17.2645 60.3693 17.3369 60.3705 17.411C60.3716 17.485 60.353 17.558 60.3166 17.6225C60.2801 17.6869 60.2271 17.7405 60.163 17.7776C60.099 17.8147 60.0261 17.8341 59.9521 17.8336H59.9438Z" fill="black"/>
</g>
<path id="Vector_3" d="M63.9749 19.5684L54.7937 3.71447C54.7548 3.64802 54.6992 3.59289 54.6324 3.55459C54.5657 3.51628 54.49 3.49612 54.413 3.49612C54.336 3.49612 54.2604 3.51628 54.1936 3.55459C54.1268 3.59289 54.0712 3.64802 54.0324 3.71447L44.9801 19.5226C44.9413 19.5891 44.9207 19.6646 44.9204 19.7416C44.9202 19.8187 44.9403 19.8944 44.9787 19.9611C45.0171 20.0278 45.0725 20.0832 45.1393 20.1216C45.206 20.16 45.2817 20.1801 45.3587 20.1799L63.5921 20.2423C63.672 20.2452 63.7512 20.2262 63.821 20.1873C63.8908 20.1483 63.9486 20.091 63.988 20.0215C64.0275 19.952 64.0472 19.873 64.0448 19.7931C64.0425 19.7132 64.0183 19.6354 63.9749 19.5684ZM59.9521 17.8503L49.0154 17.817C48.9397 17.8202 48.8645 17.8027 48.798 17.7663C48.7315 17.7299 48.6762 17.6761 48.6381 17.6105C48.6 17.545 48.5805 17.4703 48.5817 17.3945C48.583 17.3187 48.6049 17.2447 48.6451 17.1805L54.0781 7.7081C54.1138 7.64205 54.1666 7.58689 54.2311 7.54844C54.2955 7.50999 54.3692 7.48968 54.4442 7.48968C54.5193 7.48968 54.5929 7.50999 54.6574 7.54844C54.7218 7.58689 54.7747 7.64205 54.8103 7.7081L60.3182 17.2179C60.3529 17.2814 60.3705 17.3528 60.3692 17.4251C60.3679 17.4974 60.3478 17.5681 60.3108 17.6302C60.2739 17.6924 60.2213 17.7438 60.1584 17.7795C60.0955 17.8152 60.0244 17.8338 59.9521 17.8336V17.8503Z" fill="#FF725E"/>
<path id="Vector_4" d="M54.856 1.88822C54.856 1.98448 54.8275 2.07859 54.774 2.15863C54.7205 2.23867 54.6445 2.30105 54.5555 2.33789C54.4666 2.37473 54.3687 2.38437 54.2743 2.36559C54.1799 2.34681 54.0932 2.30045 54.0251 2.23238C53.9571 2.16431 53.9107 2.07758 53.8919 1.98317C53.8731 1.88875 53.8828 1.79089 53.9196 1.70195C53.9565 1.61301 54.0188 1.53701 54.0989 1.48353C54.1789 1.43005 54.273 1.40149 54.3693 1.40149C54.4984 1.40149 54.6222 1.45278 54.7135 1.54406C54.8047 1.63534 54.856 1.75913 54.856 1.88822Z" fill="#E0E0E0"/>
<path id="Vector_5" d="M54.6607 1.61365C54.694 1.64693 54.59 1.80085 54.4277 1.96309C54.2655 2.12533 54.1074 2.22933 54.0783 2.19605C54.0492 2.16277 54.149 2.00885 54.3112 1.84661C54.4735 1.68437 54.6316 1.58037 54.6607 1.61365Z" fill="#263238"/>
<path id="Vector_6" d="M54.6523 2.18355C54.6107 2.20435 54.5067 2.06291 54.3569 1.92147C54.2072 1.78003 54.0657 1.67188 54.0865 1.63028C54.1073 1.58868 54.2987 1.63028 54.4692 1.80084C54.6398 1.9714 54.6939 2.16691 54.6523 2.18355Z" fill="#263238"/>
<path id="Vector_7" d="M44.377 20.5543C44.3658 20.6761 44.3094 20.7894 44.219 20.8719C44.1286 20.9543 44.0106 21 43.8882 21C43.7658 21 43.6479 20.9543 43.5575 20.8719C43.467 20.7894 43.4107 20.6761 43.3994 20.5543C43.3931 20.4863 43.4011 20.4178 43.4228 20.353C43.4445 20.2883 43.4795 20.2288 43.5255 20.1784C43.5715 20.1279 43.6275 20.0876 43.69 20.0601C43.7524 20.0325 43.8199 20.0182 43.8882 20.0182C43.9565 20.0182 44.024 20.0325 44.0865 20.0601C44.1489 20.0876 44.2049 20.1279 44.2509 20.1784C44.2969 20.2288 44.3319 20.2883 44.3536 20.353C44.3753 20.4178 44.3833 20.4863 44.377 20.5543Z" fill="#E0E0E0"/>
<path id="Vector_8" d="M44.1815 20.2797C44.2147 20.313 44.1066 20.4669 43.9485 20.6292C43.7904 20.7914 43.6282 20.8954 43.5949 20.8621C43.5616 20.8289 43.6698 20.6749 43.832 20.5127C43.9942 20.3504 44.1482 20.2464 44.1815 20.2797Z" fill="#263238"/>
<path id="Vector_9" d="M44.1732 20.8496C44.1316 20.8496 44.0234 20.729 43.8737 20.5834C43.7239 20.4378 43.5866 20.338 43.6074 20.2964C43.6282 20.2548 43.8196 20.2964 43.9902 20.4669C44.1607 20.6375 44.2148 20.8164 44.1732 20.8496Z" fill="#263238"/>
<path id="Vector_10" d="M65.7513 20.625C65.7521 20.7225 65.7239 20.8179 65.6703 20.8993C65.6167 20.9807 65.5401 21.0442 65.4502 21.0819C65.3603 21.1195 65.2613 21.1296 65.1657 21.1108C65.0701 21.092 64.9822 21.0452 64.9133 20.9763C64.8444 20.9074 64.7976 20.8195 64.7788 20.7239C64.76 20.6283 64.77 20.5293 64.8077 20.4394C64.8454 20.3495 64.9089 20.2729 64.9903 20.2193C65.0717 20.1657 65.1671 20.1375 65.2646 20.1383C65.3937 20.1383 65.5174 20.1896 65.6087 20.2808C65.7 20.3721 65.7513 20.4959 65.7513 20.625Z" fill="#E0E0E0"/>
<path id="Vector_11" d="M65.5475 20.3504C65.5766 20.3837 65.4726 20.5376 65.3104 20.6999C65.1481 20.8621 64.9942 20.9661 64.9609 20.9328C64.9276 20.8996 65.0316 20.7456 65.1939 20.5834C65.3561 20.4212 65.5225 20.3172 65.5475 20.3504Z" fill="#263238"/>
<path id="Vector_12" d="M65.5475 20.9204C65.5059 20.9412 65.4019 20.7997 65.2522 20.6583C65.1024 20.5168 64.961 20.4087 64.9818 20.3671C65.0026 20.3255 65.1939 20.3671 65.3645 20.5376C65.5351 20.7082 65.585 20.9037 65.5475 20.9204Z" fill="#263238"/>
<g id="Group_2" opacity="0.3">
<path id="Vector_13" d="M59.74 12.2384L58.3214 13.7443L59.0286 14.9715L60.4846 13.5238L59.74 12.2384Z" fill="white"/>
</g>
<g id="Group_3" opacity="0.3">
<path id="Vector_14" d="M59.4447 15.687L60.8466 14.1603L61.0754 14.5597L59.6527 16.049L59.4447 15.687Z" fill="white"/>
</g>
<g id="Group_4" opacity="0.3">
<path id="Vector_15" d="M54.0574 17.792L51.5281 20.1674L54.0199 20.1757L56.3579 17.8211L54.0574 17.792Z" fill="white"/>
</g>
<path id="Vector_16" d="M53.3752 4.95831C53.4168 4.98327 51.8277 7.75385 49.8309 11.1484C47.834 14.543 46.1783 17.2803 46.1409 17.2595C46.1035 17.2387 47.6884 14.464 49.6894 11.0652C51.6904 7.66649 53.3378 4.93751 53.3752 4.95831Z" fill="#263238"/>
<path id="Vector_17" d="M58.7958 20.2589C58.7958 20.3047 56.7532 20.3338 54.2197 20.3255C51.6863 20.3171 49.6437 20.2714 49.6437 20.2256C49.6437 20.1799 51.6904 20.1508 54.2197 20.1591C56.749 20.1674 58.7958 20.2131 58.7958 20.2589Z" fill="#263238"/>
<path id="Vector_18" d="M62.1529 16.1821C61.9333 15.9226 61.737 15.6441 61.5664 15.3501C61.2252 14.8134 60.7801 14.0647 60.2975 13.2285L59.0745 11.0861C58.8907 10.7987 58.7281 10.4984 58.5878 10.1875C58.8052 10.4487 59.0014 10.7269 59.1743 11.0195C59.5155 11.552 59.9606 12.3049 60.4432 13.1411L61.6662 15.2794C61.8491 15.5687 62.0118 15.8703 62.1529 16.1821Z" fill="#263238"/>
</g>
<g id="Crash">
<path id="Vector_19" d="M30.8373 16.3902C32.6925 15.7645 33.4554 14.6119 34.0427 13.204C34.6821 11.6727 34.7096 10.4597 34.4681 8.92841C34.277 7.70502 33.7784 6.55018 33.0191 5.57212C32.1425 4.44818 31.1479 3.42144 30.0525 2.50947C27.0145 -0.122316 21.8333 -0.885234 18.3919 1.19221L18.1477 1.34314C14.0943 3.95024 15.6778 8.41248 15.6778 8.41248C15.3602 8.3107 15.0366 8.22822 14.7091 8.16549C13.1201 7.93497 9.27807 7.32024 5.83122 11.2913C3.73457 13.7008 3.29273 16.7387 4.26422 20.4408C5.24394 24.1675 5.85866 24.7082 5.85866 24.7082C5.85866 24.7082 -0.381894 27.8449 3.93765 30.6084C0.688386 30.2133 0.095616 33.4433 0.095616 33.4433C-0.0346724 34.0024 -0.0317726 34.5842 0.104083 35.1419C0.239939 35.6996 0.50495 36.2176 0.877745 36.6541C1.11565 36.9565 1.4244 37.1956 1.7767 37.3502C2.12899 37.5048 2.51396 37.5702 2.89755 37.5406C3.51201 37.5012 4.11526 37.3574 4.68135 37.1152C4.33438 37.4196 4.08677 37.8211 3.97058 38.2678C3.78945 38.9456 3.83885 39.9144 4.65117 41.1932C6.36362 43.8854 10.5871 43.3722 10.738 43.353C10.3446 43.6858 9.98184 44.0532 9.65403 44.4507C9.15457 45.0682 8.70451 45.8421 8.86093 46.5199C9.15183 47.8015 11.6382 50.6666 11.9867 51.0672C12.0013 51.083 12.015 51.0995 12.0279 51.1166C12.0279 51.1166 8.40263 54.4098 9.92023 56.984L12.4203 62.05C14.8203 58.8591 16.8529 55.4078 18.4797 51.7616C19.4841 50.7125 20.3959 49.5785 21.2048 48.3723C22.4233 46.5254 23.4414 44.2833 22.7032 42.6422C22.0007 41.0807 20.6395 40.2437 19.3908 39.7936C18.5267 39.4848 17.621 39.3081 16.7042 39.2695C16.7042 39.2695 17.5878 37.7436 16.3968 36.9944C16.0625 36.7696 15.6907 36.606 15.2991 36.5114C16.1465 36.4536 16.9903 36.3501 17.8266 36.2013C20.8042 35.6744 25.0359 34.3407 26.3477 30.9872C28.4443 25.6138 24.8712 21.4342 24.8712 21.4342C24.8712 21.4342 26.6962 21.3217 27.2643 19.6257C27.8323 17.9297 26.9569 17.0735 26.9569 17.0735L26.8334 16.8677C28.1867 16.9879 29.5502 16.8253 30.8373 16.3902Z" fill="#E0E0E0"/>
<path id="Vector_20" d="M36.3178 40.0159C35.8567 39.4314 35.0993 39.1926 34.3968 38.9649C33.6942 38.7371 32.9807 38.5395 32.2672 38.6575C31.5537 38.7755 30.8539 39.3381 30.8374 40.0626C29.7973 39.6921 28.738 41.1219 28.6886 41.9836C28.6757 42.4094 28.8081 42.8269 29.064 43.1676C29.3198 43.5082 29.6839 43.7517 30.0964 43.858C29.9676 44.0549 29.8877 44.2798 29.8636 44.5139C29.8395 44.748 29.8718 44.9844 29.9578 45.2035C30.0438 45.4226 30.181 45.6178 30.358 45.773C30.5349 45.9281 30.7464 46.0387 30.9749 46.0953C31.2033 46.1519 31.4419 46.1531 31.6709 46.0985C31.8998 46.044 32.1124 45.9355 32.2907 45.782C32.4691 45.6285 32.6082 45.4345 32.6962 45.2163C32.7843 44.998 32.8188 44.7619 32.7968 44.5276C33.1908 44.7561 33.6422 44.8665 34.0971 44.8456C34.5521 44.8247 34.9914 44.6733 35.3627 44.4096C36.1035 43.863 36.597 43.0447 36.7349 42.1345C36.8447 41.3963 36.7733 40.5922 36.3178 40.0159Z" fill="#E0E0E0"/>
<path id="Vector_21" fill-rule="evenodd" clip-rule="evenodd" d="M18.8338 45.7241C18.8529 45.7298 18.869 45.7428 18.8787 45.7602C18.8884 45.7776 18.891 45.7981 18.8859 45.8174C18.8783 45.8361 18.8648 45.8518 18.8475 45.8622C18.8302 45.8726 18.8099 45.8771 18.7898 45.875C18.7696 45.8728 18.7503 45.8653 18.734 45.8533C18.7176 45.8412 18.7047 45.8251 18.6965 45.8064C18.6946 45.8026 18.6936 45.7984 18.6936 45.7941C18.6936 45.7898 18.6946 45.7856 18.6965 45.7817C18.6997 45.7714 18.7065 45.7626 18.7158 45.757C18.7323 45.7387 18.753 45.7246 18.7761 45.7159C18.7882 45.7118 18.8012 45.7114 18.8134 45.7149C18.8256 45.7183 18.8366 45.7253 18.8447 45.7351L18.8338 45.7241Z" fill="#59CAF4"/>
<path id="Vector_22" fill-rule="evenodd" clip-rule="evenodd" d="M11.6793 47.1264C11.6888 47.1292 11.6975 47.1339 11.7051 47.1401C11.7127 47.1464 11.719 47.1541 11.7236 47.1627C11.7282 47.1714 11.731 47.1809 11.7319 47.1907C11.7328 47.2005 11.7317 47.2104 11.7287 47.2197C11.7219 47.239 11.7086 47.2553 11.6911 47.2658C11.6736 47.2764 11.6529 47.2804 11.6327 47.2774C11.6129 47.2747 11.5942 47.267 11.5784 47.255C11.5625 47.243 11.55 47.227 11.5421 47.2087C11.5402 47.2049 11.5392 47.2007 11.5392 47.1964C11.5392 47.1921 11.5402 47.1879 11.5421 47.184C11.5425 47.1789 11.5442 47.1739 11.5471 47.1695C11.55 47.1652 11.5539 47.1617 11.5586 47.1594C11.5767 47.1416 11.5982 47.1276 11.6217 47.1182C11.6333 47.1143 11.6459 47.1141 11.6576 47.1175C11.6694 47.121 11.6798 47.1279 11.6876 47.1374L11.6793 47.1264Z" fill="#59CAF4"/>
<path id="Vector_23" fill-rule="evenodd" clip-rule="evenodd" d="M18.2136 47.5079C18.2088 47.4549 18.1905 47.404 18.1606 47.36C18.1307 47.316 18.09 47.2804 18.0425 47.2565C17.995 47.2326 17.9422 47.2212 17.889 47.2234C17.8359 47.2256 17.7842 47.2414 17.7388 47.2691C17.717 47.3229 17.7069 47.3807 17.7092 47.4387C17.7115 47.4967 17.7261 47.5536 17.752 47.6055C17.778 47.6574 17.8147 47.7032 17.8597 47.7399C17.9048 47.7765 17.9571 47.8031 18.0132 47.818C18.0635 47.7836 18.104 47.7366 18.1304 47.6817C18.1569 47.6268 18.1686 47.5659 18.1642 47.5051L18.2136 47.5079Z" fill="#59CAF4"/>
<path id="Vector_24" fill-rule="evenodd" clip-rule="evenodd" d="M2.77138 42.2196C2.80864 42.2804 2.82076 42.3534 2.80516 42.423C2.78956 42.4926 2.74747 42.5534 2.68781 42.5925C2.62815 42.6316 2.55561 42.6459 2.48556 42.6325C2.41551 42.619 2.35346 42.5788 2.31255 42.5203C2.27164 42.4619 2.2551 42.3898 2.26642 42.3194C2.27774 42.249 2.31604 42.1857 2.3732 42.1431C2.43036 42.1004 2.50189 42.0816 2.57263 42.0908C2.64337 42.1 2.70777 42.1363 2.75217 42.1922L2.77138 42.2196Z" fill="#59CAF4"/>
<path id="Vector_25" fill-rule="evenodd" clip-rule="evenodd" d="M19.0917 37.708L18.6306 37.944C18.6835 38.0074 18.7538 38.0539 18.8328 38.0778C18.9118 38.1017 18.9961 38.1019 19.0752 38.0784C19.1026 38.0493 19.1233 38.0144 19.1358 37.9764C19.1483 37.9384 19.1523 37.8981 19.1476 37.8584C19.1429 37.8186 19.1296 37.7804 19.1085 37.7464C19.0875 37.7123 19.0592 37.6833 19.0258 37.6613L19.0917 37.708Z" fill="#59CAF4"/>
<path id="Vector_26" fill-rule="evenodd" clip-rule="evenodd" d="M29.9838 50.3482C29.9713 50.2916 29.9384 50.2415 29.8913 50.2076C29.8442 50.1737 29.7863 50.1583 29.7286 50.1644C29.6133 50.1891 29.5667 50.3702 29.6682 50.4251C29.7698 50.4799 29.8768 50.3784 29.9427 50.2878L29.9838 50.3482Z" fill="#59CAF4"/>
<path id="Vector_27" fill-rule="evenodd" clip-rule="evenodd" d="M24.2482 40.7487C24.2509 40.8174 24.2278 40.8846 24.1833 40.937C24.1388 40.9895 24.0763 41.0233 24.008 41.0318C23.9398 41.0403 23.8709 41.0229 23.8148 40.9831C23.7588 40.9432 23.7198 40.8837 23.7056 40.8165C23.6913 40.7492 23.7028 40.679 23.7378 40.6198C23.7728 40.5606 23.8287 40.5167 23.8946 40.4968C23.9604 40.4769 24.0313 40.4824 24.0932 40.5123C24.1551 40.5422 24.2036 40.5942 24.229 40.6581L24.2482 40.7487Z" fill="#59CAF4"/>
<path id="Vector_28" fill-rule="evenodd" clip-rule="evenodd" d="M18.1202 44.5413C18.1229 44.61 18.0997 44.6772 18.0552 44.7297C18.0108 44.7821 17.9482 44.8159 17.88 44.8245C17.8118 44.833 17.7428 44.8156 17.6868 44.7757C17.6308 44.7358 17.5918 44.6764 17.5775 44.6091C17.5632 44.5418 17.5747 44.4717 17.6097 44.4125C17.6447 44.3533 17.7007 44.3094 17.7665 44.2895C17.8323 44.2696 17.9032 44.2751 17.9652 44.3049C18.0271 44.3348 18.0756 44.3868 18.101 44.4507L18.1202 44.5413Z" fill="#59CAF4"/>
<path id="Vector_29" fill-rule="evenodd" clip-rule="evenodd" d="M26.1584 47.689C26.1514 47.6581 26.1376 47.6291 26.1181 47.6041C26.0985 47.5792 26.0736 47.5588 26.0453 47.5447C26.0169 47.5305 25.9858 47.5228 25.9541 47.5221C25.9224 47.5214 25.8909 47.5278 25.862 47.5408C25.8357 47.5577 25.8138 47.5806 25.7983 47.6077C25.7827 47.6348 25.7739 47.6652 25.7725 47.6964C25.7712 47.7276 25.7774 47.7587 25.7905 47.787C25.8037 47.8153 25.8235 47.8401 25.8483 47.8591C25.876 47.8727 25.9068 47.8788 25.9376 47.8766C25.9684 47.8745 25.9981 47.8643 26.0237 47.8471C26.0493 47.8298 26.0699 47.8061 26.0834 47.7784C26.0969 47.7506 26.1029 47.7198 26.1007 47.689H26.1584Z" fill="#59CAF4"/>
<path id="Vector_30" fill-rule="evenodd" clip-rule="evenodd" d="M24.7477 48.0018C24.6435 47.8784 24.487 47.807 24.3827 47.9223C24.3333 47.9918 24.3095 48.0763 24.3155 48.1614C24.3215 48.2466 24.3569 48.3269 24.4157 48.3888C24.5337 48.4711 24.6901 48.3202 24.6901 48.1308L24.7477 48.0018Z" fill="#59CAF4"/>
<path id="Vector_31" d="M31.529 29.7385L25.0579 34.5904L26.1831 35.4549L21.2708 40.2849L28.8313 34.9335L27.6705 34.0416L31.529 29.7385Z" fill="#59CAF4"/>
<path id="Vector_32" d="M0.285034 30.0541L5.75169 34.7139L4.70611 35.4165L8.79239 39.9665L2.38717 34.8072L3.46568 34.0827L0.285034 30.0541Z" fill="#59CAF4"/>
<path id="Vector_33" d="M16.7673 19.0796L13.7595 29.8126H15.7135L14.388 39.2118L18.1724 27.0216H16.1553L16.7673 19.0796Z" fill="#59CAF4"/>
</g>
<g id="car-2">
<path id="Vector_34" d="M99.6837 62.1954H12.4724V74.9921H99.6837V62.1954Z" fill="#34469C"/>
<g id="Group_5" opacity="0.3">
<path id="Vector_35" d="M99.6837 62.1954H12.4724V74.9921H99.6837V62.1954Z" fill="black"/>
</g>
<path id="Vector_36" d="M24.9214 83.2745C29.548 82.8737 32.9738 78.7983 32.5731 74.1717C32.1724 69.5451 28.0969 66.1194 23.4703 66.5201C18.8437 66.9208 15.418 70.9962 15.8187 75.6228C16.2194 80.2494 20.2948 83.6752 24.9214 83.2745Z" fill="#263238"/>
<path id="Vector_37" d="M15.7848 74.7643C15.7835 74.7716 15.7835 74.779 15.7848 74.7863C15.769 75.8905 15.9708 76.9871 16.3787 78.0133C16.7866 79.0396 17.3927 79.9754 18.1622 80.7674C19.7165 82.367 21.8425 83.2836 24.0726 83.3156C26.3027 83.3476 28.4542 82.4924 30.0537 80.9382C31.6533 79.3839 32.5699 77.2579 32.6019 75.0278V75.0058L15.7848 74.7643Z" fill="#263238"/>
<path id="Vector_38" d="M18.2876 74.822C18.2709 75.9893 18.6007 77.1354 19.2353 78.1153C19.8699 79.0952 20.7809 79.8649 21.8529 80.3271C22.925 80.7893 24.11 80.9232 25.2582 80.712C26.4064 80.5007 27.4661 79.9537 28.3035 79.1402C29.1408 78.3267 29.7181 77.2831 29.9623 76.1415C30.2066 74.9999 30.1069 73.8115 29.6758 72.7266C29.2446 71.6416 28.5015 70.7089 27.5403 70.0463C26.5791 69.3837 25.443 69.021 24.2757 69.004C23.5005 68.9928 22.7306 69.1344 22.0101 69.4207C21.2896 69.707 20.6326 70.1324 20.0765 70.6727C19.5205 71.2129 19.0763 71.8574 18.7693 72.5694C18.4624 73.2813 18.2987 74.0468 18.2876 74.822Z" fill="#FAFAFA"/>
<path id="Vector_39" d="M24.2757 69.004C23.5005 68.9928 22.7306 69.1344 22.0101 69.4207C21.2896 69.707 20.6326 70.1324 20.0765 70.6727C19.5205 71.2129 19.0763 71.8574 18.7693 72.5694C18.4624 73.2813 18.2987 74.0468 18.2876 74.822L30.0881 74.9921C30.1109 73.4274 29.5114 71.9177 28.4215 70.7949C27.3315 69.672 25.8403 69.0279 24.2757 69.004Z" fill="#E0E0E0"/>
<path id="Vector_40" d="M20.5956 74.8549C20.5854 75.5658 20.7862 76.2638 21.1726 76.8606C21.559 77.4575 22.1138 77.9263 22.7666 78.2078C23.4195 78.4894 24.1412 78.571 24.8405 78.4424C25.5398 78.3138 26.1852 77.9808 26.6952 77.4853C27.2052 76.9899 27.5568 76.3544 27.7057 75.6592C27.8545 74.9639 27.7938 74.2402 27.5313 73.5794C27.2688 72.9186 26.8163 72.3505 26.2309 71.9469C25.6456 71.5434 24.9537 71.3224 24.2428 71.312C23.7706 71.3047 23.3015 71.3907 22.8626 71.5649C22.4236 71.7391 22.0233 71.9981 21.6845 72.3272C21.3458 72.6562 21.0752 73.0489 20.8884 73.4826C20.7015 73.9164 20.602 74.3827 20.5956 74.8549Z" fill="#263238"/>
<path id="Vector_41" d="M89.0369 83.2945C93.6712 82.9973 97.1872 78.9994 96.8899 74.365C96.5927 69.7306 92.5948 66.2147 87.9604 66.5119C83.326 66.8092 79.8101 70.8071 80.1073 75.4415C80.4046 80.0759 84.4025 83.5918 89.0369 83.2945Z" fill="#263238"/>
<path id="Vector_42" d="M80.0812 74.7643V74.7863C80.0653 75.8905 80.2671 76.9871 80.675 78.0133C81.083 79.0395 81.689 79.9754 82.4586 80.7674C83.2282 81.5594 84.1463 82.1921 85.1604 82.6293C86.1745 83.0666 87.2648 83.2997 88.369 83.3156C89.4732 83.3315 90.5698 83.1297 91.596 82.7218C92.6222 82.3138 93.5581 81.7078 94.3501 80.9382C95.1421 80.1686 95.7748 79.2505 96.212 78.2364C96.6493 77.2223 96.8825 76.132 96.8983 75.0278V75.0058L80.0812 74.7643Z" fill="#263238"/>
<path id="Vector_43" d="M82.595 74.822C82.5783 75.9891 82.908 77.1349 83.5424 78.1147C84.1768 79.0944 85.0874 79.8641 86.1591 80.3265C87.2309 80.7888 88.4156 80.9231 89.5636 80.7122C90.7116 80.5014 91.7714 79.955 92.6089 79.142C93.4464 78.329 94.0241 77.286 94.269 76.1447C94.5139 75.0035 94.4149 73.8153 93.9846 72.7303C93.5544 71.6453 92.8121 70.7122 91.8516 70.0489C90.8912 69.3857 89.7556 69.0221 88.5885 69.004C87.8129 68.992 87.0424 69.1331 86.3213 69.4191C85.6002 69.705 84.9425 70.1303 84.3858 70.6707C83.8292 71.211 83.3845 71.8558 83.0772 72.5681C82.7699 73.2804 82.6061 74.0463 82.595 74.822Z" fill="#FAFAFA"/>
<path id="Vector_44" d="M88.5885 69.004C87.8133 68.9928 87.0435 69.1344 86.323 69.4207C85.6025 69.707 84.9454 70.1324 84.3894 70.6727C83.8333 71.2129 83.3891 71.8574 83.0822 72.5694C82.7752 73.2813 82.6116 74.0468 82.6005 74.822L94.401 74.9921C94.4237 73.4274 93.8242 71.9177 92.7343 70.7949C91.6444 69.672 90.1532 69.0279 88.5885 69.004Z" fill="#E0E0E0"/>
<path id="Vector_45" d="M84.9002 74.8549C84.8894 75.5665 85.0899 76.2653 85.4763 76.8629C85.8627 77.4605 86.4177 77.9301 87.071 78.2123C87.7243 78.4945 88.4467 78.5766 89.1467 78.4482C89.8466 78.3198 90.4928 77.9867 91.0035 77.491C91.5141 76.9953 91.8663 76.3593 92.0154 75.6635C92.1646 74.9676 92.104 74.2432 91.8414 73.5817C91.5788 72.9203 91.1259 72.3516 90.5401 71.9476C89.9542 71.5436 89.2617 71.3224 88.5501 71.312C88.0778 71.3047 87.6086 71.3907 87.1695 71.5648C86.7304 71.739 86.3299 71.998 85.9909 72.327C85.6519 72.656 85.3811 73.0487 85.194 73.4824C85.0068 73.9162 84.907 74.3826 84.9002 74.8549Z" fill="#263238"/>
<path id="Vector_46" d="M35.2144 54.9971C35.2144 54.9971 22.8294 55.911 18.2409 56.9401C15.6119 57.5301 11.1057 58.3259 9.50303 60.7601C9.50303 60.7601 9.27251 60.8617 9.08041 60.9413C9.01858 60.9701 8.96971 61.0209 8.94333 61.0839C8.91694 61.1468 8.91494 61.2173 8.93771 61.2816C9.0365 61.5395 9.18195 61.9265 9.19293 61.9951C9.23958 62.3436 8.72365 62.5302 8.72914 62.7443L9.33837 65.6533C9.33837 65.6533 7.04962 65.2965 8.94319 67.2148C9.91468 68.2 12.0223 76.1832 11.8604 76.4548C11.4021 77.2178 14.44 76.4548 14.44 76.4548L15.1371 71.1089C15.1371 71.0458 16.1168 70.9882 16.4544 70.8702C16.4923 70.857 16.5243 70.8307 16.5445 70.7959C16.5646 70.7612 16.5716 70.7203 16.5641 70.6808C15.6201 64.9507 19.775 65.6642 24.0067 65.527C34.7561 65.1867 34.0069 76.3478 34.0069 76.3478H78.8736C78.8736 76.3478 78.2507 65.0824 88.937 65.1785C98.1661 65.2636 98.4158 76.4301 98.4158 76.4301C98.4158 76.4301 102.672 76.8006 104.654 73.222C106.635 69.6435 106.119 67.0968 106.119 67.0968L106.053 64.8354C106.042 64.4645 105.891 64.1115 105.629 63.8481C105.368 63.5846 105.016 63.4304 104.645 63.4166C104.645 63.4166 105.419 57.7222 104.234 56.7343C103.048 55.7463 96.5497 49.8049 96.5497 49.8049L96.8571 49.61C96.9741 49.5375 97.0682 49.4331 97.1282 49.3092C97.1883 49.1853 97.212 49.0468 97.1965 48.91C97.1809 48.7731 97.1269 48.6435 97.0405 48.5362C96.9542 48.4289 96.8392 48.3483 96.7089 48.3037C94.239 47.453 89.3514 45.7707 88.2015 45.3701C88.0311 45.3118 87.8541 45.2749 87.6746 45.2603C86.9913 45.2082 85.0511 45.0847 81.4862 45.0462C77.1475 44.9996 59.9297 45.0462 59.9297 45.0462C59.9297 45.0462 54.0102 45.532 50.717 46.981C47.2318 48.5096 35.2144 54.9971 35.2144 54.9971Z" fill="#34469C"/>
<path id="Vector_47" d="M37.1109 76.1832C37.1109 76.1832 37.1109 76.153 37.1109 76.0899C37.1109 76.0267 37.1109 75.9334 37.1109 75.8154C37.1109 75.5666 37.0999 75.2007 37.0779 74.7177C37.0505 73.7627 37.0093 72.3686 36.9599 70.6012C36.9105 68.8339 36.8529 66.6714 36.7843 64.2015C36.7678 63.585 36.7504 62.9446 36.7321 62.2805C36.721 61.9469 36.7356 61.6129 36.776 61.2816C36.8007 61.1142 36.8227 60.9468 36.8474 60.7766C36.8721 60.6065 36.916 60.4391 36.9517 60.2689C37.1148 59.5751 37.3494 58.9001 37.6515 58.2546C37.9625 57.5737 38.3481 56.9294 38.8013 56.3336L46.5732 51.4377L48.6699 50.1177C49.3775 49.6471 50.1207 49.2324 50.8928 48.8773C51.6775 48.5096 52.4829 48.188 53.305 47.9141C53.7166 47.7686 54.1283 47.6396 54.5619 47.5244C54.9955 47.4091 55.4154 47.2938 55.8517 47.206C57.5001 46.8528 59.1757 46.6417 60.8601 46.5748C62.4748 46.4978 64.0924 46.5033 65.7065 46.5913H65.7532V46.638C65.0095 49.9641 64.3069 53.1008 63.6648 55.9686C63.281 56.6014 62.9672 57.274 62.729 57.9747C62.4898 58.6392 62.3816 59.3437 62.4106 60.0494C62.4655 60.7409 62.4847 61.4215 62.5012 62.0692C62.5176 62.7169 62.5259 63.3618 62.5396 63.9902C62.5753 66.4601 62.5835 68.6116 62.5917 70.3844C62.6 72.1573 62.5917 73.5514 62.5917 74.5009C62.5917 74.9757 62.5917 75.3379 62.5917 75.5849C62.5917 75.7084 62.5917 75.8017 62.5917 75.8593C62.5917 75.917 62.5917 75.9526 62.5917 75.9526C62.5917 75.9526 62.5917 75.9225 62.5917 75.8593C62.5917 75.7962 62.5917 75.7029 62.5917 75.5849C62.5917 75.3379 62.5917 74.9757 62.5917 74.5009C62.5917 73.5486 62.5917 72.1545 62.567 70.3844C62.5423 68.6144 62.5396 66.4573 62.4984 63.9902C62.4856 63.3755 62.4719 62.7397 62.4573 62.0829C62.4381 61.427 62.4188 60.7547 62.364 60.0658C62.333 59.3511 62.4411 58.6372 62.6823 57.9637C62.9212 57.2571 63.2369 56.5789 63.6236 55.9412C64.2658 53.0651 64.9628 49.9284 65.7038 46.6105L65.7395 46.6599C64.1278 46.5761 62.5129 46.5761 60.9012 46.6599C59.2222 46.7266 57.5521 46.9378 55.9093 47.2911C55.473 47.3762 55.0476 47.4997 54.6223 47.6067C54.1969 47.7137 53.7798 47.8482 53.3681 47.9936C52.5487 48.2667 51.7461 48.5874 50.9641 48.9541C50.2014 49.3071 49.4673 49.7191 48.7687 50.1863L46.6007 51.5201L38.8343 56.4104C38.3843 56.9986 38.0005 57.6345 37.6899 58.3067C37.3895 58.9479 37.1559 59.6183 36.9928 60.3073C36.6388 61.6521 36.8172 62.983 36.8199 64.2125C36.8831 66.6824 36.9352 68.8367 36.9791 70.6095C37.023 72.3823 37.0532 73.7792 37.0779 74.7259C37.0779 75.2007 37.0944 75.5657 37.0999 75.8237C37.0999 75.9444 37.0999 76.0377 37.0999 76.0981C37.0999 76.1585 37.1109 76.1832 37.1109 76.1832Z" fill="#263238"/>
<path id="Vector_48" d="M65.6488 46.874H65.7229H65.9397L66.763 46.8548L69.8558 46.7944L80.2842 46.616H80.3034V46.6297L81.7634 48.4217L85.9402 53.5399L86.415 54.1217C86.5673 54.3164 86.6979 54.5271 86.8047 54.7501C87.0001 55.1635 87.1065 55.6134 87.1169 56.0706C87.1273 56.5277 87.0415 56.982 86.865 57.4039C86.6976 57.7881 86.5412 58.1586 86.3875 58.5016C85.781 59.9094 85.2898 61.0483 84.9468 61.8414C84.7739 62.2311 84.6422 62.5357 84.5489 62.747L84.4446 62.9803L84.4062 63.0599C84.4062 63.0599 84.4061 63.0324 84.4363 62.9776C84.4665 62.9227 84.494 62.8431 84.5351 62.7388L84.9166 61.8277C85.2541 61.0346 85.7399 59.8902 86.3354 58.4796C86.6098 57.7689 87.0819 57.0224 87.0489 56.1086C87.0434 55.6459 86.9376 55.1899 86.7388 54.7721C86.6348 54.5546 86.5068 54.3493 86.3574 54.1601L85.8798 53.5783L81.7277 48.4574L80.2677 46.6681L80.2979 46.6819L69.8695 46.8328L66.774 46.8712H65.9507H65.6598L65.6488 46.874Z" fill="#263238"/>
<path id="Vector_49" d="M60.3824 60.7492C60.3824 60.7492 60.4263 60.7492 60.5059 60.73C60.6244 60.709 60.7374 60.6642 60.838 60.5982C60.9954 60.4945 61.1133 60.3408 61.1728 60.1619C61.209 60.0504 61.2239 59.9331 61.2167 59.8161C61.2128 59.6858 61.179 59.5581 61.1179 59.4429C61.0487 59.3104 60.9446 59.1993 60.817 59.1214C60.6893 59.0436 60.5429 59.002 60.3934 59.0011H56.9054C56.7023 58.9997 56.5059 59.0736 56.3539 59.2083C56.2019 59.3431 56.1051 59.5292 56.0821 59.731C56.0578 59.9198 56.0923 60.1115 56.1809 60.2799C56.2721 60.4409 56.4139 60.5673 56.5843 60.6394C56.7519 60.6962 56.9294 60.7177 57.1057 60.7025H58.5438L59.883 60.7162L58.5438 60.73H57.1057C57.0179 60.73 56.9301 60.73 56.8313 60.73C56.7369 60.7244 56.6442 60.7031 56.5569 60.6668C56.3714 60.5906 56.2168 60.4543 56.1178 60.2799C56.0178 60.0955 55.9784 59.8842 56.0053 59.6762C56.0259 59.4609 56.1233 59.2602 56.2797 59.1108C56.4465 58.959 56.6634 58.874 56.8889 58.8721H59.3177H60.3797C60.5401 58.876 60.6965 58.923 60.8326 59.0079C60.9687 59.0929 61.0796 59.2127 61.1536 59.3551C61.2162 59.4795 61.25 59.6165 61.2524 59.7557C61.2567 59.8777 61.239 59.9995 61.2002 60.1152C61.1345 60.3023 61.0066 60.4611 60.838 60.5653C60.7333 60.631 60.6151 60.6723 60.4922 60.6861C60.4588 60.7123 60.4219 60.7335 60.3824 60.7492Z" fill="#263238"/>
<path id="Vector_50" d="M83.6487 60.7492C83.6487 60.7492 83.6926 60.7492 83.7722 60.73C83.8908 60.7094 84.0039 60.6646 84.1043 60.5982C84.2626 60.4955 84.3808 60.3414 84.4391 60.1619C84.4752 60.0504 84.4901 59.9331 84.483 59.8161C84.4801 59.6856 84.4462 59.5577 84.3842 59.4429C84.3152 59.3108 84.2116 59.2 84.0844 59.1221C83.9573 59.0443 83.8115 59.0025 83.6624 59.0011H80.158C79.9545 59.003 79.759 59.0802 79.6091 59.2179C79.4582 59.3498 79.3606 59.5323 79.3347 59.731C79.3099 59.9201 79.3454 60.1122 79.4362 60.2799C79.5272 60.4401 79.6678 60.5663 79.8369 60.6394C80.0054 60.6961 80.1839 60.7175 80.3611 60.7025H81.7991L83.1355 60.7162L81.7991 60.73H80.3611C80.2705 60.73 80.1854 60.73 80.0866 60.73C79.9922 60.7248 79.8994 60.7035 79.8122 60.6668C79.6255 60.5914 79.4697 60.4551 79.3703 60.2799C79.2704 60.0955 79.231 59.8842 79.2578 59.6762C79.2833 59.4561 79.3882 59.2529 79.553 59.1048C79.7177 58.9567 79.931 58.874 80.1525 58.8721H82.5839H83.6487C83.8805 58.8771 84.1012 58.9721 84.2642 59.1371C84.4271 59.302 84.5193 59.5239 84.5214 59.7557C84.5271 59.8778 84.5094 59.9998 84.4693 60.1152C84.4045 60.3028 84.2764 60.462 84.107 60.5653C84.0023 60.631 83.8841 60.6723 83.7612 60.6861C83.727 60.7125 83.6891 60.7338 83.6487 60.7492Z" fill="#263238"/>
<path id="Vector_51" d="M104.025 56.9538H99.3599C99.0467 56.9539 98.7396 57.0396 98.4716 57.2017C98.2037 57.3637 97.9851 57.5959 97.8395 57.8731C97.7191 58.1015 97.6518 58.3542 97.6428 58.6122C97.6337 58.8703 97.6832 59.1271 97.7874 59.3633L99.6124 63.5072L104.278 63.4633C104.278 63.4633 105.277 58.2079 104.025 56.9538Z" fill="#FAFAFA"/>
<path id="Vector_52" d="M39.405 56.3693L63.415 55.9247L79.0383 55.6503L84.1976 52.6672C84.2958 52.6102 84.3807 52.533 84.4468 52.4407C84.5129 52.3483 84.5586 52.243 84.5809 52.1317C84.6032 52.0204 84.6016 51.9056 84.5762 51.795C84.5508 51.6843 84.5022 51.5803 84.4336 51.4899L81.2255 47.2774C81.0606 47.0604 80.8483 46.8841 80.6047 46.7619C80.3612 46.6396 80.0929 46.5747 79.8204 46.5721L62.3447 46.4294C62.3447 46.4294 55.7584 46.0479 50.5798 48.9514C45.1159 52.0031 39.405 56.3693 39.405 56.3693Z" fill="#263238"/>
<path id="Vector_53" d="M50.4097 46.863C50.4097 46.863 51.6117 47.4118 50.8295 47.9195C50.0474 48.4272 37.8819 56.0976 37.8819 56.0976L35.0745 54.8324C40.0389 52.0717 45.0418 49.3932 50.4097 46.863Z" fill="#455A64"/>
<path id="Vector_54" d="M105.878 67.0391C105.878 67.0611 104.278 67.0803 102.31 67.0803C100.342 67.0803 98.7424 67.0611 98.7424 67.0391C98.7424 67.0172 100.342 66.998 102.31 66.998C104.278 66.998 105.878 67.0172 105.878 67.0391Z" fill="#263238"/>
<path id="Vector_55" d="M78.7941 73.6721C78.7941 73.6941 68.739 73.7133 56.3402 73.7133C43.9414 73.7133 33.8835 73.6941 33.8835 73.6721C33.8835 73.6502 43.9359 73.631 56.3402 73.631C68.7445 73.631 78.7941 73.6502 78.7941 73.6721Z" fill="#263238"/>
<path id="Vector_56" d="M96.4153 49.6484C96.4153 49.6484 95.3423 50.8477 95.7649 51.7286C96.1875 52.6095 100.54 55.6859 100.54 55.6859L103.701 56.2814L96.4153 49.6484Z" fill="#455A64"/>
<path id="Vector_57" d="M66.3596 47.4859L65.6488 55.1618L78.3687 54.7995L83.495 51.8192L80.1772 47.4859H66.3596Z" fill="#455A64"/>
<path id="Vector_58" d="M42.4182 55.557C42.4182 55.557 50.1023 50.0135 53.121 48.913C56.0437 47.8482 57.5668 47.582 60.3111 47.5052C62.9347 47.4311 64.5346 47.5052 64.5346 47.5052L62.5175 55.3072L42.4182 55.557Z" fill="#455A64"/>
<path id="Vector_59" d="M41.2959 55.5816C41.2954 55.3429 41.3588 55.1084 41.4794 54.9023C41.6 54.6963 41.7735 54.5263 41.982 54.4098L43.7438 53.4191C44.2466 53.1365 44.8137 52.9882 45.3904 52.9883C45.7456 52.9883 46.0986 53.0448 46.436 53.1557C46.8021 53.2841 47.1208 53.5203 47.35 53.8334C47.5793 54.1464 47.7084 54.5215 47.7203 54.9093C47.7307 55.1705 47.6881 55.4311 47.5953 55.6754C47.5024 55.9197 47.3611 56.1428 47.1799 56.3312C46.9987 56.5196 46.7813 56.6694 46.5408 56.7717C46.3002 56.8739 46.0415 56.9266 45.7801 56.9264H42.6406C42.464 56.9264 42.2892 56.8916 42.126 56.824C41.9629 56.7564 41.8146 56.6574 41.6898 56.5325C41.5649 56.4076 41.4658 56.2594 41.3983 56.0962C41.3307 55.9331 41.2959 55.7582 41.2959 55.5816Z" fill="#34469C"/>
<path id="Vector_60" d="M41.2958 55.5816C41.2958 55.5816 41.2958 55.642 41.315 55.7518C41.3384 55.9138 41.3914 56.0701 41.4715 56.2128C41.5719 56.3959 41.7143 56.5526 41.887 56.6699C42.0597 56.7873 42.2577 56.862 42.4649 56.8879C42.6477 56.898 42.831 56.898 43.0138 56.8879H45.7032C45.9585 56.8946 46.2127 56.8527 46.4524 56.7644C46.7047 56.6698 46.9343 56.5232 47.1263 56.3341C47.3182 56.145 47.4682 55.9176 47.5666 55.6667C47.6646 55.404 47.704 55.123 47.6818 54.8434C47.6613 54.5649 47.5796 54.2943 47.4425 54.0509C47.3054 53.8076 47.1163 53.5975 46.8887 53.4356C46.669 53.2867 46.4218 53.1831 46.1615 53.131C45.9118 53.0699 45.6556 53.0395 45.3986 53.0404C44.9254 53.0386 44.4574 53.1387 44.0264 53.334C43.8233 53.4246 43.6367 53.5399 43.4529 53.6387L42.9287 53.9323L42.0258 54.4318C41.7951 54.5523 41.6044 54.7372 41.477 54.9642C41.3981 55.1075 41.3452 55.2635 41.3205 55.4252C41.3041 55.535 41.3041 55.5954 41.3013 55.5954C41.2953 55.5379 41.2953 55.4799 41.3013 55.4225C41.3185 55.2571 41.3679 55.0968 41.4468 54.9504C41.5731 54.7185 41.7637 54.5279 41.9956 54.4016L42.893 53.8884L43.4172 53.592C43.5983 53.4932 43.7849 53.3752 43.9907 53.2819C44.4325 53.0793 44.9126 52.9735 45.3986 52.9718C45.6611 52.9708 45.9227 53.0012 46.178 53.0624C46.4487 53.1167 46.7061 53.224 46.9354 53.378C47.1717 53.5475 47.3679 53.7669 47.5102 54.0206C47.6525 54.2743 47.7373 54.5561 47.7587 54.8462C47.7816 55.1408 47.7395 55.4369 47.6352 55.7134C47.5337 55.9808 47.3744 56.2226 47.1687 56.4214C46.9704 56.6146 46.7339 56.7642 46.4743 56.8605C46.2256 56.9506 45.9622 56.9934 45.6977 56.9867H43.0083C42.8252 56.9925 42.6419 56.987 42.4594 56.9703C42.2957 56.9487 42.1374 56.8966 41.9929 56.8166C41.7617 56.6893 41.5713 56.4989 41.444 56.2677C41.3683 56.1203 41.32 55.9604 41.3013 55.7957C41.293 55.7247 41.2912 55.653 41.2958 55.5816Z" fill="#263238"/>
<path id="Vector_61" d="M62.1307 56.3693H62.0264H61.6148L60.1081 56.3967C58.8348 56.4214 57.0757 56.4681 55.1327 56.5202C53.1898 56.5723 51.4306 56.6108 50.1573 56.619C49.5206 56.619 49.0047 56.619 48.6507 56.619H48.239H48.0963H48.132H48.239H48.6507L50.1573 56.5916C51.4306 56.5696 53.176 56.5202 55.1327 56.4681C57.0894 56.4159 58.832 56.3775 60.1054 56.3693C60.7421 56.3693 61.258 56.3693 61.6148 56.3693H62.0264H62.1307Z" fill="white"/>
<path id="Vector_62" d="M60.0834 58.7321C59.1695 58.7867 58.2531 58.7867 57.3391 58.7321C58.2531 58.6776 59.1695 58.6776 60.0834 58.7321Z" fill="white"/>
<path id="Vector_63" d="M79.0932 50.0217C79.0932 50.0436 77.3917 50.7544 75.2759 51.6134C73.16 52.4723 71.4338 53.1474 71.4338 53.1255C71.4338 53.1035 73.1353 52.3928 75.2539 51.5365C77.3725 50.6803 79.085 50.0025 79.0932 50.0217Z" fill="white"/>
<path id="Vector_64" d="M75.6299 50.5596C75.6299 50.5815 74.0108 51.2978 71.9937 52.1622C69.9766 53.0267 68.3355 53.7073 68.3273 53.6881C68.3191 53.6689 69.9464 52.9499 71.9635 52.0854C73.9806 51.2209 75.6217 50.5376 75.6299 50.5596Z" fill="white"/>
<path id="Vector_65" d="M79.428 56.3665C79.428 56.3885 76.0278 56.4296 71.8345 56.4543C67.6412 56.479 64.241 56.479 64.241 56.4543C64.241 56.4296 67.6384 56.394 71.8345 56.3693C76.0305 56.3446 79.428 56.3446 79.428 56.3665Z" fill="white"/>
<path id="Vector_66" d="M83.1933 58.6004C83.1933 58.6223 82.241 58.6498 81.0637 58.6608C79.8864 58.6717 78.9341 58.6608 78.9341 58.6415C78.9341 58.6223 79.8864 58.5894 81.0637 58.5784C82.241 58.5675 83.1933 58.5784 83.1933 58.6004Z" fill="white"/>
<path id="Vector_67" d="M46.1615 53.7292C46.1615 53.7292 46.1175 53.6688 46.0105 53.5838C45.8611 53.4662 45.6811 53.3938 45.4919 53.3752C45.2096 53.3517 44.9255 53.3824 44.6548 53.4658C44.3158 53.5493 43.9844 53.6613 43.6641 53.8006C43.081 54.0538 42.5383 54.3913 42.0532 54.8022C41.68 55.1151 41.4824 55.3511 41.4714 55.3511C41.509 55.2906 41.5532 55.2345 41.6032 55.1837C41.6965 55.0822 41.8337 54.9367 42.0175 54.7721C42.7631 54.1048 43.6627 53.6333 44.6356 53.3999C44.916 53.318 45.2099 53.2928 45.5001 53.3258C45.6972 53.3528 45.8823 53.4368 46.0325 53.5673C46.0726 53.6026 46.1077 53.6433 46.1368 53.6881C46.156 53.71 46.1642 53.7292 46.1615 53.7292Z" fill="white"/>
<path id="Vector_68" d="M97.8533 68.1204C97.8 68.0613 97.7505 67.999 97.705 67.9338C97.6117 67.8103 97.4855 67.6209 97.2962 67.3849C96.7911 66.7279 96.216 66.128 95.581 65.5956C94.6373 64.8078 93.5562 64.2012 92.3921 63.8063C90.9606 63.3395 89.4629 63.1078 87.9573 63.1202C87.1803 63.1198 86.4055 63.2036 85.6466 63.37C84.9377 63.5187 84.2461 63.7403 83.5829 64.0314C82.4507 64.5102 81.4156 65.192 80.5284 66.0429C79.9307 66.6121 79.4112 67.2581 78.9834 67.9639C78.827 68.2137 78.7364 68.4222 78.6568 68.5567C78.622 68.6278 78.5825 68.6965 78.5388 68.7625C78.563 68.6875 78.5943 68.6149 78.6321 68.5457C78.7007 68.4058 78.7858 68.1917 78.934 67.9365C79.3473 67.2094 79.8599 66.5434 80.4571 65.9579C81.3466 65.0889 82.3885 64.3912 83.5307 63.8996C84.2003 63.6014 84.8994 63.3742 85.6164 63.2218C86.386 63.052 87.1719 62.9665 87.96 62.9666C89.4799 62.9608 90.9903 63.2056 92.4305 63.6911C93.6061 64.0952 94.6946 64.7181 95.6386 65.527C96.2742 66.069 96.8435 66.6844 97.3346 67.3602C97.5157 67.5935 97.6364 67.7883 97.7243 67.9091C97.7743 67.9749 97.8175 68.0457 97.8533 68.1204Z" fill="#263238"/>
<path id="Vector_69" d="M34.2732 68.189C34.2036 68.1476 34.1367 68.1018 34.0729 68.0518L33.524 67.6401C33.0465 67.2806 32.3659 66.7455 31.5289 66.0759C31.1118 65.7411 30.6562 65.3733 30.1568 64.9919C29.6373 64.5801 29.0784 64.2207 28.4882 63.9188C27.8245 63.6049 27.1114 63.4081 26.3806 63.3371C25.5928 63.2581 24.8013 63.2215 24.0095 63.2273C23.2218 63.2333 22.4428 63.3917 21.7153 63.6938C21.0346 63.9728 20.3783 64.3078 19.7531 64.6955C18.5511 65.4364 17.533 66.2021 16.6712 66.836C15.8095 67.47 15.1043 67.9777 14.5966 68.2933C14.4038 68.4206 14.2041 68.5369 13.9983 68.6418C13.9297 68.6838 13.8571 68.7187 13.7815 68.7461C13.8466 68.6992 13.9144 68.6561 13.9846 68.6171C14.1218 68.5375 14.3194 68.4168 14.5664 68.2466C15.0631 67.9173 15.7574 67.4014 16.6109 66.7537C17.4644 66.1061 18.4798 65.3349 19.6845 64.583C20.3152 64.1878 20.978 63.8463 21.6659 63.5621C22.4087 63.2524 23.2047 63.0903 24.0095 63.0846C24.8069 63.0793 25.6039 63.1178 26.3971 63.1998C27.1428 63.2741 27.8699 63.4774 28.5459 63.8008C29.1444 64.1082 29.71 64.476 30.2336 64.8986C30.7303 65.2828 31.1831 65.6587 31.6058 65.9963L33.5707 67.5962L34.1058 68.0298C34.1646 68.0796 34.2205 68.1328 34.2732 68.189Z" fill="#263238"/>
<path id="Vector_70" d="M97.985 58.068C97.5981 57.6838 88.509 48.6331 88.0754 47.8207C87.6418 47.0084 87.5265 45.3317 87.5265 45.263L87.8009 45.2466C87.8009 45.263 87.8997 46.9261 88.3114 47.6918C88.6434 48.312 94.8977 54.6239 98.1716 57.8731L97.985 58.068Z" fill="#263238"/>
<g id="Group_6" opacity="0.4">
<path id="Vector_71" d="M36.4768 55.8067C36.4768 55.8067 23.2657 57.9225 21.6109 58.2162C19.9561 58.5098 10.373 60.4418 10.0848 60.612C10.3894 60.2299 10.7428 59.8895 11.1359 59.5993C12.4751 58.776 14.5389 58.186 14.5389 58.186C14.5389 58.186 20.2278 56.9126 22.1955 56.5559C22.9008 56.4269 27.6539 55.9247 28.6281 55.8533C28.8559 55.8341 33.2934 55.3237 34.0125 55.2441C34.8851 55.1371 36.4768 55.8067 36.4768 55.8067Z" fill="black"/>
</g>
<path id="Vector_72" d="M28.3125 54.6705C28.2357 54.7172 25.9908 55.8314 25.9908 55.8314L23.9189 57.832C23.9189 57.832 22.9748 57.9774 22.9282 57.9939C22.8815 58.0104 25.7438 55.3511 25.7438 55.3511L27.599 54.5635L28.3125 54.6705Z" fill="#263238"/>
<path id="Vector_73" d="M29.4268 56.9401L31.6222 55.6585L34.3446 54.58C34.4187 54.5511 34.4988 54.541 34.5778 54.5506C34.6568 54.5602 34.7322 54.5891 34.7974 54.6349L36.4659 55.8067L35.2419 55.9851L34.6409 55.4362C34.5746 55.3757 34.4926 55.3351 34.4042 55.3191C34.3159 55.303 34.2248 55.3123 34.1415 55.3456L31.1227 56.6547L29.4268 56.9401Z" fill="#263238"/>
<path id="Vector_74" d="M21.611 58.2162C21.611 58.2162 20.6971 57.467 20.258 57.5082C19.819 57.5493 16.9182 58.2683 16.8194 58.4687C16.7206 58.669 16.545 59.0477 16.545 59.0477C16.545 59.0477 14.152 59.2755 14.0916 59.6158C14.0312 59.9561 14.0559 59.8436 14.0559 59.8436L21.611 58.2162Z" fill="#263238"/>
<path id="Vector_75" d="M25.0605 53.7649C25.2444 53.8884 29.5393 55.3319 29.7753 55.2743C30.0113 55.2166 36.4769 54.7117 36.4769 54.7117L23.6061 53.3395H16.7673L11.4406 57.5356C11.4406 57.5356 12.4889 58.1915 12.8127 58.2107C13.1365 58.2299 15.2634 57.3188 15.2634 57.3188L16.4983 55.7765L17.747 54.7062L19.2316 53.7649L21.246 54.2644L22.6181 54.2259L25.0605 53.7649Z" fill="#34469C"/>
<g id="Group_7" opacity="0.4">
<path id="Vector_76" d="M25.0605 53.7649C25.2444 53.8884 29.5393 55.3319 29.7753 55.2743C30.0113 55.2166 36.4769 54.7117 36.4769 54.7117L23.6061 53.3395H16.7673L11.4406 57.5356C11.4406 57.5356 12.4889 58.1915 12.8127 58.2107C13.1365 58.2299 15.2634 57.3188 15.2634 57.3188L16.4983 55.7765L17.747 54.7062L19.2316 53.7649L21.246 54.2644L22.6181 54.2259L25.0605 53.7649Z" fill="black"/>
</g>
<path id="Vector_77" d="M36.4769 54.698L30.2912 54.5635L25.1484 53.4905L21.6467 53.4576H16.8277L13.422 56.8056L11.4406 57.4999L11.4159 57.2063C12.0745 56.3007 15.9687 53.2023 16.3803 52.8154C16.792 52.4284 20.1647 51.2868 20.5791 51.2868C20.9935 51.2868 32.794 53.2078 32.794 53.2078L36.4769 54.698Z" fill="#34469C"/>
<path id="Vector_78" d="M36.4769 54.698C36.4385 54.701 36.4 54.701 36.3616 54.698H36.0295L34.7589 54.6568L30.2089 54.4702L25.195 53.3862H25.2087L23.2466 53.345L19.7915 53.2792L18.1861 53.26H17.4204C17.2942 53.26 17.1707 53.26 17.0472 53.26H16.866H16.7865C16.7618 53.26 16.7343 53.26 16.7178 53.2792C16.3666 53.5701 16.029 53.9186 15.7162 54.2232L14.8243 55.1371L13.3671 56.6135C12.8735 56.7221 12.3912 56.8765 11.9263 57.0745L11.5613 57.2392C11.5213 57.2612 11.4789 57.2787 11.4351 57.2913C11.4723 57.2643 11.5118 57.2404 11.5531 57.22C11.6327 57.1761 11.7507 57.113 11.9098 57.0389C12.3716 56.8231 12.8544 56.6558 13.3506 56.5394H13.3314L14.7694 55.0438L15.6558 54.1409L16.1388 53.6606C16.3083 53.4875 16.487 53.3235 16.6739 53.1694C16.7043 53.15 16.7395 53.1396 16.7755 53.1392C16.8093 53.1367 16.8432 53.1367 16.877 53.1392H17.0636C17.1871 53.1392 17.3134 53.1392 17.4369 53.1392H18.2053L19.8134 53.1529L23.2685 53.2133L25.2307 53.2572H25.2444L30.2445 54.3549L34.7919 54.591L36.0597 54.665L36.3945 54.6897L36.4769 54.698Z" fill="#263238"/>
<path id="Vector_79" d="M25.6204 52.2116C25.6197 52.4117 25.5727 52.609 25.4832 52.7879C25.3707 53.0926 25.2499 53.3368 25.2087 53.3121C25.2096 53.1129 25.2565 52.9166 25.346 52.7385C25.4694 52.4339 25.582 52.1979 25.6204 52.2116Z" fill="#263238"/>
<path id="Vector_80" d="M16.4133 52.8099C16.4489 52.7907 16.523 52.873 16.5944 52.9773C16.6657 53.0816 16.7124 53.1804 16.6822 53.2078C16.652 53.2353 16.5532 53.1722 16.4764 53.0569C16.3995 52.9416 16.3803 52.8264 16.4133 52.8099Z" fill="#263238"/>
<g id="Group_8" opacity="0.3">
<path id="Vector_81" d="M18.1724 53.1913L19.1411 52.7632L20.6175 51.6792L19.6488 52.7632L20.7548 53.0788L23.2411 53.2737L18.1724 53.1913Z" fill="black"/>
</g>
<path id="Vector_82" d="M24.3086 57.7688L24.9892 57.2941L26.3394 57.1047L27.0941 56.5696L29.3252 56.2787L29.7039 56.6327L29.8768 56.866L24.3086 57.7688Z" fill="#263238"/>
<path id="Vector_83" d="M35.6728 55.9604L35.6097 55.9768L35.4286 56.0125L34.7205 56.1415L32.1189 56.5861L23.5265 58.0021C21.8443 58.2601 20.2553 58.5812 18.8091 58.8556L14.967 59.6103C13.8693 59.8216 12.9856 59.989 12.3737 60.0988L11.6656 60.2223L11.479 60.2497H11.4159C11.4352 60.241 11.4555 60.2346 11.4763 60.2305L11.6601 60.1893L12.3627 60.0384L14.9478 59.5033L18.7898 58.7211C20.2361 58.4467 21.825 58.1146 23.5073 57.8539L32.108 56.4818L34.7178 56.0811L35.4286 55.9796L35.6124 55.9576C35.6326 55.9549 35.653 55.9559 35.6728 55.9604Z" fill="#263238"/>
<g id="Group_9" opacity="0.3">
<path id="Vector_84" d="M9.64856 67.4617C9.97977 67.5517 10.2798 67.7312 10.5158 67.9804C10.8121 68.3509 11.5723 69.6654 11.5723 69.6654L13.7678 68.3262L12.5712 69.6654L12.4093 70.6808L12.1349 71.0979L13.7815 72.1957C13.7815 72.1957 11.8083 72.0557 11.6245 72.009C11.4406 71.9624 9.9916 69.2647 9.9916 69.2647L9.8434 67.4754" fill="black"/>
</g>
<path id="Vector_85" d="M3.57536 68.7873C3.5785 68.7606 3.58884 68.7352 3.60527 68.7139C3.62171 68.6927 3.64362 68.6763 3.66866 68.6665C4.30809 68.4387 8.36692 67.0007 9.32742 67.2751C10.3675 67.5743 11.0563 70.6369 12.2199 71.4986C13.3835 72.3603 16.4983 72.7006 16.4132 72.997C16.2239 73.6776 15.3512 77.8654 14.3029 78.2853C13.2545 78.7052 10.856 78.0877 10.856 78.0877L3.55066 68.9986L3.57536 68.7873Z" fill="#34469C"/>
<path id="Vector_86" d="M3.57534 68.7872C3.57534 68.7872 3.57534 68.8037 3.57534 68.8394C3.57534 68.8751 3.57535 68.9327 3.56162 68.9986C4.19282 69.7423 7.06062 73.2769 10.9109 78.0548L10.8752 78.0328C11.375 78.1552 11.8818 78.2469 12.3928 78.3072C12.656 78.3404 12.9207 78.3596 13.1859 78.3649C13.4524 78.3769 13.7194 78.3585 13.9818 78.31C14.0471 78.299 14.1113 78.2825 14.1739 78.2606C14.2359 78.244 14.2958 78.22 14.3522 78.1892C14.4578 78.113 14.5504 78.0204 14.6267 77.9148C14.7919 77.6928 14.9327 77.4536 15.0465 77.2013C15.2797 76.6815 15.4787 76.1471 15.6421 75.6014C15.8287 74.9949 15.9878 74.3856 16.136 73.7846C16.1745 73.6337 16.2101 73.4855 16.2486 73.3346L16.3034 73.1123L16.3336 72.9998C16.3344 72.9915 16.3344 72.9833 16.3336 72.9751V72.9915C16.3294 72.9857 16.3237 72.9809 16.3172 72.9778C16.1913 72.9084 16.0565 72.8567 15.9165 72.8241C15.7738 72.783 15.6283 72.7445 15.4829 72.7089C14.9011 72.5607 14.3275 72.4344 13.7704 72.2533C13.2177 72.1053 12.6904 71.8749 12.2062 71.57C11.7853 71.2181 11.4447 70.7802 11.2073 70.2856C10.9575 69.8219 10.7435 69.3608 10.5239 68.9135C10.3284 68.4866 10.0892 68.081 9.81041 67.7032C9.68245 67.5321 9.51091 67.3985 9.31369 67.3163C9.11145 67.2747 8.90366 67.2672 8.69897 67.2943C8.30698 67.3384 7.91828 67.4081 7.53538 67.5029C7.17038 67.5852 6.82735 67.6785 6.50901 67.7773C5.87233 67.9557 5.32621 68.1286 4.88164 68.2686L3.86349 68.6034C3.77361 68.6251 3.68691 68.6583 3.60553 68.7022C3.56436 68.7461 3.56711 68.7845 3.56162 68.7818C3.56061 68.765 3.56327 68.7482 3.56943 68.7325C3.57559 68.7169 3.5851 68.7028 3.59729 68.6912C3.67616 68.6403 3.76219 68.6015 3.85252 68.5759C4.08304 68.4909 4.42334 68.3674 4.86517 68.2164C5.307 68.0655 5.85037 67.8871 6.48705 67.7005C6.80539 67.6099 7.14569 67.5111 7.51342 67.4261C7.89938 67.3264 8.29187 67.2539 8.68799 67.2093C8.907 67.1777 9.12982 67.1842 9.34662 67.2285C9.56478 67.3152 9.75473 67.4605 9.89548 67.6484C10.1816 68.0303 10.428 68.4404 10.631 68.8723C10.8532 69.3114 11.0673 69.7725 11.3198 70.2253C11.5487 70.7019 11.8761 71.1247 12.2803 71.4657C12.7555 71.7601 13.2715 71.983 13.8116 72.1271C14.3605 72.2945 14.934 72.4289 15.5186 72.5744C15.664 72.6128 15.8095 72.6485 15.9577 72.6924C16.1136 72.729 16.2634 72.7882 16.4022 72.868C16.429 72.8841 16.4501 72.9081 16.4626 72.9366C16.4696 72.9599 16.4696 72.9847 16.4626 73.008C16.462 73.018 16.462 73.0281 16.4626 73.0382L16.4324 73.1507L16.3775 73.373C16.3419 73.5212 16.3034 73.6721 16.2678 73.823C16.1168 74.4241 15.9577 75.0333 15.7683 75.6453C15.6042 76.1977 15.4034 76.7386 15.1673 77.2644C15.0476 77.5257 14.9014 77.774 14.7309 78.0054C14.6393 78.1206 14.53 78.2207 14.4071 78.3018C14.3422 78.3382 14.2731 78.3668 14.2013 78.3868C14.1332 78.4096 14.0635 78.4271 13.9927 78.439C13.7213 78.489 13.4452 78.5083 13.1694 78.4966C12.9005 78.4904 12.6322 78.4703 12.3654 78.4362C11.8488 78.37 11.3366 78.2738 10.8313 78.1481H10.8093L10.7956 78.1316C6.95358 73.3455 4.12421 69.7862 3.53418 69.0068C3.53418 68.9409 3.55064 68.8888 3.55613 68.8476C3.56162 68.8065 3.5726 68.7872 3.57534 68.7872Z" fill="#263238"/>
<path id="Vector_87" d="M3.55334 68.9986C3.60013 68.9751 3.65003 68.9585 3.70153 68.9492L4.13239 68.8312C4.50836 68.7324 5.05173 68.5814 5.7186 68.3866L8.06498 67.7087C8.29838 67.6364 8.5427 67.6057 8.78673 67.6182C9.05207 67.6438 9.29662 67.7729 9.46732 67.9777C9.62733 68.182 9.7636 68.4039 9.87348 68.6391C9.99149 68.8723 10.104 69.1083 10.2193 69.3471C10.4274 69.8193 10.6657 70.2776 10.9328 70.7192C11.182 71.1224 11.5007 71.4783 11.8741 71.7703C12.5372 72.2278 13.2828 72.5521 14.0695 72.7253C14.7419 72.8927 15.2935 72.9998 15.6695 73.1205C15.8561 73.1726 15.9988 73.2193 16.0976 73.255C16.1477 73.2685 16.1957 73.2888 16.2403 73.3154C16.1889 73.3099 16.1383 73.2988 16.0893 73.2824L15.6557 73.1754C15.277 73.0821 14.7254 72.9805 14.0448 72.8214C13.235 72.6629 12.4657 72.3417 11.7835 71.8773C11.3979 71.572 11.0698 71.2002 10.8148 70.7796C10.5447 70.3379 10.3027 69.8796 10.0903 69.4075C9.97502 69.166 9.86524 68.9299 9.74724 68.7022C9.64307 68.4758 9.51324 68.2622 9.36029 68.0655C9.21325 67.8876 9.00247 67.7744 8.77301 67.7499C8.54584 67.7388 8.31844 67.7667 8.10066 67.8322L5.74604 68.4799C5.07369 68.6638 4.52757 68.7982 4.14611 68.8833C3.95675 68.9245 3.80856 68.9574 3.70703 68.9739C3.65709 68.9888 3.60543 68.9971 3.55334 68.9986Z" fill="#263238"/>
<g id="Group_10" opacity="0.2">
<path id="Vector_88" d="M30.0909 61.449C30.0909 61.449 30.4284 60.3842 32.1299 60.3156L32.6595 60.0027L37.7557 59.9314L35.5328 62.2777L33.181 63.5456L35.4313 69.273L29.3307 64.1384L30.0909 61.449Z" fill="black"/>
</g>
<g id="Group_11" opacity="0.2">
<path id="Vector_89" d="M25.7658 58.2793C25.7494 58.444 25.6478 61.1855 26.2543 61.6987C26.6502 62.0636 26.9355 62.5324 27.0776 63.0516C27.0776 63.0516 24.0589 61.0154 24.3827 59.9039C24.6148 59.2031 25.111 58.6203 25.7658 58.2793Z" fill="black"/>
</g>
<g id="Group_12" opacity="0.2">
<path id="Vector_90" d="M14.6074 68.2439L16.3089 65.2252C16.5438 64.8054 16.9277 64.4891 17.3847 64.3387C18.2546 64.0479 19.6322 63.5292 19.6487 63.145C19.6734 62.5824 18.0652 59.9204 18.0652 59.9204L19.2672 60.5132C19.2672 60.5132 19.7201 60.5269 20.9715 62.0939C21.3412 62.5314 21.5648 63.0735 21.6109 63.6444C19.177 65.0205 16.8373 66.5571 14.6074 68.2439Z" fill="black"/>
</g>
<g id="Group_13" opacity="0.2">
<path id="Vector_91" d="M9.03373 65.6752C9.03373 65.6752 9.26425 66.3393 9.15997 66.3997C9.05503 66.4744 8.95595 66.5569 8.86358 66.6467L11.3774 66.7482L8.94317 67.2148L8.32295 66.4464L8.19397 65.7081L9.03373 65.6752Z" fill="black"/>
</g>
<path id="Vector_92" d="M8.95692 61.062C8.95692 61.062 9.84882 60.8699 10.0327 61.0236C10.2018 61.1863 10.3143 61.3988 10.3538 61.6301C10.3785 61.7865 10.9575 64.5391 10.8423 64.7202C10.7224 64.8484 10.5647 64.9349 10.3922 64.9672L10.3483 65.7081L8.7017 65.6642C8.7017 65.6642 7.96898 65.0221 7.96074 64.7751C7.95251 64.5281 8.95692 61.062 8.95692 61.062Z" fill="#263238"/>
<path id="Vector_93" d="M7.58753 65.5847C7.58753 65.5847 8.58097 62.3573 8.5892 62.3244C8.59743 62.2915 8.46845 61.5999 8.46845 61.5999L6.49255 64.1988L6.5145 64.7476L6.98653 65.6862L7.58753 65.5847Z" fill="#34469C"/>
<g id="Group_14" opacity="0.3">
<path id="Vector_94" d="M7.58753 65.5847C7.58753 65.5847 8.58097 62.3573 8.5892 62.3244C8.59743 62.2915 8.46845 61.5999 8.46845 61.5999L6.49255 64.1988L6.5145 64.7476L6.98653 65.6862L7.58753 65.5847Z" fill="black"/>
</g>
<path id="Vector_95" d="M8.21868 61.5423C8.21868 61.5423 6.3745 63.9271 6.33334 64.3003C6.3004 64.5885 6.63247 65.6505 6.78066 66.1088C6.80161 66.1718 6.84113 66.227 6.89402 66.2672C6.94692 66.3073 7.01072 66.3306 7.07705 66.3338L8.63581 66.3997C8.67197 66.4011 8.70791 66.3935 8.74043 66.3777C8.77296 66.3618 8.80106 66.3382 8.82225 66.3089C8.84343 66.2795 8.85704 66.2454 8.86186 66.2095C8.86668 66.1737 8.86256 66.1372 8.84987 66.1033L8.30101 64.668L8.14733 64.6022C8.14733 64.6022 6.9316 64.679 6.77517 64.6571C6.71108 64.6271 6.66103 64.5736 6.63546 64.5076C6.6099 64.4416 6.61079 64.3684 6.63796 64.303C6.72852 64.1603 8.45744 61.5999 8.45744 61.5999L8.21868 61.5423Z" fill="#34469C"/>
<path id="Vector_96" d="M8.21867 61.5423C8.30395 61.5479 8.38849 61.5617 8.47114 61.5834H8.49584V61.6054C8.33118 61.8798 7.98266 62.4095 7.5024 63.1395C7.37891 63.3233 7.25267 63.5182 7.11546 63.7212L6.90689 64.0368L6.79986 64.2015L6.74223 64.2838C6.72476 64.3062 6.71086 64.3312 6.70106 64.3579C6.66813 64.4348 6.76144 64.6022 6.83554 64.5912C6.97001 64.5912 7.10997 64.5912 7.2609 64.5912L8.16378 64.5391H8.18025H8.19671L8.35039 64.6049H8.37509V64.6351C8.47663 64.9095 8.58366 65.184 8.69343 65.4584C8.74557 65.6011 8.80046 65.7465 8.85535 65.892L8.89926 66.0018L8.91847 66.0567C8.92775 66.0815 8.93419 66.1072 8.93768 66.1335C8.94229 66.1868 8.9325 66.2404 8.90933 66.2887C8.88616 66.337 8.85046 66.3782 8.80595 66.4079C8.73804 66.4475 8.65873 66.463 8.58091 66.4518H8.3943L8.02382 66.4354L7.29933 66.4052H7.12095C7.05282 66.4066 6.98526 66.3925 6.92336 66.364C6.85997 66.333 6.80598 66.2856 6.76693 66.2268C6.74759 66.1977 6.73191 66.1664 6.72027 66.1335L6.69283 66.0512C6.62422 65.8316 6.55836 65.6176 6.49799 65.4063C6.43761 65.1949 6.38273 64.9891 6.33882 64.7833C6.31498 64.6819 6.29666 64.5793 6.28393 64.4759C6.27694 64.4231 6.27694 64.3696 6.28393 64.3168C6.2903 64.2606 6.30608 64.2058 6.33059 64.1548C6.50382 63.8346 6.7001 63.5273 6.91787 63.2355C7.30207 62.6866 7.63138 62.2723 7.85916 61.9814L8.13359 61.6493C8.19397 61.5779 8.23239 61.5368 8.23514 61.5423C8.21296 61.5869 8.18629 61.6292 8.15555 61.6685L7.90856 62.0143C7.69451 62.3162 7.37891 62.7498 7.00568 63.2931C6.80236 63.5841 6.61899 63.8885 6.45682 64.2042C6.43746 64.2419 6.42536 64.2829 6.42115 64.325C6.41733 64.3707 6.41733 64.4166 6.42115 64.4622C6.43437 64.561 6.45269 64.659 6.47604 64.7558C6.52269 64.9562 6.58032 65.1593 6.6407 65.3706C6.70107 65.5819 6.76967 65.7905 6.84102 66.01C6.85257 66.059 6.87106 66.1062 6.89591 66.15C6.92239 66.1885 6.95829 66.2197 7.0002 66.2405C7.10502 66.2673 7.21321 66.2784 7.32128 66.2734L8.04578 66.3036L8.41625 66.3174C8.537 66.3174 8.69069 66.3503 8.74557 66.3036C8.76772 66.2887 8.7855 66.2681 8.79707 66.2439C8.80864 66.2198 8.8136 66.1931 8.81144 66.1664V66.128L8.78948 66.0731L8.74832 65.9633L8.58366 65.5297L8.27081 64.6927L8.30648 64.7339L8.15555 64.6653H8.18573L7.28012 64.7119C7.13192 64.7119 6.99196 64.7119 6.84377 64.7119C6.81919 64.7153 6.79426 64.7153 6.76967 64.7119C6.74827 64.7002 6.72806 64.6864 6.7093 64.6708C6.67827 64.6424 6.65228 64.609 6.63245 64.572C6.61003 64.5354 6.59531 64.4946 6.58917 64.4522C6.58304 64.4097 6.58563 64.3664 6.59679 64.325C6.61175 64.2889 6.6311 64.2548 6.65441 64.2235L6.71204 64.1411L6.82181 63.9792L7.03587 63.6664L7.43105 63.0901C7.92777 62.3683 8.29551 61.8441 8.47938 61.5917V61.6191C8.39081 61.5995 8.30371 61.5738 8.21867 61.5423Z" fill="#263238"/>
<path id="Vector_97" d="M9.92296 61.6273C9.92296 61.6273 10.0327 64.5582 9.73085 64.6131C9.42898 64.668 7.6836 64.443 7.70007 64.207C7.71653 63.971 8.44103 61.6301 8.65509 61.4627C8.76761 61.3858 9.92296 61.6273 9.92296 61.6273Z" fill="#FAFAFA"/>
<path id="Vector_98" d="M14.4428 73.1013C14.3156 73.4016 14.1651 73.6916 13.9927 73.9685L13.4685 74.8961C13.3643 75.069 13.2764 75.2473 13.142 75.4449C13.0011 75.6333 12.8112 75.7795 12.5931 75.8676C12.3734 75.946 12.1397 75.9777 11.907 75.9609H11.2841H10.2248C9.89842 75.9688 9.57191 75.9532 9.2478 75.9142C9.57174 75.8727 9.89823 75.8543 10.2248 75.8593L11.2813 75.8374H11.907C12.1219 75.8523 12.3376 75.8234 12.541 75.7523C12.7386 75.6748 12.9113 75.5448 13.0404 75.3763C13.1557 75.2117 13.26 75.0168 13.3643 74.8522L13.9131 73.9465C14.0697 73.6527 14.2466 73.3703 14.4428 73.1013Z" fill="#263238"/>
<path id="Vector_99" opacity="0.2" d="M37.4977 53.4987L36.9077 54.547L39.18 53.4356L39.1526 55.074L40.6592 53.3176L44.1417 50.9438L47.723 49.5881H46.1643L49.9295 47.2801L44.5094 49.7692L37.4977 53.4987Z" fill="black"/>
</g>
</g>
</svg>
