<svg width="89" height="100" viewBox="0 0 89 100" fill="none" xmlns="http://www.w3.org/2000/svg">
<g id="Group 282">
<path id="Vector" d="M66.0699 51.38C67.0699 50.91 70.6499 51.08 71.8099 50.03C72.8799 49.05 74.3399 46.37 74.3399 46.37L76.0499 48.13C76.0499 48.13 74.1699 51.48 73.2799 52.08C72.5899 52.55 68.4999 55.67 67.6899 55.15C66.8799 54.63 66.0699 51.38 66.0699 51.38Z" fill="#BFB8B8"/>
<path id="Vector_2" d="M74.17 46.71C74.11 46.51 74.65 45.76 74.52 45.46C74.21 44.75 74.55 44.14 74.43 43.78C74.32 43.41 74.47 42.24 74.8 42.64C75.09 43 75.04 43.59 75.18 43.38C75.32 43.17 75.71 42.51 75.85 42.5C75.98 42.49 77.21 44.08 77.2 44.36C77.19 44.63 76.83 46.02 76.61 46.29C76.39 46.56 76.42 47.52 76.35 47.81C76.26 48.1 74.22 46.87 74.17 46.71Z" fill="#C14E00"/>
<g id="Group">
<path id="Vector_3" d="M78.91 45.67C78.9 45.51 78.85 45.27 78.63 44.88C78.31 44.31 77.89 44.42 77.62 44.42C77.35 44.42 77.15 44.41 76.99 44.3C76.83 44.18 72.66 39.85 72.47 39.67C72.28 39.5 72.19 39.29 72.11 38.52C72.04 37.75 71.55 37.67 71.26 37.59C70.94 37.51 70.57 37.5 70.3 37.59C70.19 37.63 70.06 37.72 70.06 37.72C70.06 37.72 70.57 37.9 70.8 38.1C71.12 38.37 71.12 38.75 70.75 39.13C70.33 39.54 69.99 39.44 69.71 39.13C69.5 38.91 69.33 38.45 69.33 38.45L69.23 38.57C69.1 38.73 69.09 39.18 69.22 39.69C69.3 39.99 69.42 40.5 70.19 40.54C70.96 40.58 71.18 40.67 71.36 40.85C71.54 41.04 76.05 45 76.17 45.15C76.29 45.31 76.3 45.53 76.32 45.81C76.34 46.09 76.28 46.44 76.87 46.72C77.4 46.98 77.8 47 77.91 46.96C77.96 46.95 78 46.93 78.02 46.9C78.11 46.81 77.48 46.79 77.25 46.29C77.22 46.22 77.47 45.46 78.19 45.33C78.27 45.32 78.9 45.94 78.91 45.88C78.92 45.85 78.93 45.78 78.91 45.67Z" fill="#758B9B"/>
<g id="Group_2">
<g id="Group_3">
<g id="Group_4">
<path id="Vector_4" d="M69.7 39.12C69.49 38.9 69.32 38.44 69.32 38.44L69.22 38.56C69.09 38.72 69.08 39.17 69.21 39.68C69.29 39.98 69.41 40.49 70.18 40.53C70.95 40.57 71.17 40.66 71.35 40.84C71.53 41.03 76.04 44.99 76.16 45.14C76.28 45.3 76.29 45.52 76.31 45.8C76.33 46.08 76.27 46.43 76.86 46.71C77.39 46.97 77.79 46.99 77.9 46.95C77.95 46.94 77.99 46.92 78.01 46.89C78.1 46.8 77.47 46.78 77.24 46.28C77.22 46.23 77.32 45.89 77.6 45.62L70.8 39.02C70.78 39.05 70.75 39.08 70.73 39.11C70.32 39.53 69.98 39.43 69.7 39.12Z" fill="#414E5B"/>
</g>
</g>
</g>
</g>
<g id="Group_5">
<g id="Group_6">
<path id="Vector_5" d="M50.02 12.22H45.98V89.03H50.02V12.22Z" fill="#758B9B"/>
<path id="Vector_6" d="M51.14 88.25L49.84 89.03V12.22L51.14 12.99V88.25Z" fill="#414E5B"/>
</g>
<path id="Vector_7" d="M53.88 14.95C53.88 15.31 53.64 15.61 53.34 15.61H51.9C51.6 15.61 51.36 15.32 51.36 14.95V10.99C51.36 10.63 51.6 10.33 51.9 10.33H53.34C53.64 10.33 53.88 10.63 53.88 10.99V14.95Z" fill="#758B9B"/>
<path id="Vector_8" d="M54.21 12.63C54.21 12.99 53.96 13.29 53.65 13.29H46.03C45.72 13.29 45.46 12.99 45.46 12.63V9.55001C45.46 9.19001 45.71 8.89001 46.03 8.89001H53.65C53.96 8.89001 54.21 9.19001 54.21 9.55001V12.63Z" fill="#414E5B"/>
</g>
<path id="Vector_9" d="M58.71 40.9H15.66V43.56H58.71V40.9Z" fill="#758B9B"/>
<g id="Group_7">
<g id="Group_8">
<path id="Vector_10" d="M64.0599 47.78C64.3699 48.32 64.8699 48.92 64.8599 49.86C64.8499 50.81 64.8499 50.81 64.8499 50.81L67.9499 50.1C67.9499 50.1 67.2299 48.89 67.3699 48.2C67.5199 47.5 64.0599 47.78 64.0599 47.78Z" fill="#DDAC9E"/>
<path id="Vector_11" d="M65.7999 42.2C64.2699 41.37 60.5799 43.15 61.8299 45.5C64.0999 49.77 66.8899 48.51 66.8899 48.51C67.6899 47.9 67.9599 47.84 68.3699 47.17C68.5699 46.84 68.4599 46.3 68.2299 45.62C68.4399 45.38 68.7299 45.16 68.5599 44.99C68.2499 44.84 67.8599 44.42 67.6699 44.28C67.1499 43.34 66.5299 42.59 65.7999 42.2Z" fill="#DDAC9E"/>
<g id="Group_9">
<path id="Vector_12" d="M67.59 48.02C68.11 47.69 68.22 47.61 68.39 47.2C68.54 46.85 68.48 46.33 68.24 45.66C68.45 45.42 68.74 45.19 68.58 45.03C68.27 44.88 67.88 44.46 67.69 44.33C67.17 43.38 66.93 42.53 66.2 42.15C66.12 42.11 65.66 42.17 65.57 42.14L64.51 43.32C65.27 45.91 66.12 47.68 67.16 48.05L67 50.4L68.61 50.93C68.61 50.94 67.75 48.69 67.59 48.02Z" fill="#E8C8BA"/>
</g>
<path id="Vector_13" d="M61.28 44.19C61.3 43.61 61.39 42.92 62.48 42.28C63.53 41.65 64.31 41.38 65.43 41.68C66 41.83 66.05 42.4 66.05 42.4C66.05 42.4 65.18 42.45 64.97 42.67C64.76 42.89 65.41 43.02 65.36 43.69C65.32 44.25 65.27 45.03 65.27 45.03C65.27 45.03 64.44 46.07 64.63 46.43C64.82 46.79 64.27 48.26 64.27 48.26C64.27 48.26 63.23 48.07 62.2 46.99C60.68 45.37 61.28 44.33 61.28 44.19Z" fill="#300901"/>
<path id="Vector_14" d="M65.06 45.55C64.79 45.54 64.18 45.36 64.14 45.71C64.11 46.06 64.66 46.83 65.27 46.8C65.87 46.76 65.06 45.55 65.06 45.55Z" fill="#DDAC9E"/>
</g>
<g id="Group_10">
<g id="Group_11">
<path id="Vector_15" d="M66.8 42.44C66.5 42.82 63.8 45.46 63.8 45.46C63.8 45.46 64.06 47.27 63.65 47.95C63.24 48.62 62.02 50.11 61.93 49.5C61.98 48.61 61.99 47.44 61.99 47.44C61.99 47.44 60.62 46.3 60.66 45.04C60.68 44.26 61.28 43.27 61.66 42.86C62.33 42.14 63.29 41.35 64.41 41.45C65.78 41.57 66.8 42.44 66.8 42.44Z" fill="#34469C"/>
</g>
<g id="Group_12">
<path id="Vector_16" d="M64.62 41.33C65.98 41.46 66.83 42.42 66.83 42.42C66.58 42.74 64.93 44.4 64.41 44.86C63.7 44.04 62.44 43.06 61.52 43.04C61.55 43 61.61 42.9 61.64 42.87C62 42.46 63.26 41.2 64.62 41.33Z" fill="#506CB3"/>
</g>
</g>
</g>
<g id="Group_13">
<path id="Vector_17" d="M71.64 64.07C71.88 68.93 70.84 71.73 69.83 78.4C69.47 80.76 66.21 92.45 66.21 92.45L62.85 92.22C62.85 92.22 62.72 86.46 64.77 77.37C64.91 76.73 64.87 72.85 64.53 68.41C64.33 65.78 65.47 62.97 65.47 62.97L71.64 64.07Z" fill="#506CB3"/>
</g>
<path id="Vector_18" d="M71.62 65.67C72.5 61.59 71.56 54.82 71.13 54.13C70.57 54.93 69.25 54.62 69.25 54.62C69.41 56.39 67.62 58.89 65.16 55.8C66.29 63.5 66.41 63.5 66.17 66.74C65.97 69.47 71.62 65.67 71.62 65.67Z" fill="#506CB3"/>
<path id="Vector_19" d="M75.83 42.5C76.11 42.34 76.36 42.55 76.29 42.83C76.54 42.78 76.77 43.06 76.66 43.3C76.87 43.23 77.21 43.55 77.14 43.78C77.32 43.89 77.35 44.25 77.25 44.45C77.11 44.73 76.75 45.14 76.51 45.1C76.26 45.06 76.75 44.32 76.75 44.32C76.75 44.32 76.47 44.87 76.2 44.88C76.2 44.88 75.94 44.95 76.01 44.74C76.08 44.52 76.36 43.82 76.36 43.82C76.36 43.82 75.87 44.63 75.77 44.6C75.59 44.53 75.43 44.49 76.02 43.36C75.63 44.06 75.5 44.19 75.3 44.1C75.11 44.01 75.83 42.5 75.83 42.5Z" fill="#E26713"/>
<path id="Vector_20" d="M72.39 49.35L64.39 68.49C64.39 68.49 64.78 64.33 65.48 62.99C64.33 59.21 63.48 55.71 63.48 55.09C63.48 54.63 64.97 51.83 64.97 51.83L72.39 49.35Z" fill="url(#paint0_linear_1_480)"/>
<g id="Group_14">
<path id="Vector_21" d="M66.03 53.66C66.03 53.66 67.13 53.9 67.92 53.5C69.07 52.92 71.24 51.36 71.93 50.15C72.88 48.5 73.17 47.9 73.74 44.5C73.81 44.06 71.69 42.94 71.69 42.94C71.69 42.94 69.94 47.68 69.56 48.1C69.18 48.52 65.65 50.71 65.2 51.35C64.68 52.12 64.75 53.37 66.03 53.66Z" fill="#D8D8D8"/>
<g id="Group_15">
<path id="Vector_22" d="M71.3 43.66C71.28 43.61 71.78 42.47 71.72 42.4C71.15 41.74 71.26 41.33 70.9 40.96C70.61 40.66 70.4699 39.97 71.2099 40.54C71.5599 40.81 71.6099 40.62 71.6099 40.62C71.6099 40.62 71.79 40.6 71.97 39.64C72.06 39.16 72.5099 38.64 72.5199 39.35C72.5699 38.85 73.0399 38.75 73.0599 39.36C73.1599 39 73.46 39.07 73.48 39.59C73.55 39.4 73.7 39.49 73.76 39.79C73.8 39.98 74.0299 40.24 73.8099 41.22C73.5999 42.21 73.76 44.19 73.76 44.19L71.3 43.66Z" fill="#E26713"/>
<g id="Group_16">
<path id="Vector_23" d="M73.87 41.23C74.03 40.39 73.88 39.86 73.86 39.67C73.81 39.37 73.57 39.38 73.5 39.57C73.48 39.17 73.24 38.98 73.11 39.25C73.33 40.37 72.82 42.87 72.48 43.92L73.76 44.19C73.76 44.17 73.68 42.22 73.87 41.23Z" fill="#C14E00"/>
</g>
</g>
</g>
<path id="Vector_24" d="M65.1883 49.8965C64.8834 50.7198 63.5316 52.2749 63.7146 54.5414C63.8467 56.1778 64.8529 60.3349 65.6152 62.3778C66.0218 63.4654 66.1742 63.4349 66.1742 63.4349L71.9169 64.1057C71.9169 64.1057 72.4047 57.5906 71.3883 54.7244C70.6159 52.5493 69.071 50.4556 68.5628 50.547C68.0647 50.6385 65.1883 49.8965 65.1883 49.8965Z" fill="#D8D8D8"/>
<path id="Vector_25" d="M66.3268 89.2512C66.5504 89.9626 66.3369 90.7148 66.2048 91.66C66.0727 92.6053 65.8186 93.3167 66.7638 93.5708C67.7091 93.8249 71.2563 93.9774 71.2563 93.9774C71.2563 93.9774 73.1671 93.6216 71.2258 92.6866C69.7215 91.9649 68.6136 91.0908 68.8068 89.2918C68.8576 88.9361 66.3268 89.2512 66.3268 89.2512Z" fill="black"/>
<path id="Vector_26" d="M72.1913 65.0408C72.11 68.5473 71.4697 77.1765 71.4087 77.6847C70.8395 82.3906 69.7825 91.5279 69.7825 91.5279H66.7943C66.7943 91.5279 66.2556 80.6932 67.3025 77.3289C67.6176 76.3024 66.1031 67.8257 66.1031 67.8257L72.1913 65.0408Z" fill="#34469C"/>
<path id="Vector_27" d="M63.6435 91.2332C63.4809 92.0056 62.9422 93.022 63.0845 94.1299C63.1353 94.5161 63.8061 94.7397 64.3448 94.9328C64.5684 95.0141 65.3205 95.6341 65.7169 95.8374C67.1602 96.5489 67.9123 96.2135 68.2172 96.0712C68.512 95.9289 68.6441 95.5223 68.0445 94.821C67.5261 94.2213 66.7333 93.8351 66.5605 93.3066C66.3877 92.7781 66.6723 91.1925 66.6723 91.1925L63.6435 91.2332Z" fill="#232121"/>
<path id="Vector_28" d="M65.3613 56.7775C65.5442 57.5093 65.595 56.249 65.5747 56.188C65.0563 54.826 64.6803 51.665 65.8694 51.2788C67.1399 50.8723 69.7724 53.1896 69.8537 56.188C70.1383 56.5945 70.677 55.8221 70.677 55.8221C70.677 55.8221 69.7521 51.3601 66.896 50.8723C64.6396 50.486 63.8468 53.3014 64.7819 57.2755L65.3613 56.7775Z" fill="#34469C"/>
<path id="Vector_29" d="M65.7678 63.5162C65.1579 61.209 64.0806 56.9706 64.0806 56.9706C64.0806 56.9706 64.8734 57.7532 65.4527 55.8729C66.3878 57.6414 67.9937 57.4991 67.9937 57.4991C67.9937 57.4991 69.3556 61.4326 68.5425 63.75C68.3494 64.2988 65.7678 63.5162 65.7678 63.5162Z" fill="#34469C"/>
<g id="Group_17">
<g id="Group_18">
<path id="Vector_30" d="M14.4064 15.1077C14.4064 15.1077 8.58134 15.0655 8.694 15.3565C8.81134 15.6475 10.5434 16.9852 11.2193 17.1026C11.8952 17.2199 12.5852 17.1026 12.5852 17.1026L14.4064 15.1077Z" fill="#BFD2E1"/>
<path id="Vector_31" d="M14.4064 15.1077C14.4064 15.1077 8.58134 15.0655 8.694 15.3565C8.81134 15.6475 10.5434 16.9852 11.2193 17.1026C11.8952 17.2199 12.5852 17.1026 12.5852 17.1026L14.4064 15.1077Z" fill="url(#paint1_linear_1_480)"/>
</g>
<path id="Vector_32" d="M83.7302 27.4901C82.9979 27.2367 74.5865 25.1338 73.981 24.9977C71.85 24.533 70.822 22.9418 70.822 22.9418C70.822 22.9418 68.6581 22.4254 68.1841 22.2048C64.1098 20.3367 54.722 14.6665 48.5355 13.0893C40.3212 10.9959 12.7635 15.0561 12.7635 15.0561L6.38456 22.0405L1.98171 31.0434L0.84579 33.212C0.84579 33.212 0.26375 36.2348 2.66701 38.6381C3.25844 39.2295 4.77456 39.666 6.71313 39.9899C8.01802 39.9899 20.5366 40.8864 22.2217 40.8864C22.4094 40.8864 22.5174 40.8864 22.5174 40.8864H63.6732C63.6732 40.8864 63.8939 40.8911 64.2881 40.8958C65.6212 40.8958 79.0457 40.816 80.2285 40.816C84.7253 40.6799 88.485 40.4077 88.8652 39.8773C88.8652 39.8773 88.8652 34.1413 88.8652 33.442C88.8652 32.752 85.9644 28.2693 83.7302 27.4901Z" fill="#46676C"/>
<path id="Vector_33" d="M83.7302 27.4901C82.9979 27.2367 74.5865 25.1338 73.981 24.9977C71.85 24.533 70.822 22.9418 70.822 22.9418C70.822 22.9418 68.6581 22.4254 68.1841 22.2048C64.1098 20.3367 54.722 14.6665 48.5355 13.0893C40.3212 10.9959 12.7635 15.0561 12.7635 15.0561L6.38456 22.0405L1.98171 31.0434L0.84579 33.212C0.84579 33.212 0.26375 36.2348 2.66701 38.6381C3.25844 39.2295 4.77456 39.666 6.71313 39.9899C6.60517 39.4736 6.54415 38.9338 6.54415 38.3846C6.54415 34.0803 10.0317 30.5928 14.336 30.5928C18.6403 30.5928 22.1278 34.0803 22.1278 38.3846C22.1278 38.8822 22.2123 39.9711 22.2217 40.8864C22.4094 40.8864 22.5174 40.8864 22.5174 40.8864H63.6732C63.6732 40.8864 63.8939 40.8911 64.2881 40.8958C64.2553 39.8491 64.2553 38.8211 64.2553 38.3846C64.2553 34.0803 68.0385 30.3158 72.3428 30.3158C76.6471 30.3158 80.1346 33.8034 80.1346 38.1077C80.1346 38.6428 80.2332 39.8679 80.2285 40.8207C84.7253 40.6846 88.485 40.4124 88.8652 39.8819C88.8652 39.8819 88.8652 34.146 88.8652 33.4467C88.8652 32.752 85.9644 28.2693 83.7302 27.4901Z" fill="#BFD2E1"/>
<path id="Vector_34" d="M83.7302 27.4901C82.9979 27.2367 74.5865 25.1338 73.981 24.9977C71.85 24.533 70.822 22.9418 70.822 22.9418C70.822 22.9418 68.6581 22.4254 68.1841 22.2048C64.1098 20.3367 54.722 14.6665 48.5355 13.0893C40.3212 10.9959 12.7635 15.0561 12.7635 15.0561L6.38456 22.0405L1.98171 31.0434L0.84579 33.212C0.84579 33.212 0.26375 36.2348 2.66701 38.6381C3.25844 39.2295 4.77456 39.666 6.71313 39.9899C6.60517 39.4736 6.54415 38.9338 6.54415 38.3846C6.54415 34.0803 10.0317 30.5928 14.336 30.5928C18.6403 30.5928 22.1278 34.0803 22.1278 38.3846C22.1278 38.8822 22.2123 39.9711 22.2217 40.8864C22.4094 40.8864 22.5174 40.8864 22.5174 40.8864H63.6732C63.6732 40.8864 63.8939 40.8911 64.2881 40.8958C64.2553 39.8491 64.2553 38.8211 64.2553 38.3846C64.2553 34.0803 68.0385 30.3158 72.3428 30.3158C76.6471 30.3158 80.1346 33.8034 80.1346 38.1077C80.1346 38.6428 80.2332 39.8679 80.2285 40.8207C84.7253 40.6846 88.485 40.4124 88.8652 39.8819C88.8652 39.8819 88.8652 34.146 88.8652 33.4467C88.8652 32.752 85.9644 28.2693 83.7302 27.4901Z" fill="url(#paint2_linear_1_480)"/>
<path id="Vector_35" d="M88.8652 36.2113H86.4901C86.4901 36.2113 84.8895 38.1311 84.9224 38.4503C84.9505 38.7695 88.8652 38.5395 88.8652 38.5395V36.2113Z" fill="url(#paint3_linear_1_480)"/>
<path id="Vector_36" d="M70.7141 22.9418C70.7141 22.9418 84.9271 26.7626 86.0631 27.6028C87.1943 28.443 87.4712 29.485 87.3492 29.485C87.2271 29.485 74.1125 25.7205 72.6902 24.9554C70.9441 24.012 70.7141 22.9418 70.7141 22.9418Z" fill="#BFD2E1"/>
<g id="Group_19">
<path id="Vector_37" d="M67.7898 24.303C67.7898 24.303 58.1579 17.7175 50.9904 14.8918C46.7002 13.202 39.5374 13.4367 39.5374 13.4367L40.6404 23.3032L67.7898 24.303Z" fill="#375B60"/>
<path id="Vector_38" d="M39.5327 13.4367L23.2591 14.5914L19.4054 21.834L40.6405 23.3032L39.5327 13.4367Z" fill="#375B60"/>
<path id="Vector_39" d="M23.259 14.5914C23.259 14.5914 16.6923 15.3893 16.3402 15.9948C15.73 17.051 18.1333 21.8575 19.5415 21.8575L23.259 14.5914Z" fill="#375B60"/>
<path id="Vector_40" d="M22.4329 15.3095C22.4329 15.3095 17.2837 16.145 17.0866 16.5863C16.8848 17.0275 18.8327 20.7732 19.565 20.7732L22.4329 15.3095Z" fill="#46676C"/>
<g id="Group_20">
<path id="Vector_41" d="M64.4149 23.2609C64.4149 23.2609 56.332 17.7363 50.3192 15.3659C46.719 13.9483 40.7108 14.1454 40.7108 14.1454L41.6355 22.6273L64.4149 23.2609Z" fill="#46676C"/>
<path id="Vector_42" d="M64.4149 23.2609C64.4149 23.2609 56.332 17.7363 50.3192 15.3659C46.719 13.9483 40.7108 14.1454 40.7108 14.1454L53.6659 22.9605L64.4149 23.2609Z" fill="url(#paint4_linear_1_480)"/>
</g>
<g id="Group_21">
<path id="Vector_43" d="M38.7582 14.2769L23.8646 15.2063L20.8276 21.1487L39.5327 22.3644L38.7582 14.2769Z" fill="#46676C"/>
<path id="Vector_44" d="M38.7583 14.2769L23.8646 15.2063L36.7775 22.186L39.5328 22.3644L38.7583 14.2769Z" fill="url(#paint5_linear_1_480)"/>
</g>
</g>
<g id="Group_22">
<path id="Vector_45" d="M71.2158 32.5073C71.1344 32.3752 71.1649 32.2024 71.2971 32.1211C71.8459 31.7755 73.2079 31.1148 73.7872 30.7591C73.9194 30.6778 74.0921 30.7184 74.1734 30.8506C74.2548 30.9827 74.2141 31.1555 74.082 31.2368C73.4518 31.623 72.0797 32.2837 71.5918 32.5988C71.541 32.6293 71.4902 32.6394 71.4394 32.6394C71.358 32.6394 71.2666 32.5886 71.2158 32.5073Z" fill="#232121"/>
<path id="Vector_46" d="M71.2158 31.4909C71.1344 31.3588 71.1649 31.186 71.2971 31.1047C71.8459 30.7591 73.2079 30.0985 73.7872 29.7427C73.9194 29.6614 74.0921 29.7021 74.1734 29.8342C74.2548 29.9663 74.2141 30.1391 74.082 30.2204C73.4518 30.6066 72.0797 31.2673 71.5918 31.5824C71.541 31.6129 71.4902 31.623 71.4394 31.623C71.358 31.623 71.2666 31.5722 71.2158 31.4909Z" fill="#232121"/>
<path id="Vector_47" d="M71.2157 33.7778C71.1344 33.6457 71.175 33.4729 71.3072 33.3916C71.856 33.046 73.218 32.3853 73.8075 32.0296C73.9396 31.9483 74.1124 31.9889 74.1937 32.1211C74.275 32.2532 74.2344 32.426 74.1022 32.5073C73.4721 32.8935 72.1 33.5542 71.6121 33.8693C71.5613 33.8998 71.5104 33.9099 71.4596 33.9099C71.358 33.9099 71.2665 33.8591 71.2157 33.7778Z" fill="#232121"/>
<path id="Vector_48" d="M71.2157 35.0483C71.1344 34.9161 71.175 34.7434 71.3072 34.662C71.856 34.3165 73.218 33.666 73.7973 33.3001C73.9294 33.2188 74.1022 33.2594 74.1835 33.3916C74.2649 33.5237 74.2242 33.6965 74.0921 33.7778C73.4619 34.164 72.0898 34.8247 71.6019 35.1398C71.5511 35.1702 71.5003 35.1804 71.4495 35.1804C71.358 35.1804 71.2665 35.1296 71.2157 35.0483Z" fill="#232121"/>
<path id="Vector_49" d="M71.2157 36.3086C71.1344 36.1765 71.175 36.0037 71.3072 35.9224C71.856 35.5768 73.2078 34.9161 73.7973 34.5604C73.9294 34.4791 74.1022 34.5197 74.1835 34.6519C74.2649 34.784 74.2242 34.9568 74.0921 35.0381C73.4619 35.4243 72.0898 36.085 71.6019 36.4001C71.5511 36.4306 71.5003 36.4407 71.4495 36.4407C71.358 36.4407 71.2665 36.4001 71.2157 36.3086Z" fill="#232121"/>
</g>
<path id="Vector_50" d="M82.1671 40.7503C82.1671 40.7409 83.35 28.6777 72.3898 28.6777C61.3733 28.6777 62.4341 40.7034 62.4528 40.8864H63.5935L64.2881 40.8817C64.2553 39.8397 64.2553 38.8164 64.2553 38.3846C64.2553 34.0803 68.0385 30.3158 72.3428 30.3158C76.6471 30.3158 80.1347 33.8034 80.1347 38.1077C80.1347 38.6334 80.2285 39.8209 80.2285 40.7644L82.1577 40.7503C82.1577 40.7503 82.1624 40.7503 82.1671 40.7503Z" fill="url(#paint6_linear_1_480)"/>
<path id="Vector_51" d="M23.55 40.8911C23.55 40.8817 25.3384 28.1003 14.3782 28.1003C4.38964 28.1003 4.40372 39.3093 4.4225 39.4924L6.70841 39.9946C6.69903 39.7834 6.54882 39.1403 6.54882 38.7085C6.54882 34.4042 9.56698 30.6303 14.3266 30.6303C18.6308 30.6303 22.1184 34.1179 22.1184 38.4221C22.1184 38.9479 22.217 39.9477 22.217 40.8911C22.2217 40.8911 23.55 40.8911 23.55 40.8911Z" fill="url(#paint7_linear_1_480)"/>
<path id="Vector_52" d="M88.8652 33.4466C88.8652 33.1275 88.4052 32.3811 88.4052 32.3811L81.8057 31.0622L83.5565 32.8318C83.5518 32.8364 88.8652 33.7517 88.8652 33.4466Z" fill="url(#paint8_linear_1_480)"/>
<path id="Vector_53" d="M63.9642 27.3258L11.9374 22.6367L19.4053 21.8387L40.6357 23.3079L67.785 24.303L77.0226 26.0491C77.0226 26.0491 72.3099 25.8144 68.245 26.3589C67.1561 26.4997 63.9642 27.3258 63.9642 27.3258Z" fill="url(#paint9_linear_1_480)"/>
<g id="Group_23">
<path id="Vector_54" d="M40.6404 23.3032L40.7061 39.6472H61.8895L63.9642 27.3258V24.1622L40.6404 23.3032Z" fill="url(#paint10_linear_1_480)"/>
<path id="Vector_55" d="M40.6404 23.3032L40.7061 39.6472H61.8895L63.9642 27.3258V24.1622L40.6404 23.3032Z" fill="url(#paint11_linear_1_480)"/>
<path id="Vector_56" d="M61.8895 39.6471H40.7061L40.6404 23.3078L40.9877 23.3171L41.0534 39.2998H61.5938L63.7859 27.3257L63.2085 24.1714L63.5512 24.1057L64.1379 27.321L64.1332 27.3539L61.8895 39.6471Z" fill="#BFD2E1"/>
</g>
<g id="Group_24">
<path id="Vector_57" d="M19.4054 21.834L16.4294 28.2646C16.4294 28.2646 20.5882 28.5744 22.5643 33.0711C23.9631 36.2583 23.658 39.6472 23.658 39.6472H40.7061L40.6357 23.3032L19.4054 21.834Z" fill="url(#paint12_linear_1_480)"/>
<path id="Vector_58" d="M19.4054 21.834L16.4294 28.2646C16.4294 28.2646 20.5882 28.5744 22.5643 33.0711C23.9631 36.2583 23.658 39.6472 23.658 39.6472H40.7061L40.6357 23.3032L19.4054 21.834Z" fill="url(#paint13_linear_1_480)"/>
<path id="Vector_59" d="M40.706 39.6472H23.6625C23.6625 39.6472 24.1084 36.7652 22.4844 32.9209C20.6819 28.6495 16.434 28.2505 16.434 28.2505L19.5554 21.834L19.9356 21.8716L16.9268 28.0205C17.8703 28.1754 21.1982 29.0062 22.7191 32.6299C24.2117 36.1832 24.085 38.4926 24.0756 39.2999H40.7107V39.6472H40.706Z" fill="#BFD2E1"/>
</g>
<path id="Vector_60" d="M61.8896 39.6473H23.6627C23.6627 39.6473 23.7143 38.3658 23.5594 36.784C23.3857 34.9862 22.8976 33.9207 22.8976 33.9207L62.2698 37.413L61.8896 39.6473Z" fill="url(#paint14_linear_1_480)"/>
<path id="Vector_61" d="M9.57173 22.862C10.074 23.7585 9.55295 26.8189 6.42684 29.0297C3.85929 30.8462 0.845825 33.2166 0.845825 33.2166L1.98174 31.0481L9.57173 22.862Z" fill="#BFD2E1"/>
<g id="Group_25">
<path id="Vector_62" d="M77.8862 26.3542C77.9144 26.9926 81.0264 31.0058 81.984 31.1232C82.9415 31.2405 88.4052 32.3811 88.4052 32.3811C88.4052 32.3811 88.3817 28.7058 85.1289 28.0346C81.8807 27.3634 77.8862 26.3542 77.8862 26.3542Z" fill="#46676C"/>
<path id="Vector_63" d="M85.1242 31.5081L82.2046 30.5411L80.7261 28.6824H85.1242V31.5081Z" fill="#668186"/>
<path id="Vector_64" d="M85.1242 31.5081C85.399 31.5081 85.6218 30.8755 85.6218 30.0952C85.6218 29.3149 85.399 28.6824 85.1242 28.6824C84.8494 28.6824 84.6266 29.3149 84.6266 30.0952C84.6266 30.8755 84.8494 31.5081 85.1242 31.5081Z" fill="#D1C6C6"/>
<path id="Vector_65" d="M85.1289 28.0346C81.8807 27.3634 77.8862 26.3542 77.8862 26.3542C77.905 26.7344 78.9987 28.2881 80.0924 29.5226C82.1436 29.7056 85.157 30.0577 86.077 30.5787C87.5134 31.3907 88.4099 32.3811 88.4099 32.3811C88.4099 32.3811 88.3817 28.7058 85.1289 28.0346Z" fill="url(#paint15_linear_1_480)"/>
<path id="Vector_66" d="M85.9832 30.2501C85.9832 31.0293 86.2038 31.663 86.4807 31.663C86.7576 31.663 86.9783 31.0293 86.9783 30.2501C86.9783 29.471 86.753 28.8373 86.4807 28.8373C86.2085 28.8373 85.9832 29.471 85.9832 30.2501Z" fill="url(#paint16_linear_1_480)"/>
<path id="Vector_67" d="M85.1289 28.0346C81.8807 27.3634 77.8862 26.3542 77.8862 26.3542C77.905 26.7344 78.9987 28.2881 80.0924 29.5226C80.2989 28.0581 85.2697 28.8467 86.1897 29.3677C87.626 30.1797 88.4052 32.3811 88.4052 32.3811C88.4052 32.3811 88.3817 28.7058 85.1289 28.0346Z" fill="url(#paint17_linear_1_480)"/>
<path id="Vector_68" d="M79.4868 27.3259C79.5572 27.6591 84.0539 28.2036 85.3354 28.6824C86.6168 29.1612 87.2927 30.0671 87.3631 29.9028C87.4382 29.7385 86.6121 28.6542 85.3354 28.3022C84.0586 27.9501 79.4258 27.0442 79.4868 27.3259Z" fill="url(#paint18_linear_1_480)"/>
</g>
<g id="Group_26">
<path id="Vector_69" d="M1.76104 25.2089C1.54982 27.3024 1.65778 31.0199 2.06614 31.1232C2.47451 31.2265 9.56695 24.5612 9.56695 22.862C9.56695 22.5475 6.93838 22.172 4.12206 22.172C2.71859 22.172 1.93472 23.4816 1.76104 25.2089Z" fill="#BD0000"/>
<path id="Vector_70" d="M7.35618 25.5093H2.8219L3.52129 23.1389H9.33699L7.35618 25.5093Z" fill="url(#paint19_linear_1_480)"/>
<path id="Vector_71" d="M4.68537 28.3163H2.8219V25.9459H7.04638L4.68537 28.3163Z" fill="url(#paint20_linear_1_480)"/>
<path id="Vector_72" d="M8.85823 22.5616C8.41701 24.2983 3.33355 29.2269 1.80334 30.3628C1.86906 30.804 1.95824 31.095 2.0662 31.1232C2.47457 31.2265 9.567 24.5612 9.567 22.862C9.5717 22.7634 9.30884 22.6554 8.85823 22.5616Z" fill="#BD0000"/>
<path id="Vector_73" d="M2.62941 24.3218C2.46982 24.9554 2.64819 25.5046 2.95798 25.5046C3.26778 25.5046 3.38982 24.9601 3.52125 24.3218C3.65737 23.6412 3.83104 23.1389 3.52125 23.1389C3.21145 23.1389 2.82186 23.5473 2.62941 24.3218Z" fill="#E50000"/>
<path id="Vector_74" d="M2.31494 27.1287C2.31494 27.7812 2.54494 28.3116 2.82188 28.3116C3.09882 28.3116 3.33351 27.7859 3.33351 27.1287C3.33351 26.4763 3.10351 25.9459 2.82657 25.9459C2.54963 25.9459 2.31494 26.4763 2.31494 27.1287Z" fill="#E50000"/>
<path id="Vector_75" d="M4.53509 24.5799C5.62129 24.5799 6.50182 24.1029 6.50182 23.5144C6.50182 22.926 5.62129 22.4489 4.53509 22.4489C3.44889 22.4489 2.56836 22.926 2.56836 23.5144C2.56836 24.1029 3.44889 24.5799 4.53509 24.5799Z" fill="white"/>
</g>
<path id="Vector_76" d="M13.7727 25.9459C13.7727 26.8705 13.0217 27.6216 12.097 27.6216C11.1723 27.6216 10.4213 26.8705 10.4213 25.9459C10.4213 25.0212 11.1723 24.2701 12.097 24.2701C13.0217 24.2701 13.7727 25.0212 13.7727 25.9459Z" fill="white"/>
<g id="Group_27">
<path id="Vector_77" d="M24.7845 26.495H21.7335C21.189 26.495 20.7478 26.0491 20.7478 25.5093C20.7478 24.9648 21.1937 24.5236 21.7335 24.5236H24.7845C25.329 24.5236 25.7702 24.9695 25.7702 25.5093C25.7702 26.0491 25.3243 26.495 24.7845 26.495Z" fill="url(#paint21_linear_1_480)"/>
<path id="Vector_78" d="M25.2492 26.0256H22.048C21.7617 26.0256 21.527 25.7909 21.527 25.5046C21.527 25.2183 21.7617 24.9836 22.048 24.9836H25.2539C25.5402 24.9836 25.7749 25.2183 25.7749 25.5046C25.7702 25.7956 25.5355 26.0256 25.2492 26.0256Z" fill="url(#paint22_linear_1_480)"/>
</g>
<g id="Group_28">
<path id="Vector_79" d="M46.0055 27.6356H42.9545C42.41 27.6356 41.9688 27.1897 41.9688 26.6499C41.9688 26.1054 42.4147 25.6642 42.9545 25.6642H46.0055C46.55 25.6642 46.9912 26.1101 46.9912 26.6499C46.9959 27.1897 46.55 27.6356 46.0055 27.6356Z" fill="url(#paint23_linear_1_480)"/>
<path id="Vector_80" d="M46.428 27.1663H43.2221C42.9357 27.1663 42.701 26.9316 42.701 26.6452C42.701 26.3589 42.9357 26.1242 43.2221 26.1242H46.428C46.7143 26.1242 46.949 26.3589 46.949 26.6452C46.9443 26.9363 46.7143 27.1663 46.428 27.1663Z" fill="url(#paint24_linear_1_480)"/>
</g>
<g id="Group_29">
<path id="Vector_81" d="M68.3811 27.7624C68.3811 28.0909 67.8132 28.3585 67.1185 28.3585C66.4191 28.3585 65.8558 28.0909 65.8558 27.7624C65.8558 27.4338 66.4238 27.1662 67.1185 27.1662C67.8132 27.1662 68.3811 27.4338 68.3811 27.7624Z" fill="#DD5600"/>
<path id="Vector_82" d="M68.3811 27.7624C68.3811 28.0909 67.8132 28.3585 67.1185 28.3585C66.4191 28.3585 65.8558 28.0909 65.8558 27.7624C65.8558 27.4338 66.4238 27.1662 67.1185 27.1662C67.8132 27.1662 68.3811 27.4338 68.3811 27.7624Z" fill="url(#paint25_linear_1_480)"/>
</g>
<g id="Group_30">
<path id="Vector_83" d="M65.0579 23.3032C65.0579 23.3032 60.9836 22.1438 60.6692 21.7683C60.3594 21.3928 59.1624 19.3744 58.6743 19.243C58.1861 19.1116 56.8577 18.7548 56.501 19.243C56.1443 19.7312 55.75 22.2658 56.7216 22.6132C57.6932 22.9605 59.139 22.5709 59.5802 22.7916C59.7351 22.8667 60.073 23.1014 60.58 23.1577L65.0579 23.3032Z" fill="#D1DFEA"/>
<path id="Vector_84" d="M60.5847 22.3785C60.0777 22.3222 59.7398 22.0875 59.5849 22.0124C59.1436 21.7918 57.6932 22.186 56.7263 21.834C56.3555 21.6979 56.1818 21.2426 56.1349 20.7075C56.0691 21.5336 56.1818 22.416 56.7263 22.6132C57.6979 22.9605 59.1436 22.5709 59.5849 22.7916C59.7398 22.8667 60.0777 23.1013 60.5847 23.1577L65.0579 23.3079C65.0579 23.3079 63.5042 22.8667 62.2416 22.4395L60.5847 22.3785Z" fill="url(#paint26_linear_1_480)"/>
</g>
<g id="Group_31">
<path id="Vector_85" d="M14.0524 45.2705C17.7284 45.2705 20.7083 42.2906 20.7083 38.6146C20.7083 34.9387 17.7284 31.9587 14.0524 31.9587C10.3764 31.9587 7.39648 34.9387 7.39648 38.6146C7.39648 42.2906 10.3764 45.2705 14.0524 45.2705Z" fill="#191919"/>
<path id="Vector_86" d="M19.0096 39.342C19.4558 36.6017 17.596 34.0185 14.8557 33.5724C12.1154 33.1262 9.53223 34.986 9.08606 37.7263C8.63989 40.4666 10.4997 43.0498 13.24 43.4959C15.9803 43.9421 18.5635 42.0823 19.0096 39.342Z" fill="black"/>
<path id="Vector_87" d="M17.3308 41.8974C19.1418 40.0864 19.1418 37.1501 17.3308 35.339C15.5197 33.528 12.5834 33.5279 10.7724 35.339C8.96132 37.1501 8.96132 40.0864 10.7724 41.8974C12.5834 43.7085 15.5197 43.7085 17.3308 41.8974Z" fill="#46676C"/>
<g id="Group_32">
<path id="Vector_88" d="M14.0524 33.8923C11.4426 33.8923 9.32568 36.0093 9.32568 38.6191C9.32568 41.2289 11.4426 43.3458 14.0524 43.3458C16.6622 43.3458 18.7791 41.2289 18.7791 38.6191C18.7791 36.0093 16.6622 33.8923 14.0524 33.8923ZM14.0524 42.1348C12.0763 42.1348 10.4757 40.5342 10.4757 38.558C10.4757 36.5819 12.0763 34.9813 14.0524 34.9813C16.0285 34.9813 17.6291 36.5819 17.6291 38.558C17.6244 40.5342 16.0238 42.1348 14.0524 42.1348Z" fill="url(#paint27_linear_1_480)"/>
<path id="Vector_89" d="M14.0525 33.8832C15.071 33.8926 14.6627 37.9058 14.6627 37.9058C14.6627 37.9058 18.2065 36.1973 18.5257 37.1314C18.8496 38.0701 14.9631 38.9009 14.9631 38.9009C14.9631 38.9009 17.6057 41.7924 16.8172 42.3885C16.0239 42.9846 13.9539 39.6285 13.9539 39.6285C13.9539 39.6285 12.0717 42.9424 11.2878 42.3885C10.5086 41.8346 13.0104 38.9714 13.0104 38.9714C13.0104 38.9714 9.26003 38.0514 9.57921 37.1314C9.8937 36.2207 13.3672 37.8026 13.3672 37.8026C13.3672 37.8026 13.0574 33.8738 14.0525 33.8832Z" fill="url(#paint28_linear_1_480)"/>
<path id="Vector_90" d="M15.6671 38.6193C15.6671 39.5111 14.9443 40.2387 14.0477 40.2387C13.1512 40.2387 12.4283 39.5158 12.4283 38.6193C12.4283 37.7275 13.1512 36.9999 14.0477 36.9999C14.9443 36.9999 15.6671 37.7228 15.6671 38.6193Z" fill="url(#paint29_linear_1_480)"/>
<g id="Group_33">
<g id="Group_34">
<path id="Vector_91" d="M13.644 37.704C13.644 37.8542 13.5219 37.9762 13.3717 37.9762C13.2215 37.9762 13.0995 37.8542 13.0995 37.704C13.0995 37.5538 13.2215 37.4318 13.3717 37.4318C13.5219 37.4318 13.644 37.5538 13.644 37.704Z" fill="#46676C"/>
<path id="Vector_92" d="M15.038 37.704C15.038 37.8542 14.916 37.9762 14.7658 37.9762C14.6156 37.9762 14.4935 37.8542 14.4935 37.704C14.4935 37.5538 14.6156 37.4318 14.7658 37.4318C14.916 37.4318 15.038 37.5538 15.038 37.704Z" fill="#46676C"/>
<path id="Vector_93" d="M15.4229 38.915C15.4229 39.0652 15.3009 39.1873 15.1507 39.1873C15.0005 39.1873 14.8784 39.0652 14.8784 38.915C14.8784 38.7648 15.0005 38.6428 15.1507 38.6428C15.3056 38.6475 15.4229 38.7648 15.4229 38.915Z" fill="#46676C"/>
<path id="Vector_94" d="M13.2169 38.915C13.2169 39.0652 13.0948 39.1873 12.9446 39.1873C12.7944 39.1873 12.6724 39.0652 12.6724 38.915C12.6724 38.7648 12.7944 38.6428 12.9446 38.6428C13.0948 38.6475 13.2169 38.7648 13.2169 38.915Z" fill="#46676C"/>
<path id="Vector_95" d="M14.2776 39.7364C14.2776 39.8867 14.1556 40.0087 14.0054 40.0087C13.8552 40.0087 13.7332 39.8867 13.7332 39.7364C13.7332 39.5862 13.8552 39.4642 14.0054 39.4642C14.1603 39.4689 14.2776 39.5909 14.2776 39.7364Z" fill="#46676C"/>
</g>
</g>
<path id="Vector_96" d="M14.8176 38.6193C14.8176 39.0418 14.4749 39.3844 14.0525 39.3844C13.63 39.3844 13.2874 39.0418 13.2874 38.6193C13.2874 38.1969 13.63 37.8542 14.0525 37.8542C14.4749 37.8542 14.8176 38.1969 14.8176 38.6193Z" fill="url(#paint30_linear_1_480)"/>
</g>
</g>
</g>
<path id="Vector_97" d="M75.9824 39.0325C75.9824 40.8518 74.5087 42.3256 72.6893 42.3256C70.87 42.3256 69.3962 40.8518 69.3962 39.0325C69.3962 37.2131 70.87 35.7394 72.6893 35.7394C74.5087 35.7394 75.9824 37.2131 75.9824 39.0325Z" fill="#232121"/>
<path id="Vector_98" d="M59.238 86H37V92.3266H59.238V86Z" fill="#3D3D3D"/>
<g id="Group_35">
<g id="Group_36">
<path id="Vector_99" d="M38.7826 4.60617H33.782V94.2416H38.7826V4.60617Z" fill="#758B9B"/>
<path id="Vector_100" d="M40.1547 93.2862L38.559 94.2518V4.60617L40.1547 5.57174V93.2862Z" fill="#414E5B"/>
</g>
<path id="Vector_101" d="M43.5698 8.22453C43.5698 8.6819 43.2649 9.0478 42.899 9.0478H41.1101C40.7341 9.0478 40.4393 8.6819 40.4393 8.22453V3.28487C40.4393 2.82749 40.7442 2.46159 41.1101 2.46159H42.899C43.2649 2.46159 43.5698 2.82749 43.5698 3.28487V8.22453Z" fill="#758B9B"/>
<path id="Vector_102" d="M44.1187 4.89076C44.1187 5.34813 43.8036 5.71403 43.4174 5.71403H33.9039C33.5177 5.71403 33.2026 5.34813 33.2026 4.89076V1.0488C33.2026 0.591425 33.5177 0.225525 33.9039 0.225525H43.4174C43.8036 0.225525 44.1187 0.591425 44.1187 1.0488V4.89076Z" fill="#414E5B"/>
</g>
<path id="Vector_103" d="M48.238 93H26V99.3266H48.238V93Z" fill="#7F7F7F"/>
</g>
<defs>
<linearGradient id="paint0_linear_1_480" x1="64.0515" y1="66.3822" x2="71.2304" y2="40.1035" gradientUnits="userSpaceOnUse">
<stop offset="0.1209" stop-color="white"/>
<stop offset="0.2227" stop-color="#FBFBFB"/>
<stop offset="0.3291" stop-color="#EEEEEE"/>
<stop offset="0.4376" stop-color="#D9D9D9"/>
<stop offset="0.5477" stop-color="#BCBCBC"/>
<stop offset="0.6589" stop-color="#969696"/>
<stop offset="0.7695" stop-color="#696969"/>
<stop offset="0.7802" stop-color="#646464"/>
</linearGradient>
<linearGradient id="paint1_linear_1_480" x1="11.5485" y1="17.1501" x2="11.5485" y2="15.1047" gradientUnits="userSpaceOnUse">
<stop stop-color="#EAEFF4"/>
<stop offset="0.5057" stop-color="#F7F9FB"/>
<stop offset="1" stop-color="white"/>
</linearGradient>
<linearGradient id="paint2_linear_1_480" x1="44.8243" y1="40.5331" x2="44.8243" y2="12.9589" gradientUnits="userSpaceOnUse">
<stop stop-color="#B5BFBF"/>
<stop offset="0.1315" stop-color="#CBD2D2"/>
<stop offset="0.3102" stop-color="#E2E6E6"/>
<stop offset="0.503" stop-color="#F2F4F4"/>
<stop offset="0.7179" stop-color="#FCFCFC"/>
<stop offset="1" stop-color="white"/>
</linearGradient>
<linearGradient id="paint3_linear_1_480" x1="84.9199" y1="37.4127" x2="88.8639" y2="37.4127" gradientUnits="userSpaceOnUse">
<stop stop-color="#B2B2B2"/>
<stop offset="0.3086" stop-color="#B5B5B5"/>
<stop offset="0.5136" stop-color="#BEBEBE"/>
<stop offset="0.6884" stop-color="#CDCDCD"/>
<stop offset="0.8454" stop-color="#E2E2E2"/>
<stop offset="0.9907" stop-color="#FDFDFD"/>
<stop offset="1" stop-color="white"/>
</linearGradient>
<linearGradient id="paint4_linear_1_480" x1="52.5613" y1="14.9787" x2="52.5613" y2="22.9089" gradientUnits="userSpaceOnUse">
<stop stop-color="#B5BFBF"/>
<stop offset="1" stop-color="white"/>
</linearGradient>
<linearGradient id="paint5_linear_1_480" x1="31.6984" y1="14.8324" x2="31.6984" y2="22.446" gradientUnits="userSpaceOnUse">
<stop stop-color="#B5BFBF"/>
<stop offset="1" stop-color="white"/>
</linearGradient>
<linearGradient id="paint6_linear_1_480" x1="63.6156" y1="34.7858" x2="81.4249" y2="34.7858" gradientUnits="userSpaceOnUse">
<stop stop-color="#706F6F"/>
<stop offset="0.2465" stop-color="#888888"/>
<stop offset="0.7474" stop-color="#B5B5B5"/>
<stop offset="1" stop-color="#C6C6C6"/>
</linearGradient>
<linearGradient id="paint7_linear_1_480" x1="5.59043" y1="34.4948" x2="22.9041" y2="34.4948" gradientUnits="userSpaceOnUse">
<stop stop-color="#706F6F"/>
<stop offset="0.2465" stop-color="#888888"/>
<stop offset="0.7474" stop-color="#B5B5B5"/>
<stop offset="1" stop-color="#C6C6C6"/>
</linearGradient>
<linearGradient id="paint8_linear_1_480" x1="85.3337" y1="33.4708" x2="85.3337" y2="31.2321" gradientUnits="userSpaceOnUse">
<stop stop-color="#E8EAFF"/>
<stop offset="0.0962" stop-color="#D9E8E6"/>
<stop offset="1" stop-color="white"/>
</linearGradient>
<linearGradient id="paint9_linear_1_480" x1="44.4805" y1="27.2363" x2="44.4805" y2="22.2097" gradientUnits="userSpaceOnUse">
<stop stop-color="#E8EAFF"/>
<stop offset="0.0962" stop-color="#D9E8E6"/>
<stop offset="1" stop-color="white"/>
</linearGradient>
<linearGradient id="paint10_linear_1_480" x1="52.3006" y1="39.4621" x2="52.3006" y2="24.6104" gradientUnits="userSpaceOnUse">
<stop stop-color="#E8EAFF"/>
<stop offset="0.0962" stop-color="#D9E8E6"/>
<stop offset="1" stop-color="white"/>
</linearGradient>
<linearGradient id="paint11_linear_1_480" x1="39.0443" y1="39.914" x2="57.7795" y2="26.9779" gradientUnits="userSpaceOnUse">
<stop stop-color="#EAEFF4"/>
<stop offset="0.5057" stop-color="#F7F9FB"/>
<stop offset="1" stop-color="white"/>
</linearGradient>
<linearGradient id="paint12_linear_1_480" x1="28.5694" y1="39.3642" x2="28.5694" y2="23.0483" gradientUnits="userSpaceOnUse">
<stop stop-color="#E8EAFF"/>
<stop offset="0.0962" stop-color="#D9E8E6"/>
<stop offset="1" stop-color="white"/>
</linearGradient>
<linearGradient id="paint13_linear_1_480" x1="26.0659" y1="38.3911" x2="33.6142" y2="23.9262" gradientUnits="userSpaceOnUse">
<stop stop-color="#EAEFF4"/>
<stop offset="0.5057" stop-color="#F7F9FB"/>
<stop offset="1" stop-color="white"/>
</linearGradient>
<linearGradient id="paint14_linear_1_480" x1="42.5798" y1="39.6978" x2="42.5798" y2="34.2591" gradientUnits="userSpaceOnUse">
<stop stop-color="white"/>
<stop offset="0.1671" stop-color="#E1E1E1"/>
<stop offset="0.4177" stop-color="#BABABA"/>
<stop offset="0.6485" stop-color="#9E9E9E"/>
<stop offset="0.85" stop-color="#8D8D8D"/>
<stop offset="1" stop-color="#878787"/>
</linearGradient>
<linearGradient id="paint15_linear_1_480" x1="82.2616" y1="30.8606" x2="84.1774" y2="27.6269" gradientUnits="userSpaceOnUse">
<stop stop-color="#B5BFBF"/>
<stop offset="1" stop-color="white"/>
</linearGradient>
<linearGradient id="paint16_linear_1_480" x1="85.8353" y1="31.3427" x2="87.0044" y2="29.3694" gradientUnits="userSpaceOnUse">
<stop stop-color="#B5BFBF"/>
<stop offset="1" stop-color="white"/>
</linearGradient>
<linearGradient id="paint17_linear_1_480" x1="77.8859" y1="29.3689" x2="88.4049" y2="29.3689" gradientUnits="userSpaceOnUse">
<stop stop-color="#1D1D1B"/>
<stop offset="1" stop-color="white"/>
</linearGradient>
<linearGradient id="paint18_linear_1_480" x1="79.484" y1="28.596" x2="87.3664" y2="28.596" gradientUnits="userSpaceOnUse">
<stop stop-color="#878787"/>
<stop offset="1" stop-color="white"/>
</linearGradient>
<linearGradient id="paint19_linear_1_480" x1="2.82321" y1="24.3233" x2="9.33539" y2="24.3233" gradientUnits="userSpaceOnUse">
<stop stop-color="white"/>
<stop offset="1" stop-color="#878787"/>
</linearGradient>
<linearGradient id="paint20_linear_1_480" x1="2.82321" y1="27.1303" x2="7.04821" y2="27.1303" gradientUnits="userSpaceOnUse">
<stop stop-color="white"/>
<stop offset="1" stop-color="#878787"/>
</linearGradient>
<linearGradient id="paint21_linear_1_480" x1="23.2573" y1="24.6364" x2="23.2573" y2="29.6627" gradientUnits="userSpaceOnUse">
<stop stop-color="#B5BFBF"/>
<stop offset="0.1315" stop-color="#CBD2D2"/>
<stop offset="0.3102" stop-color="#E2E6E6"/>
<stop offset="0.503" stop-color="#F2F4F4"/>
<stop offset="0.7179" stop-color="#FCFCFC"/>
<stop offset="1" stop-color="white"/>
</linearGradient>
<linearGradient id="paint22_linear_1_480" x1="23.6485" y1="25.0493" x2="23.6485" y2="26.0642" gradientUnits="userSpaceOnUse">
<stop stop-color="white"/>
<stop offset="0.2821" stop-color="#FCFCFC"/>
<stop offset="0.497" stop-color="#F2F4F4"/>
<stop offset="0.6898" stop-color="#E2E6E6"/>
<stop offset="0.8685" stop-color="#CBD2D2"/>
<stop offset="1" stop-color="#B5BFBF"/>
</linearGradient>
<linearGradient id="paint23_linear_1_480" x1="44.4804" y1="25.7766" x2="44.4804" y2="30.8028" gradientUnits="userSpaceOnUse">
<stop stop-color="#B5BFBF"/>
<stop offset="0.1315" stop-color="#CBD2D2"/>
<stop offset="0.3102" stop-color="#E2E6E6"/>
<stop offset="0.503" stop-color="#F2F4F4"/>
<stop offset="0.7179" stop-color="#FCFCFC"/>
<stop offset="1" stop-color="white"/>
</linearGradient>
<linearGradient id="paint24_linear_1_480" x1="44.8244" y1="26.1895" x2="44.8244" y2="27.2044" gradientUnits="userSpaceOnUse">
<stop stop-color="white"/>
<stop offset="0.2821" stop-color="#FCFCFC"/>
<stop offset="0.497" stop-color="#F2F4F4"/>
<stop offset="0.6898" stop-color="#E2E6E6"/>
<stop offset="0.8685" stop-color="#CBD2D2"/>
<stop offset="1" stop-color="#B5BFBF"/>
</linearGradient>
<linearGradient id="paint25_linear_1_480" x1="67.1163" y1="28.4233" x2="67.1163" y2="25.8945" gradientUnits="userSpaceOnUse">
<stop stop-color="#B5BFBF"/>
<stop offset="1" stop-color="white"/>
</linearGradient>
<linearGradient id="paint26_linear_1_480" x1="60.5842" y1="23.1305" x2="60.5842" y2="21.3341" gradientUnits="userSpaceOnUse">
<stop stop-color="#9FB2B2"/>
<stop offset="0.2154" stop-color="#A3B5B5"/>
<stop offset="0.4165" stop-color="#AEBEBE"/>
<stop offset="0.6119" stop-color="#C1CDCD"/>
<stop offset="0.8037" stop-color="#DBE2E2"/>
<stop offset="0.9914" stop-color="#FDFEFE"/>
<stop offset="1" stop-color="white"/>
</linearGradient>
<linearGradient id="paint27_linear_1_480" x1="14.0508" y1="42.7118" x2="14.0508" y2="36.1696" gradientUnits="userSpaceOnUse">
<stop stop-color="#9FB2B2"/>
<stop offset="0.3294" stop-color="#A3B4B4"/>
<stop offset="0.6368" stop-color="#AEBABA"/>
<stop offset="0.9345" stop-color="#C1C3C3"/>
<stop offset="1" stop-color="#C6C6C6"/>
</linearGradient>
<linearGradient id="paint28_linear_1_480" x1="14.0509" y1="41.8867" x2="14.0509" y2="35.9529" gradientUnits="userSpaceOnUse">
<stop stop-color="#9FB2B2"/>
<stop offset="0.3294" stop-color="#A3B4B4"/>
<stop offset="0.6368" stop-color="#AEBABA"/>
<stop offset="0.9345" stop-color="#C1C3C3"/>
<stop offset="1" stop-color="#C6C6C6"/>
</linearGradient>
<linearGradient id="paint29_linear_1_480" x1="14.0508" y1="40.0195" x2="14.0508" y2="37.7807" gradientUnits="userSpaceOnUse">
<stop stop-color="#9FB2B2"/>
<stop offset="0.3294" stop-color="#A3B4B4"/>
<stop offset="0.6368" stop-color="#AEBABA"/>
<stop offset="0.9345" stop-color="#C1C3C3"/>
<stop offset="1" stop-color="#C6C6C6"/>
</linearGradient>
<linearGradient id="paint30_linear_1_480" x1="14.0509" y1="39.2827" x2="14.0509" y2="38.2215" gradientUnits="userSpaceOnUse">
<stop stop-color="#9FB2B2"/>
<stop offset="0.3294" stop-color="#A3B4B4"/>
<stop offset="0.6368" stop-color="#AEBABA"/>
<stop offset="0.9345" stop-color="#C1C3C3"/>
<stop offset="1" stop-color="#C6C6C6"/>
</linearGradient>
</defs>
</svg>
